<?xml version="1.0" encoding="utf-8"?>
<!-- Generator: Adobe Illustrator 15.1.0, SVG Export Plug-In  -->
<!DOCTYPE svg PUBLIC "-//W3C//DTD SVG 1.1//EN" "http://www.w3.org/Graphics/SVG/1.1/DTD/svg11.dtd" [
	<!ENTITY ns_flows "http://ns.adobe.com/Flows/1.0/">
]>
<svg version="1.1"
	 xmlns="http://www.w3.org/2000/svg" xmlns:xlink="http://www.w3.org/1999/xlink" xmlns:a="http://ns.adobe.com/AdobeSVGViewerExtensions/3.0/"
	 x="0px" y="0px" width="1782px" height="306px" viewBox="-15 -11.333 1782 306" enable-background="new -15 -11.333 1782 306"
	 xml:space="preserve">
<defs>
</defs>
<polygon fill="#33CC66" points="462.333,64.667 554,64.667 554,9.667 306.333,9.667 306.333,64.667 397,64.667 397,139.292 
	462.333,139.292 "/>
<rect x="397" y="146.292" fill="#33CC66" width="65.333" height="128.042"/>
<path fill="#33CC66" d="M687,59.333c44.747,0,81.166,35.559,82.598,79.958h59.368C827.521,62.118,764.519,0,687,0
	S546.479,62.118,545.034,139.292h59.368C605.834,94.893,642.253,59.333,687,59.333z"/>
<path fill="#33CC66" d="M687,224.667c-44.216,0-80.323-34.714-82.556-78.375H545.07C547.34,222.73,610.012,284,687,284
	s139.66-61.271,141.93-137.709h-59.374C767.323,189.953,731.216,224.667,687,224.667z"/>
<polygon fill="#33CC66" points="999.666,116.333 1005.394,139.292 1061.782,139.292 1030.333,10 968,10 936.8,139.292 
	994.133,139.292 "/>
<polygon fill="#33CC66" points="886.333,10 827,10 858.017,139.292 916.285,139.292 "/>
<polygon fill="#33CC66" points="926.333,182.667 917.907,146.292 859.696,146.292 890.333,274 961.667,274 992.446,146.292 
	935.111,146.292 "/>
<polygon fill="#33CC66" points="1172.333,10 1113.667,10 1082.717,139.292 1140.989,139.292 "/>
<polygon fill="#33CC66" points="1072.333,182.667 1063.485,146.292 1007.14,146.292 1039,274 1108.333,274 1139.293,146.292 
	1081.041,146.292 "/>
<path fill="#33CC66" d="M1259,70.667h24.667c0,0,12.426,31.583,27.067,68.625h60.777c-18.486-46.342-40.695-102.51-43.845-111.958
	c-5.334-16-22-17.333-28-17.333s-100,0-100,0v129.292H1259V70.667z"/>
<rect x="1199.667" y="146.292" fill="#33CC66" width="59.333" height="127.709"/>
<path fill="#33CC66" d="M1404.333,210c0,0-3.333,1.999-7.333-7.334c-1.518-3.541-11.099-27.337-22.694-56.375h-60.803
	c17.96,45.413,38.221,96.405,42.83,107.042C1365,273.333,1377.667,274,1397,274s64.667,0,64.667,0V146.292h-57.334V210z"/>
<rect x="1404.333" y="10" fill="#33CC66" width="57.334" height="129.292"/>
<path fill="#33CC66" d="M1656.13,83.333c-57.896,0-90.883,0-98.289,0S1546.396,80,1546.396,76s2.693-8.667,7.405-8.667
	s173.015,0,173.015,0V10c0,0-125.89,0-173.015,0S1488.5,49.333,1488.5,76c0,26.169,8.434,61.966,64.738,63.292h183.883
	C1724.111,109.601,1696.508,83.333,1656.13,83.333z"/>
<path fill="#33CC66" d="M1685.077,177.333c0,22-20.868,38-40.392,38s-156.186,0-156.186,0V274c0,0,95.597,0,159.551,0
	c63.955,0,97.616-55.333,97.616-96c0-10.092-1.951-21.004-5.766-31.709h-71.823C1677.738,153.002,1685.077,164.075,1685.077,177.333
	z"/>
<polygon fill="#33CC66" points="167.465,274.333 225.95,274.333 225.95,246.726 210.693,246.726 210.693,201.319 244.477,274.333 
	264.819,274.333 292.791,203.68 292.791,246.726 282.256,246.726 282.256,274.333 352.002,274.333 352.002,246.726 336.109,246.726 
	336.019,170.079 352.002,170.079 352.002,144.922 289.033,144.922 261.005,210.763 230.672,144.892 167.465,144.892 
	167.465,170.079 182.358,170.079 182.358,246.726 167.465,246.726 "/>
<polygon fill="#33CC66" points="0,144.892 0,172.136 14.465,172.136 14.465,247.718 0,247.718 0,274.117 75.582,274.117 
	75.582,247.762 60.077,247.762 60.077,228.234 104.152,228.234 104.152,201.473 60.755,201.473 60.755,172.18 115.001,172.18 
	115.001,197.45 151.165,197.45 151.165,144.892 "/>
</svg>
