%TF.GenerationSoftware,KiCad,Pcbnew,(5.1.9)-1*%
%TF.CreationDate,2021-07-01T20:44:51-05:00*%
%TF.ProjectId,FM Towns Pico Adapter,464d2054-6f77-46e7-9320-5069636f2041,rev?*%
%TF.SameCoordinates,Original*%
%TF.FileFunction,Copper,L1,Top*%
%TF.FilePolarity,Positive*%
%FSLAX46Y46*%
G04 Gerber Fmt 4.6, Leading zero omitted, Abs format (unit mm)*
G04 Created by KiCad (PCBNEW (5.1.9)-1) date 2021-07-01 20:44:51*
%MOMM*%
%LPD*%
G01*
G04 APERTURE LIST*
%TA.AperFunction,ComponentPad*%
%ADD10C,7.000000*%
%TD*%
%TA.AperFunction,ComponentPad*%
%ADD11C,0.800000*%
%TD*%
%TA.AperFunction,ComponentPad*%
%ADD12C,1.600000*%
%TD*%
%TA.AperFunction,ComponentPad*%
%ADD13R,1.600000X1.600000*%
%TD*%
%TA.AperFunction,ComponentPad*%
%ADD14O,1.700000X1.700000*%
%TD*%
%TA.AperFunction,ComponentPad*%
%ADD15R,1.700000X1.700000*%
%TD*%
%TA.AperFunction,ComponentPad*%
%ADD16C,2.900000*%
%TD*%
%TA.AperFunction,ComponentPad*%
%ADD17C,4.200000*%
%TD*%
%TA.AperFunction,ComponentPad*%
%ADD18C,1.300000*%
%TD*%
%TA.AperFunction,ComponentPad*%
%ADD19R,1.300000X1.300000*%
%TD*%
%TA.AperFunction,ViaPad*%
%ADD20C,0.800000*%
%TD*%
%TA.AperFunction,Conductor*%
%ADD21C,0.750000*%
%TD*%
%TA.AperFunction,Conductor*%
%ADD22C,1.000000*%
%TD*%
%TA.AperFunction,Conductor*%
%ADD23C,2.000000*%
%TD*%
%TA.AperFunction,Conductor*%
%ADD24C,0.254000*%
%TD*%
%TA.AperFunction,Conductor*%
%ADD25C,0.100000*%
%TD*%
G04 APERTURE END LIST*
D10*
%TO.P,PAD2,1*%
%TO.N,N/C*%
X149523500Y-133373000D03*
D11*
X149523500Y-130748000D03*
X151379655Y-131516845D03*
X152148500Y-133373000D03*
X151379655Y-135229155D03*
X149523500Y-135998000D03*
X147667345Y-135229155D03*
X146898500Y-133373000D03*
X147667345Y-131516845D03*
%TD*%
D10*
%TO.P,PAD1,1*%
%TO.N,N/C*%
X194227500Y-133817500D03*
D11*
X194227500Y-131192500D03*
X196083655Y-131961345D03*
X196852500Y-133817500D03*
X196083655Y-135673655D03*
X194227500Y-136442500D03*
X192371345Y-135673655D03*
X191602500Y-133817500D03*
X192371345Y-131961345D03*
%TD*%
D10*
%TO.P,PAD3,1*%
%TO.N,N/C*%
X149714000Y-63713500D03*
D11*
X149714000Y-61088500D03*
X151570155Y-61857345D03*
X152339000Y-63713500D03*
X151570155Y-65569655D03*
X149714000Y-66338500D03*
X147857845Y-65569655D03*
X147089000Y-63713500D03*
X147857845Y-61857345D03*
%TD*%
D10*
%TO.P,PAD4,1*%
%TO.N,N/C*%
X194164000Y-63459500D03*
D11*
X194164000Y-60834500D03*
X196020155Y-61603345D03*
X196789000Y-63459500D03*
X196020155Y-65315655D03*
X194164000Y-66084500D03*
X192307845Y-65315655D03*
X191539000Y-63459500D03*
X192307845Y-61603345D03*
%TD*%
D12*
%TO.P,U1,24*%
%TO.N,/5V_STBY*%
X72993160Y-155795960D03*
%TO.P,U1,23*%
%TO.N,GND*%
X70453160Y-155795960D03*
%TO.P,U1,22*%
%TO.N,Net-(U1-Pad22)*%
X67913160Y-155795960D03*
%TO.P,U1,21*%
%TO.N,Net-(U1-Pad21)*%
X65373160Y-155795960D03*
%TO.P,U1,20*%
%TO.N,Net-(U1-Pad20)*%
X62833160Y-155795960D03*
%TO.P,U1,19*%
%TO.N,Net-(U1-Pad19)*%
X60293160Y-155795960D03*
%TO.P,U1,18*%
%TO.N,Net-(U1-Pad18)*%
X57753160Y-155795960D03*
%TO.P,U1,17*%
%TO.N,Net-(U1-Pad17)*%
X55213160Y-155795960D03*
%TO.P,U1,16*%
%TO.N,Net-(U1-Pad16)*%
X52673160Y-155795960D03*
%TO.P,U1,15*%
%TO.N,Net-(U1-Pad15)*%
X50133160Y-155795960D03*
%TO.P,U1,14*%
%TO.N,Net-(U1-Pad14)*%
X47593160Y-155795960D03*
%TO.P,U1,13*%
%TO.N,Net-(U1-Pad13)*%
X45053160Y-155795960D03*
%TO.P,U1,12*%
%TO.N,Net-(U1-Pad12)*%
X45053160Y-140555960D03*
%TO.P,U1,11*%
%TO.N,Net-(U1-Pad11)*%
X47593160Y-140555960D03*
%TO.P,U1,10*%
%TO.N,Net-(U1-Pad10)*%
X50133160Y-140555960D03*
%TO.P,U1,9*%
%TO.N,/FM_PS_ON_N*%
X52673160Y-140555960D03*
%TO.P,U1,8*%
%TO.N,Net-(U1-Pad8)*%
X55213160Y-140555960D03*
%TO.P,U1,7*%
%TO.N,/FM_PS_OFF_N*%
X57753160Y-140555960D03*
%TO.P,U1,6*%
%TO.N,/PS_ON*%
X60293160Y-140555960D03*
%TO.P,U1,5*%
%TO.N,Net-(U1-Pad5)*%
X62833160Y-140555960D03*
%TO.P,U1,4*%
%TO.N,GND*%
X65373160Y-140555960D03*
%TO.P,U1,3*%
X67913160Y-140555960D03*
%TO.P,U1,2*%
%TO.N,Net-(U1-Pad2)*%
X70453160Y-140555960D03*
D13*
%TO.P,U1,1*%
%TO.N,Net-(U1-Pad1)*%
X72993160Y-140555960D03*
%TD*%
D14*
%TO.P,STOCK_FAN,2*%
%TO.N,+12V*%
X224140000Y-157510000D03*
D15*
%TO.P,STOCK_FAN,1*%
%TO.N,GND*%
X224140000Y-160050000D03*
%TD*%
D16*
%TO.P,J1,24*%
%TO.N,GND*%
X62857140Y-122170600D03*
%TO.P,J1,23*%
%TO.N,+5V*%
X62857140Y-117970600D03*
%TO.P,J1,22*%
X62857140Y-113770600D03*
%TO.P,J1,21*%
X62857140Y-109570600D03*
%TO.P,J1,20*%
%TO.N,Net-(J1-Pad20)*%
X62857140Y-105370600D03*
%TO.P,J1,19*%
%TO.N,GND*%
X62857140Y-101170600D03*
%TO.P,J1,18*%
X62857140Y-96970600D03*
%TO.P,J1,17*%
X62857140Y-92770600D03*
%TO.P,J1,16*%
%TO.N,/PS_ON*%
X62857140Y-88570600D03*
%TO.P,J1,15*%
%TO.N,GND*%
X62857140Y-84370600D03*
%TO.P,J1,14*%
%TO.N,-12V*%
X62857140Y-80170600D03*
%TO.P,J1,13*%
%TO.N,Net-(J1-Pad13)*%
X62857140Y-75970600D03*
%TO.P,J1,12*%
%TO.N,Net-(J1-Pad12)*%
X68357140Y-122170600D03*
%TO.P,J1,11*%
%TO.N,+12V*%
X68357140Y-117970600D03*
%TO.P,J1,10*%
X68357140Y-113770600D03*
%TO.P,J1,9*%
%TO.N,/5V_STBY*%
X68357140Y-109570600D03*
%TO.P,J1,8*%
%TO.N,Net-(J1-Pad8)*%
X68357140Y-105370600D03*
%TO.P,J1,7*%
%TO.N,GND*%
X68357140Y-101170600D03*
%TO.P,J1,6*%
%TO.N,+5V*%
X68357140Y-96970600D03*
%TO.P,J1,5*%
%TO.N,GND*%
X68357140Y-92770600D03*
%TO.P,J1,4*%
%TO.N,+5V*%
X68357140Y-88570600D03*
%TO.P,J1,3*%
%TO.N,GND*%
X68357140Y-84370600D03*
%TO.P,J1,2*%
%TO.N,Net-(J1-Pad2)*%
X68357140Y-80170600D03*
%TO.P,J1,1*%
%TO.N,Net-(J1-Pad1)*%
X68357140Y-75970600D03*
%TD*%
D17*
%TO.P,J2,MH2*%
%TO.N,Net-(J2-PadMH2)*%
X44196000Y-132842000D03*
%TO.P,J2,MH1*%
%TO.N,Net-(J2-PadMH1)*%
X44196000Y-64262000D03*
D18*
%TO.P,J2,B22*%
%TO.N,+5V*%
X49276000Y-125222000D03*
%TO.P,J2,B21*%
X49276000Y-122682000D03*
%TO.P,J2,B20*%
X49276000Y-120142000D03*
%TO.P,J2,B19*%
X49276000Y-117602000D03*
%TO.P,J2,B18*%
X49276000Y-115062000D03*
%TO.P,J2,B17*%
X49276000Y-112522000D03*
%TO.P,J2,B16*%
X49276000Y-109982000D03*
%TO.P,J2,B15*%
%TO.N,+12V*%
X49276000Y-107442000D03*
%TO.P,J2,B14*%
X49276000Y-104902000D03*
%TO.P,J2,B13*%
X49276000Y-102362000D03*
%TO.P,J2,B12*%
%TO.N,GND*%
X49276000Y-99822000D03*
%TO.P,J2,B11*%
X49276000Y-97282000D03*
%TO.P,J2,B10*%
X49276000Y-94742000D03*
%TO.P,J2,B9*%
X49276000Y-92202000D03*
%TO.P,J2,B8*%
X49276000Y-89662000D03*
%TO.P,J2,B7*%
X49276000Y-87122000D03*
%TO.P,J2,B6*%
X49276000Y-84582000D03*
%TO.P,J2,B5*%
X49276000Y-82042000D03*
%TO.P,J2,B4*%
X49276000Y-79502000D03*
%TO.P,J2,B3*%
X49276000Y-76962000D03*
%TO.P,J2,B2*%
X49276000Y-74422000D03*
%TO.P,J2,B1*%
%TO.N,/FM_PS_ON_N*%
X49276000Y-71882000D03*
%TO.P,J2,A22*%
%TO.N,+5V*%
X46736000Y-125222000D03*
%TO.P,J2,A21*%
X46736000Y-122682000D03*
%TO.P,J2,A20*%
X46736000Y-120142000D03*
%TO.P,J2,A19*%
X46736000Y-117602000D03*
%TO.P,J2,A18*%
X46736000Y-115062000D03*
%TO.P,J2,A17*%
X46736000Y-112522000D03*
%TO.P,J2,A16*%
X46736000Y-109982000D03*
%TO.P,J2,A15*%
%TO.N,+12V*%
X46736000Y-107442000D03*
%TO.P,J2,A14*%
X46736000Y-104902000D03*
%TO.P,J2,A13*%
%TO.N,-12V*%
X46736000Y-102362000D03*
%TO.P,J2,A12*%
%TO.N,GND*%
X46736000Y-99822000D03*
%TO.P,J2,A11*%
X46736000Y-97282000D03*
%TO.P,J2,A10*%
X46736000Y-94742000D03*
%TO.P,J2,A9*%
X46736000Y-92202000D03*
%TO.P,J2,A8*%
X46736000Y-89662000D03*
%TO.P,J2,A7*%
X46736000Y-87122000D03*
%TO.P,J2,A6*%
X46736000Y-84582000D03*
%TO.P,J2,A5*%
X46736000Y-82042000D03*
%TO.P,J2,A4*%
X46736000Y-79502000D03*
%TO.P,J2,A3*%
X46736000Y-76962000D03*
%TO.P,J2,A2*%
X46736000Y-74422000D03*
D19*
%TO.P,J2,A1*%
%TO.N,/FM_PS_OFF_N*%
X46736000Y-71882000D03*
%TD*%
D20*
%TO.N,GND*%
X55758080Y-110088680D03*
%TD*%
D21*
%TO.N,GND*%
X70453160Y-143095960D02*
X67913160Y-140555960D01*
X70453160Y-155795960D02*
X70453160Y-143095960D01*
X67913160Y-140555960D02*
X65373160Y-140555960D01*
X74707200Y-160050000D02*
X224140000Y-160050000D01*
X70453160Y-155795960D02*
X74707200Y-160050000D01*
D22*
X55758080Y-108269660D02*
X62857140Y-101170600D01*
X55758080Y-110088680D02*
X55758080Y-108269660D01*
D23*
%TO.N,+5V*%
X70959541Y-94368199D02*
X68357140Y-96970600D01*
X70959541Y-91173001D02*
X70959541Y-94368199D01*
X68357140Y-88570600D02*
X70959541Y-91173001D01*
X62857140Y-109570600D02*
X62857140Y-113770600D01*
D21*
%TO.N,-12V*%
X47913401Y-101184599D02*
X46736000Y-102362000D01*
X49841153Y-101184599D02*
X47913401Y-101184599D01*
X60879739Y-90146013D02*
X49841153Y-101184599D01*
X60879739Y-82148001D02*
X60879739Y-90146013D01*
X62857140Y-80170600D02*
X60879739Y-82148001D01*
%TO.N,/5V_STBY*%
X70334541Y-111548001D02*
X70334541Y-111675581D01*
X68357140Y-109570600D02*
X70334541Y-111548001D01*
X74320561Y-154468559D02*
X72993160Y-155795960D01*
X74320561Y-115661601D02*
X74320561Y-154468559D01*
X70334541Y-111675581D02*
X74320561Y-115661601D01*
%TO.N,/FM_PS_ON_N*%
X48098599Y-70704599D02*
X49276000Y-71882000D01*
X45664079Y-70704599D02*
X48098599Y-70704599D01*
X43025550Y-73343128D02*
X45664079Y-70704599D01*
X43025550Y-127104550D02*
X43025550Y-73343128D01*
X52673160Y-136752160D02*
X43025550Y-127104550D01*
X52673160Y-140555960D02*
X52673160Y-136752160D01*
%TO.N,/FM_PS_OFF_N*%
X57753160Y-140555960D02*
X43927960Y-126730760D01*
X43927960Y-124440880D02*
X43967400Y-124401440D01*
X43927960Y-126730760D02*
X43927960Y-124440880D01*
X43967400Y-74650600D02*
X46736000Y-71882000D01*
X43967400Y-124401440D02*
X43967400Y-74650600D01*
%TO.N,/PS_ON*%
X64834541Y-90548001D02*
X62857140Y-88570600D01*
X64834541Y-136014579D02*
X64834541Y-90548001D01*
X60293160Y-140555960D02*
X64834541Y-136014579D01*
%TD*%
D24*
%TO.N,+5V*%
X48601274Y-108962851D02*
X48570078Y-109096473D01*
X49276000Y-109802395D01*
X49981922Y-109096473D01*
X49953318Y-108973956D01*
X50714460Y-108980208D01*
X50733963Y-111969109D01*
X50736565Y-111993869D01*
X50743947Y-112017645D01*
X50755826Y-112039525D01*
X50771745Y-112058667D01*
X50791093Y-112074335D01*
X50813126Y-112085927D01*
X50836997Y-112092999D01*
X50861201Y-112095280D01*
X61696563Y-112074735D01*
X61580693Y-112314548D01*
X62857140Y-113590995D01*
X62871283Y-113576853D01*
X63050888Y-113756458D01*
X63036745Y-113770600D01*
X63050888Y-113784743D01*
X62871283Y-113964348D01*
X62857140Y-113950205D01*
X61580693Y-115226652D01*
X61730688Y-115537093D01*
X62096959Y-115722911D01*
X62492443Y-115833701D01*
X62901941Y-115865209D01*
X63309717Y-115816221D01*
X63700102Y-115688621D01*
X63824541Y-115622107D01*
X63824541Y-116123417D01*
X63617321Y-116018289D01*
X63221837Y-115907499D01*
X62812339Y-115875991D01*
X62404563Y-115924979D01*
X62014178Y-116052579D01*
X61730688Y-116204107D01*
X61580693Y-116514548D01*
X62857140Y-117790995D01*
X62871283Y-117776853D01*
X63050888Y-117956458D01*
X63036745Y-117970600D01*
X63050888Y-117984743D01*
X62871283Y-118164348D01*
X62857140Y-118150205D01*
X61580693Y-119426652D01*
X61730688Y-119737093D01*
X61872141Y-119808856D01*
X61078806Y-119796575D01*
X61053994Y-119798632D01*
X61030061Y-119805489D01*
X61007925Y-119816884D01*
X60988438Y-119832378D01*
X60972348Y-119851377D01*
X60960274Y-119873149D01*
X60952679Y-119896859D01*
X60949853Y-119925377D01*
X60969238Y-121280032D01*
X60852266Y-121562428D01*
X60772140Y-121965245D01*
X60772140Y-122375955D01*
X60852266Y-122778772D01*
X60995638Y-123124903D01*
X61034370Y-125831600D01*
X50409976Y-125831600D01*
X50496095Y-125644626D01*
X50555102Y-125398476D01*
X50564952Y-125145545D01*
X50525270Y-124895551D01*
X50437578Y-124658104D01*
X50390201Y-124569466D01*
X50161527Y-124516078D01*
X49455605Y-125222000D01*
X49469748Y-125236143D01*
X49290143Y-125415748D01*
X49276000Y-125401605D01*
X49261858Y-125415748D01*
X49082253Y-125236143D01*
X49096395Y-125222000D01*
X48390473Y-124516078D01*
X48161799Y-124569466D01*
X48055905Y-124799374D01*
X48004224Y-125014962D01*
X47985270Y-124895551D01*
X47897578Y-124658104D01*
X47850201Y-124569466D01*
X47621527Y-124516078D01*
X46915605Y-125222000D01*
X46929748Y-125236143D01*
X46750143Y-125415748D01*
X46736000Y-125401605D01*
X46721858Y-125415748D01*
X46542253Y-125236143D01*
X46556395Y-125222000D01*
X45850473Y-124516078D01*
X45805588Y-124526557D01*
X45822069Y-123567527D01*
X46030078Y-123567527D01*
X46083466Y-123796201D01*
X46313374Y-123902095D01*
X46528962Y-123953776D01*
X46409551Y-123972730D01*
X46172104Y-124060422D01*
X46083466Y-124107799D01*
X46030078Y-124336473D01*
X46736000Y-125042395D01*
X47441922Y-124336473D01*
X47388534Y-124107799D01*
X47158626Y-124001905D01*
X46943038Y-123950224D01*
X47062449Y-123931270D01*
X47299896Y-123843578D01*
X47388534Y-123796201D01*
X47441922Y-123567527D01*
X48570078Y-123567527D01*
X48623466Y-123796201D01*
X48853374Y-123902095D01*
X49068962Y-123953776D01*
X48949551Y-123972730D01*
X48712104Y-124060422D01*
X48623466Y-124107799D01*
X48570078Y-124336473D01*
X49276000Y-125042395D01*
X49981922Y-124336473D01*
X49928534Y-124107799D01*
X49698626Y-124001905D01*
X49483038Y-123950224D01*
X49602449Y-123931270D01*
X49839896Y-123843578D01*
X49928534Y-123796201D01*
X49981922Y-123567527D01*
X49276000Y-122861605D01*
X48570078Y-123567527D01*
X47441922Y-123567527D01*
X46736000Y-122861605D01*
X46030078Y-123567527D01*
X45822069Y-123567527D01*
X45825257Y-123382035D01*
X45850473Y-123387922D01*
X46556395Y-122682000D01*
X46915605Y-122682000D01*
X47621527Y-123387922D01*
X47850201Y-123334534D01*
X47956095Y-123104626D01*
X48007776Y-122889038D01*
X48026730Y-123008449D01*
X48114422Y-123245896D01*
X48161799Y-123334534D01*
X48390473Y-123387922D01*
X49096395Y-122682000D01*
X49455605Y-122682000D01*
X50161527Y-123387922D01*
X50390201Y-123334534D01*
X50496095Y-123104626D01*
X50555102Y-122858476D01*
X50564952Y-122605545D01*
X50525270Y-122355551D01*
X50437578Y-122118104D01*
X50390201Y-122029466D01*
X50161527Y-121976078D01*
X49455605Y-122682000D01*
X49096395Y-122682000D01*
X48390473Y-121976078D01*
X48161799Y-122029466D01*
X48055905Y-122259374D01*
X48004224Y-122474962D01*
X47985270Y-122355551D01*
X47897578Y-122118104D01*
X47850201Y-122029466D01*
X47621527Y-121976078D01*
X46915605Y-122682000D01*
X46556395Y-122682000D01*
X46542253Y-122667858D01*
X46721858Y-122488253D01*
X46736000Y-122502395D01*
X47441922Y-121796473D01*
X47388534Y-121567799D01*
X47158626Y-121461905D01*
X46943038Y-121410224D01*
X47062449Y-121391270D01*
X47299896Y-121303578D01*
X47388534Y-121256201D01*
X47441922Y-121027527D01*
X48570078Y-121027527D01*
X48623466Y-121256201D01*
X48853374Y-121362095D01*
X49068962Y-121413776D01*
X48949551Y-121432730D01*
X48712104Y-121520422D01*
X48623466Y-121567799D01*
X48570078Y-121796473D01*
X49276000Y-122502395D01*
X49981922Y-121796473D01*
X49928534Y-121567799D01*
X49698626Y-121461905D01*
X49483038Y-121410224D01*
X49602449Y-121391270D01*
X49839896Y-121303578D01*
X49928534Y-121256201D01*
X49981922Y-121027527D01*
X49276000Y-120321605D01*
X48570078Y-121027527D01*
X47441922Y-121027527D01*
X46736000Y-120321605D01*
X46721858Y-120335748D01*
X46542253Y-120156143D01*
X46556395Y-120142000D01*
X46915605Y-120142000D01*
X47621527Y-120847922D01*
X47850201Y-120794534D01*
X47956095Y-120564626D01*
X48007776Y-120349038D01*
X48026730Y-120468449D01*
X48114422Y-120705896D01*
X48161799Y-120794534D01*
X48390473Y-120847922D01*
X49096395Y-120142000D01*
X49455605Y-120142000D01*
X50161527Y-120847922D01*
X50390201Y-120794534D01*
X50496095Y-120564626D01*
X50555102Y-120318476D01*
X50564952Y-120065545D01*
X50525270Y-119815551D01*
X50437578Y-119578104D01*
X50390201Y-119489466D01*
X50161527Y-119436078D01*
X49455605Y-120142000D01*
X49096395Y-120142000D01*
X48390473Y-119436078D01*
X48161799Y-119489466D01*
X48055905Y-119719374D01*
X48004224Y-119934962D01*
X47985270Y-119815551D01*
X47897578Y-119578104D01*
X47850201Y-119489466D01*
X47621527Y-119436078D01*
X46915605Y-120142000D01*
X46556395Y-120142000D01*
X46542253Y-120127858D01*
X46721858Y-119948253D01*
X46736000Y-119962395D01*
X47441922Y-119256473D01*
X47388534Y-119027799D01*
X47158626Y-118921905D01*
X46943038Y-118870224D01*
X47062449Y-118851270D01*
X47299896Y-118763578D01*
X47388534Y-118716201D01*
X47441922Y-118487527D01*
X48570078Y-118487527D01*
X48623466Y-118716201D01*
X48853374Y-118822095D01*
X49068962Y-118873776D01*
X48949551Y-118892730D01*
X48712104Y-118980422D01*
X48623466Y-119027799D01*
X48570078Y-119256473D01*
X49276000Y-119962395D01*
X49981922Y-119256473D01*
X49928534Y-119027799D01*
X49698626Y-118921905D01*
X49483038Y-118870224D01*
X49602449Y-118851270D01*
X49839896Y-118763578D01*
X49928534Y-118716201D01*
X49981922Y-118487527D01*
X49276000Y-117781605D01*
X48570078Y-118487527D01*
X47441922Y-118487527D01*
X46736000Y-117781605D01*
X46721858Y-117795748D01*
X46542253Y-117616143D01*
X46556395Y-117602000D01*
X46915605Y-117602000D01*
X47621527Y-118307922D01*
X47850201Y-118254534D01*
X47956095Y-118024626D01*
X48007776Y-117809038D01*
X48026730Y-117928449D01*
X48114422Y-118165896D01*
X48161799Y-118254534D01*
X48390473Y-118307922D01*
X49096395Y-117602000D01*
X49455605Y-117602000D01*
X50161527Y-118307922D01*
X50390201Y-118254534D01*
X50496095Y-118024626D01*
X50498306Y-118015401D01*
X60762531Y-118015401D01*
X60811519Y-118423177D01*
X60939119Y-118813562D01*
X61090647Y-119097052D01*
X61401088Y-119247047D01*
X62677535Y-117970600D01*
X61401088Y-116694153D01*
X61090647Y-116844148D01*
X60904829Y-117210419D01*
X60794039Y-117605903D01*
X60762531Y-118015401D01*
X50498306Y-118015401D01*
X50555102Y-117778476D01*
X50564952Y-117525545D01*
X50525270Y-117275551D01*
X50437578Y-117038104D01*
X50390201Y-116949466D01*
X50161527Y-116896078D01*
X49455605Y-117602000D01*
X49096395Y-117602000D01*
X48390473Y-116896078D01*
X48161799Y-116949466D01*
X48055905Y-117179374D01*
X48004224Y-117394962D01*
X47985270Y-117275551D01*
X47897578Y-117038104D01*
X47850201Y-116949466D01*
X47621527Y-116896078D01*
X46915605Y-117602000D01*
X46556395Y-117602000D01*
X46542253Y-117587858D01*
X46721858Y-117408253D01*
X46736000Y-117422395D01*
X47441922Y-116716473D01*
X47388534Y-116487799D01*
X47158626Y-116381905D01*
X46943038Y-116330224D01*
X47062449Y-116311270D01*
X47299896Y-116223578D01*
X47388534Y-116176201D01*
X47441922Y-115947527D01*
X48570078Y-115947527D01*
X48623466Y-116176201D01*
X48853374Y-116282095D01*
X49068962Y-116333776D01*
X48949551Y-116352730D01*
X48712104Y-116440422D01*
X48623466Y-116487799D01*
X48570078Y-116716473D01*
X49276000Y-117422395D01*
X49981922Y-116716473D01*
X49928534Y-116487799D01*
X49698626Y-116381905D01*
X49483038Y-116330224D01*
X49602449Y-116311270D01*
X49839896Y-116223578D01*
X49928534Y-116176201D01*
X49981922Y-115947527D01*
X49276000Y-115241605D01*
X48570078Y-115947527D01*
X47441922Y-115947527D01*
X46736000Y-115241605D01*
X46721858Y-115255748D01*
X46542253Y-115076143D01*
X46556395Y-115062000D01*
X46915605Y-115062000D01*
X47621527Y-115767922D01*
X47850201Y-115714534D01*
X47956095Y-115484626D01*
X48007776Y-115269038D01*
X48026730Y-115388449D01*
X48114422Y-115625896D01*
X48161799Y-115714534D01*
X48390473Y-115767922D01*
X49096395Y-115062000D01*
X49455605Y-115062000D01*
X50161527Y-115767922D01*
X50390201Y-115714534D01*
X50496095Y-115484626D01*
X50555102Y-115238476D01*
X50564952Y-114985545D01*
X50525270Y-114735551D01*
X50437578Y-114498104D01*
X50390201Y-114409466D01*
X50161527Y-114356078D01*
X49455605Y-115062000D01*
X49096395Y-115062000D01*
X48390473Y-114356078D01*
X48161799Y-114409466D01*
X48055905Y-114639374D01*
X48004224Y-114854962D01*
X47985270Y-114735551D01*
X47897578Y-114498104D01*
X47850201Y-114409466D01*
X47621527Y-114356078D01*
X46915605Y-115062000D01*
X46556395Y-115062000D01*
X46542253Y-115047858D01*
X46721858Y-114868253D01*
X46736000Y-114882395D01*
X47441922Y-114176473D01*
X47388534Y-113947799D01*
X47158626Y-113841905D01*
X46943038Y-113790224D01*
X47062449Y-113771270D01*
X47299896Y-113683578D01*
X47388534Y-113636201D01*
X47441922Y-113407527D01*
X48570078Y-113407527D01*
X48623466Y-113636201D01*
X48853374Y-113742095D01*
X49068962Y-113793776D01*
X48949551Y-113812730D01*
X48712104Y-113900422D01*
X48623466Y-113947799D01*
X48570078Y-114176473D01*
X49276000Y-114882395D01*
X49981922Y-114176473D01*
X49928534Y-113947799D01*
X49698626Y-113841905D01*
X49588065Y-113815401D01*
X60762531Y-113815401D01*
X60811519Y-114223177D01*
X60939119Y-114613562D01*
X61090647Y-114897052D01*
X61401088Y-115047047D01*
X62677535Y-113770600D01*
X61401088Y-112494153D01*
X61090647Y-112644148D01*
X60904829Y-113010419D01*
X60794039Y-113405903D01*
X60762531Y-113815401D01*
X49588065Y-113815401D01*
X49483038Y-113790224D01*
X49602449Y-113771270D01*
X49839896Y-113683578D01*
X49928534Y-113636201D01*
X49981922Y-113407527D01*
X49276000Y-112701605D01*
X48570078Y-113407527D01*
X47441922Y-113407527D01*
X46736000Y-112701605D01*
X46721858Y-112715748D01*
X46542253Y-112536143D01*
X46556395Y-112522000D01*
X46915605Y-112522000D01*
X47621527Y-113227922D01*
X47850201Y-113174534D01*
X47956095Y-112944626D01*
X48007776Y-112729038D01*
X48026730Y-112848449D01*
X48114422Y-113085896D01*
X48161799Y-113174534D01*
X48390473Y-113227922D01*
X49096395Y-112522000D01*
X49455605Y-112522000D01*
X50161527Y-113227922D01*
X50390201Y-113174534D01*
X50496095Y-112944626D01*
X50555102Y-112698476D01*
X50564952Y-112445545D01*
X50525270Y-112195551D01*
X50437578Y-111958104D01*
X50390201Y-111869466D01*
X50161527Y-111816078D01*
X49455605Y-112522000D01*
X49096395Y-112522000D01*
X48390473Y-111816078D01*
X48161799Y-111869466D01*
X48055905Y-112099374D01*
X48004224Y-112314962D01*
X47985270Y-112195551D01*
X47897578Y-111958104D01*
X47850201Y-111869466D01*
X47621527Y-111816078D01*
X46915605Y-112522000D01*
X46556395Y-112522000D01*
X46542253Y-112507858D01*
X46721858Y-112328253D01*
X46736000Y-112342395D01*
X47441922Y-111636473D01*
X47388534Y-111407799D01*
X47158626Y-111301905D01*
X46943038Y-111250224D01*
X47062449Y-111231270D01*
X47299896Y-111143578D01*
X47388534Y-111096201D01*
X47441922Y-110867527D01*
X48570078Y-110867527D01*
X48623466Y-111096201D01*
X48853374Y-111202095D01*
X49068962Y-111253776D01*
X48949551Y-111272730D01*
X48712104Y-111360422D01*
X48623466Y-111407799D01*
X48570078Y-111636473D01*
X49276000Y-112342395D01*
X49981922Y-111636473D01*
X49928534Y-111407799D01*
X49698626Y-111301905D01*
X49483038Y-111250224D01*
X49602449Y-111231270D01*
X49839896Y-111143578D01*
X49928534Y-111096201D01*
X49981922Y-110867527D01*
X49276000Y-110161605D01*
X48570078Y-110867527D01*
X47441922Y-110867527D01*
X46736000Y-110161605D01*
X46721858Y-110175748D01*
X46542253Y-109996143D01*
X46556395Y-109982000D01*
X46915605Y-109982000D01*
X47621527Y-110687922D01*
X47850201Y-110634534D01*
X47956095Y-110404626D01*
X48007776Y-110189038D01*
X48026730Y-110308449D01*
X48114422Y-110545896D01*
X48161799Y-110634534D01*
X48390473Y-110687922D01*
X49096395Y-109982000D01*
X49455605Y-109982000D01*
X50161527Y-110687922D01*
X50390201Y-110634534D01*
X50496095Y-110404626D01*
X50555102Y-110158476D01*
X50564952Y-109905545D01*
X50525270Y-109655551D01*
X50437578Y-109418104D01*
X50390201Y-109329466D01*
X50161527Y-109276078D01*
X49455605Y-109982000D01*
X49096395Y-109982000D01*
X48390473Y-109276078D01*
X48161799Y-109329466D01*
X48055905Y-109559374D01*
X48004224Y-109774962D01*
X47985270Y-109655551D01*
X47897578Y-109418104D01*
X47850201Y-109329466D01*
X47621527Y-109276078D01*
X46915605Y-109982000D01*
X46556395Y-109982000D01*
X46542253Y-109967858D01*
X46721858Y-109788253D01*
X46736000Y-109802395D01*
X47441922Y-109096473D01*
X47408438Y-108953054D01*
X48601274Y-108962851D01*
%TA.AperFunction,Conductor*%
D25*
G36*
X48601274Y-108962851D02*
G01*
X48570078Y-109096473D01*
X49276000Y-109802395D01*
X49981922Y-109096473D01*
X49953318Y-108973956D01*
X50714460Y-108980208D01*
X50733963Y-111969109D01*
X50736565Y-111993869D01*
X50743947Y-112017645D01*
X50755826Y-112039525D01*
X50771745Y-112058667D01*
X50791093Y-112074335D01*
X50813126Y-112085927D01*
X50836997Y-112092999D01*
X50861201Y-112095280D01*
X61696563Y-112074735D01*
X61580693Y-112314548D01*
X62857140Y-113590995D01*
X62871283Y-113576853D01*
X63050888Y-113756458D01*
X63036745Y-113770600D01*
X63050888Y-113784743D01*
X62871283Y-113964348D01*
X62857140Y-113950205D01*
X61580693Y-115226652D01*
X61730688Y-115537093D01*
X62096959Y-115722911D01*
X62492443Y-115833701D01*
X62901941Y-115865209D01*
X63309717Y-115816221D01*
X63700102Y-115688621D01*
X63824541Y-115622107D01*
X63824541Y-116123417D01*
X63617321Y-116018289D01*
X63221837Y-115907499D01*
X62812339Y-115875991D01*
X62404563Y-115924979D01*
X62014178Y-116052579D01*
X61730688Y-116204107D01*
X61580693Y-116514548D01*
X62857140Y-117790995D01*
X62871283Y-117776853D01*
X63050888Y-117956458D01*
X63036745Y-117970600D01*
X63050888Y-117984743D01*
X62871283Y-118164348D01*
X62857140Y-118150205D01*
X61580693Y-119426652D01*
X61730688Y-119737093D01*
X61872141Y-119808856D01*
X61078806Y-119796575D01*
X61053994Y-119798632D01*
X61030061Y-119805489D01*
X61007925Y-119816884D01*
X60988438Y-119832378D01*
X60972348Y-119851377D01*
X60960274Y-119873149D01*
X60952679Y-119896859D01*
X60949853Y-119925377D01*
X60969238Y-121280032D01*
X60852266Y-121562428D01*
X60772140Y-121965245D01*
X60772140Y-122375955D01*
X60852266Y-122778772D01*
X60995638Y-123124903D01*
X61034370Y-125831600D01*
X50409976Y-125831600D01*
X50496095Y-125644626D01*
X50555102Y-125398476D01*
X50564952Y-125145545D01*
X50525270Y-124895551D01*
X50437578Y-124658104D01*
X50390201Y-124569466D01*
X50161527Y-124516078D01*
X49455605Y-125222000D01*
X49469748Y-125236143D01*
X49290143Y-125415748D01*
X49276000Y-125401605D01*
X49261858Y-125415748D01*
X49082253Y-125236143D01*
X49096395Y-125222000D01*
X48390473Y-124516078D01*
X48161799Y-124569466D01*
X48055905Y-124799374D01*
X48004224Y-125014962D01*
X47985270Y-124895551D01*
X47897578Y-124658104D01*
X47850201Y-124569466D01*
X47621527Y-124516078D01*
X46915605Y-125222000D01*
X46929748Y-125236143D01*
X46750143Y-125415748D01*
X46736000Y-125401605D01*
X46721858Y-125415748D01*
X46542253Y-125236143D01*
X46556395Y-125222000D01*
X45850473Y-124516078D01*
X45805588Y-124526557D01*
X45822069Y-123567527D01*
X46030078Y-123567527D01*
X46083466Y-123796201D01*
X46313374Y-123902095D01*
X46528962Y-123953776D01*
X46409551Y-123972730D01*
X46172104Y-124060422D01*
X46083466Y-124107799D01*
X46030078Y-124336473D01*
X46736000Y-125042395D01*
X47441922Y-124336473D01*
X47388534Y-124107799D01*
X47158626Y-124001905D01*
X46943038Y-123950224D01*
X47062449Y-123931270D01*
X47299896Y-123843578D01*
X47388534Y-123796201D01*
X47441922Y-123567527D01*
X48570078Y-123567527D01*
X48623466Y-123796201D01*
X48853374Y-123902095D01*
X49068962Y-123953776D01*
X48949551Y-123972730D01*
X48712104Y-124060422D01*
X48623466Y-124107799D01*
X48570078Y-124336473D01*
X49276000Y-125042395D01*
X49981922Y-124336473D01*
X49928534Y-124107799D01*
X49698626Y-124001905D01*
X49483038Y-123950224D01*
X49602449Y-123931270D01*
X49839896Y-123843578D01*
X49928534Y-123796201D01*
X49981922Y-123567527D01*
X49276000Y-122861605D01*
X48570078Y-123567527D01*
X47441922Y-123567527D01*
X46736000Y-122861605D01*
X46030078Y-123567527D01*
X45822069Y-123567527D01*
X45825257Y-123382035D01*
X45850473Y-123387922D01*
X46556395Y-122682000D01*
X46915605Y-122682000D01*
X47621527Y-123387922D01*
X47850201Y-123334534D01*
X47956095Y-123104626D01*
X48007776Y-122889038D01*
X48026730Y-123008449D01*
X48114422Y-123245896D01*
X48161799Y-123334534D01*
X48390473Y-123387922D01*
X49096395Y-122682000D01*
X49455605Y-122682000D01*
X50161527Y-123387922D01*
X50390201Y-123334534D01*
X50496095Y-123104626D01*
X50555102Y-122858476D01*
X50564952Y-122605545D01*
X50525270Y-122355551D01*
X50437578Y-122118104D01*
X50390201Y-122029466D01*
X50161527Y-121976078D01*
X49455605Y-122682000D01*
X49096395Y-122682000D01*
X48390473Y-121976078D01*
X48161799Y-122029466D01*
X48055905Y-122259374D01*
X48004224Y-122474962D01*
X47985270Y-122355551D01*
X47897578Y-122118104D01*
X47850201Y-122029466D01*
X47621527Y-121976078D01*
X46915605Y-122682000D01*
X46556395Y-122682000D01*
X46542253Y-122667858D01*
X46721858Y-122488253D01*
X46736000Y-122502395D01*
X47441922Y-121796473D01*
X47388534Y-121567799D01*
X47158626Y-121461905D01*
X46943038Y-121410224D01*
X47062449Y-121391270D01*
X47299896Y-121303578D01*
X47388534Y-121256201D01*
X47441922Y-121027527D01*
X48570078Y-121027527D01*
X48623466Y-121256201D01*
X48853374Y-121362095D01*
X49068962Y-121413776D01*
X48949551Y-121432730D01*
X48712104Y-121520422D01*
X48623466Y-121567799D01*
X48570078Y-121796473D01*
X49276000Y-122502395D01*
X49981922Y-121796473D01*
X49928534Y-121567799D01*
X49698626Y-121461905D01*
X49483038Y-121410224D01*
X49602449Y-121391270D01*
X49839896Y-121303578D01*
X49928534Y-121256201D01*
X49981922Y-121027527D01*
X49276000Y-120321605D01*
X48570078Y-121027527D01*
X47441922Y-121027527D01*
X46736000Y-120321605D01*
X46721858Y-120335748D01*
X46542253Y-120156143D01*
X46556395Y-120142000D01*
X46915605Y-120142000D01*
X47621527Y-120847922D01*
X47850201Y-120794534D01*
X47956095Y-120564626D01*
X48007776Y-120349038D01*
X48026730Y-120468449D01*
X48114422Y-120705896D01*
X48161799Y-120794534D01*
X48390473Y-120847922D01*
X49096395Y-120142000D01*
X49455605Y-120142000D01*
X50161527Y-120847922D01*
X50390201Y-120794534D01*
X50496095Y-120564626D01*
X50555102Y-120318476D01*
X50564952Y-120065545D01*
X50525270Y-119815551D01*
X50437578Y-119578104D01*
X50390201Y-119489466D01*
X50161527Y-119436078D01*
X49455605Y-120142000D01*
X49096395Y-120142000D01*
X48390473Y-119436078D01*
X48161799Y-119489466D01*
X48055905Y-119719374D01*
X48004224Y-119934962D01*
X47985270Y-119815551D01*
X47897578Y-119578104D01*
X47850201Y-119489466D01*
X47621527Y-119436078D01*
X46915605Y-120142000D01*
X46556395Y-120142000D01*
X46542253Y-120127858D01*
X46721858Y-119948253D01*
X46736000Y-119962395D01*
X47441922Y-119256473D01*
X47388534Y-119027799D01*
X47158626Y-118921905D01*
X46943038Y-118870224D01*
X47062449Y-118851270D01*
X47299896Y-118763578D01*
X47388534Y-118716201D01*
X47441922Y-118487527D01*
X48570078Y-118487527D01*
X48623466Y-118716201D01*
X48853374Y-118822095D01*
X49068962Y-118873776D01*
X48949551Y-118892730D01*
X48712104Y-118980422D01*
X48623466Y-119027799D01*
X48570078Y-119256473D01*
X49276000Y-119962395D01*
X49981922Y-119256473D01*
X49928534Y-119027799D01*
X49698626Y-118921905D01*
X49483038Y-118870224D01*
X49602449Y-118851270D01*
X49839896Y-118763578D01*
X49928534Y-118716201D01*
X49981922Y-118487527D01*
X49276000Y-117781605D01*
X48570078Y-118487527D01*
X47441922Y-118487527D01*
X46736000Y-117781605D01*
X46721858Y-117795748D01*
X46542253Y-117616143D01*
X46556395Y-117602000D01*
X46915605Y-117602000D01*
X47621527Y-118307922D01*
X47850201Y-118254534D01*
X47956095Y-118024626D01*
X48007776Y-117809038D01*
X48026730Y-117928449D01*
X48114422Y-118165896D01*
X48161799Y-118254534D01*
X48390473Y-118307922D01*
X49096395Y-117602000D01*
X49455605Y-117602000D01*
X50161527Y-118307922D01*
X50390201Y-118254534D01*
X50496095Y-118024626D01*
X50498306Y-118015401D01*
X60762531Y-118015401D01*
X60811519Y-118423177D01*
X60939119Y-118813562D01*
X61090647Y-119097052D01*
X61401088Y-119247047D01*
X62677535Y-117970600D01*
X61401088Y-116694153D01*
X61090647Y-116844148D01*
X60904829Y-117210419D01*
X60794039Y-117605903D01*
X60762531Y-118015401D01*
X50498306Y-118015401D01*
X50555102Y-117778476D01*
X50564952Y-117525545D01*
X50525270Y-117275551D01*
X50437578Y-117038104D01*
X50390201Y-116949466D01*
X50161527Y-116896078D01*
X49455605Y-117602000D01*
X49096395Y-117602000D01*
X48390473Y-116896078D01*
X48161799Y-116949466D01*
X48055905Y-117179374D01*
X48004224Y-117394962D01*
X47985270Y-117275551D01*
X47897578Y-117038104D01*
X47850201Y-116949466D01*
X47621527Y-116896078D01*
X46915605Y-117602000D01*
X46556395Y-117602000D01*
X46542253Y-117587858D01*
X46721858Y-117408253D01*
X46736000Y-117422395D01*
X47441922Y-116716473D01*
X47388534Y-116487799D01*
X47158626Y-116381905D01*
X46943038Y-116330224D01*
X47062449Y-116311270D01*
X47299896Y-116223578D01*
X47388534Y-116176201D01*
X47441922Y-115947527D01*
X48570078Y-115947527D01*
X48623466Y-116176201D01*
X48853374Y-116282095D01*
X49068962Y-116333776D01*
X48949551Y-116352730D01*
X48712104Y-116440422D01*
X48623466Y-116487799D01*
X48570078Y-116716473D01*
X49276000Y-117422395D01*
X49981922Y-116716473D01*
X49928534Y-116487799D01*
X49698626Y-116381905D01*
X49483038Y-116330224D01*
X49602449Y-116311270D01*
X49839896Y-116223578D01*
X49928534Y-116176201D01*
X49981922Y-115947527D01*
X49276000Y-115241605D01*
X48570078Y-115947527D01*
X47441922Y-115947527D01*
X46736000Y-115241605D01*
X46721858Y-115255748D01*
X46542253Y-115076143D01*
X46556395Y-115062000D01*
X46915605Y-115062000D01*
X47621527Y-115767922D01*
X47850201Y-115714534D01*
X47956095Y-115484626D01*
X48007776Y-115269038D01*
X48026730Y-115388449D01*
X48114422Y-115625896D01*
X48161799Y-115714534D01*
X48390473Y-115767922D01*
X49096395Y-115062000D01*
X49455605Y-115062000D01*
X50161527Y-115767922D01*
X50390201Y-115714534D01*
X50496095Y-115484626D01*
X50555102Y-115238476D01*
X50564952Y-114985545D01*
X50525270Y-114735551D01*
X50437578Y-114498104D01*
X50390201Y-114409466D01*
X50161527Y-114356078D01*
X49455605Y-115062000D01*
X49096395Y-115062000D01*
X48390473Y-114356078D01*
X48161799Y-114409466D01*
X48055905Y-114639374D01*
X48004224Y-114854962D01*
X47985270Y-114735551D01*
X47897578Y-114498104D01*
X47850201Y-114409466D01*
X47621527Y-114356078D01*
X46915605Y-115062000D01*
X46556395Y-115062000D01*
X46542253Y-115047858D01*
X46721858Y-114868253D01*
X46736000Y-114882395D01*
X47441922Y-114176473D01*
X47388534Y-113947799D01*
X47158626Y-113841905D01*
X46943038Y-113790224D01*
X47062449Y-113771270D01*
X47299896Y-113683578D01*
X47388534Y-113636201D01*
X47441922Y-113407527D01*
X48570078Y-113407527D01*
X48623466Y-113636201D01*
X48853374Y-113742095D01*
X49068962Y-113793776D01*
X48949551Y-113812730D01*
X48712104Y-113900422D01*
X48623466Y-113947799D01*
X48570078Y-114176473D01*
X49276000Y-114882395D01*
X49981922Y-114176473D01*
X49928534Y-113947799D01*
X49698626Y-113841905D01*
X49588065Y-113815401D01*
X60762531Y-113815401D01*
X60811519Y-114223177D01*
X60939119Y-114613562D01*
X61090647Y-114897052D01*
X61401088Y-115047047D01*
X62677535Y-113770600D01*
X61401088Y-112494153D01*
X61090647Y-112644148D01*
X60904829Y-113010419D01*
X60794039Y-113405903D01*
X60762531Y-113815401D01*
X49588065Y-113815401D01*
X49483038Y-113790224D01*
X49602449Y-113771270D01*
X49839896Y-113683578D01*
X49928534Y-113636201D01*
X49981922Y-113407527D01*
X49276000Y-112701605D01*
X48570078Y-113407527D01*
X47441922Y-113407527D01*
X46736000Y-112701605D01*
X46721858Y-112715748D01*
X46542253Y-112536143D01*
X46556395Y-112522000D01*
X46915605Y-112522000D01*
X47621527Y-113227922D01*
X47850201Y-113174534D01*
X47956095Y-112944626D01*
X48007776Y-112729038D01*
X48026730Y-112848449D01*
X48114422Y-113085896D01*
X48161799Y-113174534D01*
X48390473Y-113227922D01*
X49096395Y-112522000D01*
X49455605Y-112522000D01*
X50161527Y-113227922D01*
X50390201Y-113174534D01*
X50496095Y-112944626D01*
X50555102Y-112698476D01*
X50564952Y-112445545D01*
X50525270Y-112195551D01*
X50437578Y-111958104D01*
X50390201Y-111869466D01*
X50161527Y-111816078D01*
X49455605Y-112522000D01*
X49096395Y-112522000D01*
X48390473Y-111816078D01*
X48161799Y-111869466D01*
X48055905Y-112099374D01*
X48004224Y-112314962D01*
X47985270Y-112195551D01*
X47897578Y-111958104D01*
X47850201Y-111869466D01*
X47621527Y-111816078D01*
X46915605Y-112522000D01*
X46556395Y-112522000D01*
X46542253Y-112507858D01*
X46721858Y-112328253D01*
X46736000Y-112342395D01*
X47441922Y-111636473D01*
X47388534Y-111407799D01*
X47158626Y-111301905D01*
X46943038Y-111250224D01*
X47062449Y-111231270D01*
X47299896Y-111143578D01*
X47388534Y-111096201D01*
X47441922Y-110867527D01*
X48570078Y-110867527D01*
X48623466Y-111096201D01*
X48853374Y-111202095D01*
X49068962Y-111253776D01*
X48949551Y-111272730D01*
X48712104Y-111360422D01*
X48623466Y-111407799D01*
X48570078Y-111636473D01*
X49276000Y-112342395D01*
X49981922Y-111636473D01*
X49928534Y-111407799D01*
X49698626Y-111301905D01*
X49483038Y-111250224D01*
X49602449Y-111231270D01*
X49839896Y-111143578D01*
X49928534Y-111096201D01*
X49981922Y-110867527D01*
X49276000Y-110161605D01*
X48570078Y-110867527D01*
X47441922Y-110867527D01*
X46736000Y-110161605D01*
X46721858Y-110175748D01*
X46542253Y-109996143D01*
X46556395Y-109982000D01*
X46915605Y-109982000D01*
X47621527Y-110687922D01*
X47850201Y-110634534D01*
X47956095Y-110404626D01*
X48007776Y-110189038D01*
X48026730Y-110308449D01*
X48114422Y-110545896D01*
X48161799Y-110634534D01*
X48390473Y-110687922D01*
X49096395Y-109982000D01*
X49455605Y-109982000D01*
X50161527Y-110687922D01*
X50390201Y-110634534D01*
X50496095Y-110404626D01*
X50555102Y-110158476D01*
X50564952Y-109905545D01*
X50525270Y-109655551D01*
X50437578Y-109418104D01*
X50390201Y-109329466D01*
X50161527Y-109276078D01*
X49455605Y-109982000D01*
X49096395Y-109982000D01*
X48390473Y-109276078D01*
X48161799Y-109329466D01*
X48055905Y-109559374D01*
X48004224Y-109774962D01*
X47985270Y-109655551D01*
X47897578Y-109418104D01*
X47850201Y-109329466D01*
X47621527Y-109276078D01*
X46915605Y-109982000D01*
X46556395Y-109982000D01*
X46542253Y-109967858D01*
X46721858Y-109788253D01*
X46736000Y-109802395D01*
X47441922Y-109096473D01*
X47408438Y-108953054D01*
X48601274Y-108962851D01*
G37*
%TD.AperFunction*%
%TD*%
M02*
