M48
; DRILL file {KiCad (5.1.9)-1} date 07/01/21 20:44:53
; FORMAT={-:-/ absolute / inch / decimal}
; #@! TF.CreationDate,2021-07-01T20:44:53-05:00
; #@! TF.GenerationSoftware,Kicad,Pcbnew,(5.1.9)-1
; #@! TF.FileFunction,Plated,1,2,PTH
FMAT,2
INCH
T1C0.0157
T2C0.0197
T3C0.0315
T4C0.0394
T5C0.0433
T6C0.0709
T7C0.1102
T8C0.1378
%
G90
G05
T1
X2.1952Y-4.3342
T2
X5.7834Y-5.2509
X5.7909Y-2.5084
X5.8137Y-5.1778
X5.8137Y-5.324
X5.8212Y-2.4353
X5.8212Y-2.5815
X5.8868Y-5.1476
X5.8868Y-5.3543
X5.8943Y-2.4051
X5.8943Y-2.6118
X5.9598Y-5.1778
X5.9598Y-5.324
X5.9673Y-2.4353
X5.9673Y-2.5815
X5.9901Y-5.2509
X5.9976Y-2.5084
X7.5409Y-2.4984
X7.5434Y-5.2684
X7.5712Y-2.4253
X7.5712Y-2.5715
X7.5737Y-5.1953
X7.5737Y-5.3415
X7.6443Y-2.3951
X7.6443Y-2.6018
X7.6468Y-5.1651
X7.6468Y-5.3718
X7.7173Y-2.4253
X7.7173Y-2.5715
X7.7198Y-5.1953
X7.7198Y-5.3415
X7.7476Y-2.4984
X7.7501Y-5.2684
T3
X1.84Y-2.83
X1.84Y-2.93
X1.84Y-3.03
X1.84Y-3.13
X1.84Y-3.23
X1.84Y-3.33
X1.84Y-3.43
X1.84Y-3.53
X1.84Y-3.63
X1.84Y-3.73
X1.84Y-3.83
X1.84Y-3.93
X1.84Y-4.03
X1.84Y-4.13
X1.84Y-4.23
X1.84Y-4.33
X1.84Y-4.43
X1.84Y-4.53
X1.84Y-4.63
X1.84Y-4.73
X1.84Y-4.83
X1.84Y-4.93
X1.94Y-2.83
X1.94Y-2.93
X1.94Y-3.03
X1.94Y-3.13
X1.94Y-3.23
X1.94Y-3.33
X1.94Y-3.43
X1.94Y-3.53
X1.94Y-3.63
X1.94Y-3.73
X1.94Y-3.83
X1.94Y-3.93
X1.94Y-4.03
X1.94Y-4.13
X1.94Y-4.23
X1.94Y-4.33
X1.94Y-4.43
X1.94Y-4.53
X1.94Y-4.63
X1.94Y-4.73
X1.94Y-4.83
X1.94Y-4.93
T4
X8.8244Y-6.2012
X8.8244Y-6.3012
T5
X1.7737Y-5.5337
X1.7737Y-6.1337
X1.8737Y-5.5337
X1.8737Y-6.1337
X1.9737Y-5.5337
X1.9737Y-6.1337
X2.0737Y-5.5337
X2.0737Y-6.1337
X2.1737Y-5.5337
X2.1737Y-6.1337
X2.2737Y-5.5337
X2.2737Y-6.1337
X2.3737Y-5.5337
X2.3737Y-6.1337
X2.4737Y-5.5337
X2.4737Y-6.1337
X2.5737Y-5.5337
X2.5737Y-6.1337
X2.6737Y-5.5337
X2.6737Y-6.1337
X2.7737Y-5.5337
X2.7737Y-6.1337
X2.8737Y-5.5337
X2.8737Y-6.1337
T6
X2.4747Y-2.991
X2.4747Y-3.1563
X2.4747Y-3.3217
X2.4747Y-3.487
X2.4747Y-3.6524
X2.4747Y-3.8177
X2.4747Y-3.9831
X2.4747Y-4.1484
X2.4747Y-4.3138
X2.4747Y-4.4792
X2.4747Y-4.6445
X2.4747Y-4.8099
X2.6912Y-2.991
X2.6912Y-3.1563
X2.6912Y-3.3217
X2.6912Y-3.487
X2.6912Y-3.6524
X2.6912Y-3.8177
X2.6912Y-3.9831
X2.6912Y-4.1484
X2.6912Y-4.3138
X2.6912Y-4.4792
X2.6912Y-4.6445
X2.6912Y-4.8099
T7
X1.74Y-2.53
X1.74Y-5.23
T8
X5.8868Y-5.2509
X5.8943Y-2.5084
X7.6443Y-2.4984
X7.6468Y-5.2684
T0
M30
