%FSLAX45Y45*%
G04 Gerber Fmt 4.5, Leading zero omitted, Abs format (unit mm)*
G04 Created by KiCad (PCBNEW (5.1.9)-1) date 2021-07-01 20:44:54*
%MOMM*%
%LPD*%
G01*
G04 APERTURE LIST*
%TA.AperFunction,Profile*%
%ADD10C,0.050000*%
%TD*%
%TA.AperFunction,Profile*%
%ADD11C,0.152400*%
%TD*%
%ADD12C,0.200000*%
%ADD13C,0.300000*%
G04 APERTURE END LIST*
D10*
X4018000Y-2208000D02*
X4019000Y-2208000D01*
X4018000Y-2223000D02*
X4018000Y-2208000D01*
X4008000Y-2202000D02*
X4020000Y-2207000D01*
X4008000Y-2224000D02*
X4008000Y-2202000D01*
X4009000Y-2203000D02*
X4009000Y-2225000D01*
X4021000Y-2202000D02*
X4021000Y-2203000D01*
X4013000Y-2229000D02*
X4021000Y-2202000D01*
X23012400Y-2203450D02*
X23012400Y-2209800D01*
D11*
X4013200Y-2203450D02*
X23012400Y-2203450D01*
D10*
X4013200Y-2222500D02*
X4013200Y-2203450D01*
D11*
X23012400Y-2209800D02*
X23012400Y-17348200D01*
X4013200Y-17360900D02*
X23012400Y-17348200D01*
X4013200Y-6070600D02*
X4013200Y-2222500D01*
D10*
X4013200Y-6146800D02*
X4013200Y-6070600D01*
D11*
X4013200Y-13550900D02*
X4013200Y-17360900D01*
X4013200Y-6146800D02*
X4013200Y-13576300D01*
D12*
X4279828Y-16272884D02*
X4489828Y-16482884D01*
X4489828Y-16272884D02*
X4279828Y-16482884D01*
X15249300Y-3098956D02*
X15459300Y-3308956D01*
X15459300Y-3098956D02*
X15249300Y-3308956D01*
X21129400Y-16382140D02*
X21339400Y-16592140D01*
X21339400Y-16382140D02*
X21129400Y-16592140D01*
X4974828Y-16910884D02*
G75*
G03*
X4974828Y-16910884I-215000J0D01*
G01*
X6241404Y-2650744D02*
G75*
G03*
X6241404Y-2650744I-215000J0D01*
G01*
X12842864Y-16921480D02*
G75*
G03*
X12842864Y-16921480I-215000J0D01*
G01*
X14923124Y-2642108D02*
G75*
G03*
X14923124Y-2642108I-215000J0D01*
G01*
X20890600Y-16907764D02*
G75*
G03*
X20890600Y-16907764I-215000J0D01*
G01*
X21904060Y-2661412D02*
G75*
G03*
X21904060Y-2661412I-215000J0D01*
G01*
D13*
X4291928Y-17834234D02*
X4291928Y-17534234D01*
X4363357Y-17534234D01*
X4406214Y-17548520D01*
X4434786Y-17577092D01*
X4449071Y-17605663D01*
X4463357Y-17662806D01*
X4463357Y-17705663D01*
X4449071Y-17762806D01*
X4434786Y-17791377D01*
X4406214Y-17819949D01*
X4363357Y-17834234D01*
X4291928Y-17834234D01*
X4591928Y-17834234D02*
X4591928Y-17634234D01*
X4591928Y-17691377D02*
X4606214Y-17662806D01*
X4620500Y-17648520D01*
X4649071Y-17634234D01*
X4677643Y-17634234D01*
X4777643Y-17834234D02*
X4777643Y-17634234D01*
X4777643Y-17534234D02*
X4763357Y-17548520D01*
X4777643Y-17562806D01*
X4791928Y-17548520D01*
X4777643Y-17534234D01*
X4777643Y-17562806D01*
X4963357Y-17834234D02*
X4934786Y-17819949D01*
X4920500Y-17791377D01*
X4920500Y-17534234D01*
X5120500Y-17834234D02*
X5091928Y-17819949D01*
X5077643Y-17791377D01*
X5077643Y-17534234D01*
X5463357Y-17834234D02*
X5463357Y-17534234D01*
X5563357Y-17748520D01*
X5663357Y-17534234D01*
X5663357Y-17834234D01*
X5934786Y-17834234D02*
X5934786Y-17677092D01*
X5920500Y-17648520D01*
X5891928Y-17634234D01*
X5834786Y-17634234D01*
X5806214Y-17648520D01*
X5934786Y-17819949D02*
X5906214Y-17834234D01*
X5834786Y-17834234D01*
X5806214Y-17819949D01*
X5791928Y-17791377D01*
X5791928Y-17762806D01*
X5806214Y-17734234D01*
X5834786Y-17719949D01*
X5906214Y-17719949D01*
X5934786Y-17705663D01*
X6077643Y-17634234D02*
X6077643Y-17934234D01*
X6077643Y-17648520D02*
X6106214Y-17634234D01*
X6163357Y-17634234D01*
X6191928Y-17648520D01*
X6206214Y-17662806D01*
X6220500Y-17691377D01*
X6220500Y-17777092D01*
X6206214Y-17805663D01*
X6191928Y-17819949D01*
X6163357Y-17834234D01*
X6106214Y-17834234D01*
X6077643Y-17819949D01*
X6349071Y-17805663D02*
X6363357Y-17819949D01*
X6349071Y-17834234D01*
X6334786Y-17819949D01*
X6349071Y-17805663D01*
X6349071Y-17834234D01*
X6349071Y-17648520D02*
X6363357Y-17662806D01*
X6349071Y-17677092D01*
X6334786Y-17662806D01*
X6349071Y-17648520D01*
X6349071Y-17677092D01*
X3795500Y-18223520D02*
X4005500Y-18433520D01*
X4005500Y-18223520D02*
X3795500Y-18433520D01*
X4277643Y-18192806D02*
X4291928Y-18178520D01*
X4320500Y-18164234D01*
X4391928Y-18164234D01*
X4420500Y-18178520D01*
X4434786Y-18192806D01*
X4449071Y-18221377D01*
X4449071Y-18249949D01*
X4434786Y-18292806D01*
X4263357Y-18464234D01*
X4449071Y-18464234D01*
X4577643Y-18435663D02*
X4591928Y-18449949D01*
X4577643Y-18464234D01*
X4563357Y-18449949D01*
X4577643Y-18435663D01*
X4577643Y-18464234D01*
X4877643Y-18464234D02*
X4706214Y-18464234D01*
X4791928Y-18464234D02*
X4791928Y-18164234D01*
X4763357Y-18207092D01*
X4734786Y-18235663D01*
X4706214Y-18249949D01*
X5063357Y-18164234D02*
X5091928Y-18164234D01*
X5120500Y-18178520D01*
X5134786Y-18192806D01*
X5149071Y-18221377D01*
X5163357Y-18278520D01*
X5163357Y-18349949D01*
X5149071Y-18407092D01*
X5134786Y-18435663D01*
X5120500Y-18449949D01*
X5091928Y-18464234D01*
X5063357Y-18464234D01*
X5034786Y-18449949D01*
X5020500Y-18435663D01*
X5006214Y-18407092D01*
X4991928Y-18349949D01*
X4991928Y-18278520D01*
X5006214Y-18221377D01*
X5020500Y-18192806D01*
X5034786Y-18178520D01*
X5063357Y-18164234D01*
X5291928Y-18464234D02*
X5291928Y-18264234D01*
X5291928Y-18292806D02*
X5306214Y-18278520D01*
X5334786Y-18264234D01*
X5377643Y-18264234D01*
X5406214Y-18278520D01*
X5420500Y-18307092D01*
X5420500Y-18464234D01*
X5420500Y-18307092D02*
X5434786Y-18278520D01*
X5463357Y-18264234D01*
X5506214Y-18264234D01*
X5534786Y-18278520D01*
X5549071Y-18307092D01*
X5549071Y-18464234D01*
X5691928Y-18464234D02*
X5691928Y-18264234D01*
X5691928Y-18292806D02*
X5706214Y-18278520D01*
X5734786Y-18264234D01*
X5777643Y-18264234D01*
X5806214Y-18278520D01*
X5820500Y-18307092D01*
X5820500Y-18464234D01*
X5820500Y-18307092D02*
X5834786Y-18278520D01*
X5863357Y-18264234D01*
X5906214Y-18264234D01*
X5934786Y-18278520D01*
X5949071Y-18307092D01*
X5949071Y-18464234D01*
X6534786Y-18149949D02*
X6277643Y-18535663D01*
X6920500Y-18164234D02*
X6949071Y-18164234D01*
X6977643Y-18178520D01*
X6991928Y-18192806D01*
X7006214Y-18221377D01*
X7020500Y-18278520D01*
X7020500Y-18349949D01*
X7006214Y-18407092D01*
X6991928Y-18435663D01*
X6977643Y-18449949D01*
X6949071Y-18464234D01*
X6920500Y-18464234D01*
X6891928Y-18449949D01*
X6877643Y-18435663D01*
X6863357Y-18407092D01*
X6849071Y-18349949D01*
X6849071Y-18278520D01*
X6863357Y-18221377D01*
X6877643Y-18192806D01*
X6891928Y-18178520D01*
X6920500Y-18164234D01*
X7149071Y-18435663D02*
X7163357Y-18449949D01*
X7149071Y-18464234D01*
X7134786Y-18449949D01*
X7149071Y-18435663D01*
X7149071Y-18464234D01*
X7349071Y-18164234D02*
X7377643Y-18164234D01*
X7406214Y-18178520D01*
X7420500Y-18192806D01*
X7434786Y-18221377D01*
X7449071Y-18278520D01*
X7449071Y-18349949D01*
X7434786Y-18407092D01*
X7420500Y-18435663D01*
X7406214Y-18449949D01*
X7377643Y-18464234D01*
X7349071Y-18464234D01*
X7320500Y-18449949D01*
X7306214Y-18435663D01*
X7291928Y-18407092D01*
X7277643Y-18349949D01*
X7277643Y-18278520D01*
X7291928Y-18221377D01*
X7306214Y-18192806D01*
X7320500Y-18178520D01*
X7349071Y-18164234D01*
X7620500Y-18292806D02*
X7591928Y-18278520D01*
X7577643Y-18264234D01*
X7563357Y-18235663D01*
X7563357Y-18221377D01*
X7577643Y-18192806D01*
X7591928Y-18178520D01*
X7620500Y-18164234D01*
X7677643Y-18164234D01*
X7706214Y-18178520D01*
X7720500Y-18192806D01*
X7734786Y-18221377D01*
X7734786Y-18235663D01*
X7720500Y-18264234D01*
X7706214Y-18278520D01*
X7677643Y-18292806D01*
X7620500Y-18292806D01*
X7591928Y-18307092D01*
X7577643Y-18321377D01*
X7563357Y-18349949D01*
X7563357Y-18407092D01*
X7577643Y-18435663D01*
X7591928Y-18449949D01*
X7620500Y-18464234D01*
X7677643Y-18464234D01*
X7706214Y-18449949D01*
X7720500Y-18435663D01*
X7734786Y-18407092D01*
X7734786Y-18349949D01*
X7720500Y-18321377D01*
X7706214Y-18307092D01*
X7677643Y-18292806D01*
X7834786Y-18164234D02*
X8020500Y-18164234D01*
X7920500Y-18278520D01*
X7963357Y-18278520D01*
X7991928Y-18292806D01*
X8006214Y-18307092D01*
X8020500Y-18335663D01*
X8020500Y-18407092D01*
X8006214Y-18435663D01*
X7991928Y-18449949D01*
X7963357Y-18464234D01*
X7877643Y-18464234D01*
X7849071Y-18449949D01*
X7834786Y-18435663D01*
X8134786Y-18164234D02*
X8134786Y-18221377D01*
X8249071Y-18164234D02*
X8249071Y-18221377D01*
X8691928Y-18578520D02*
X8677643Y-18564234D01*
X8649071Y-18521377D01*
X8634786Y-18492806D01*
X8620500Y-18449949D01*
X8606214Y-18378520D01*
X8606214Y-18321377D01*
X8620500Y-18249949D01*
X8634786Y-18207092D01*
X8649071Y-18178520D01*
X8677643Y-18135663D01*
X8691928Y-18121377D01*
X8777643Y-18164234D02*
X8963357Y-18164234D01*
X8863357Y-18278520D01*
X8906214Y-18278520D01*
X8934786Y-18292806D01*
X8949071Y-18307092D01*
X8963357Y-18335663D01*
X8963357Y-18407092D01*
X8949071Y-18435663D01*
X8934786Y-18449949D01*
X8906214Y-18464234D01*
X8820500Y-18464234D01*
X8791928Y-18449949D01*
X8777643Y-18435663D01*
X9320500Y-18464234D02*
X9320500Y-18164234D01*
X9449071Y-18464234D02*
X9449071Y-18307092D01*
X9434786Y-18278520D01*
X9406214Y-18264234D01*
X9363357Y-18264234D01*
X9334786Y-18278520D01*
X9320500Y-18292806D01*
X9634786Y-18464234D02*
X9606214Y-18449949D01*
X9591928Y-18435663D01*
X9577643Y-18407092D01*
X9577643Y-18321377D01*
X9591928Y-18292806D01*
X9606214Y-18278520D01*
X9634786Y-18264234D01*
X9677643Y-18264234D01*
X9706214Y-18278520D01*
X9720500Y-18292806D01*
X9734786Y-18321377D01*
X9734786Y-18407092D01*
X9720500Y-18435663D01*
X9706214Y-18449949D01*
X9677643Y-18464234D01*
X9634786Y-18464234D01*
X9906214Y-18464234D02*
X9877643Y-18449949D01*
X9863357Y-18421377D01*
X9863357Y-18164234D01*
X10134786Y-18449949D02*
X10106214Y-18464234D01*
X10049071Y-18464234D01*
X10020500Y-18449949D01*
X10006214Y-18421377D01*
X10006214Y-18307092D01*
X10020500Y-18278520D01*
X10049071Y-18264234D01*
X10106214Y-18264234D01*
X10134786Y-18278520D01*
X10149071Y-18307092D01*
X10149071Y-18335663D01*
X10006214Y-18364234D01*
X10263357Y-18449949D02*
X10291928Y-18464234D01*
X10349071Y-18464234D01*
X10377643Y-18449949D01*
X10391928Y-18421377D01*
X10391928Y-18407092D01*
X10377643Y-18378520D01*
X10349071Y-18364234D01*
X10306214Y-18364234D01*
X10277643Y-18349949D01*
X10263357Y-18321377D01*
X10263357Y-18307092D01*
X10277643Y-18278520D01*
X10306214Y-18264234D01*
X10349071Y-18264234D01*
X10377643Y-18278520D01*
X10491928Y-18578520D02*
X10506214Y-18564234D01*
X10534786Y-18521377D01*
X10549071Y-18492806D01*
X10563357Y-18449949D01*
X10577643Y-18378520D01*
X10577643Y-18321377D01*
X10563357Y-18249949D01*
X10549071Y-18207092D01*
X10534786Y-18178520D01*
X10506214Y-18135663D01*
X10491928Y-18121377D01*
X11034786Y-18578520D02*
X11020500Y-18564234D01*
X10991928Y-18521377D01*
X10977643Y-18492806D01*
X10963357Y-18449949D01*
X10949071Y-18378520D01*
X10949071Y-18321377D01*
X10963357Y-18249949D01*
X10977643Y-18207092D01*
X10991928Y-18178520D01*
X11020500Y-18135663D01*
X11034786Y-18121377D01*
X11149071Y-18264234D02*
X11149071Y-18464234D01*
X11149071Y-18292806D02*
X11163357Y-18278520D01*
X11191928Y-18264234D01*
X11234786Y-18264234D01*
X11263357Y-18278520D01*
X11277643Y-18307092D01*
X11277643Y-18464234D01*
X11463357Y-18464234D02*
X11434786Y-18449949D01*
X11420500Y-18435663D01*
X11406214Y-18407092D01*
X11406214Y-18321377D01*
X11420500Y-18292806D01*
X11434786Y-18278520D01*
X11463357Y-18264234D01*
X11506214Y-18264234D01*
X11534786Y-18278520D01*
X11549071Y-18292806D01*
X11563357Y-18321377D01*
X11563357Y-18407092D01*
X11549071Y-18435663D01*
X11534786Y-18449949D01*
X11506214Y-18464234D01*
X11463357Y-18464234D01*
X11649071Y-18264234D02*
X11763357Y-18264234D01*
X11691928Y-18164234D02*
X11691928Y-18421377D01*
X11706214Y-18449949D01*
X11734786Y-18464234D01*
X11763357Y-18464234D01*
X12091928Y-18264234D02*
X12091928Y-18564234D01*
X12091928Y-18278520D02*
X12120500Y-18264234D01*
X12177643Y-18264234D01*
X12206214Y-18278520D01*
X12220500Y-18292806D01*
X12234786Y-18321377D01*
X12234786Y-18407092D01*
X12220500Y-18435663D01*
X12206214Y-18449949D01*
X12177643Y-18464234D01*
X12120500Y-18464234D01*
X12091928Y-18449949D01*
X12406214Y-18464234D02*
X12377643Y-18449949D01*
X12363357Y-18421377D01*
X12363357Y-18164234D01*
X12649071Y-18464234D02*
X12649071Y-18307092D01*
X12634786Y-18278520D01*
X12606214Y-18264234D01*
X12549071Y-18264234D01*
X12520500Y-18278520D01*
X12649071Y-18449949D02*
X12620500Y-18464234D01*
X12549071Y-18464234D01*
X12520500Y-18449949D01*
X12506214Y-18421377D01*
X12506214Y-18392806D01*
X12520500Y-18364234D01*
X12549071Y-18349949D01*
X12620500Y-18349949D01*
X12649071Y-18335663D01*
X12749071Y-18264234D02*
X12863357Y-18264234D01*
X12791928Y-18164234D02*
X12791928Y-18421377D01*
X12806214Y-18449949D01*
X12834786Y-18464234D01*
X12863357Y-18464234D01*
X13077643Y-18449949D02*
X13049071Y-18464234D01*
X12991928Y-18464234D01*
X12963357Y-18449949D01*
X12949071Y-18421377D01*
X12949071Y-18307092D01*
X12963357Y-18278520D01*
X12991928Y-18264234D01*
X13049071Y-18264234D01*
X13077643Y-18278520D01*
X13091928Y-18307092D01*
X13091928Y-18335663D01*
X12949071Y-18364234D01*
X13349071Y-18464234D02*
X13349071Y-18164234D01*
X13349071Y-18449949D02*
X13320500Y-18464234D01*
X13263357Y-18464234D01*
X13234786Y-18449949D01*
X13220500Y-18435663D01*
X13206214Y-18407092D01*
X13206214Y-18321377D01*
X13220500Y-18292806D01*
X13234786Y-18278520D01*
X13263357Y-18264234D01*
X13320500Y-18264234D01*
X13349071Y-18278520D01*
X13463357Y-18578520D02*
X13477643Y-18564234D01*
X13506214Y-18521377D01*
X13520500Y-18492806D01*
X13534786Y-18449949D01*
X13549071Y-18378520D01*
X13549071Y-18321377D01*
X13534786Y-18249949D01*
X13520500Y-18207092D01*
X13506214Y-18178520D01*
X13477643Y-18135663D01*
X13463357Y-18121377D01*
X4005500Y-18724520D02*
G75*
G03*
X4005500Y-18724520I-215000J0D01*
G01*
X4420500Y-18660234D02*
X4420500Y-18860234D01*
X4349071Y-18545949D02*
X4277643Y-18760234D01*
X4463357Y-18760234D01*
X4577643Y-18831663D02*
X4591928Y-18845949D01*
X4577643Y-18860234D01*
X4563357Y-18845949D01*
X4577643Y-18831663D01*
X4577643Y-18860234D01*
X4691928Y-18560234D02*
X4877643Y-18560234D01*
X4777643Y-18674520D01*
X4820500Y-18674520D01*
X4849071Y-18688806D01*
X4863357Y-18703092D01*
X4877643Y-18731663D01*
X4877643Y-18803092D01*
X4863357Y-18831663D01*
X4849071Y-18845949D01*
X4820500Y-18860234D01*
X4734786Y-18860234D01*
X4706214Y-18845949D01*
X4691928Y-18831663D01*
X5063357Y-18560234D02*
X5091928Y-18560234D01*
X5120500Y-18574520D01*
X5134786Y-18588806D01*
X5149071Y-18617377D01*
X5163357Y-18674520D01*
X5163357Y-18745949D01*
X5149071Y-18803092D01*
X5134786Y-18831663D01*
X5120500Y-18845949D01*
X5091928Y-18860234D01*
X5063357Y-18860234D01*
X5034786Y-18845949D01*
X5020500Y-18831663D01*
X5006214Y-18803092D01*
X4991928Y-18745949D01*
X4991928Y-18674520D01*
X5006214Y-18617377D01*
X5020500Y-18588806D01*
X5034786Y-18574520D01*
X5063357Y-18560234D01*
X5291928Y-18860234D02*
X5291928Y-18660234D01*
X5291928Y-18688806D02*
X5306214Y-18674520D01*
X5334786Y-18660234D01*
X5377643Y-18660234D01*
X5406214Y-18674520D01*
X5420500Y-18703092D01*
X5420500Y-18860234D01*
X5420500Y-18703092D02*
X5434786Y-18674520D01*
X5463357Y-18660234D01*
X5506214Y-18660234D01*
X5534786Y-18674520D01*
X5549071Y-18703092D01*
X5549071Y-18860234D01*
X5691928Y-18860234D02*
X5691928Y-18660234D01*
X5691928Y-18688806D02*
X5706214Y-18674520D01*
X5734786Y-18660234D01*
X5777643Y-18660234D01*
X5806214Y-18674520D01*
X5820500Y-18703092D01*
X5820500Y-18860234D01*
X5820500Y-18703092D02*
X5834786Y-18674520D01*
X5863357Y-18660234D01*
X5906214Y-18660234D01*
X5934786Y-18674520D01*
X5949071Y-18703092D01*
X5949071Y-18860234D01*
X6534786Y-18545949D02*
X6277643Y-18931663D01*
X6920500Y-18560234D02*
X6949071Y-18560234D01*
X6977643Y-18574520D01*
X6991928Y-18588806D01*
X7006214Y-18617377D01*
X7020500Y-18674520D01*
X7020500Y-18745949D01*
X7006214Y-18803092D01*
X6991928Y-18831663D01*
X6977643Y-18845949D01*
X6949071Y-18860234D01*
X6920500Y-18860234D01*
X6891928Y-18845949D01*
X6877643Y-18831663D01*
X6863357Y-18803092D01*
X6849071Y-18745949D01*
X6849071Y-18674520D01*
X6863357Y-18617377D01*
X6877643Y-18588806D01*
X6891928Y-18574520D01*
X6920500Y-18560234D01*
X7149071Y-18831663D02*
X7163357Y-18845949D01*
X7149071Y-18860234D01*
X7134786Y-18845949D01*
X7149071Y-18831663D01*
X7149071Y-18860234D01*
X7449071Y-18860234D02*
X7277643Y-18860234D01*
X7363357Y-18860234D02*
X7363357Y-18560234D01*
X7334786Y-18603092D01*
X7306214Y-18631663D01*
X7277643Y-18645949D01*
X7706214Y-18560234D02*
X7649071Y-18560234D01*
X7620500Y-18574520D01*
X7606214Y-18588806D01*
X7577643Y-18631663D01*
X7563357Y-18688806D01*
X7563357Y-18803092D01*
X7577643Y-18831663D01*
X7591928Y-18845949D01*
X7620500Y-18860234D01*
X7677643Y-18860234D01*
X7706214Y-18845949D01*
X7720500Y-18831663D01*
X7734786Y-18803092D01*
X7734786Y-18731663D01*
X7720500Y-18703092D01*
X7706214Y-18688806D01*
X7677643Y-18674520D01*
X7620500Y-18674520D01*
X7591928Y-18688806D01*
X7577643Y-18703092D01*
X7563357Y-18731663D01*
X7877643Y-18860234D02*
X7934786Y-18860234D01*
X7963357Y-18845949D01*
X7977643Y-18831663D01*
X8006214Y-18788806D01*
X8020500Y-18731663D01*
X8020500Y-18617377D01*
X8006214Y-18588806D01*
X7991928Y-18574520D01*
X7963357Y-18560234D01*
X7906214Y-18560234D01*
X7877643Y-18574520D01*
X7863357Y-18588806D01*
X7849071Y-18617377D01*
X7849071Y-18688806D01*
X7863357Y-18717377D01*
X7877643Y-18731663D01*
X7906214Y-18745949D01*
X7963357Y-18745949D01*
X7991928Y-18731663D01*
X8006214Y-18717377D01*
X8020500Y-18688806D01*
X8134786Y-18560234D02*
X8134786Y-18617377D01*
X8249071Y-18560234D02*
X8249071Y-18617377D01*
X8691928Y-18974520D02*
X8677643Y-18960234D01*
X8649071Y-18917377D01*
X8634786Y-18888806D01*
X8620500Y-18845949D01*
X8606214Y-18774520D01*
X8606214Y-18717377D01*
X8620500Y-18645949D01*
X8634786Y-18603092D01*
X8649071Y-18574520D01*
X8677643Y-18531663D01*
X8691928Y-18517377D01*
X8934786Y-18560234D02*
X8877643Y-18560234D01*
X8849071Y-18574520D01*
X8834786Y-18588806D01*
X8806214Y-18631663D01*
X8791928Y-18688806D01*
X8791928Y-18803092D01*
X8806214Y-18831663D01*
X8820500Y-18845949D01*
X8849071Y-18860234D01*
X8906214Y-18860234D01*
X8934786Y-18845949D01*
X8949071Y-18831663D01*
X8963357Y-18803092D01*
X8963357Y-18731663D01*
X8949071Y-18703092D01*
X8934786Y-18688806D01*
X8906214Y-18674520D01*
X8849071Y-18674520D01*
X8820500Y-18688806D01*
X8806214Y-18703092D01*
X8791928Y-18731663D01*
X9320500Y-18860234D02*
X9320500Y-18560234D01*
X9449071Y-18860234D02*
X9449071Y-18703092D01*
X9434786Y-18674520D01*
X9406214Y-18660234D01*
X9363357Y-18660234D01*
X9334786Y-18674520D01*
X9320500Y-18688806D01*
X9634786Y-18860234D02*
X9606214Y-18845949D01*
X9591928Y-18831663D01*
X9577643Y-18803092D01*
X9577643Y-18717377D01*
X9591928Y-18688806D01*
X9606214Y-18674520D01*
X9634786Y-18660234D01*
X9677643Y-18660234D01*
X9706214Y-18674520D01*
X9720500Y-18688806D01*
X9734786Y-18717377D01*
X9734786Y-18803092D01*
X9720500Y-18831663D01*
X9706214Y-18845949D01*
X9677643Y-18860234D01*
X9634786Y-18860234D01*
X9906214Y-18860234D02*
X9877643Y-18845949D01*
X9863357Y-18817377D01*
X9863357Y-18560234D01*
X10134786Y-18845949D02*
X10106214Y-18860234D01*
X10049071Y-18860234D01*
X10020500Y-18845949D01*
X10006214Y-18817377D01*
X10006214Y-18703092D01*
X10020500Y-18674520D01*
X10049071Y-18660234D01*
X10106214Y-18660234D01*
X10134786Y-18674520D01*
X10149071Y-18703092D01*
X10149071Y-18731663D01*
X10006214Y-18760234D01*
X10263357Y-18845949D02*
X10291928Y-18860234D01*
X10349071Y-18860234D01*
X10377643Y-18845949D01*
X10391928Y-18817377D01*
X10391928Y-18803092D01*
X10377643Y-18774520D01*
X10349071Y-18760234D01*
X10306214Y-18760234D01*
X10277643Y-18745949D01*
X10263357Y-18717377D01*
X10263357Y-18703092D01*
X10277643Y-18674520D01*
X10306214Y-18660234D01*
X10349071Y-18660234D01*
X10377643Y-18674520D01*
X10491928Y-18974520D02*
X10506214Y-18960234D01*
X10534786Y-18917377D01*
X10549071Y-18888806D01*
X10563357Y-18845949D01*
X10577643Y-18774520D01*
X10577643Y-18717377D01*
X10563357Y-18645949D01*
X10549071Y-18603092D01*
X10534786Y-18574520D01*
X10506214Y-18531663D01*
X10491928Y-18517377D01*
X11034786Y-18974520D02*
X11020500Y-18960234D01*
X10991928Y-18917377D01*
X10977643Y-18888806D01*
X10963357Y-18845949D01*
X10949071Y-18774520D01*
X10949071Y-18717377D01*
X10963357Y-18645949D01*
X10977643Y-18603092D01*
X10991928Y-18574520D01*
X11020500Y-18531663D01*
X11034786Y-18517377D01*
X11149071Y-18660234D02*
X11149071Y-18860234D01*
X11149071Y-18688806D02*
X11163357Y-18674520D01*
X11191928Y-18660234D01*
X11234786Y-18660234D01*
X11263357Y-18674520D01*
X11277643Y-18703092D01*
X11277643Y-18860234D01*
X11463357Y-18860234D02*
X11434786Y-18845949D01*
X11420500Y-18831663D01*
X11406214Y-18803092D01*
X11406214Y-18717377D01*
X11420500Y-18688806D01*
X11434786Y-18674520D01*
X11463357Y-18660234D01*
X11506214Y-18660234D01*
X11534786Y-18674520D01*
X11549071Y-18688806D01*
X11563357Y-18717377D01*
X11563357Y-18803092D01*
X11549071Y-18831663D01*
X11534786Y-18845949D01*
X11506214Y-18860234D01*
X11463357Y-18860234D01*
X11649071Y-18660234D02*
X11763357Y-18660234D01*
X11691928Y-18560234D02*
X11691928Y-18817377D01*
X11706214Y-18845949D01*
X11734786Y-18860234D01*
X11763357Y-18860234D01*
X12091928Y-18660234D02*
X12091928Y-18960234D01*
X12091928Y-18674520D02*
X12120500Y-18660234D01*
X12177643Y-18660234D01*
X12206214Y-18674520D01*
X12220500Y-18688806D01*
X12234786Y-18717377D01*
X12234786Y-18803092D01*
X12220500Y-18831663D01*
X12206214Y-18845949D01*
X12177643Y-18860234D01*
X12120500Y-18860234D01*
X12091928Y-18845949D01*
X12406214Y-18860234D02*
X12377643Y-18845949D01*
X12363357Y-18817377D01*
X12363357Y-18560234D01*
X12649071Y-18860234D02*
X12649071Y-18703092D01*
X12634786Y-18674520D01*
X12606214Y-18660234D01*
X12549071Y-18660234D01*
X12520500Y-18674520D01*
X12649071Y-18845949D02*
X12620500Y-18860234D01*
X12549071Y-18860234D01*
X12520500Y-18845949D01*
X12506214Y-18817377D01*
X12506214Y-18788806D01*
X12520500Y-18760234D01*
X12549071Y-18745949D01*
X12620500Y-18745949D01*
X12649071Y-18731663D01*
X12749071Y-18660234D02*
X12863357Y-18660234D01*
X12791928Y-18560234D02*
X12791928Y-18817377D01*
X12806214Y-18845949D01*
X12834786Y-18860234D01*
X12863357Y-18860234D01*
X13077643Y-18845949D02*
X13049071Y-18860234D01*
X12991928Y-18860234D01*
X12963357Y-18845949D01*
X12949071Y-18817377D01*
X12949071Y-18703092D01*
X12963357Y-18674520D01*
X12991928Y-18660234D01*
X13049071Y-18660234D01*
X13077643Y-18674520D01*
X13091928Y-18703092D01*
X13091928Y-18731663D01*
X12949071Y-18760234D01*
X13349071Y-18860234D02*
X13349071Y-18560234D01*
X13349071Y-18845949D02*
X13320500Y-18860234D01*
X13263357Y-18860234D01*
X13234786Y-18845949D01*
X13220500Y-18831663D01*
X13206214Y-18803092D01*
X13206214Y-18717377D01*
X13220500Y-18688806D01*
X13234786Y-18674520D01*
X13263357Y-18660234D01*
X13320500Y-18660234D01*
X13349071Y-18674520D01*
X13463357Y-18974520D02*
X13477643Y-18960234D01*
X13506214Y-18917377D01*
X13520500Y-18888806D01*
X13534786Y-18845949D01*
X13549071Y-18774520D01*
X13549071Y-18717377D01*
X13534786Y-18645949D01*
X13520500Y-18603092D01*
X13506214Y-18574520D01*
X13477643Y-18531663D01*
X13463357Y-18517377D01*
M02*
