%TF.GenerationSoftware,KiCad,Pcbnew,(5.1.9)-1*%
%TF.CreationDate,2021-07-01T20:44:51-05:00*%
%TF.ProjectId,FM Towns Pico Adapter,464d2054-6f77-46e7-9320-5069636f2041,rev?*%
%TF.SameCoordinates,Original*%
%TF.FileFunction,Copper,L2,Bot*%
%TF.FilePolarity,Positive*%
%FSLAX46Y46*%
G04 Gerber Fmt 4.6, Leading zero omitted, Abs format (unit mm)*
G04 Created by KiCad (PCBNEW (5.1.9)-1) date 2021-07-01 20:44:51*
%MOMM*%
%LPD*%
G01*
G04 APERTURE LIST*
%TA.AperFunction,ComponentPad*%
%ADD10C,7.000000*%
%TD*%
%TA.AperFunction,ComponentPad*%
%ADD11C,0.800000*%
%TD*%
%TA.AperFunction,ComponentPad*%
%ADD12C,1.600000*%
%TD*%
%TA.AperFunction,ComponentPad*%
%ADD13R,1.600000X1.600000*%
%TD*%
%TA.AperFunction,ComponentPad*%
%ADD14O,1.700000X1.700000*%
%TD*%
%TA.AperFunction,ComponentPad*%
%ADD15R,1.700000X1.700000*%
%TD*%
%TA.AperFunction,ComponentPad*%
%ADD16C,2.900000*%
%TD*%
%TA.AperFunction,ComponentPad*%
%ADD17C,4.200000*%
%TD*%
%TA.AperFunction,ComponentPad*%
%ADD18C,1.300000*%
%TD*%
%TA.AperFunction,ComponentPad*%
%ADD19R,1.300000X1.300000*%
%TD*%
%TA.AperFunction,ViaPad*%
%ADD20C,0.800000*%
%TD*%
%TA.AperFunction,Conductor*%
%ADD21C,1.000000*%
%TD*%
%TA.AperFunction,Conductor*%
%ADD22C,2.000000*%
%TD*%
%TA.AperFunction,Conductor*%
%ADD23C,0.750000*%
%TD*%
%TA.AperFunction,Conductor*%
%ADD24C,0.254000*%
%TD*%
%TA.AperFunction,Conductor*%
%ADD25C,0.100000*%
%TD*%
G04 APERTURE END LIST*
D10*
%TO.P,PAD2,1*%
%TO.N,N/C*%
X149523500Y-133373000D03*
D11*
X149523500Y-130748000D03*
X151379655Y-131516845D03*
X152148500Y-133373000D03*
X151379655Y-135229155D03*
X149523500Y-135998000D03*
X147667345Y-135229155D03*
X146898500Y-133373000D03*
X147667345Y-131516845D03*
%TD*%
D10*
%TO.P,PAD1,1*%
%TO.N,N/C*%
X194227500Y-133817500D03*
D11*
X194227500Y-131192500D03*
X196083655Y-131961345D03*
X196852500Y-133817500D03*
X196083655Y-135673655D03*
X194227500Y-136442500D03*
X192371345Y-135673655D03*
X191602500Y-133817500D03*
X192371345Y-131961345D03*
%TD*%
D10*
%TO.P,PAD3,1*%
%TO.N,N/C*%
X149714000Y-63713500D03*
D11*
X149714000Y-61088500D03*
X151570155Y-61857345D03*
X152339000Y-63713500D03*
X151570155Y-65569655D03*
X149714000Y-66338500D03*
X147857845Y-65569655D03*
X147089000Y-63713500D03*
X147857845Y-61857345D03*
%TD*%
D10*
%TO.P,PAD4,1*%
%TO.N,N/C*%
X194164000Y-63459500D03*
D11*
X194164000Y-60834500D03*
X196020155Y-61603345D03*
X196789000Y-63459500D03*
X196020155Y-65315655D03*
X194164000Y-66084500D03*
X192307845Y-65315655D03*
X191539000Y-63459500D03*
X192307845Y-61603345D03*
%TD*%
D12*
%TO.P,U1,24*%
%TO.N,/5V_STBY*%
X72993160Y-155795960D03*
%TO.P,U1,23*%
%TO.N,GND*%
X70453160Y-155795960D03*
%TO.P,U1,22*%
%TO.N,Net-(U1-Pad22)*%
X67913160Y-155795960D03*
%TO.P,U1,21*%
%TO.N,Net-(U1-Pad21)*%
X65373160Y-155795960D03*
%TO.P,U1,20*%
%TO.N,Net-(U1-Pad20)*%
X62833160Y-155795960D03*
%TO.P,U1,19*%
%TO.N,Net-(U1-Pad19)*%
X60293160Y-155795960D03*
%TO.P,U1,18*%
%TO.N,Net-(U1-Pad18)*%
X57753160Y-155795960D03*
%TO.P,U1,17*%
%TO.N,Net-(U1-Pad17)*%
X55213160Y-155795960D03*
%TO.P,U1,16*%
%TO.N,Net-(U1-Pad16)*%
X52673160Y-155795960D03*
%TO.P,U1,15*%
%TO.N,Net-(U1-Pad15)*%
X50133160Y-155795960D03*
%TO.P,U1,14*%
%TO.N,Net-(U1-Pad14)*%
X47593160Y-155795960D03*
%TO.P,U1,13*%
%TO.N,Net-(U1-Pad13)*%
X45053160Y-155795960D03*
%TO.P,U1,12*%
%TO.N,Net-(U1-Pad12)*%
X45053160Y-140555960D03*
%TO.P,U1,11*%
%TO.N,Net-(U1-Pad11)*%
X47593160Y-140555960D03*
%TO.P,U1,10*%
%TO.N,Net-(U1-Pad10)*%
X50133160Y-140555960D03*
%TO.P,U1,9*%
%TO.N,/FM_PS_ON_N*%
X52673160Y-140555960D03*
%TO.P,U1,8*%
%TO.N,Net-(U1-Pad8)*%
X55213160Y-140555960D03*
%TO.P,U1,7*%
%TO.N,/FM_PS_OFF_N*%
X57753160Y-140555960D03*
%TO.P,U1,6*%
%TO.N,/PS_ON*%
X60293160Y-140555960D03*
%TO.P,U1,5*%
%TO.N,Net-(U1-Pad5)*%
X62833160Y-140555960D03*
%TO.P,U1,4*%
%TO.N,GND*%
X65373160Y-140555960D03*
%TO.P,U1,3*%
X67913160Y-140555960D03*
%TO.P,U1,2*%
%TO.N,Net-(U1-Pad2)*%
X70453160Y-140555960D03*
D13*
%TO.P,U1,1*%
%TO.N,Net-(U1-Pad1)*%
X72993160Y-140555960D03*
%TD*%
D14*
%TO.P,STOCK_FAN,2*%
%TO.N,+12V*%
X224140000Y-157510000D03*
D15*
%TO.P,STOCK_FAN,1*%
%TO.N,GND*%
X224140000Y-160050000D03*
%TD*%
D16*
%TO.P,J1,24*%
%TO.N,GND*%
X62857140Y-122170600D03*
%TO.P,J1,23*%
%TO.N,+5V*%
X62857140Y-117970600D03*
%TO.P,J1,22*%
X62857140Y-113770600D03*
%TO.P,J1,21*%
X62857140Y-109570600D03*
%TO.P,J1,20*%
%TO.N,Net-(J1-Pad20)*%
X62857140Y-105370600D03*
%TO.P,J1,19*%
%TO.N,GND*%
X62857140Y-101170600D03*
%TO.P,J1,18*%
X62857140Y-96970600D03*
%TO.P,J1,17*%
X62857140Y-92770600D03*
%TO.P,J1,16*%
%TO.N,/PS_ON*%
X62857140Y-88570600D03*
%TO.P,J1,15*%
%TO.N,GND*%
X62857140Y-84370600D03*
%TO.P,J1,14*%
%TO.N,-12V*%
X62857140Y-80170600D03*
%TO.P,J1,13*%
%TO.N,Net-(J1-Pad13)*%
X62857140Y-75970600D03*
%TO.P,J1,12*%
%TO.N,Net-(J1-Pad12)*%
X68357140Y-122170600D03*
%TO.P,J1,11*%
%TO.N,+12V*%
X68357140Y-117970600D03*
%TO.P,J1,10*%
X68357140Y-113770600D03*
%TO.P,J1,9*%
%TO.N,/5V_STBY*%
X68357140Y-109570600D03*
%TO.P,J1,8*%
%TO.N,Net-(J1-Pad8)*%
X68357140Y-105370600D03*
%TO.P,J1,7*%
%TO.N,GND*%
X68357140Y-101170600D03*
%TO.P,J1,6*%
%TO.N,+5V*%
X68357140Y-96970600D03*
%TO.P,J1,5*%
%TO.N,GND*%
X68357140Y-92770600D03*
%TO.P,J1,4*%
%TO.N,+5V*%
X68357140Y-88570600D03*
%TO.P,J1,3*%
%TO.N,GND*%
X68357140Y-84370600D03*
%TO.P,J1,2*%
%TO.N,Net-(J1-Pad2)*%
X68357140Y-80170600D03*
%TO.P,J1,1*%
%TO.N,Net-(J1-Pad1)*%
X68357140Y-75970600D03*
%TD*%
D17*
%TO.P,J2,MH2*%
%TO.N,Net-(J2-PadMH2)*%
X44196000Y-132842000D03*
%TO.P,J2,MH1*%
%TO.N,Net-(J2-PadMH1)*%
X44196000Y-64262000D03*
D18*
%TO.P,J2,B22*%
%TO.N,+5V*%
X49276000Y-125222000D03*
%TO.P,J2,B21*%
X49276000Y-122682000D03*
%TO.P,J2,B20*%
X49276000Y-120142000D03*
%TO.P,J2,B19*%
X49276000Y-117602000D03*
%TO.P,J2,B18*%
X49276000Y-115062000D03*
%TO.P,J2,B17*%
X49276000Y-112522000D03*
%TO.P,J2,B16*%
X49276000Y-109982000D03*
%TO.P,J2,B15*%
%TO.N,+12V*%
X49276000Y-107442000D03*
%TO.P,J2,B14*%
X49276000Y-104902000D03*
%TO.P,J2,B13*%
X49276000Y-102362000D03*
%TO.P,J2,B12*%
%TO.N,GND*%
X49276000Y-99822000D03*
%TO.P,J2,B11*%
X49276000Y-97282000D03*
%TO.P,J2,B10*%
X49276000Y-94742000D03*
%TO.P,J2,B9*%
X49276000Y-92202000D03*
%TO.P,J2,B8*%
X49276000Y-89662000D03*
%TO.P,J2,B7*%
X49276000Y-87122000D03*
%TO.P,J2,B6*%
X49276000Y-84582000D03*
%TO.P,J2,B5*%
X49276000Y-82042000D03*
%TO.P,J2,B4*%
X49276000Y-79502000D03*
%TO.P,J2,B3*%
X49276000Y-76962000D03*
%TO.P,J2,B2*%
X49276000Y-74422000D03*
%TO.P,J2,B1*%
%TO.N,/FM_PS_ON_N*%
X49276000Y-71882000D03*
%TO.P,J2,A22*%
%TO.N,+5V*%
X46736000Y-125222000D03*
%TO.P,J2,A21*%
X46736000Y-122682000D03*
%TO.P,J2,A20*%
X46736000Y-120142000D03*
%TO.P,J2,A19*%
X46736000Y-117602000D03*
%TO.P,J2,A18*%
X46736000Y-115062000D03*
%TO.P,J2,A17*%
X46736000Y-112522000D03*
%TO.P,J2,A16*%
X46736000Y-109982000D03*
%TO.P,J2,A15*%
%TO.N,+12V*%
X46736000Y-107442000D03*
%TO.P,J2,A14*%
X46736000Y-104902000D03*
%TO.P,J2,A13*%
%TO.N,-12V*%
X46736000Y-102362000D03*
%TO.P,J2,A12*%
%TO.N,GND*%
X46736000Y-99822000D03*
%TO.P,J2,A11*%
X46736000Y-97282000D03*
%TO.P,J2,A10*%
X46736000Y-94742000D03*
%TO.P,J2,A9*%
X46736000Y-92202000D03*
%TO.P,J2,A8*%
X46736000Y-89662000D03*
%TO.P,J2,A7*%
X46736000Y-87122000D03*
%TO.P,J2,A6*%
X46736000Y-84582000D03*
%TO.P,J2,A5*%
X46736000Y-82042000D03*
%TO.P,J2,A4*%
X46736000Y-79502000D03*
%TO.P,J2,A3*%
X46736000Y-76962000D03*
%TO.P,J2,A2*%
X46736000Y-74422000D03*
D19*
%TO.P,J2,A1*%
%TO.N,/FM_PS_OFF_N*%
X46736000Y-71882000D03*
%TD*%
D20*
%TO.N,GND*%
X55758080Y-110088680D03*
%TD*%
D21*
%TO.N,GND*%
X70459541Y-86473001D02*
X68357140Y-84370600D01*
X70459541Y-99068199D02*
X70459541Y-86473001D01*
X68357140Y-101170600D02*
X70459541Y-99068199D01*
X62857140Y-138039940D02*
X65373160Y-140555960D01*
X62857140Y-122170600D02*
X62857140Y-138039940D01*
X62857140Y-122170600D02*
X55758080Y-115071540D01*
X55758080Y-115071540D02*
X55758080Y-110088680D01*
X55758080Y-110088680D02*
X55758080Y-110088680D01*
D22*
%TO.N,+5V*%
X65459541Y-99868199D02*
X68357140Y-96970600D01*
X65459541Y-106968199D02*
X65459541Y-99868199D01*
X62857140Y-109570600D02*
X65459541Y-106968199D01*
D23*
%TO.N,+12V*%
X66379739Y-119948001D02*
X66379739Y-138500499D01*
X68357140Y-117970600D02*
X66379739Y-119948001D01*
X66379739Y-138500499D02*
X66426080Y-138546840D01*
X224140000Y-157510000D02*
X75269880Y-157510000D01*
X74325480Y-156565600D02*
X74325480Y-138546840D01*
X75269880Y-157510000D02*
X74325480Y-156565600D01*
X66426080Y-138546840D02*
X74325480Y-138546840D01*
X66379739Y-111793199D02*
X61953319Y-111793199D01*
X68357140Y-113770600D02*
X66379739Y-111793199D01*
X61953319Y-111793199D02*
X61518800Y-111358680D01*
D22*
X56876986Y-107442000D02*
X61156233Y-111721247D01*
X49276000Y-107442000D02*
X56876986Y-107442000D01*
%TD*%
D24*
%TO.N,+12V*%
X50749200Y-108567045D02*
X49930047Y-108549722D01*
X49981922Y-108327527D01*
X49276000Y-107621605D01*
X48570078Y-108327527D01*
X48615463Y-108521921D01*
X47402526Y-108496270D01*
X47441922Y-108327527D01*
X46736000Y-107621605D01*
X46721858Y-107635748D01*
X46542253Y-107456143D01*
X46556395Y-107442000D01*
X46915605Y-107442000D01*
X47621527Y-108147922D01*
X47850201Y-108094534D01*
X47956095Y-107864626D01*
X48007776Y-107649038D01*
X48026730Y-107768449D01*
X48114422Y-108005896D01*
X48161799Y-108094534D01*
X48390473Y-108147922D01*
X49096395Y-107442000D01*
X49455605Y-107442000D01*
X50161527Y-108147922D01*
X50390201Y-108094534D01*
X50496095Y-107864626D01*
X50555102Y-107618476D01*
X50564952Y-107365545D01*
X50525270Y-107115551D01*
X50437578Y-106878104D01*
X50390201Y-106789466D01*
X50161527Y-106736078D01*
X49455605Y-107442000D01*
X49096395Y-107442000D01*
X48390473Y-106736078D01*
X48161799Y-106789466D01*
X48055905Y-107019374D01*
X48004224Y-107234962D01*
X47985270Y-107115551D01*
X47897578Y-106878104D01*
X47850201Y-106789466D01*
X47621527Y-106736078D01*
X46915605Y-107442000D01*
X46556395Y-107442000D01*
X46542253Y-107427858D01*
X46721858Y-107248253D01*
X46736000Y-107262395D01*
X47441922Y-106556473D01*
X47388534Y-106327799D01*
X47158626Y-106221905D01*
X46943038Y-106170224D01*
X47062449Y-106151270D01*
X47299896Y-106063578D01*
X47388534Y-106016201D01*
X47441922Y-105787527D01*
X48570078Y-105787527D01*
X48623466Y-106016201D01*
X48853374Y-106122095D01*
X49068962Y-106173776D01*
X48949551Y-106192730D01*
X48712104Y-106280422D01*
X48623466Y-106327799D01*
X48570078Y-106556473D01*
X49276000Y-107262395D01*
X49981922Y-106556473D01*
X49928534Y-106327799D01*
X49698626Y-106221905D01*
X49483038Y-106170224D01*
X49602449Y-106151270D01*
X49839896Y-106063578D01*
X49928534Y-106016201D01*
X49981922Y-105787527D01*
X49276000Y-105081605D01*
X48570078Y-105787527D01*
X47441922Y-105787527D01*
X46736000Y-105081605D01*
X46721858Y-105095748D01*
X46542253Y-104916143D01*
X46556395Y-104902000D01*
X46915605Y-104902000D01*
X47621527Y-105607922D01*
X47850201Y-105554534D01*
X47956095Y-105324626D01*
X48007776Y-105109038D01*
X48026730Y-105228449D01*
X48114422Y-105465896D01*
X48161799Y-105554534D01*
X48390473Y-105607922D01*
X49096395Y-104902000D01*
X49455605Y-104902000D01*
X50161527Y-105607922D01*
X50390201Y-105554534D01*
X50496095Y-105324626D01*
X50555102Y-105078476D01*
X50564952Y-104825545D01*
X50525270Y-104575551D01*
X50437578Y-104338104D01*
X50390201Y-104249466D01*
X50161527Y-104196078D01*
X49455605Y-104902000D01*
X49096395Y-104902000D01*
X48390473Y-104196078D01*
X48161799Y-104249466D01*
X48055905Y-104479374D01*
X48004224Y-104694962D01*
X47985270Y-104575551D01*
X47897578Y-104338104D01*
X47850201Y-104249466D01*
X47621527Y-104196078D01*
X46915605Y-104902000D01*
X46556395Y-104902000D01*
X46542253Y-104887858D01*
X46721858Y-104708253D01*
X46736000Y-104722395D01*
X47441922Y-104016473D01*
X47388534Y-103787799D01*
X47348067Y-103769160D01*
X48153320Y-103769160D01*
X48178096Y-103766720D01*
X48201921Y-103759493D01*
X48223877Y-103747757D01*
X48243123Y-103731963D01*
X48258917Y-103712717D01*
X48270653Y-103690761D01*
X48277880Y-103666936D01*
X48280320Y-103642160D01*
X48280320Y-103247527D01*
X48570078Y-103247527D01*
X48623466Y-103476201D01*
X48853374Y-103582095D01*
X49068962Y-103633776D01*
X48949551Y-103652730D01*
X48712104Y-103740422D01*
X48623466Y-103787799D01*
X48570078Y-104016473D01*
X49276000Y-104722395D01*
X49981922Y-104016473D01*
X49928534Y-103787799D01*
X49698626Y-103681905D01*
X49483038Y-103630224D01*
X49602449Y-103611270D01*
X49839896Y-103523578D01*
X49928534Y-103476201D01*
X49981922Y-103247527D01*
X49276000Y-102541605D01*
X48570078Y-103247527D01*
X48280320Y-103247527D01*
X48280320Y-103042205D01*
X48390473Y-103067922D01*
X49096395Y-102362000D01*
X49082253Y-102347858D01*
X49261858Y-102168253D01*
X49276000Y-102182395D01*
X49290143Y-102168253D01*
X49469748Y-102347858D01*
X49455605Y-102362000D01*
X50161527Y-103067922D01*
X50390201Y-103014534D01*
X50496095Y-102784626D01*
X50555102Y-102538476D01*
X50564952Y-102285545D01*
X50525270Y-102035551D01*
X50437578Y-101798104D01*
X50390201Y-101709466D01*
X50161529Y-101656079D01*
X50273488Y-101544120D01*
X50749200Y-101544120D01*
X50749200Y-108567045D01*
%TA.AperFunction,Conductor*%
D25*
G36*
X50749200Y-108567045D02*
G01*
X49930047Y-108549722D01*
X49981922Y-108327527D01*
X49276000Y-107621605D01*
X48570078Y-108327527D01*
X48615463Y-108521921D01*
X47402526Y-108496270D01*
X47441922Y-108327527D01*
X46736000Y-107621605D01*
X46721858Y-107635748D01*
X46542253Y-107456143D01*
X46556395Y-107442000D01*
X46915605Y-107442000D01*
X47621527Y-108147922D01*
X47850201Y-108094534D01*
X47956095Y-107864626D01*
X48007776Y-107649038D01*
X48026730Y-107768449D01*
X48114422Y-108005896D01*
X48161799Y-108094534D01*
X48390473Y-108147922D01*
X49096395Y-107442000D01*
X49455605Y-107442000D01*
X50161527Y-108147922D01*
X50390201Y-108094534D01*
X50496095Y-107864626D01*
X50555102Y-107618476D01*
X50564952Y-107365545D01*
X50525270Y-107115551D01*
X50437578Y-106878104D01*
X50390201Y-106789466D01*
X50161527Y-106736078D01*
X49455605Y-107442000D01*
X49096395Y-107442000D01*
X48390473Y-106736078D01*
X48161799Y-106789466D01*
X48055905Y-107019374D01*
X48004224Y-107234962D01*
X47985270Y-107115551D01*
X47897578Y-106878104D01*
X47850201Y-106789466D01*
X47621527Y-106736078D01*
X46915605Y-107442000D01*
X46556395Y-107442000D01*
X46542253Y-107427858D01*
X46721858Y-107248253D01*
X46736000Y-107262395D01*
X47441922Y-106556473D01*
X47388534Y-106327799D01*
X47158626Y-106221905D01*
X46943038Y-106170224D01*
X47062449Y-106151270D01*
X47299896Y-106063578D01*
X47388534Y-106016201D01*
X47441922Y-105787527D01*
X48570078Y-105787527D01*
X48623466Y-106016201D01*
X48853374Y-106122095D01*
X49068962Y-106173776D01*
X48949551Y-106192730D01*
X48712104Y-106280422D01*
X48623466Y-106327799D01*
X48570078Y-106556473D01*
X49276000Y-107262395D01*
X49981922Y-106556473D01*
X49928534Y-106327799D01*
X49698626Y-106221905D01*
X49483038Y-106170224D01*
X49602449Y-106151270D01*
X49839896Y-106063578D01*
X49928534Y-106016201D01*
X49981922Y-105787527D01*
X49276000Y-105081605D01*
X48570078Y-105787527D01*
X47441922Y-105787527D01*
X46736000Y-105081605D01*
X46721858Y-105095748D01*
X46542253Y-104916143D01*
X46556395Y-104902000D01*
X46915605Y-104902000D01*
X47621527Y-105607922D01*
X47850201Y-105554534D01*
X47956095Y-105324626D01*
X48007776Y-105109038D01*
X48026730Y-105228449D01*
X48114422Y-105465896D01*
X48161799Y-105554534D01*
X48390473Y-105607922D01*
X49096395Y-104902000D01*
X49455605Y-104902000D01*
X50161527Y-105607922D01*
X50390201Y-105554534D01*
X50496095Y-105324626D01*
X50555102Y-105078476D01*
X50564952Y-104825545D01*
X50525270Y-104575551D01*
X50437578Y-104338104D01*
X50390201Y-104249466D01*
X50161527Y-104196078D01*
X49455605Y-104902000D01*
X49096395Y-104902000D01*
X48390473Y-104196078D01*
X48161799Y-104249466D01*
X48055905Y-104479374D01*
X48004224Y-104694962D01*
X47985270Y-104575551D01*
X47897578Y-104338104D01*
X47850201Y-104249466D01*
X47621527Y-104196078D01*
X46915605Y-104902000D01*
X46556395Y-104902000D01*
X46542253Y-104887858D01*
X46721858Y-104708253D01*
X46736000Y-104722395D01*
X47441922Y-104016473D01*
X47388534Y-103787799D01*
X47348067Y-103769160D01*
X48153320Y-103769160D01*
X48178096Y-103766720D01*
X48201921Y-103759493D01*
X48223877Y-103747757D01*
X48243123Y-103731963D01*
X48258917Y-103712717D01*
X48270653Y-103690761D01*
X48277880Y-103666936D01*
X48280320Y-103642160D01*
X48280320Y-103247527D01*
X48570078Y-103247527D01*
X48623466Y-103476201D01*
X48853374Y-103582095D01*
X49068962Y-103633776D01*
X48949551Y-103652730D01*
X48712104Y-103740422D01*
X48623466Y-103787799D01*
X48570078Y-104016473D01*
X49276000Y-104722395D01*
X49981922Y-104016473D01*
X49928534Y-103787799D01*
X49698626Y-103681905D01*
X49483038Y-103630224D01*
X49602449Y-103611270D01*
X49839896Y-103523578D01*
X49928534Y-103476201D01*
X49981922Y-103247527D01*
X49276000Y-102541605D01*
X48570078Y-103247527D01*
X48280320Y-103247527D01*
X48280320Y-103042205D01*
X48390473Y-103067922D01*
X49096395Y-102362000D01*
X49082253Y-102347858D01*
X49261858Y-102168253D01*
X49276000Y-102182395D01*
X49290143Y-102168253D01*
X49469748Y-102347858D01*
X49455605Y-102362000D01*
X50161527Y-103067922D01*
X50390201Y-103014534D01*
X50496095Y-102784626D01*
X50555102Y-102538476D01*
X50564952Y-102285545D01*
X50525270Y-102035551D01*
X50437578Y-101798104D01*
X50390201Y-101709466D01*
X50161529Y-101656079D01*
X50273488Y-101544120D01*
X50749200Y-101544120D01*
X50749200Y-108567045D01*
G37*
%TD.AperFunction*%
%TD*%
D24*
%TO.N,+12V*%
X67217176Y-112032073D02*
X67080693Y-112314548D01*
X68357140Y-113590995D01*
X69633587Y-112314548D01*
X69510848Y-112060517D01*
X70137763Y-112068292D01*
X70129418Y-112654971D01*
X70123633Y-112644148D01*
X69813192Y-112494153D01*
X68536745Y-113770600D01*
X69813192Y-115047047D01*
X70097347Y-114909753D01*
X70070200Y-116818331D01*
X69813192Y-116694153D01*
X68536745Y-117970600D01*
X69813192Y-119247047D01*
X70037194Y-119138817D01*
X70024885Y-120004172D01*
X68871431Y-119996049D01*
X69200102Y-119888621D01*
X69483592Y-119737093D01*
X69633587Y-119426652D01*
X68357140Y-118150205D01*
X67080693Y-119426652D01*
X67230688Y-119737093D01*
X67596959Y-119922911D01*
X67831907Y-119988729D01*
X65917613Y-119975248D01*
X65910341Y-118015401D01*
X66262531Y-118015401D01*
X66311519Y-118423177D01*
X66439119Y-118813562D01*
X66590647Y-119097052D01*
X66901088Y-119247047D01*
X68177535Y-117970600D01*
X66901088Y-116694153D01*
X66590647Y-116844148D01*
X66404829Y-117210419D01*
X66294039Y-117605903D01*
X66262531Y-118015401D01*
X65910341Y-118015401D01*
X65904773Y-116514548D01*
X67080693Y-116514548D01*
X68357140Y-117790995D01*
X69633587Y-116514548D01*
X69483592Y-116204107D01*
X69117321Y-116018289D01*
X68721837Y-115907499D01*
X68312339Y-115875991D01*
X67904563Y-115924979D01*
X67514178Y-116052579D01*
X67230688Y-116204107D01*
X67080693Y-116514548D01*
X65904773Y-116514548D01*
X65899994Y-115226652D01*
X67080693Y-115226652D01*
X67230688Y-115537093D01*
X67596959Y-115722911D01*
X67992443Y-115833701D01*
X68401941Y-115865209D01*
X68809717Y-115816221D01*
X69200102Y-115688621D01*
X69483592Y-115537093D01*
X69633587Y-115226652D01*
X68357140Y-113950205D01*
X67080693Y-115226652D01*
X65899994Y-115226652D01*
X65894757Y-113815401D01*
X66262531Y-113815401D01*
X66311519Y-114223177D01*
X66439119Y-114613562D01*
X66590647Y-114897052D01*
X66901088Y-115047047D01*
X68177535Y-113770600D01*
X66901088Y-112494153D01*
X66590647Y-112644148D01*
X66404829Y-113010419D01*
X66294039Y-113405903D01*
X66262531Y-113815401D01*
X65894757Y-113815401D01*
X65888078Y-112015590D01*
X67217176Y-112032073D01*
%TA.AperFunction,Conductor*%
D25*
G36*
X67217176Y-112032073D02*
G01*
X67080693Y-112314548D01*
X68357140Y-113590995D01*
X69633587Y-112314548D01*
X69510848Y-112060517D01*
X70137763Y-112068292D01*
X70129418Y-112654971D01*
X70123633Y-112644148D01*
X69813192Y-112494153D01*
X68536745Y-113770600D01*
X69813192Y-115047047D01*
X70097347Y-114909753D01*
X70070200Y-116818331D01*
X69813192Y-116694153D01*
X68536745Y-117970600D01*
X69813192Y-119247047D01*
X70037194Y-119138817D01*
X70024885Y-120004172D01*
X68871431Y-119996049D01*
X69200102Y-119888621D01*
X69483592Y-119737093D01*
X69633587Y-119426652D01*
X68357140Y-118150205D01*
X67080693Y-119426652D01*
X67230688Y-119737093D01*
X67596959Y-119922911D01*
X67831907Y-119988729D01*
X65917613Y-119975248D01*
X65910341Y-118015401D01*
X66262531Y-118015401D01*
X66311519Y-118423177D01*
X66439119Y-118813562D01*
X66590647Y-119097052D01*
X66901088Y-119247047D01*
X68177535Y-117970600D01*
X66901088Y-116694153D01*
X66590647Y-116844148D01*
X66404829Y-117210419D01*
X66294039Y-117605903D01*
X66262531Y-118015401D01*
X65910341Y-118015401D01*
X65904773Y-116514548D01*
X67080693Y-116514548D01*
X68357140Y-117790995D01*
X69633587Y-116514548D01*
X69483592Y-116204107D01*
X69117321Y-116018289D01*
X68721837Y-115907499D01*
X68312339Y-115875991D01*
X67904563Y-115924979D01*
X67514178Y-116052579D01*
X67230688Y-116204107D01*
X67080693Y-116514548D01*
X65904773Y-116514548D01*
X65899994Y-115226652D01*
X67080693Y-115226652D01*
X67230688Y-115537093D01*
X67596959Y-115722911D01*
X67992443Y-115833701D01*
X68401941Y-115865209D01*
X68809717Y-115816221D01*
X69200102Y-115688621D01*
X69483592Y-115537093D01*
X69633587Y-115226652D01*
X68357140Y-113950205D01*
X67080693Y-115226652D01*
X65899994Y-115226652D01*
X65894757Y-113815401D01*
X66262531Y-113815401D01*
X66311519Y-114223177D01*
X66439119Y-114613562D01*
X66590647Y-114897052D01*
X66901088Y-115047047D01*
X68177535Y-113770600D01*
X66901088Y-112494153D01*
X66590647Y-112644148D01*
X66404829Y-113010419D01*
X66294039Y-113405903D01*
X66262531Y-113815401D01*
X65894757Y-113815401D01*
X65888078Y-112015590D01*
X67217176Y-112032073D01*
G37*
%TD.AperFunction*%
%TD*%
D24*
%TO.N,GND*%
X69923258Y-83147333D02*
X69813192Y-83094153D01*
X68536745Y-84370600D01*
X69813192Y-85647047D01*
X69933278Y-85589025D01*
X69935835Y-86212111D01*
X69348137Y-86209495D01*
X69483592Y-86137093D01*
X69633587Y-85826652D01*
X68357140Y-84550205D01*
X67080693Y-85826652D01*
X67230688Y-86137093D01*
X67355923Y-86200628D01*
X66640005Y-86197441D01*
X66615218Y-86199771D01*
X66591362Y-86206892D01*
X66569353Y-86218530D01*
X66550038Y-86234239D01*
X66534158Y-86253413D01*
X66522325Y-86275317D01*
X66514992Y-86299109D01*
X66512441Y-86325049D01*
X66518410Y-87569553D01*
X66509437Y-87582982D01*
X66352266Y-87962428D01*
X66272140Y-88365245D01*
X66272140Y-88775955D01*
X66352266Y-89178772D01*
X66509437Y-89558218D01*
X66528082Y-89586122D01*
X66532761Y-90561769D01*
X66535321Y-90586534D01*
X66542662Y-90610323D01*
X66554503Y-90632223D01*
X66570389Y-90651392D01*
X66589710Y-90667094D01*
X66611723Y-90678724D01*
X66635581Y-90685837D01*
X66662344Y-90688134D01*
X68261157Y-90655600D01*
X68366045Y-90655600D01*
X68399540Y-90682701D01*
X68312339Y-90675991D01*
X67904563Y-90724979D01*
X67514178Y-90852579D01*
X67230688Y-91004107D01*
X67080693Y-91314548D01*
X68357140Y-92590995D01*
X68371283Y-92576853D01*
X68550888Y-92756458D01*
X68536745Y-92770600D01*
X68550888Y-92784743D01*
X68371283Y-92964348D01*
X68357140Y-92950205D01*
X67080693Y-94226652D01*
X67230688Y-94537093D01*
X67596959Y-94722911D01*
X67992443Y-94833701D01*
X68171823Y-94847503D01*
X68122587Y-94891408D01*
X67748968Y-94965726D01*
X67369522Y-95122897D01*
X67028030Y-95351075D01*
X66737615Y-95641490D01*
X66509437Y-95982982D01*
X66352266Y-96362428D01*
X66326251Y-96493214D01*
X64702936Y-97940736D01*
X64809451Y-97730781D01*
X64920241Y-97335297D01*
X64951749Y-96925799D01*
X64902761Y-96518023D01*
X64775161Y-96127638D01*
X64623633Y-95844148D01*
X64313192Y-95694153D01*
X63036745Y-96970600D01*
X63050888Y-96984743D01*
X62871283Y-97164348D01*
X62857140Y-97150205D01*
X61580693Y-98426652D01*
X61730688Y-98737093D01*
X62096959Y-98922911D01*
X62492443Y-99033701D01*
X62901941Y-99065209D01*
X63309717Y-99016221D01*
X63700102Y-98888621D01*
X63983592Y-98737093D01*
X64133586Y-98426654D01*
X64159825Y-98452893D01*
X64159380Y-98454105D01*
X64155332Y-98484246D01*
X64149899Y-98886738D01*
X64093511Y-98955447D01*
X63941689Y-99239485D01*
X63904001Y-99363728D01*
X63617321Y-99218289D01*
X63221837Y-99107499D01*
X62812339Y-99075991D01*
X62404563Y-99124979D01*
X62014178Y-99252579D01*
X61730688Y-99404107D01*
X61580693Y-99714548D01*
X62857140Y-100990995D01*
X62871283Y-100976853D01*
X63050888Y-101156458D01*
X63036745Y-101170600D01*
X63050888Y-101184743D01*
X62871283Y-101364348D01*
X62857140Y-101350205D01*
X61580693Y-102626652D01*
X61730688Y-102937093D01*
X62096959Y-103122911D01*
X62488141Y-103232496D01*
X61017703Y-103216757D01*
X60988532Y-102106007D01*
X61090647Y-102297052D01*
X61401088Y-102447047D01*
X62677535Y-101170600D01*
X61401088Y-99894153D01*
X61090647Y-100044148D01*
X60955927Y-100309698D01*
X60984221Y-97897943D01*
X61090647Y-98097052D01*
X61401088Y-98247047D01*
X62677535Y-96970600D01*
X61401088Y-95694153D01*
X61090647Y-95844148D01*
X61006367Y-96010274D01*
X61012182Y-95514548D01*
X61580693Y-95514548D01*
X62857140Y-96790995D01*
X64133587Y-95514548D01*
X63983592Y-95204107D01*
X63617321Y-95018289D01*
X63221837Y-94907499D01*
X62812339Y-94875991D01*
X62404563Y-94924979D01*
X62014178Y-95052579D01*
X61730688Y-95204107D01*
X61580693Y-95514548D01*
X61012182Y-95514548D01*
X61027292Y-94226652D01*
X61580693Y-94226652D01*
X61730688Y-94537093D01*
X62096959Y-94722911D01*
X62492443Y-94833701D01*
X62901941Y-94865209D01*
X63309717Y-94816221D01*
X63700102Y-94688621D01*
X63983592Y-94537093D01*
X64133587Y-94226652D01*
X62857140Y-92950205D01*
X61580693Y-94226652D01*
X61027292Y-94226652D01*
X61032437Y-93788148D01*
X61090647Y-93897052D01*
X61401088Y-94047047D01*
X62677535Y-92770600D01*
X63036745Y-92770600D01*
X64313192Y-94047047D01*
X64623633Y-93897052D01*
X64809451Y-93530781D01*
X64920241Y-93135297D01*
X64944854Y-92815401D01*
X66262531Y-92815401D01*
X66311519Y-93223177D01*
X66439119Y-93613562D01*
X66590647Y-93897052D01*
X66901088Y-94047047D01*
X68177535Y-92770600D01*
X66901088Y-91494153D01*
X66590647Y-91644148D01*
X66404829Y-92010419D01*
X66294039Y-92405903D01*
X66262531Y-92815401D01*
X64944854Y-92815401D01*
X64951749Y-92725799D01*
X64902761Y-92318023D01*
X64775161Y-91927638D01*
X64623633Y-91644148D01*
X64313192Y-91494153D01*
X63036745Y-92770600D01*
X62677535Y-92770600D01*
X61401088Y-91494153D01*
X61090647Y-91644148D01*
X61056807Y-91710850D01*
X61061456Y-91314548D01*
X61580693Y-91314548D01*
X62857140Y-92590995D01*
X64133587Y-91314548D01*
X63983592Y-91004107D01*
X63617321Y-90818289D01*
X63221837Y-90707499D01*
X62812339Y-90675991D01*
X62404563Y-90724979D01*
X62014178Y-90852579D01*
X61730688Y-91004107D01*
X61580693Y-91314548D01*
X61061456Y-91314548D01*
X61080809Y-89665033D01*
X61237615Y-89899710D01*
X61528030Y-90190125D01*
X61869522Y-90418303D01*
X62248968Y-90575474D01*
X62651785Y-90655600D01*
X63062495Y-90655600D01*
X63465312Y-90575474D01*
X63844758Y-90418303D01*
X64186250Y-90190125D01*
X64476665Y-89899710D01*
X64704843Y-89558218D01*
X64862014Y-89178772D01*
X64942140Y-88775955D01*
X64942140Y-88365245D01*
X64862014Y-87962428D01*
X64704843Y-87582982D01*
X64476665Y-87241490D01*
X64186250Y-86951075D01*
X63844758Y-86722897D01*
X63465312Y-86565726D01*
X63062495Y-86485600D01*
X62651785Y-86485600D01*
X62248968Y-86565726D01*
X61869522Y-86722897D01*
X61528030Y-86951075D01*
X61237615Y-87241490D01*
X61106947Y-87437048D01*
X61125840Y-85826652D01*
X61580693Y-85826652D01*
X61730688Y-86137093D01*
X62096959Y-86322911D01*
X62492443Y-86433701D01*
X62901941Y-86465209D01*
X63309717Y-86416221D01*
X63700102Y-86288621D01*
X63983592Y-86137093D01*
X64133587Y-85826652D01*
X62857140Y-84550205D01*
X61580693Y-85826652D01*
X61125840Y-85826652D01*
X61129487Y-85515818D01*
X61401088Y-85647047D01*
X62677535Y-84370600D01*
X63036745Y-84370600D01*
X64313192Y-85647047D01*
X64623633Y-85497052D01*
X64809451Y-85130781D01*
X64920241Y-84735297D01*
X64944854Y-84415401D01*
X66262531Y-84415401D01*
X66311519Y-84823177D01*
X66439119Y-85213562D01*
X66590647Y-85497052D01*
X66901088Y-85647047D01*
X68177535Y-84370600D01*
X66901088Y-83094153D01*
X66590647Y-83244148D01*
X66404829Y-83610419D01*
X66294039Y-84005903D01*
X66262531Y-84415401D01*
X64944854Y-84415401D01*
X64951749Y-84325799D01*
X64902761Y-83918023D01*
X64775161Y-83527638D01*
X64623633Y-83244148D01*
X64313192Y-83094153D01*
X63036745Y-84370600D01*
X62677535Y-84370600D01*
X61401088Y-83094153D01*
X61156511Y-83212325D01*
X61161721Y-82768228D01*
X61651790Y-82767399D01*
X61580693Y-82914548D01*
X62857140Y-84190995D01*
X64133587Y-82914548D01*
X64060521Y-82763326D01*
X67156288Y-82758091D01*
X67080693Y-82914548D01*
X68357140Y-84190995D01*
X69633587Y-82914548D01*
X69556031Y-82754032D01*
X69921641Y-82753414D01*
X69923258Y-83147333D01*
%TA.AperFunction,Conductor*%
D25*
G36*
X69923258Y-83147333D02*
G01*
X69813192Y-83094153D01*
X68536745Y-84370600D01*
X69813192Y-85647047D01*
X69933278Y-85589025D01*
X69935835Y-86212111D01*
X69348137Y-86209495D01*
X69483592Y-86137093D01*
X69633587Y-85826652D01*
X68357140Y-84550205D01*
X67080693Y-85826652D01*
X67230688Y-86137093D01*
X67355923Y-86200628D01*
X66640005Y-86197441D01*
X66615218Y-86199771D01*
X66591362Y-86206892D01*
X66569353Y-86218530D01*
X66550038Y-86234239D01*
X66534158Y-86253413D01*
X66522325Y-86275317D01*
X66514992Y-86299109D01*
X66512441Y-86325049D01*
X66518410Y-87569553D01*
X66509437Y-87582982D01*
X66352266Y-87962428D01*
X66272140Y-88365245D01*
X66272140Y-88775955D01*
X66352266Y-89178772D01*
X66509437Y-89558218D01*
X66528082Y-89586122D01*
X66532761Y-90561769D01*
X66535321Y-90586534D01*
X66542662Y-90610323D01*
X66554503Y-90632223D01*
X66570389Y-90651392D01*
X66589710Y-90667094D01*
X66611723Y-90678724D01*
X66635581Y-90685837D01*
X66662344Y-90688134D01*
X68261157Y-90655600D01*
X68366045Y-90655600D01*
X68399540Y-90682701D01*
X68312339Y-90675991D01*
X67904563Y-90724979D01*
X67514178Y-90852579D01*
X67230688Y-91004107D01*
X67080693Y-91314548D01*
X68357140Y-92590995D01*
X68371283Y-92576853D01*
X68550888Y-92756458D01*
X68536745Y-92770600D01*
X68550888Y-92784743D01*
X68371283Y-92964348D01*
X68357140Y-92950205D01*
X67080693Y-94226652D01*
X67230688Y-94537093D01*
X67596959Y-94722911D01*
X67992443Y-94833701D01*
X68171823Y-94847503D01*
X68122587Y-94891408D01*
X67748968Y-94965726D01*
X67369522Y-95122897D01*
X67028030Y-95351075D01*
X66737615Y-95641490D01*
X66509437Y-95982982D01*
X66352266Y-96362428D01*
X66326251Y-96493214D01*
X64702936Y-97940736D01*
X64809451Y-97730781D01*
X64920241Y-97335297D01*
X64951749Y-96925799D01*
X64902761Y-96518023D01*
X64775161Y-96127638D01*
X64623633Y-95844148D01*
X64313192Y-95694153D01*
X63036745Y-96970600D01*
X63050888Y-96984743D01*
X62871283Y-97164348D01*
X62857140Y-97150205D01*
X61580693Y-98426652D01*
X61730688Y-98737093D01*
X62096959Y-98922911D01*
X62492443Y-99033701D01*
X62901941Y-99065209D01*
X63309717Y-99016221D01*
X63700102Y-98888621D01*
X63983592Y-98737093D01*
X64133586Y-98426654D01*
X64159825Y-98452893D01*
X64159380Y-98454105D01*
X64155332Y-98484246D01*
X64149899Y-98886738D01*
X64093511Y-98955447D01*
X63941689Y-99239485D01*
X63904001Y-99363728D01*
X63617321Y-99218289D01*
X63221837Y-99107499D01*
X62812339Y-99075991D01*
X62404563Y-99124979D01*
X62014178Y-99252579D01*
X61730688Y-99404107D01*
X61580693Y-99714548D01*
X62857140Y-100990995D01*
X62871283Y-100976853D01*
X63050888Y-101156458D01*
X63036745Y-101170600D01*
X63050888Y-101184743D01*
X62871283Y-101364348D01*
X62857140Y-101350205D01*
X61580693Y-102626652D01*
X61730688Y-102937093D01*
X62096959Y-103122911D01*
X62488141Y-103232496D01*
X61017703Y-103216757D01*
X60988532Y-102106007D01*
X61090647Y-102297052D01*
X61401088Y-102447047D01*
X62677535Y-101170600D01*
X61401088Y-99894153D01*
X61090647Y-100044148D01*
X60955927Y-100309698D01*
X60984221Y-97897943D01*
X61090647Y-98097052D01*
X61401088Y-98247047D01*
X62677535Y-96970600D01*
X61401088Y-95694153D01*
X61090647Y-95844148D01*
X61006367Y-96010274D01*
X61012182Y-95514548D01*
X61580693Y-95514548D01*
X62857140Y-96790995D01*
X64133587Y-95514548D01*
X63983592Y-95204107D01*
X63617321Y-95018289D01*
X63221837Y-94907499D01*
X62812339Y-94875991D01*
X62404563Y-94924979D01*
X62014178Y-95052579D01*
X61730688Y-95204107D01*
X61580693Y-95514548D01*
X61012182Y-95514548D01*
X61027292Y-94226652D01*
X61580693Y-94226652D01*
X61730688Y-94537093D01*
X62096959Y-94722911D01*
X62492443Y-94833701D01*
X62901941Y-94865209D01*
X63309717Y-94816221D01*
X63700102Y-94688621D01*
X63983592Y-94537093D01*
X64133587Y-94226652D01*
X62857140Y-92950205D01*
X61580693Y-94226652D01*
X61027292Y-94226652D01*
X61032437Y-93788148D01*
X61090647Y-93897052D01*
X61401088Y-94047047D01*
X62677535Y-92770600D01*
X63036745Y-92770600D01*
X64313192Y-94047047D01*
X64623633Y-93897052D01*
X64809451Y-93530781D01*
X64920241Y-93135297D01*
X64944854Y-92815401D01*
X66262531Y-92815401D01*
X66311519Y-93223177D01*
X66439119Y-93613562D01*
X66590647Y-93897052D01*
X66901088Y-94047047D01*
X68177535Y-92770600D01*
X66901088Y-91494153D01*
X66590647Y-91644148D01*
X66404829Y-92010419D01*
X66294039Y-92405903D01*
X66262531Y-92815401D01*
X64944854Y-92815401D01*
X64951749Y-92725799D01*
X64902761Y-92318023D01*
X64775161Y-91927638D01*
X64623633Y-91644148D01*
X64313192Y-91494153D01*
X63036745Y-92770600D01*
X62677535Y-92770600D01*
X61401088Y-91494153D01*
X61090647Y-91644148D01*
X61056807Y-91710850D01*
X61061456Y-91314548D01*
X61580693Y-91314548D01*
X62857140Y-92590995D01*
X64133587Y-91314548D01*
X63983592Y-91004107D01*
X63617321Y-90818289D01*
X63221837Y-90707499D01*
X62812339Y-90675991D01*
X62404563Y-90724979D01*
X62014178Y-90852579D01*
X61730688Y-91004107D01*
X61580693Y-91314548D01*
X61061456Y-91314548D01*
X61080809Y-89665033D01*
X61237615Y-89899710D01*
X61528030Y-90190125D01*
X61869522Y-90418303D01*
X62248968Y-90575474D01*
X62651785Y-90655600D01*
X63062495Y-90655600D01*
X63465312Y-90575474D01*
X63844758Y-90418303D01*
X64186250Y-90190125D01*
X64476665Y-89899710D01*
X64704843Y-89558218D01*
X64862014Y-89178772D01*
X64942140Y-88775955D01*
X64942140Y-88365245D01*
X64862014Y-87962428D01*
X64704843Y-87582982D01*
X64476665Y-87241490D01*
X64186250Y-86951075D01*
X63844758Y-86722897D01*
X63465312Y-86565726D01*
X63062495Y-86485600D01*
X62651785Y-86485600D01*
X62248968Y-86565726D01*
X61869522Y-86722897D01*
X61528030Y-86951075D01*
X61237615Y-87241490D01*
X61106947Y-87437048D01*
X61125840Y-85826652D01*
X61580693Y-85826652D01*
X61730688Y-86137093D01*
X62096959Y-86322911D01*
X62492443Y-86433701D01*
X62901941Y-86465209D01*
X63309717Y-86416221D01*
X63700102Y-86288621D01*
X63983592Y-86137093D01*
X64133587Y-85826652D01*
X62857140Y-84550205D01*
X61580693Y-85826652D01*
X61125840Y-85826652D01*
X61129487Y-85515818D01*
X61401088Y-85647047D01*
X62677535Y-84370600D01*
X63036745Y-84370600D01*
X64313192Y-85647047D01*
X64623633Y-85497052D01*
X64809451Y-85130781D01*
X64920241Y-84735297D01*
X64944854Y-84415401D01*
X66262531Y-84415401D01*
X66311519Y-84823177D01*
X66439119Y-85213562D01*
X66590647Y-85497052D01*
X66901088Y-85647047D01*
X68177535Y-84370600D01*
X66901088Y-83094153D01*
X66590647Y-83244148D01*
X66404829Y-83610419D01*
X66294039Y-84005903D01*
X66262531Y-84415401D01*
X64944854Y-84415401D01*
X64951749Y-84325799D01*
X64902761Y-83918023D01*
X64775161Y-83527638D01*
X64623633Y-83244148D01*
X64313192Y-83094153D01*
X63036745Y-84370600D01*
X62677535Y-84370600D01*
X61401088Y-83094153D01*
X61156511Y-83212325D01*
X61161721Y-82768228D01*
X61651790Y-82767399D01*
X61580693Y-82914548D01*
X62857140Y-84190995D01*
X64133587Y-82914548D01*
X64060521Y-82763326D01*
X67156288Y-82758091D01*
X67080693Y-82914548D01*
X68357140Y-84190995D01*
X69633587Y-82914548D01*
X69556031Y-82754032D01*
X69921641Y-82753414D01*
X69923258Y-83147333D01*
G37*
%TD.AperFunction*%
%TD*%
D24*
%TO.N,GND*%
X50175105Y-100541497D02*
X50161529Y-100527921D01*
X50175102Y-100524753D01*
X50175105Y-100541497D01*
%TA.AperFunction,Conductor*%
D25*
G36*
X50175105Y-100541497D02*
G01*
X50161529Y-100527921D01*
X50175102Y-100524753D01*
X50175105Y-100541497D01*
G37*
%TD.AperFunction*%
D24*
X49469748Y-74407858D02*
X49455605Y-74422000D01*
X49469748Y-74436143D01*
X49290143Y-74615748D01*
X49276000Y-74601605D01*
X48570078Y-75307527D01*
X48623466Y-75536201D01*
X48853374Y-75642095D01*
X49068962Y-75693776D01*
X48949551Y-75712730D01*
X48712104Y-75800422D01*
X48623466Y-75847799D01*
X48570078Y-76076473D01*
X49276000Y-76782395D01*
X49290143Y-76768253D01*
X49469748Y-76947858D01*
X49455605Y-76962000D01*
X49469748Y-76976143D01*
X49290143Y-77155748D01*
X49276000Y-77141605D01*
X48570078Y-77847527D01*
X48623466Y-78076201D01*
X48853374Y-78182095D01*
X49068962Y-78233776D01*
X48949551Y-78252730D01*
X48712104Y-78340422D01*
X48623466Y-78387799D01*
X48570078Y-78616473D01*
X49276000Y-79322395D01*
X49290143Y-79308253D01*
X49469748Y-79487858D01*
X49455605Y-79502000D01*
X49469748Y-79516143D01*
X49290143Y-79695748D01*
X49276000Y-79681605D01*
X48570078Y-80387527D01*
X48623466Y-80616201D01*
X48853374Y-80722095D01*
X49068962Y-80773776D01*
X48949551Y-80792730D01*
X48712104Y-80880422D01*
X48623466Y-80927799D01*
X48570078Y-81156473D01*
X49276000Y-81862395D01*
X49290143Y-81848253D01*
X49469748Y-82027858D01*
X49455605Y-82042000D01*
X49469748Y-82056143D01*
X49290143Y-82235748D01*
X49276000Y-82221605D01*
X48570078Y-82927527D01*
X48623466Y-83156201D01*
X48853374Y-83262095D01*
X49068962Y-83313776D01*
X48949551Y-83332730D01*
X48712104Y-83420422D01*
X48623466Y-83467799D01*
X48570078Y-83696473D01*
X49276000Y-84402395D01*
X49290143Y-84388253D01*
X49469748Y-84567858D01*
X49455605Y-84582000D01*
X49469748Y-84596143D01*
X49290143Y-84775748D01*
X49276000Y-84761605D01*
X48570078Y-85467527D01*
X48623466Y-85696201D01*
X48853374Y-85802095D01*
X49068962Y-85853776D01*
X48949551Y-85872730D01*
X48712104Y-85960422D01*
X48623466Y-86007799D01*
X48570078Y-86236473D01*
X49276000Y-86942395D01*
X49290143Y-86928253D01*
X49469748Y-87107858D01*
X49455605Y-87122000D01*
X49469748Y-87136143D01*
X49290143Y-87315748D01*
X49276000Y-87301605D01*
X48570078Y-88007527D01*
X48623466Y-88236201D01*
X48853374Y-88342095D01*
X49068962Y-88393776D01*
X48949551Y-88412730D01*
X48712104Y-88500422D01*
X48623466Y-88547799D01*
X48570078Y-88776473D01*
X49276000Y-89482395D01*
X49290143Y-89468253D01*
X49469748Y-89647858D01*
X49455605Y-89662000D01*
X49469748Y-89676143D01*
X49290143Y-89855748D01*
X49276000Y-89841605D01*
X48570078Y-90547527D01*
X48623466Y-90776201D01*
X48853374Y-90882095D01*
X49068962Y-90933776D01*
X48949551Y-90952730D01*
X48712104Y-91040422D01*
X48623466Y-91087799D01*
X48570078Y-91316473D01*
X49276000Y-92022395D01*
X49290143Y-92008253D01*
X49469748Y-92187858D01*
X49455605Y-92202000D01*
X49469748Y-92216143D01*
X49290143Y-92395748D01*
X49276000Y-92381605D01*
X48570078Y-93087527D01*
X48623466Y-93316201D01*
X48853374Y-93422095D01*
X49068962Y-93473776D01*
X48949551Y-93492730D01*
X48712104Y-93580422D01*
X48623466Y-93627799D01*
X48570078Y-93856473D01*
X49276000Y-94562395D01*
X49290143Y-94548253D01*
X49469748Y-94727858D01*
X49455605Y-94742000D01*
X49469748Y-94756143D01*
X49290143Y-94935748D01*
X49276000Y-94921605D01*
X48570078Y-95627527D01*
X48623466Y-95856201D01*
X48853374Y-95962095D01*
X49068962Y-96013776D01*
X48949551Y-96032730D01*
X48712104Y-96120422D01*
X48623466Y-96167799D01*
X48570078Y-96396473D01*
X49276000Y-97102395D01*
X49290143Y-97088253D01*
X49469748Y-97267858D01*
X49455605Y-97282000D01*
X49469748Y-97296143D01*
X49290143Y-97475748D01*
X49276000Y-97461605D01*
X48570078Y-98167527D01*
X48623466Y-98396201D01*
X48853374Y-98502095D01*
X49068962Y-98553776D01*
X48949551Y-98572730D01*
X48712104Y-98660422D01*
X48623466Y-98707799D01*
X48570078Y-98936473D01*
X49276000Y-99642395D01*
X49290143Y-99628253D01*
X49469748Y-99807858D01*
X49455605Y-99822000D01*
X49469748Y-99836143D01*
X49290143Y-100015748D01*
X49276000Y-100001605D01*
X49261858Y-100015748D01*
X49082253Y-99836143D01*
X49096395Y-99822000D01*
X48390473Y-99116078D01*
X48161799Y-99169466D01*
X48055905Y-99399374D01*
X48004224Y-99614962D01*
X47985270Y-99495551D01*
X47897578Y-99258104D01*
X47850201Y-99169466D01*
X47621527Y-99116078D01*
X46915605Y-99822000D01*
X46929748Y-99836143D01*
X46750143Y-100015748D01*
X46736000Y-100001605D01*
X46721858Y-100015748D01*
X46542253Y-99836143D01*
X46556395Y-99822000D01*
X46542253Y-99807858D01*
X46721858Y-99628253D01*
X46736000Y-99642395D01*
X47441922Y-98936473D01*
X47388534Y-98707799D01*
X47158626Y-98601905D01*
X46943038Y-98550224D01*
X47062449Y-98531270D01*
X47299896Y-98443578D01*
X47388534Y-98396201D01*
X47441922Y-98167527D01*
X46736000Y-97461605D01*
X46721858Y-97475748D01*
X46542253Y-97296143D01*
X46556395Y-97282000D01*
X46915605Y-97282000D01*
X47621527Y-97987922D01*
X47850201Y-97934534D01*
X47956095Y-97704626D01*
X48007776Y-97489038D01*
X48026730Y-97608449D01*
X48114422Y-97845896D01*
X48161799Y-97934534D01*
X48390473Y-97987922D01*
X49096395Y-97282000D01*
X48390473Y-96576078D01*
X48161799Y-96629466D01*
X48055905Y-96859374D01*
X48004224Y-97074962D01*
X47985270Y-96955551D01*
X47897578Y-96718104D01*
X47850201Y-96629466D01*
X47621527Y-96576078D01*
X46915605Y-97282000D01*
X46556395Y-97282000D01*
X46542253Y-97267858D01*
X46721858Y-97088253D01*
X46736000Y-97102395D01*
X47441922Y-96396473D01*
X47388534Y-96167799D01*
X47158626Y-96061905D01*
X46943038Y-96010224D01*
X47062449Y-95991270D01*
X47299896Y-95903578D01*
X47388534Y-95856201D01*
X47441922Y-95627527D01*
X46736000Y-94921605D01*
X46721858Y-94935748D01*
X46542253Y-94756143D01*
X46556395Y-94742000D01*
X46915605Y-94742000D01*
X47621527Y-95447922D01*
X47850201Y-95394534D01*
X47956095Y-95164626D01*
X48007776Y-94949038D01*
X48026730Y-95068449D01*
X48114422Y-95305896D01*
X48161799Y-95394534D01*
X48390473Y-95447922D01*
X49096395Y-94742000D01*
X48390473Y-94036078D01*
X48161799Y-94089466D01*
X48055905Y-94319374D01*
X48004224Y-94534962D01*
X47985270Y-94415551D01*
X47897578Y-94178104D01*
X47850201Y-94089466D01*
X47621527Y-94036078D01*
X46915605Y-94742000D01*
X46556395Y-94742000D01*
X46542253Y-94727858D01*
X46721858Y-94548253D01*
X46736000Y-94562395D01*
X47441922Y-93856473D01*
X47388534Y-93627799D01*
X47158626Y-93521905D01*
X46943038Y-93470224D01*
X47062449Y-93451270D01*
X47299896Y-93363578D01*
X47388534Y-93316201D01*
X47441922Y-93087527D01*
X46736000Y-92381605D01*
X46721858Y-92395748D01*
X46542253Y-92216143D01*
X46556395Y-92202000D01*
X46915605Y-92202000D01*
X47621527Y-92907922D01*
X47850201Y-92854534D01*
X47956095Y-92624626D01*
X48007776Y-92409038D01*
X48026730Y-92528449D01*
X48114422Y-92765896D01*
X48161799Y-92854534D01*
X48390473Y-92907922D01*
X49096395Y-92202000D01*
X48390473Y-91496078D01*
X48161799Y-91549466D01*
X48055905Y-91779374D01*
X48004224Y-91994962D01*
X47985270Y-91875551D01*
X47897578Y-91638104D01*
X47850201Y-91549466D01*
X47621527Y-91496078D01*
X46915605Y-92202000D01*
X46556395Y-92202000D01*
X46542253Y-92187858D01*
X46721858Y-92008253D01*
X46736000Y-92022395D01*
X47441922Y-91316473D01*
X47388534Y-91087799D01*
X47158626Y-90981905D01*
X46943038Y-90930224D01*
X47062449Y-90911270D01*
X47299896Y-90823578D01*
X47388534Y-90776201D01*
X47441922Y-90547527D01*
X46736000Y-89841605D01*
X46721858Y-89855748D01*
X46542253Y-89676143D01*
X46556395Y-89662000D01*
X46915605Y-89662000D01*
X47621527Y-90367922D01*
X47850201Y-90314534D01*
X47956095Y-90084626D01*
X48007776Y-89869038D01*
X48026730Y-89988449D01*
X48114422Y-90225896D01*
X48161799Y-90314534D01*
X48390473Y-90367922D01*
X49096395Y-89662000D01*
X48390473Y-88956078D01*
X48161799Y-89009466D01*
X48055905Y-89239374D01*
X48004224Y-89454962D01*
X47985270Y-89335551D01*
X47897578Y-89098104D01*
X47850201Y-89009466D01*
X47621527Y-88956078D01*
X46915605Y-89662000D01*
X46556395Y-89662000D01*
X46542253Y-89647858D01*
X46721858Y-89468253D01*
X46736000Y-89482395D01*
X47441922Y-88776473D01*
X47388534Y-88547799D01*
X47158626Y-88441905D01*
X46943038Y-88390224D01*
X47062449Y-88371270D01*
X47299896Y-88283578D01*
X47388534Y-88236201D01*
X47441922Y-88007527D01*
X46736000Y-87301605D01*
X46721858Y-87315748D01*
X46542253Y-87136143D01*
X46556395Y-87122000D01*
X46915605Y-87122000D01*
X47621527Y-87827922D01*
X47850201Y-87774534D01*
X47956095Y-87544626D01*
X48007776Y-87329038D01*
X48026730Y-87448449D01*
X48114422Y-87685896D01*
X48161799Y-87774534D01*
X48390473Y-87827922D01*
X49096395Y-87122000D01*
X48390473Y-86416078D01*
X48161799Y-86469466D01*
X48055905Y-86699374D01*
X48004224Y-86914962D01*
X47985270Y-86795551D01*
X47897578Y-86558104D01*
X47850201Y-86469466D01*
X47621527Y-86416078D01*
X46915605Y-87122000D01*
X46556395Y-87122000D01*
X46542253Y-87107858D01*
X46721858Y-86928253D01*
X46736000Y-86942395D01*
X47441922Y-86236473D01*
X47388534Y-86007799D01*
X47158626Y-85901905D01*
X46943038Y-85850224D01*
X47062449Y-85831270D01*
X47299896Y-85743578D01*
X47388534Y-85696201D01*
X47441922Y-85467527D01*
X46736000Y-84761605D01*
X46721858Y-84775748D01*
X46542253Y-84596143D01*
X46556395Y-84582000D01*
X46915605Y-84582000D01*
X47621527Y-85287922D01*
X47850201Y-85234534D01*
X47956095Y-85004626D01*
X48007776Y-84789038D01*
X48026730Y-84908449D01*
X48114422Y-85145896D01*
X48161799Y-85234534D01*
X48390473Y-85287922D01*
X49096395Y-84582000D01*
X48390473Y-83876078D01*
X48161799Y-83929466D01*
X48055905Y-84159374D01*
X48004224Y-84374962D01*
X47985270Y-84255551D01*
X47897578Y-84018104D01*
X47850201Y-83929466D01*
X47621527Y-83876078D01*
X46915605Y-84582000D01*
X46556395Y-84582000D01*
X46542253Y-84567858D01*
X46721858Y-84388253D01*
X46736000Y-84402395D01*
X47441922Y-83696473D01*
X47388534Y-83467799D01*
X47158626Y-83361905D01*
X46943038Y-83310224D01*
X47062449Y-83291270D01*
X47299896Y-83203578D01*
X47388534Y-83156201D01*
X47441922Y-82927527D01*
X46736000Y-82221605D01*
X46721858Y-82235748D01*
X46542253Y-82056143D01*
X46556395Y-82042000D01*
X46915605Y-82042000D01*
X47621527Y-82747922D01*
X47850201Y-82694534D01*
X47956095Y-82464626D01*
X48007776Y-82249038D01*
X48026730Y-82368449D01*
X48114422Y-82605896D01*
X48161799Y-82694534D01*
X48390473Y-82747922D01*
X49096395Y-82042000D01*
X48390473Y-81336078D01*
X48161799Y-81389466D01*
X48055905Y-81619374D01*
X48004224Y-81834962D01*
X47985270Y-81715551D01*
X47897578Y-81478104D01*
X47850201Y-81389466D01*
X47621527Y-81336078D01*
X46915605Y-82042000D01*
X46556395Y-82042000D01*
X46542253Y-82027858D01*
X46721858Y-81848253D01*
X46736000Y-81862395D01*
X47441922Y-81156473D01*
X47388534Y-80927799D01*
X47158626Y-80821905D01*
X46943038Y-80770224D01*
X47062449Y-80751270D01*
X47299896Y-80663578D01*
X47388534Y-80616201D01*
X47441922Y-80387527D01*
X46736000Y-79681605D01*
X46721858Y-79695748D01*
X46542253Y-79516143D01*
X46556395Y-79502000D01*
X46915605Y-79502000D01*
X47621527Y-80207922D01*
X47850201Y-80154534D01*
X47956095Y-79924626D01*
X48007776Y-79709038D01*
X48026730Y-79828449D01*
X48114422Y-80065896D01*
X48161799Y-80154534D01*
X48390473Y-80207922D01*
X49096395Y-79502000D01*
X48390473Y-78796078D01*
X48161799Y-78849466D01*
X48055905Y-79079374D01*
X48004224Y-79294962D01*
X47985270Y-79175551D01*
X47897578Y-78938104D01*
X47850201Y-78849466D01*
X47621527Y-78796078D01*
X46915605Y-79502000D01*
X46556395Y-79502000D01*
X46542253Y-79487858D01*
X46721858Y-79308253D01*
X46736000Y-79322395D01*
X47441922Y-78616473D01*
X47388534Y-78387799D01*
X47158626Y-78281905D01*
X46943038Y-78230224D01*
X47062449Y-78211270D01*
X47299896Y-78123578D01*
X47388534Y-78076201D01*
X47441922Y-77847527D01*
X46736000Y-77141605D01*
X46721858Y-77155748D01*
X46542253Y-76976143D01*
X46556395Y-76962000D01*
X46915605Y-76962000D01*
X47621527Y-77667922D01*
X47850201Y-77614534D01*
X47956095Y-77384626D01*
X48007776Y-77169038D01*
X48026730Y-77288449D01*
X48114422Y-77525896D01*
X48161799Y-77614534D01*
X48390473Y-77667922D01*
X49096395Y-76962000D01*
X48390473Y-76256078D01*
X48161799Y-76309466D01*
X48055905Y-76539374D01*
X48004224Y-76754962D01*
X47985270Y-76635551D01*
X47897578Y-76398104D01*
X47850201Y-76309466D01*
X47621527Y-76256078D01*
X46915605Y-76962000D01*
X46556395Y-76962000D01*
X46542253Y-76947858D01*
X46721858Y-76768253D01*
X46736000Y-76782395D01*
X47441922Y-76076473D01*
X47388534Y-75847799D01*
X47158626Y-75741905D01*
X46943038Y-75690224D01*
X47062449Y-75671270D01*
X47299896Y-75583578D01*
X47388534Y-75536201D01*
X47441922Y-75307527D01*
X46736000Y-74601605D01*
X46721858Y-74615748D01*
X46542253Y-74436143D01*
X46556395Y-74422000D01*
X46542253Y-74407858D01*
X46721858Y-74228253D01*
X46736000Y-74242395D01*
X46750143Y-74228253D01*
X46929748Y-74407858D01*
X46915605Y-74422000D01*
X47621527Y-75127922D01*
X47850201Y-75074534D01*
X47956095Y-74844626D01*
X48007776Y-74629038D01*
X48026730Y-74748449D01*
X48114422Y-74985896D01*
X48161799Y-75074534D01*
X48390473Y-75127922D01*
X49096395Y-74422000D01*
X49082253Y-74407858D01*
X49261858Y-74228253D01*
X49276000Y-74242395D01*
X49290143Y-74228253D01*
X49469748Y-74407858D01*
%TA.AperFunction,Conductor*%
D25*
G36*
X49469748Y-74407858D02*
G01*
X49455605Y-74422000D01*
X49469748Y-74436143D01*
X49290143Y-74615748D01*
X49276000Y-74601605D01*
X48570078Y-75307527D01*
X48623466Y-75536201D01*
X48853374Y-75642095D01*
X49068962Y-75693776D01*
X48949551Y-75712730D01*
X48712104Y-75800422D01*
X48623466Y-75847799D01*
X48570078Y-76076473D01*
X49276000Y-76782395D01*
X49290143Y-76768253D01*
X49469748Y-76947858D01*
X49455605Y-76962000D01*
X49469748Y-76976143D01*
X49290143Y-77155748D01*
X49276000Y-77141605D01*
X48570078Y-77847527D01*
X48623466Y-78076201D01*
X48853374Y-78182095D01*
X49068962Y-78233776D01*
X48949551Y-78252730D01*
X48712104Y-78340422D01*
X48623466Y-78387799D01*
X48570078Y-78616473D01*
X49276000Y-79322395D01*
X49290143Y-79308253D01*
X49469748Y-79487858D01*
X49455605Y-79502000D01*
X49469748Y-79516143D01*
X49290143Y-79695748D01*
X49276000Y-79681605D01*
X48570078Y-80387527D01*
X48623466Y-80616201D01*
X48853374Y-80722095D01*
X49068962Y-80773776D01*
X48949551Y-80792730D01*
X48712104Y-80880422D01*
X48623466Y-80927799D01*
X48570078Y-81156473D01*
X49276000Y-81862395D01*
X49290143Y-81848253D01*
X49469748Y-82027858D01*
X49455605Y-82042000D01*
X49469748Y-82056143D01*
X49290143Y-82235748D01*
X49276000Y-82221605D01*
X48570078Y-82927527D01*
X48623466Y-83156201D01*
X48853374Y-83262095D01*
X49068962Y-83313776D01*
X48949551Y-83332730D01*
X48712104Y-83420422D01*
X48623466Y-83467799D01*
X48570078Y-83696473D01*
X49276000Y-84402395D01*
X49290143Y-84388253D01*
X49469748Y-84567858D01*
X49455605Y-84582000D01*
X49469748Y-84596143D01*
X49290143Y-84775748D01*
X49276000Y-84761605D01*
X48570078Y-85467527D01*
X48623466Y-85696201D01*
X48853374Y-85802095D01*
X49068962Y-85853776D01*
X48949551Y-85872730D01*
X48712104Y-85960422D01*
X48623466Y-86007799D01*
X48570078Y-86236473D01*
X49276000Y-86942395D01*
X49290143Y-86928253D01*
X49469748Y-87107858D01*
X49455605Y-87122000D01*
X49469748Y-87136143D01*
X49290143Y-87315748D01*
X49276000Y-87301605D01*
X48570078Y-88007527D01*
X48623466Y-88236201D01*
X48853374Y-88342095D01*
X49068962Y-88393776D01*
X48949551Y-88412730D01*
X48712104Y-88500422D01*
X48623466Y-88547799D01*
X48570078Y-88776473D01*
X49276000Y-89482395D01*
X49290143Y-89468253D01*
X49469748Y-89647858D01*
X49455605Y-89662000D01*
X49469748Y-89676143D01*
X49290143Y-89855748D01*
X49276000Y-89841605D01*
X48570078Y-90547527D01*
X48623466Y-90776201D01*
X48853374Y-90882095D01*
X49068962Y-90933776D01*
X48949551Y-90952730D01*
X48712104Y-91040422D01*
X48623466Y-91087799D01*
X48570078Y-91316473D01*
X49276000Y-92022395D01*
X49290143Y-92008253D01*
X49469748Y-92187858D01*
X49455605Y-92202000D01*
X49469748Y-92216143D01*
X49290143Y-92395748D01*
X49276000Y-92381605D01*
X48570078Y-93087527D01*
X48623466Y-93316201D01*
X48853374Y-93422095D01*
X49068962Y-93473776D01*
X48949551Y-93492730D01*
X48712104Y-93580422D01*
X48623466Y-93627799D01*
X48570078Y-93856473D01*
X49276000Y-94562395D01*
X49290143Y-94548253D01*
X49469748Y-94727858D01*
X49455605Y-94742000D01*
X49469748Y-94756143D01*
X49290143Y-94935748D01*
X49276000Y-94921605D01*
X48570078Y-95627527D01*
X48623466Y-95856201D01*
X48853374Y-95962095D01*
X49068962Y-96013776D01*
X48949551Y-96032730D01*
X48712104Y-96120422D01*
X48623466Y-96167799D01*
X48570078Y-96396473D01*
X49276000Y-97102395D01*
X49290143Y-97088253D01*
X49469748Y-97267858D01*
X49455605Y-97282000D01*
X49469748Y-97296143D01*
X49290143Y-97475748D01*
X49276000Y-97461605D01*
X48570078Y-98167527D01*
X48623466Y-98396201D01*
X48853374Y-98502095D01*
X49068962Y-98553776D01*
X48949551Y-98572730D01*
X48712104Y-98660422D01*
X48623466Y-98707799D01*
X48570078Y-98936473D01*
X49276000Y-99642395D01*
X49290143Y-99628253D01*
X49469748Y-99807858D01*
X49455605Y-99822000D01*
X49469748Y-99836143D01*
X49290143Y-100015748D01*
X49276000Y-100001605D01*
X49261858Y-100015748D01*
X49082253Y-99836143D01*
X49096395Y-99822000D01*
X48390473Y-99116078D01*
X48161799Y-99169466D01*
X48055905Y-99399374D01*
X48004224Y-99614962D01*
X47985270Y-99495551D01*
X47897578Y-99258104D01*
X47850201Y-99169466D01*
X47621527Y-99116078D01*
X46915605Y-99822000D01*
X46929748Y-99836143D01*
X46750143Y-100015748D01*
X46736000Y-100001605D01*
X46721858Y-100015748D01*
X46542253Y-99836143D01*
X46556395Y-99822000D01*
X46542253Y-99807858D01*
X46721858Y-99628253D01*
X46736000Y-99642395D01*
X47441922Y-98936473D01*
X47388534Y-98707799D01*
X47158626Y-98601905D01*
X46943038Y-98550224D01*
X47062449Y-98531270D01*
X47299896Y-98443578D01*
X47388534Y-98396201D01*
X47441922Y-98167527D01*
X46736000Y-97461605D01*
X46721858Y-97475748D01*
X46542253Y-97296143D01*
X46556395Y-97282000D01*
X46915605Y-97282000D01*
X47621527Y-97987922D01*
X47850201Y-97934534D01*
X47956095Y-97704626D01*
X48007776Y-97489038D01*
X48026730Y-97608449D01*
X48114422Y-97845896D01*
X48161799Y-97934534D01*
X48390473Y-97987922D01*
X49096395Y-97282000D01*
X48390473Y-96576078D01*
X48161799Y-96629466D01*
X48055905Y-96859374D01*
X48004224Y-97074962D01*
X47985270Y-96955551D01*
X47897578Y-96718104D01*
X47850201Y-96629466D01*
X47621527Y-96576078D01*
X46915605Y-97282000D01*
X46556395Y-97282000D01*
X46542253Y-97267858D01*
X46721858Y-97088253D01*
X46736000Y-97102395D01*
X47441922Y-96396473D01*
X47388534Y-96167799D01*
X47158626Y-96061905D01*
X46943038Y-96010224D01*
X47062449Y-95991270D01*
X47299896Y-95903578D01*
X47388534Y-95856201D01*
X47441922Y-95627527D01*
X46736000Y-94921605D01*
X46721858Y-94935748D01*
X46542253Y-94756143D01*
X46556395Y-94742000D01*
X46915605Y-94742000D01*
X47621527Y-95447922D01*
X47850201Y-95394534D01*
X47956095Y-95164626D01*
X48007776Y-94949038D01*
X48026730Y-95068449D01*
X48114422Y-95305896D01*
X48161799Y-95394534D01*
X48390473Y-95447922D01*
X49096395Y-94742000D01*
X48390473Y-94036078D01*
X48161799Y-94089466D01*
X48055905Y-94319374D01*
X48004224Y-94534962D01*
X47985270Y-94415551D01*
X47897578Y-94178104D01*
X47850201Y-94089466D01*
X47621527Y-94036078D01*
X46915605Y-94742000D01*
X46556395Y-94742000D01*
X46542253Y-94727858D01*
X46721858Y-94548253D01*
X46736000Y-94562395D01*
X47441922Y-93856473D01*
X47388534Y-93627799D01*
X47158626Y-93521905D01*
X46943038Y-93470224D01*
X47062449Y-93451270D01*
X47299896Y-93363578D01*
X47388534Y-93316201D01*
X47441922Y-93087527D01*
X46736000Y-92381605D01*
X46721858Y-92395748D01*
X46542253Y-92216143D01*
X46556395Y-92202000D01*
X46915605Y-92202000D01*
X47621527Y-92907922D01*
X47850201Y-92854534D01*
X47956095Y-92624626D01*
X48007776Y-92409038D01*
X48026730Y-92528449D01*
X48114422Y-92765896D01*
X48161799Y-92854534D01*
X48390473Y-92907922D01*
X49096395Y-92202000D01*
X48390473Y-91496078D01*
X48161799Y-91549466D01*
X48055905Y-91779374D01*
X48004224Y-91994962D01*
X47985270Y-91875551D01*
X47897578Y-91638104D01*
X47850201Y-91549466D01*
X47621527Y-91496078D01*
X46915605Y-92202000D01*
X46556395Y-92202000D01*
X46542253Y-92187858D01*
X46721858Y-92008253D01*
X46736000Y-92022395D01*
X47441922Y-91316473D01*
X47388534Y-91087799D01*
X47158626Y-90981905D01*
X46943038Y-90930224D01*
X47062449Y-90911270D01*
X47299896Y-90823578D01*
X47388534Y-90776201D01*
X47441922Y-90547527D01*
X46736000Y-89841605D01*
X46721858Y-89855748D01*
X46542253Y-89676143D01*
X46556395Y-89662000D01*
X46915605Y-89662000D01*
X47621527Y-90367922D01*
X47850201Y-90314534D01*
X47956095Y-90084626D01*
X48007776Y-89869038D01*
X48026730Y-89988449D01*
X48114422Y-90225896D01*
X48161799Y-90314534D01*
X48390473Y-90367922D01*
X49096395Y-89662000D01*
X48390473Y-88956078D01*
X48161799Y-89009466D01*
X48055905Y-89239374D01*
X48004224Y-89454962D01*
X47985270Y-89335551D01*
X47897578Y-89098104D01*
X47850201Y-89009466D01*
X47621527Y-88956078D01*
X46915605Y-89662000D01*
X46556395Y-89662000D01*
X46542253Y-89647858D01*
X46721858Y-89468253D01*
X46736000Y-89482395D01*
X47441922Y-88776473D01*
X47388534Y-88547799D01*
X47158626Y-88441905D01*
X46943038Y-88390224D01*
X47062449Y-88371270D01*
X47299896Y-88283578D01*
X47388534Y-88236201D01*
X47441922Y-88007527D01*
X46736000Y-87301605D01*
X46721858Y-87315748D01*
X46542253Y-87136143D01*
X46556395Y-87122000D01*
X46915605Y-87122000D01*
X47621527Y-87827922D01*
X47850201Y-87774534D01*
X47956095Y-87544626D01*
X48007776Y-87329038D01*
X48026730Y-87448449D01*
X48114422Y-87685896D01*
X48161799Y-87774534D01*
X48390473Y-87827922D01*
X49096395Y-87122000D01*
X48390473Y-86416078D01*
X48161799Y-86469466D01*
X48055905Y-86699374D01*
X48004224Y-86914962D01*
X47985270Y-86795551D01*
X47897578Y-86558104D01*
X47850201Y-86469466D01*
X47621527Y-86416078D01*
X46915605Y-87122000D01*
X46556395Y-87122000D01*
X46542253Y-87107858D01*
X46721858Y-86928253D01*
X46736000Y-86942395D01*
X47441922Y-86236473D01*
X47388534Y-86007799D01*
X47158626Y-85901905D01*
X46943038Y-85850224D01*
X47062449Y-85831270D01*
X47299896Y-85743578D01*
X47388534Y-85696201D01*
X47441922Y-85467527D01*
X46736000Y-84761605D01*
X46721858Y-84775748D01*
X46542253Y-84596143D01*
X46556395Y-84582000D01*
X46915605Y-84582000D01*
X47621527Y-85287922D01*
X47850201Y-85234534D01*
X47956095Y-85004626D01*
X48007776Y-84789038D01*
X48026730Y-84908449D01*
X48114422Y-85145896D01*
X48161799Y-85234534D01*
X48390473Y-85287922D01*
X49096395Y-84582000D01*
X48390473Y-83876078D01*
X48161799Y-83929466D01*
X48055905Y-84159374D01*
X48004224Y-84374962D01*
X47985270Y-84255551D01*
X47897578Y-84018104D01*
X47850201Y-83929466D01*
X47621527Y-83876078D01*
X46915605Y-84582000D01*
X46556395Y-84582000D01*
X46542253Y-84567858D01*
X46721858Y-84388253D01*
X46736000Y-84402395D01*
X47441922Y-83696473D01*
X47388534Y-83467799D01*
X47158626Y-83361905D01*
X46943038Y-83310224D01*
X47062449Y-83291270D01*
X47299896Y-83203578D01*
X47388534Y-83156201D01*
X47441922Y-82927527D01*
X46736000Y-82221605D01*
X46721858Y-82235748D01*
X46542253Y-82056143D01*
X46556395Y-82042000D01*
X46915605Y-82042000D01*
X47621527Y-82747922D01*
X47850201Y-82694534D01*
X47956095Y-82464626D01*
X48007776Y-82249038D01*
X48026730Y-82368449D01*
X48114422Y-82605896D01*
X48161799Y-82694534D01*
X48390473Y-82747922D01*
X49096395Y-82042000D01*
X48390473Y-81336078D01*
X48161799Y-81389466D01*
X48055905Y-81619374D01*
X48004224Y-81834962D01*
X47985270Y-81715551D01*
X47897578Y-81478104D01*
X47850201Y-81389466D01*
X47621527Y-81336078D01*
X46915605Y-82042000D01*
X46556395Y-82042000D01*
X46542253Y-82027858D01*
X46721858Y-81848253D01*
X46736000Y-81862395D01*
X47441922Y-81156473D01*
X47388534Y-80927799D01*
X47158626Y-80821905D01*
X46943038Y-80770224D01*
X47062449Y-80751270D01*
X47299896Y-80663578D01*
X47388534Y-80616201D01*
X47441922Y-80387527D01*
X46736000Y-79681605D01*
X46721858Y-79695748D01*
X46542253Y-79516143D01*
X46556395Y-79502000D01*
X46915605Y-79502000D01*
X47621527Y-80207922D01*
X47850201Y-80154534D01*
X47956095Y-79924626D01*
X48007776Y-79709038D01*
X48026730Y-79828449D01*
X48114422Y-80065896D01*
X48161799Y-80154534D01*
X48390473Y-80207922D01*
X49096395Y-79502000D01*
X48390473Y-78796078D01*
X48161799Y-78849466D01*
X48055905Y-79079374D01*
X48004224Y-79294962D01*
X47985270Y-79175551D01*
X47897578Y-78938104D01*
X47850201Y-78849466D01*
X47621527Y-78796078D01*
X46915605Y-79502000D01*
X46556395Y-79502000D01*
X46542253Y-79487858D01*
X46721858Y-79308253D01*
X46736000Y-79322395D01*
X47441922Y-78616473D01*
X47388534Y-78387799D01*
X47158626Y-78281905D01*
X46943038Y-78230224D01*
X47062449Y-78211270D01*
X47299896Y-78123578D01*
X47388534Y-78076201D01*
X47441922Y-77847527D01*
X46736000Y-77141605D01*
X46721858Y-77155748D01*
X46542253Y-76976143D01*
X46556395Y-76962000D01*
X46915605Y-76962000D01*
X47621527Y-77667922D01*
X47850201Y-77614534D01*
X47956095Y-77384626D01*
X48007776Y-77169038D01*
X48026730Y-77288449D01*
X48114422Y-77525896D01*
X48161799Y-77614534D01*
X48390473Y-77667922D01*
X49096395Y-76962000D01*
X48390473Y-76256078D01*
X48161799Y-76309466D01*
X48055905Y-76539374D01*
X48004224Y-76754962D01*
X47985270Y-76635551D01*
X47897578Y-76398104D01*
X47850201Y-76309466D01*
X47621527Y-76256078D01*
X46915605Y-76962000D01*
X46556395Y-76962000D01*
X46542253Y-76947858D01*
X46721858Y-76768253D01*
X46736000Y-76782395D01*
X47441922Y-76076473D01*
X47388534Y-75847799D01*
X47158626Y-75741905D01*
X46943038Y-75690224D01*
X47062449Y-75671270D01*
X47299896Y-75583578D01*
X47388534Y-75536201D01*
X47441922Y-75307527D01*
X46736000Y-74601605D01*
X46721858Y-74615748D01*
X46542253Y-74436143D01*
X46556395Y-74422000D01*
X46542253Y-74407858D01*
X46721858Y-74228253D01*
X46736000Y-74242395D01*
X46750143Y-74228253D01*
X46929748Y-74407858D01*
X46915605Y-74422000D01*
X47621527Y-75127922D01*
X47850201Y-75074534D01*
X47956095Y-74844626D01*
X48007776Y-74629038D01*
X48026730Y-74748449D01*
X48114422Y-74985896D01*
X48161799Y-75074534D01*
X48390473Y-75127922D01*
X49096395Y-74422000D01*
X49082253Y-74407858D01*
X49261858Y-74228253D01*
X49276000Y-74242395D01*
X49290143Y-74228253D01*
X49469748Y-74407858D01*
G37*
%TD.AperFunction*%
D24*
X50174840Y-99119186D02*
X50161529Y-99116079D01*
X50174837Y-99102771D01*
X50174840Y-99119186D01*
%TA.AperFunction,Conductor*%
D25*
G36*
X50174840Y-99119186D02*
G01*
X50161529Y-99116079D01*
X50174837Y-99102771D01*
X50174840Y-99119186D01*
G37*
%TD.AperFunction*%
D24*
X50098790Y-98284398D02*
X50174671Y-98208517D01*
X50174798Y-98895610D01*
X50098790Y-98819602D01*
X49981921Y-98936471D01*
X49928534Y-98707799D01*
X49698626Y-98601905D01*
X49483038Y-98550224D01*
X49602449Y-98531270D01*
X49839896Y-98443578D01*
X49928534Y-98396201D01*
X49981921Y-98167529D01*
X50098790Y-98284398D01*
%TA.AperFunction,Conductor*%
D25*
G36*
X50098790Y-98284398D02*
G01*
X50174671Y-98208517D01*
X50174798Y-98895610D01*
X50098790Y-98819602D01*
X49981921Y-98936471D01*
X49928534Y-98707799D01*
X49698626Y-98601905D01*
X49483038Y-98550224D01*
X49602449Y-98531270D01*
X49839896Y-98443578D01*
X49928534Y-98396201D01*
X49981921Y-98167529D01*
X50098790Y-98284398D01*
G37*
%TD.AperFunction*%
D24*
X50174632Y-98001024D02*
X50161529Y-97987921D01*
X50174629Y-97984863D01*
X50174632Y-98001024D01*
%TA.AperFunction,Conductor*%
D25*
G36*
X50174632Y-98001024D02*
G01*
X50161529Y-97987921D01*
X50174629Y-97984863D01*
X50174632Y-98001024D01*
G37*
%TD.AperFunction*%
D24*
X50174368Y-96579076D02*
X50161529Y-96576079D01*
X50174365Y-96563243D01*
X50174368Y-96579076D01*
%TA.AperFunction,Conductor*%
D25*
G36*
X50174368Y-96579076D02*
G01*
X50161529Y-96576079D01*
X50174365Y-96563243D01*
X50174368Y-96579076D01*
G37*
%TD.AperFunction*%
D24*
X50098790Y-95744398D02*
X50174198Y-95668990D01*
X50174326Y-96355138D01*
X50098790Y-96279602D01*
X49981921Y-96396471D01*
X49928534Y-96167799D01*
X49698626Y-96061905D01*
X49483038Y-96010224D01*
X49602449Y-95991270D01*
X49839896Y-95903578D01*
X49928534Y-95856201D01*
X49981921Y-95627529D01*
X50098790Y-95744398D01*
%TA.AperFunction,Conductor*%
D25*
G36*
X50098790Y-95744398D02*
G01*
X50174198Y-95668990D01*
X50174326Y-96355138D01*
X50098790Y-96279602D01*
X49981921Y-96396471D01*
X49928534Y-96167799D01*
X49698626Y-96061905D01*
X49483038Y-96010224D01*
X49602449Y-95991270D01*
X49839896Y-95903578D01*
X49928534Y-95856201D01*
X49981921Y-95627529D01*
X50098790Y-95744398D01*
G37*
%TD.AperFunction*%
D24*
X50174159Y-95460551D02*
X50161529Y-95447921D01*
X50174156Y-95444973D01*
X50174159Y-95460551D01*
%TA.AperFunction,Conductor*%
D25*
G36*
X50174159Y-95460551D02*
G01*
X50161529Y-95447921D01*
X50174156Y-95444973D01*
X50174159Y-95460551D01*
G37*
%TD.AperFunction*%
D24*
X50173895Y-94038965D02*
X50161529Y-94036079D01*
X50173892Y-94023716D01*
X50173895Y-94038965D01*
%TA.AperFunction,Conductor*%
D25*
G36*
X50173895Y-94038965D02*
G01*
X50161529Y-94036079D01*
X50173892Y-94023716D01*
X50173895Y-94038965D01*
G37*
%TD.AperFunction*%
D24*
X50098790Y-93204398D02*
X50173725Y-93129463D01*
X50173853Y-93814665D01*
X50098790Y-93739602D01*
X49981921Y-93856471D01*
X49928534Y-93627799D01*
X49698626Y-93521905D01*
X49483038Y-93470224D01*
X49602449Y-93451270D01*
X49839896Y-93363578D01*
X49928534Y-93316201D01*
X49981921Y-93087529D01*
X50098790Y-93204398D01*
%TA.AperFunction,Conductor*%
D25*
G36*
X50098790Y-93204398D02*
G01*
X50173725Y-93129463D01*
X50173853Y-93814665D01*
X50098790Y-93739602D01*
X49981921Y-93856471D01*
X49928534Y-93627799D01*
X49698626Y-93521905D01*
X49483038Y-93470224D01*
X49602449Y-93451270D01*
X49839896Y-93363578D01*
X49928534Y-93316201D01*
X49981921Y-93087529D01*
X50098790Y-93204398D01*
G37*
%TD.AperFunction*%
D24*
X50173686Y-92920078D02*
X50161529Y-92907921D01*
X50173683Y-92905084D01*
X50173686Y-92920078D01*
%TA.AperFunction,Conductor*%
D25*
G36*
X50173686Y-92920078D02*
G01*
X50161529Y-92907921D01*
X50173683Y-92905084D01*
X50173686Y-92920078D01*
G37*
%TD.AperFunction*%
D24*
X50173422Y-91498855D02*
X50161529Y-91496079D01*
X50173419Y-91484189D01*
X50173422Y-91498855D01*
%TA.AperFunction,Conductor*%
D25*
G36*
X50173422Y-91498855D02*
G01*
X50161529Y-91496079D01*
X50173419Y-91484189D01*
X50173422Y-91498855D01*
G37*
%TD.AperFunction*%
D24*
X50098790Y-90664398D02*
X50173253Y-90589935D01*
X50173380Y-91274192D01*
X50098790Y-91199602D01*
X49981921Y-91316471D01*
X49928534Y-91087799D01*
X49698626Y-90981905D01*
X49483038Y-90930224D01*
X49602449Y-90911270D01*
X49839896Y-90823578D01*
X49928534Y-90776201D01*
X49981921Y-90547529D01*
X50098790Y-90664398D01*
%TA.AperFunction,Conductor*%
D25*
G36*
X50098790Y-90664398D02*
G01*
X50173253Y-90589935D01*
X50173380Y-91274192D01*
X50098790Y-91199602D01*
X49981921Y-91316471D01*
X49928534Y-91087799D01*
X49698626Y-90981905D01*
X49483038Y-90930224D01*
X49602449Y-90911270D01*
X49839896Y-90823578D01*
X49928534Y-90776201D01*
X49981921Y-90547529D01*
X50098790Y-90664398D01*
G37*
%TD.AperFunction*%
D24*
X50173214Y-90379606D02*
X50161529Y-90367921D01*
X50173211Y-90365194D01*
X50173214Y-90379606D01*
%TA.AperFunction,Conductor*%
D25*
G36*
X50173214Y-90379606D02*
G01*
X50161529Y-90367921D01*
X50173211Y-90365194D01*
X50173214Y-90379606D01*
G37*
%TD.AperFunction*%
D24*
X50172949Y-88958745D02*
X50161529Y-88956079D01*
X50172946Y-88944662D01*
X50172949Y-88958745D01*
%TA.AperFunction,Conductor*%
D25*
G36*
X50172949Y-88958745D02*
G01*
X50161529Y-88956079D01*
X50172946Y-88944662D01*
X50172949Y-88958745D01*
G37*
%TD.AperFunction*%
D24*
X50098790Y-88124398D02*
X50172780Y-88050408D01*
X50172907Y-88733719D01*
X50098790Y-88659602D01*
X49981921Y-88776471D01*
X49928534Y-88547799D01*
X49698626Y-88441905D01*
X49483038Y-88390224D01*
X49602449Y-88371270D01*
X49839896Y-88283578D01*
X49928534Y-88236201D01*
X49981921Y-88007529D01*
X50098790Y-88124398D01*
%TA.AperFunction,Conductor*%
D25*
G36*
X50098790Y-88124398D02*
G01*
X50172780Y-88050408D01*
X50172907Y-88733719D01*
X50098790Y-88659602D01*
X49981921Y-88776471D01*
X49928534Y-88547799D01*
X49698626Y-88441905D01*
X49483038Y-88390224D01*
X49602449Y-88371270D01*
X49839896Y-88283578D01*
X49928534Y-88236201D01*
X49981921Y-88007529D01*
X50098790Y-88124398D01*
G37*
%TD.AperFunction*%
D24*
X50172741Y-87839133D02*
X50161529Y-87827921D01*
X50172738Y-87825305D01*
X50172741Y-87839133D01*
%TA.AperFunction,Conductor*%
D25*
G36*
X50172741Y-87839133D02*
G01*
X50161529Y-87827921D01*
X50172738Y-87825305D01*
X50172741Y-87839133D01*
G37*
%TD.AperFunction*%
D24*
X50172476Y-86418634D02*
X50161529Y-86416079D01*
X50172473Y-86405135D01*
X50172476Y-86418634D01*
%TA.AperFunction,Conductor*%
D25*
G36*
X50172476Y-86418634D02*
G01*
X50161529Y-86416079D01*
X50172473Y-86405135D01*
X50172476Y-86418634D01*
G37*
%TD.AperFunction*%
D24*
X50098790Y-85584398D02*
X50172307Y-85510881D01*
X50172434Y-86193246D01*
X50098790Y-86119602D01*
X49981921Y-86236471D01*
X49928534Y-86007799D01*
X49698626Y-85901905D01*
X49483038Y-85850224D01*
X49602449Y-85831270D01*
X49839896Y-85743578D01*
X49928534Y-85696201D01*
X49981921Y-85467529D01*
X50098790Y-85584398D01*
%TA.AperFunction,Conductor*%
D25*
G36*
X50098790Y-85584398D02*
G01*
X50172307Y-85510881D01*
X50172434Y-86193246D01*
X50098790Y-86119602D01*
X49981921Y-86236471D01*
X49928534Y-86007799D01*
X49698626Y-85901905D01*
X49483038Y-85850224D01*
X49602449Y-85831270D01*
X49839896Y-85743578D01*
X49928534Y-85696201D01*
X49981921Y-85467529D01*
X50098790Y-85584398D01*
G37*
%TD.AperFunction*%
D24*
X50172267Y-85298659D02*
X50161529Y-85287921D01*
X50172265Y-85285415D01*
X50172267Y-85298659D01*
%TA.AperFunction,Conductor*%
D25*
G36*
X50172267Y-85298659D02*
G01*
X50161529Y-85287921D01*
X50172265Y-85285415D01*
X50172267Y-85298659D01*
G37*
%TD.AperFunction*%
D24*
X50172003Y-83878524D02*
X50161529Y-83876079D01*
X50172001Y-83865607D01*
X50172003Y-83878524D01*
%TA.AperFunction,Conductor*%
D25*
G36*
X50172003Y-83878524D02*
G01*
X50161529Y-83876079D01*
X50172001Y-83865607D01*
X50172003Y-83878524D01*
G37*
%TD.AperFunction*%
D24*
X50098790Y-83044398D02*
X50171834Y-82971354D01*
X50171961Y-83652773D01*
X50098790Y-83579602D01*
X49981921Y-83696471D01*
X49928534Y-83467799D01*
X49698626Y-83361905D01*
X49483038Y-83310224D01*
X49602449Y-83291270D01*
X49839896Y-83203578D01*
X49928534Y-83156201D01*
X49981921Y-82927529D01*
X50098790Y-83044398D01*
%TA.AperFunction,Conductor*%
D25*
G36*
X50098790Y-83044398D02*
G01*
X50171834Y-82971354D01*
X50171961Y-83652773D01*
X50098790Y-83579602D01*
X49981921Y-83696471D01*
X49928534Y-83467799D01*
X49698626Y-83361905D01*
X49483038Y-83310224D01*
X49602449Y-83291270D01*
X49839896Y-83203578D01*
X49928534Y-83156201D01*
X49981921Y-82927529D01*
X50098790Y-83044398D01*
G37*
%TD.AperFunction*%
D24*
X50171794Y-82758186D02*
X50161529Y-82747921D01*
X50171792Y-82745526D01*
X50171794Y-82758186D01*
%TA.AperFunction,Conductor*%
D25*
G36*
X50171794Y-82758186D02*
G01*
X50161529Y-82747921D01*
X50171792Y-82745526D01*
X50171794Y-82758186D01*
G37*
%TD.AperFunction*%
%TD*%
D24*
%TO.N,GND*%
X61580693Y-82914548D02*
X62681676Y-84015531D01*
X62692353Y-84714992D01*
X61580693Y-85826652D01*
X61730688Y-86137093D01*
X62096959Y-86322911D01*
X62492443Y-86433701D01*
X62718855Y-86451122D01*
X62719381Y-86485600D01*
X62651785Y-86485600D01*
X62248968Y-86565726D01*
X61869522Y-86722897D01*
X61528030Y-86951075D01*
X61237615Y-87241490D01*
X61009437Y-87582982D01*
X60852266Y-87962428D01*
X60772140Y-88365245D01*
X60772140Y-88775955D01*
X60852266Y-89178772D01*
X61009437Y-89558218D01*
X61237615Y-89899710D01*
X61528030Y-90190125D01*
X61869522Y-90418303D01*
X62248968Y-90575474D01*
X62651785Y-90655600D01*
X62783036Y-90655600D01*
X62783401Y-90679467D01*
X62404563Y-90724979D01*
X62014178Y-90852579D01*
X61730688Y-91004107D01*
X61580693Y-91314548D01*
X62811890Y-92545745D01*
X62818651Y-92988694D01*
X61580693Y-94226652D01*
X61730688Y-94537093D01*
X62096959Y-94722911D01*
X62492443Y-94833701D01*
X62847232Y-94861000D01*
X62847502Y-94878697D01*
X62812339Y-94875991D01*
X62404563Y-94924979D01*
X62014178Y-95052579D01*
X61730688Y-95204107D01*
X61580693Y-95514548D01*
X62857140Y-96790995D01*
X62871283Y-96776853D01*
X62876558Y-96782128D01*
X62882226Y-97153404D01*
X62871283Y-97164348D01*
X62857140Y-97150205D01*
X61580693Y-98426652D01*
X61730688Y-98737093D01*
X62096959Y-98922911D01*
X62492443Y-99033701D01*
X62901941Y-99065209D01*
X62911392Y-99064074D01*
X62911691Y-99083635D01*
X62812339Y-99075991D01*
X62404563Y-99124979D01*
X62014178Y-99252579D01*
X61730688Y-99404107D01*
X61580693Y-99714548D01*
X62749720Y-100883575D01*
X62384538Y-100877603D01*
X61401088Y-99894153D01*
X61090647Y-100044148D01*
X60904829Y-100410419D01*
X60794039Y-100805903D01*
X60790528Y-100851533D01*
X50244136Y-100679052D01*
X50278398Y-100644790D01*
X50161529Y-100527921D01*
X50390201Y-100474534D01*
X50496095Y-100244626D01*
X50555102Y-99998476D01*
X50564952Y-99745545D01*
X50525270Y-99495551D01*
X50437578Y-99258104D01*
X50390201Y-99169466D01*
X50161527Y-99116078D01*
X49455605Y-99822000D01*
X49469748Y-99836143D01*
X49290143Y-100015748D01*
X49276000Y-100001605D01*
X49261858Y-100015748D01*
X49082253Y-99836143D01*
X49096395Y-99822000D01*
X48390473Y-99116078D01*
X48161799Y-99169466D01*
X48055905Y-99399374D01*
X48004224Y-99614962D01*
X47985270Y-99495551D01*
X47897578Y-99258104D01*
X47850201Y-99169466D01*
X47621527Y-99116078D01*
X46915605Y-99822000D01*
X46929748Y-99836143D01*
X46750143Y-100015748D01*
X46736000Y-100001605D01*
X46721858Y-100015748D01*
X46542253Y-99836143D01*
X46556395Y-99822000D01*
X46542253Y-99807858D01*
X46721858Y-99628253D01*
X46736000Y-99642395D01*
X47441922Y-98936473D01*
X47388534Y-98707799D01*
X47158626Y-98601905D01*
X46943038Y-98550224D01*
X47062449Y-98531270D01*
X47299896Y-98443578D01*
X47388534Y-98396201D01*
X47441922Y-98167527D01*
X48570078Y-98167527D01*
X48623466Y-98396201D01*
X48853374Y-98502095D01*
X49068962Y-98553776D01*
X48949551Y-98572730D01*
X48712104Y-98660422D01*
X48623466Y-98707799D01*
X48570078Y-98936473D01*
X49276000Y-99642395D01*
X49981922Y-98936473D01*
X49928534Y-98707799D01*
X49698626Y-98601905D01*
X49483038Y-98550224D01*
X49602449Y-98531270D01*
X49839896Y-98443578D01*
X49928534Y-98396201D01*
X49981922Y-98167527D01*
X49276000Y-97461605D01*
X48570078Y-98167527D01*
X47441922Y-98167527D01*
X46736000Y-97461605D01*
X46721858Y-97475748D01*
X46542253Y-97296143D01*
X46556395Y-97282000D01*
X46915605Y-97282000D01*
X47621527Y-97987922D01*
X47850201Y-97934534D01*
X47956095Y-97704626D01*
X48007776Y-97489038D01*
X48026730Y-97608449D01*
X48114422Y-97845896D01*
X48161799Y-97934534D01*
X48390473Y-97987922D01*
X49096395Y-97282000D01*
X49455605Y-97282000D01*
X50161527Y-97987922D01*
X50390201Y-97934534D01*
X50496095Y-97704626D01*
X50555102Y-97458476D01*
X50564952Y-97205545D01*
X50534771Y-97015401D01*
X60762531Y-97015401D01*
X60811519Y-97423177D01*
X60939119Y-97813562D01*
X61090647Y-98097052D01*
X61401088Y-98247047D01*
X62677535Y-96970600D01*
X61401088Y-95694153D01*
X61090647Y-95844148D01*
X60904829Y-96210419D01*
X60794039Y-96605903D01*
X60762531Y-97015401D01*
X50534771Y-97015401D01*
X50525270Y-96955551D01*
X50437578Y-96718104D01*
X50390201Y-96629466D01*
X50161527Y-96576078D01*
X49455605Y-97282000D01*
X49096395Y-97282000D01*
X48390473Y-96576078D01*
X48161799Y-96629466D01*
X48055905Y-96859374D01*
X48004224Y-97074962D01*
X47985270Y-96955551D01*
X47897578Y-96718104D01*
X47850201Y-96629466D01*
X47621527Y-96576078D01*
X46915605Y-97282000D01*
X46556395Y-97282000D01*
X46542253Y-97267858D01*
X46721858Y-97088253D01*
X46736000Y-97102395D01*
X47441922Y-96396473D01*
X47388534Y-96167799D01*
X47158626Y-96061905D01*
X46943038Y-96010224D01*
X47062449Y-95991270D01*
X47299896Y-95903578D01*
X47388534Y-95856201D01*
X47441922Y-95627527D01*
X48570078Y-95627527D01*
X48623466Y-95856201D01*
X48853374Y-95962095D01*
X49068962Y-96013776D01*
X48949551Y-96032730D01*
X48712104Y-96120422D01*
X48623466Y-96167799D01*
X48570078Y-96396473D01*
X49276000Y-97102395D01*
X49981922Y-96396473D01*
X49928534Y-96167799D01*
X49698626Y-96061905D01*
X49483038Y-96010224D01*
X49602449Y-95991270D01*
X49839896Y-95903578D01*
X49928534Y-95856201D01*
X49981922Y-95627527D01*
X49276000Y-94921605D01*
X48570078Y-95627527D01*
X47441922Y-95627527D01*
X46736000Y-94921605D01*
X46721858Y-94935748D01*
X46542253Y-94756143D01*
X46556395Y-94742000D01*
X46915605Y-94742000D01*
X47621527Y-95447922D01*
X47850201Y-95394534D01*
X47956095Y-95164626D01*
X48007776Y-94949038D01*
X48026730Y-95068449D01*
X48114422Y-95305896D01*
X48161799Y-95394534D01*
X48390473Y-95447922D01*
X49096395Y-94742000D01*
X49455605Y-94742000D01*
X50161527Y-95447922D01*
X50390201Y-95394534D01*
X50496095Y-95164626D01*
X50555102Y-94918476D01*
X50564952Y-94665545D01*
X50525270Y-94415551D01*
X50437578Y-94178104D01*
X50390201Y-94089466D01*
X50161527Y-94036078D01*
X49455605Y-94742000D01*
X49096395Y-94742000D01*
X48390473Y-94036078D01*
X48161799Y-94089466D01*
X48055905Y-94319374D01*
X48004224Y-94534962D01*
X47985270Y-94415551D01*
X47897578Y-94178104D01*
X47850201Y-94089466D01*
X47621527Y-94036078D01*
X46915605Y-94742000D01*
X46556395Y-94742000D01*
X46542253Y-94727858D01*
X46721858Y-94548253D01*
X46736000Y-94562395D01*
X47441922Y-93856473D01*
X47388534Y-93627799D01*
X47158626Y-93521905D01*
X46943038Y-93470224D01*
X47062449Y-93451270D01*
X47299896Y-93363578D01*
X47388534Y-93316201D01*
X47441922Y-93087527D01*
X48570078Y-93087527D01*
X48623466Y-93316201D01*
X48853374Y-93422095D01*
X49068962Y-93473776D01*
X48949551Y-93492730D01*
X48712104Y-93580422D01*
X48623466Y-93627799D01*
X48570078Y-93856473D01*
X49276000Y-94562395D01*
X49981922Y-93856473D01*
X49928534Y-93627799D01*
X49698626Y-93521905D01*
X49483038Y-93470224D01*
X49602449Y-93451270D01*
X49839896Y-93363578D01*
X49928534Y-93316201D01*
X49981922Y-93087527D01*
X49276000Y-92381605D01*
X48570078Y-93087527D01*
X47441922Y-93087527D01*
X46736000Y-92381605D01*
X46721858Y-92395748D01*
X46542253Y-92216143D01*
X46556395Y-92202000D01*
X46915605Y-92202000D01*
X47621527Y-92907922D01*
X47850201Y-92854534D01*
X47956095Y-92624626D01*
X48007776Y-92409038D01*
X48026730Y-92528449D01*
X48114422Y-92765896D01*
X48161799Y-92854534D01*
X48390473Y-92907922D01*
X49096395Y-92202000D01*
X49455605Y-92202000D01*
X50161527Y-92907922D01*
X50390201Y-92854534D01*
X50408225Y-92815401D01*
X60762531Y-92815401D01*
X60811519Y-93223177D01*
X60939119Y-93613562D01*
X61090647Y-93897052D01*
X61401088Y-94047047D01*
X62677535Y-92770600D01*
X61401088Y-91494153D01*
X61090647Y-91644148D01*
X60904829Y-92010419D01*
X60794039Y-92405903D01*
X60762531Y-92815401D01*
X50408225Y-92815401D01*
X50496095Y-92624626D01*
X50555102Y-92378476D01*
X50564952Y-92125545D01*
X50525270Y-91875551D01*
X50437578Y-91638104D01*
X50390201Y-91549466D01*
X50161527Y-91496078D01*
X49455605Y-92202000D01*
X49096395Y-92202000D01*
X48390473Y-91496078D01*
X48161799Y-91549466D01*
X48055905Y-91779374D01*
X48004224Y-91994962D01*
X47985270Y-91875551D01*
X47897578Y-91638104D01*
X47850201Y-91549466D01*
X47621527Y-91496078D01*
X46915605Y-92202000D01*
X46556395Y-92202000D01*
X46542253Y-92187858D01*
X46721858Y-92008253D01*
X46736000Y-92022395D01*
X47441922Y-91316473D01*
X47388534Y-91087799D01*
X47158626Y-90981905D01*
X46943038Y-90930224D01*
X47062449Y-90911270D01*
X47299896Y-90823578D01*
X47388534Y-90776201D01*
X47441922Y-90547527D01*
X48570078Y-90547527D01*
X48623466Y-90776201D01*
X48853374Y-90882095D01*
X49068962Y-90933776D01*
X48949551Y-90952730D01*
X48712104Y-91040422D01*
X48623466Y-91087799D01*
X48570078Y-91316473D01*
X49276000Y-92022395D01*
X49981922Y-91316473D01*
X49928534Y-91087799D01*
X49698626Y-90981905D01*
X49483038Y-90930224D01*
X49602449Y-90911270D01*
X49839896Y-90823578D01*
X49928534Y-90776201D01*
X49981922Y-90547527D01*
X49276000Y-89841605D01*
X48570078Y-90547527D01*
X47441922Y-90547527D01*
X46736000Y-89841605D01*
X46721858Y-89855748D01*
X46542253Y-89676143D01*
X46556395Y-89662000D01*
X46915605Y-89662000D01*
X47621527Y-90367922D01*
X47850201Y-90314534D01*
X47956095Y-90084626D01*
X48007776Y-89869038D01*
X48026730Y-89988449D01*
X48114422Y-90225896D01*
X48161799Y-90314534D01*
X48390473Y-90367922D01*
X49096395Y-89662000D01*
X49455605Y-89662000D01*
X50161527Y-90367922D01*
X50390201Y-90314534D01*
X50496095Y-90084626D01*
X50555102Y-89838476D01*
X50564952Y-89585545D01*
X50525270Y-89335551D01*
X50437578Y-89098104D01*
X50390201Y-89009466D01*
X50161527Y-88956078D01*
X49455605Y-89662000D01*
X49096395Y-89662000D01*
X48390473Y-88956078D01*
X48161799Y-89009466D01*
X48055905Y-89239374D01*
X48004224Y-89454962D01*
X47985270Y-89335551D01*
X47897578Y-89098104D01*
X47850201Y-89009466D01*
X47621527Y-88956078D01*
X46915605Y-89662000D01*
X46556395Y-89662000D01*
X46542253Y-89647858D01*
X46721858Y-89468253D01*
X46736000Y-89482395D01*
X47441922Y-88776473D01*
X47388534Y-88547799D01*
X47158626Y-88441905D01*
X46943038Y-88390224D01*
X47062449Y-88371270D01*
X47299896Y-88283578D01*
X47388534Y-88236201D01*
X47441922Y-88007527D01*
X48570078Y-88007527D01*
X48623466Y-88236201D01*
X48853374Y-88342095D01*
X49068962Y-88393776D01*
X48949551Y-88412730D01*
X48712104Y-88500422D01*
X48623466Y-88547799D01*
X48570078Y-88776473D01*
X49276000Y-89482395D01*
X49981922Y-88776473D01*
X49928534Y-88547799D01*
X49698626Y-88441905D01*
X49483038Y-88390224D01*
X49602449Y-88371270D01*
X49839896Y-88283578D01*
X49928534Y-88236201D01*
X49981922Y-88007527D01*
X49276000Y-87301605D01*
X48570078Y-88007527D01*
X47441922Y-88007527D01*
X46736000Y-87301605D01*
X46721858Y-87315748D01*
X46542253Y-87136143D01*
X46556395Y-87122000D01*
X46915605Y-87122000D01*
X47621527Y-87827922D01*
X47850201Y-87774534D01*
X47956095Y-87544626D01*
X48007776Y-87329038D01*
X48026730Y-87448449D01*
X48114422Y-87685896D01*
X48161799Y-87774534D01*
X48390473Y-87827922D01*
X49096395Y-87122000D01*
X49455605Y-87122000D01*
X50161527Y-87827922D01*
X50390201Y-87774534D01*
X50496095Y-87544626D01*
X50555102Y-87298476D01*
X50564952Y-87045545D01*
X50525270Y-86795551D01*
X50437578Y-86558104D01*
X50390201Y-86469466D01*
X50161527Y-86416078D01*
X49455605Y-87122000D01*
X49096395Y-87122000D01*
X48390473Y-86416078D01*
X48161799Y-86469466D01*
X48055905Y-86699374D01*
X48004224Y-86914962D01*
X47985270Y-86795551D01*
X47897578Y-86558104D01*
X47850201Y-86469466D01*
X47621527Y-86416078D01*
X46915605Y-87122000D01*
X46556395Y-87122000D01*
X46542253Y-87107858D01*
X46721858Y-86928253D01*
X46736000Y-86942395D01*
X47441922Y-86236473D01*
X47388534Y-86007799D01*
X47158626Y-85901905D01*
X46943038Y-85850224D01*
X47062449Y-85831270D01*
X47299896Y-85743578D01*
X47388534Y-85696201D01*
X47441922Y-85467527D01*
X48570078Y-85467527D01*
X48623466Y-85696201D01*
X48853374Y-85802095D01*
X49068962Y-85853776D01*
X48949551Y-85872730D01*
X48712104Y-85960422D01*
X48623466Y-86007799D01*
X48570078Y-86236473D01*
X49276000Y-86942395D01*
X49981922Y-86236473D01*
X49928534Y-86007799D01*
X49698626Y-85901905D01*
X49483038Y-85850224D01*
X49602449Y-85831270D01*
X49839896Y-85743578D01*
X49928534Y-85696201D01*
X49981922Y-85467527D01*
X49276000Y-84761605D01*
X48570078Y-85467527D01*
X47441922Y-85467527D01*
X46736000Y-84761605D01*
X46721858Y-84775748D01*
X46542253Y-84596143D01*
X46556395Y-84582000D01*
X46915605Y-84582000D01*
X47621527Y-85287922D01*
X47850201Y-85234534D01*
X47956095Y-85004626D01*
X48007776Y-84789038D01*
X48026730Y-84908449D01*
X48114422Y-85145896D01*
X48161799Y-85234534D01*
X48390473Y-85287922D01*
X49096395Y-84582000D01*
X49455605Y-84582000D01*
X50161527Y-85287922D01*
X50390201Y-85234534D01*
X50496095Y-85004626D01*
X50555102Y-84758476D01*
X50564952Y-84505545D01*
X50550644Y-84415401D01*
X60762531Y-84415401D01*
X60811519Y-84823177D01*
X60939119Y-85213562D01*
X61090647Y-85497052D01*
X61401088Y-85647047D01*
X62677535Y-84370600D01*
X61401088Y-83094153D01*
X61090647Y-83244148D01*
X60904829Y-83610419D01*
X60794039Y-84005903D01*
X60762531Y-84415401D01*
X50550644Y-84415401D01*
X50525270Y-84255551D01*
X50437578Y-84018104D01*
X50390201Y-83929466D01*
X50161527Y-83876078D01*
X49455605Y-84582000D01*
X49096395Y-84582000D01*
X48390473Y-83876078D01*
X48161799Y-83929466D01*
X48055905Y-84159374D01*
X48004224Y-84374962D01*
X47985270Y-84255551D01*
X47897578Y-84018104D01*
X47850201Y-83929466D01*
X47621527Y-83876078D01*
X46915605Y-84582000D01*
X46556395Y-84582000D01*
X46542253Y-84567858D01*
X46721858Y-84388253D01*
X46736000Y-84402395D01*
X47441922Y-83696473D01*
X47388534Y-83467799D01*
X47158626Y-83361905D01*
X46943038Y-83310224D01*
X47062449Y-83291270D01*
X47299896Y-83203578D01*
X47388534Y-83156201D01*
X47441922Y-82927527D01*
X47350308Y-82835913D01*
X48665613Y-82831992D01*
X48570078Y-82927527D01*
X48623466Y-83156201D01*
X48853374Y-83262095D01*
X49068962Y-83313776D01*
X48949551Y-83332730D01*
X48712104Y-83420422D01*
X48623466Y-83467799D01*
X48570078Y-83696473D01*
X49276000Y-84402395D01*
X49981922Y-83696473D01*
X49928534Y-83467799D01*
X49698626Y-83361905D01*
X49483038Y-83310224D01*
X49602449Y-83291270D01*
X49839896Y-83203578D01*
X49928534Y-83156201D01*
X49981922Y-82927527D01*
X49882759Y-82828364D01*
X61639265Y-82793322D01*
X61580693Y-82914548D01*
%TA.AperFunction,Conductor*%
D25*
G36*
X61580693Y-82914548D02*
G01*
X62681676Y-84015531D01*
X62692353Y-84714992D01*
X61580693Y-85826652D01*
X61730688Y-86137093D01*
X62096959Y-86322911D01*
X62492443Y-86433701D01*
X62718855Y-86451122D01*
X62719381Y-86485600D01*
X62651785Y-86485600D01*
X62248968Y-86565726D01*
X61869522Y-86722897D01*
X61528030Y-86951075D01*
X61237615Y-87241490D01*
X61009437Y-87582982D01*
X60852266Y-87962428D01*
X60772140Y-88365245D01*
X60772140Y-88775955D01*
X60852266Y-89178772D01*
X61009437Y-89558218D01*
X61237615Y-89899710D01*
X61528030Y-90190125D01*
X61869522Y-90418303D01*
X62248968Y-90575474D01*
X62651785Y-90655600D01*
X62783036Y-90655600D01*
X62783401Y-90679467D01*
X62404563Y-90724979D01*
X62014178Y-90852579D01*
X61730688Y-91004107D01*
X61580693Y-91314548D01*
X62811890Y-92545745D01*
X62818651Y-92988694D01*
X61580693Y-94226652D01*
X61730688Y-94537093D01*
X62096959Y-94722911D01*
X62492443Y-94833701D01*
X62847232Y-94861000D01*
X62847502Y-94878697D01*
X62812339Y-94875991D01*
X62404563Y-94924979D01*
X62014178Y-95052579D01*
X61730688Y-95204107D01*
X61580693Y-95514548D01*
X62857140Y-96790995D01*
X62871283Y-96776853D01*
X62876558Y-96782128D01*
X62882226Y-97153404D01*
X62871283Y-97164348D01*
X62857140Y-97150205D01*
X61580693Y-98426652D01*
X61730688Y-98737093D01*
X62096959Y-98922911D01*
X62492443Y-99033701D01*
X62901941Y-99065209D01*
X62911392Y-99064074D01*
X62911691Y-99083635D01*
X62812339Y-99075991D01*
X62404563Y-99124979D01*
X62014178Y-99252579D01*
X61730688Y-99404107D01*
X61580693Y-99714548D01*
X62749720Y-100883575D01*
X62384538Y-100877603D01*
X61401088Y-99894153D01*
X61090647Y-100044148D01*
X60904829Y-100410419D01*
X60794039Y-100805903D01*
X60790528Y-100851533D01*
X50244136Y-100679052D01*
X50278398Y-100644790D01*
X50161529Y-100527921D01*
X50390201Y-100474534D01*
X50496095Y-100244626D01*
X50555102Y-99998476D01*
X50564952Y-99745545D01*
X50525270Y-99495551D01*
X50437578Y-99258104D01*
X50390201Y-99169466D01*
X50161527Y-99116078D01*
X49455605Y-99822000D01*
X49469748Y-99836143D01*
X49290143Y-100015748D01*
X49276000Y-100001605D01*
X49261858Y-100015748D01*
X49082253Y-99836143D01*
X49096395Y-99822000D01*
X48390473Y-99116078D01*
X48161799Y-99169466D01*
X48055905Y-99399374D01*
X48004224Y-99614962D01*
X47985270Y-99495551D01*
X47897578Y-99258104D01*
X47850201Y-99169466D01*
X47621527Y-99116078D01*
X46915605Y-99822000D01*
X46929748Y-99836143D01*
X46750143Y-100015748D01*
X46736000Y-100001605D01*
X46721858Y-100015748D01*
X46542253Y-99836143D01*
X46556395Y-99822000D01*
X46542253Y-99807858D01*
X46721858Y-99628253D01*
X46736000Y-99642395D01*
X47441922Y-98936473D01*
X47388534Y-98707799D01*
X47158626Y-98601905D01*
X46943038Y-98550224D01*
X47062449Y-98531270D01*
X47299896Y-98443578D01*
X47388534Y-98396201D01*
X47441922Y-98167527D01*
X48570078Y-98167527D01*
X48623466Y-98396201D01*
X48853374Y-98502095D01*
X49068962Y-98553776D01*
X48949551Y-98572730D01*
X48712104Y-98660422D01*
X48623466Y-98707799D01*
X48570078Y-98936473D01*
X49276000Y-99642395D01*
X49981922Y-98936473D01*
X49928534Y-98707799D01*
X49698626Y-98601905D01*
X49483038Y-98550224D01*
X49602449Y-98531270D01*
X49839896Y-98443578D01*
X49928534Y-98396201D01*
X49981922Y-98167527D01*
X49276000Y-97461605D01*
X48570078Y-98167527D01*
X47441922Y-98167527D01*
X46736000Y-97461605D01*
X46721858Y-97475748D01*
X46542253Y-97296143D01*
X46556395Y-97282000D01*
X46915605Y-97282000D01*
X47621527Y-97987922D01*
X47850201Y-97934534D01*
X47956095Y-97704626D01*
X48007776Y-97489038D01*
X48026730Y-97608449D01*
X48114422Y-97845896D01*
X48161799Y-97934534D01*
X48390473Y-97987922D01*
X49096395Y-97282000D01*
X49455605Y-97282000D01*
X50161527Y-97987922D01*
X50390201Y-97934534D01*
X50496095Y-97704626D01*
X50555102Y-97458476D01*
X50564952Y-97205545D01*
X50534771Y-97015401D01*
X60762531Y-97015401D01*
X60811519Y-97423177D01*
X60939119Y-97813562D01*
X61090647Y-98097052D01*
X61401088Y-98247047D01*
X62677535Y-96970600D01*
X61401088Y-95694153D01*
X61090647Y-95844148D01*
X60904829Y-96210419D01*
X60794039Y-96605903D01*
X60762531Y-97015401D01*
X50534771Y-97015401D01*
X50525270Y-96955551D01*
X50437578Y-96718104D01*
X50390201Y-96629466D01*
X50161527Y-96576078D01*
X49455605Y-97282000D01*
X49096395Y-97282000D01*
X48390473Y-96576078D01*
X48161799Y-96629466D01*
X48055905Y-96859374D01*
X48004224Y-97074962D01*
X47985270Y-96955551D01*
X47897578Y-96718104D01*
X47850201Y-96629466D01*
X47621527Y-96576078D01*
X46915605Y-97282000D01*
X46556395Y-97282000D01*
X46542253Y-97267858D01*
X46721858Y-97088253D01*
X46736000Y-97102395D01*
X47441922Y-96396473D01*
X47388534Y-96167799D01*
X47158626Y-96061905D01*
X46943038Y-96010224D01*
X47062449Y-95991270D01*
X47299896Y-95903578D01*
X47388534Y-95856201D01*
X47441922Y-95627527D01*
X48570078Y-95627527D01*
X48623466Y-95856201D01*
X48853374Y-95962095D01*
X49068962Y-96013776D01*
X48949551Y-96032730D01*
X48712104Y-96120422D01*
X48623466Y-96167799D01*
X48570078Y-96396473D01*
X49276000Y-97102395D01*
X49981922Y-96396473D01*
X49928534Y-96167799D01*
X49698626Y-96061905D01*
X49483038Y-96010224D01*
X49602449Y-95991270D01*
X49839896Y-95903578D01*
X49928534Y-95856201D01*
X49981922Y-95627527D01*
X49276000Y-94921605D01*
X48570078Y-95627527D01*
X47441922Y-95627527D01*
X46736000Y-94921605D01*
X46721858Y-94935748D01*
X46542253Y-94756143D01*
X46556395Y-94742000D01*
X46915605Y-94742000D01*
X47621527Y-95447922D01*
X47850201Y-95394534D01*
X47956095Y-95164626D01*
X48007776Y-94949038D01*
X48026730Y-95068449D01*
X48114422Y-95305896D01*
X48161799Y-95394534D01*
X48390473Y-95447922D01*
X49096395Y-94742000D01*
X49455605Y-94742000D01*
X50161527Y-95447922D01*
X50390201Y-95394534D01*
X50496095Y-95164626D01*
X50555102Y-94918476D01*
X50564952Y-94665545D01*
X50525270Y-94415551D01*
X50437578Y-94178104D01*
X50390201Y-94089466D01*
X50161527Y-94036078D01*
X49455605Y-94742000D01*
X49096395Y-94742000D01*
X48390473Y-94036078D01*
X48161799Y-94089466D01*
X48055905Y-94319374D01*
X48004224Y-94534962D01*
X47985270Y-94415551D01*
X47897578Y-94178104D01*
X47850201Y-94089466D01*
X47621527Y-94036078D01*
X46915605Y-94742000D01*
X46556395Y-94742000D01*
X46542253Y-94727858D01*
X46721858Y-94548253D01*
X46736000Y-94562395D01*
X47441922Y-93856473D01*
X47388534Y-93627799D01*
X47158626Y-93521905D01*
X46943038Y-93470224D01*
X47062449Y-93451270D01*
X47299896Y-93363578D01*
X47388534Y-93316201D01*
X47441922Y-93087527D01*
X48570078Y-93087527D01*
X48623466Y-93316201D01*
X48853374Y-93422095D01*
X49068962Y-93473776D01*
X48949551Y-93492730D01*
X48712104Y-93580422D01*
X48623466Y-93627799D01*
X48570078Y-93856473D01*
X49276000Y-94562395D01*
X49981922Y-93856473D01*
X49928534Y-93627799D01*
X49698626Y-93521905D01*
X49483038Y-93470224D01*
X49602449Y-93451270D01*
X49839896Y-93363578D01*
X49928534Y-93316201D01*
X49981922Y-93087527D01*
X49276000Y-92381605D01*
X48570078Y-93087527D01*
X47441922Y-93087527D01*
X46736000Y-92381605D01*
X46721858Y-92395748D01*
X46542253Y-92216143D01*
X46556395Y-92202000D01*
X46915605Y-92202000D01*
X47621527Y-92907922D01*
X47850201Y-92854534D01*
X47956095Y-92624626D01*
X48007776Y-92409038D01*
X48026730Y-92528449D01*
X48114422Y-92765896D01*
X48161799Y-92854534D01*
X48390473Y-92907922D01*
X49096395Y-92202000D01*
X49455605Y-92202000D01*
X50161527Y-92907922D01*
X50390201Y-92854534D01*
X50408225Y-92815401D01*
X60762531Y-92815401D01*
X60811519Y-93223177D01*
X60939119Y-93613562D01*
X61090647Y-93897052D01*
X61401088Y-94047047D01*
X62677535Y-92770600D01*
X61401088Y-91494153D01*
X61090647Y-91644148D01*
X60904829Y-92010419D01*
X60794039Y-92405903D01*
X60762531Y-92815401D01*
X50408225Y-92815401D01*
X50496095Y-92624626D01*
X50555102Y-92378476D01*
X50564952Y-92125545D01*
X50525270Y-91875551D01*
X50437578Y-91638104D01*
X50390201Y-91549466D01*
X50161527Y-91496078D01*
X49455605Y-92202000D01*
X49096395Y-92202000D01*
X48390473Y-91496078D01*
X48161799Y-91549466D01*
X48055905Y-91779374D01*
X48004224Y-91994962D01*
X47985270Y-91875551D01*
X47897578Y-91638104D01*
X47850201Y-91549466D01*
X47621527Y-91496078D01*
X46915605Y-92202000D01*
X46556395Y-92202000D01*
X46542253Y-92187858D01*
X46721858Y-92008253D01*
X46736000Y-92022395D01*
X47441922Y-91316473D01*
X47388534Y-91087799D01*
X47158626Y-90981905D01*
X46943038Y-90930224D01*
X47062449Y-90911270D01*
X47299896Y-90823578D01*
X47388534Y-90776201D01*
X47441922Y-90547527D01*
X48570078Y-90547527D01*
X48623466Y-90776201D01*
X48853374Y-90882095D01*
X49068962Y-90933776D01*
X48949551Y-90952730D01*
X48712104Y-91040422D01*
X48623466Y-91087799D01*
X48570078Y-91316473D01*
X49276000Y-92022395D01*
X49981922Y-91316473D01*
X49928534Y-91087799D01*
X49698626Y-90981905D01*
X49483038Y-90930224D01*
X49602449Y-90911270D01*
X49839896Y-90823578D01*
X49928534Y-90776201D01*
X49981922Y-90547527D01*
X49276000Y-89841605D01*
X48570078Y-90547527D01*
X47441922Y-90547527D01*
X46736000Y-89841605D01*
X46721858Y-89855748D01*
X46542253Y-89676143D01*
X46556395Y-89662000D01*
X46915605Y-89662000D01*
X47621527Y-90367922D01*
X47850201Y-90314534D01*
X47956095Y-90084626D01*
X48007776Y-89869038D01*
X48026730Y-89988449D01*
X48114422Y-90225896D01*
X48161799Y-90314534D01*
X48390473Y-90367922D01*
X49096395Y-89662000D01*
X49455605Y-89662000D01*
X50161527Y-90367922D01*
X50390201Y-90314534D01*
X50496095Y-90084626D01*
X50555102Y-89838476D01*
X50564952Y-89585545D01*
X50525270Y-89335551D01*
X50437578Y-89098104D01*
X50390201Y-89009466D01*
X50161527Y-88956078D01*
X49455605Y-89662000D01*
X49096395Y-89662000D01*
X48390473Y-88956078D01*
X48161799Y-89009466D01*
X48055905Y-89239374D01*
X48004224Y-89454962D01*
X47985270Y-89335551D01*
X47897578Y-89098104D01*
X47850201Y-89009466D01*
X47621527Y-88956078D01*
X46915605Y-89662000D01*
X46556395Y-89662000D01*
X46542253Y-89647858D01*
X46721858Y-89468253D01*
X46736000Y-89482395D01*
X47441922Y-88776473D01*
X47388534Y-88547799D01*
X47158626Y-88441905D01*
X46943038Y-88390224D01*
X47062449Y-88371270D01*
X47299896Y-88283578D01*
X47388534Y-88236201D01*
X47441922Y-88007527D01*
X48570078Y-88007527D01*
X48623466Y-88236201D01*
X48853374Y-88342095D01*
X49068962Y-88393776D01*
X48949551Y-88412730D01*
X48712104Y-88500422D01*
X48623466Y-88547799D01*
X48570078Y-88776473D01*
X49276000Y-89482395D01*
X49981922Y-88776473D01*
X49928534Y-88547799D01*
X49698626Y-88441905D01*
X49483038Y-88390224D01*
X49602449Y-88371270D01*
X49839896Y-88283578D01*
X49928534Y-88236201D01*
X49981922Y-88007527D01*
X49276000Y-87301605D01*
X48570078Y-88007527D01*
X47441922Y-88007527D01*
X46736000Y-87301605D01*
X46721858Y-87315748D01*
X46542253Y-87136143D01*
X46556395Y-87122000D01*
X46915605Y-87122000D01*
X47621527Y-87827922D01*
X47850201Y-87774534D01*
X47956095Y-87544626D01*
X48007776Y-87329038D01*
X48026730Y-87448449D01*
X48114422Y-87685896D01*
X48161799Y-87774534D01*
X48390473Y-87827922D01*
X49096395Y-87122000D01*
X49455605Y-87122000D01*
X50161527Y-87827922D01*
X50390201Y-87774534D01*
X50496095Y-87544626D01*
X50555102Y-87298476D01*
X50564952Y-87045545D01*
X50525270Y-86795551D01*
X50437578Y-86558104D01*
X50390201Y-86469466D01*
X50161527Y-86416078D01*
X49455605Y-87122000D01*
X49096395Y-87122000D01*
X48390473Y-86416078D01*
X48161799Y-86469466D01*
X48055905Y-86699374D01*
X48004224Y-86914962D01*
X47985270Y-86795551D01*
X47897578Y-86558104D01*
X47850201Y-86469466D01*
X47621527Y-86416078D01*
X46915605Y-87122000D01*
X46556395Y-87122000D01*
X46542253Y-87107858D01*
X46721858Y-86928253D01*
X46736000Y-86942395D01*
X47441922Y-86236473D01*
X47388534Y-86007799D01*
X47158626Y-85901905D01*
X46943038Y-85850224D01*
X47062449Y-85831270D01*
X47299896Y-85743578D01*
X47388534Y-85696201D01*
X47441922Y-85467527D01*
X48570078Y-85467527D01*
X48623466Y-85696201D01*
X48853374Y-85802095D01*
X49068962Y-85853776D01*
X48949551Y-85872730D01*
X48712104Y-85960422D01*
X48623466Y-86007799D01*
X48570078Y-86236473D01*
X49276000Y-86942395D01*
X49981922Y-86236473D01*
X49928534Y-86007799D01*
X49698626Y-85901905D01*
X49483038Y-85850224D01*
X49602449Y-85831270D01*
X49839896Y-85743578D01*
X49928534Y-85696201D01*
X49981922Y-85467527D01*
X49276000Y-84761605D01*
X48570078Y-85467527D01*
X47441922Y-85467527D01*
X46736000Y-84761605D01*
X46721858Y-84775748D01*
X46542253Y-84596143D01*
X46556395Y-84582000D01*
X46915605Y-84582000D01*
X47621527Y-85287922D01*
X47850201Y-85234534D01*
X47956095Y-85004626D01*
X48007776Y-84789038D01*
X48026730Y-84908449D01*
X48114422Y-85145896D01*
X48161799Y-85234534D01*
X48390473Y-85287922D01*
X49096395Y-84582000D01*
X49455605Y-84582000D01*
X50161527Y-85287922D01*
X50390201Y-85234534D01*
X50496095Y-85004626D01*
X50555102Y-84758476D01*
X50564952Y-84505545D01*
X50550644Y-84415401D01*
X60762531Y-84415401D01*
X60811519Y-84823177D01*
X60939119Y-85213562D01*
X61090647Y-85497052D01*
X61401088Y-85647047D01*
X62677535Y-84370600D01*
X61401088Y-83094153D01*
X61090647Y-83244148D01*
X60904829Y-83610419D01*
X60794039Y-84005903D01*
X60762531Y-84415401D01*
X50550644Y-84415401D01*
X50525270Y-84255551D01*
X50437578Y-84018104D01*
X50390201Y-83929466D01*
X50161527Y-83876078D01*
X49455605Y-84582000D01*
X49096395Y-84582000D01*
X48390473Y-83876078D01*
X48161799Y-83929466D01*
X48055905Y-84159374D01*
X48004224Y-84374962D01*
X47985270Y-84255551D01*
X47897578Y-84018104D01*
X47850201Y-83929466D01*
X47621527Y-83876078D01*
X46915605Y-84582000D01*
X46556395Y-84582000D01*
X46542253Y-84567858D01*
X46721858Y-84388253D01*
X46736000Y-84402395D01*
X47441922Y-83696473D01*
X47388534Y-83467799D01*
X47158626Y-83361905D01*
X46943038Y-83310224D01*
X47062449Y-83291270D01*
X47299896Y-83203578D01*
X47388534Y-83156201D01*
X47441922Y-82927527D01*
X47350308Y-82835913D01*
X48665613Y-82831992D01*
X48570078Y-82927527D01*
X48623466Y-83156201D01*
X48853374Y-83262095D01*
X49068962Y-83313776D01*
X48949551Y-83332730D01*
X48712104Y-83420422D01*
X48623466Y-83467799D01*
X48570078Y-83696473D01*
X49276000Y-84402395D01*
X49981922Y-83696473D01*
X49928534Y-83467799D01*
X49698626Y-83361905D01*
X49483038Y-83310224D01*
X49602449Y-83291270D01*
X49839896Y-83203578D01*
X49928534Y-83156201D01*
X49981922Y-82927527D01*
X49882759Y-82828364D01*
X61639265Y-82793322D01*
X61580693Y-82914548D01*
G37*
%TD.AperFunction*%
%TD*%
M02*
