%TF.GenerationSoftware,KiCad,Pcbnew,(5.1.10)-1*%
%TF.CreationDate,2022-08-08T15:03:28-05:00*%
%TF.ProjectId,GEN 1 PSU CARD,47454e20-3120-4505-9355-20434152442e,rev?*%
%TF.SameCoordinates,Original*%
%TF.FileFunction,Soldermask,Bot*%
%TF.FilePolarity,Negative*%
%FSLAX46Y46*%
G04 Gerber Fmt 4.6, Leading zero omitted, Abs format (unit mm)*
G04 Created by KiCad (PCBNEW (5.1.10)-1) date 2022-08-08 15:03:28*
%MOMM*%
%LPD*%
G01*
G04 APERTURE LIST*
%ADD10C,0.800000*%
%ADD11C,7.000000*%
%ADD12C,9.000000*%
%ADD13C,2.175000*%
%ADD14R,2.175000X2.175000*%
%ADD15C,1.600000*%
%ADD16R,1.600000X1.600000*%
%ADD17C,2.400000*%
%ADD18R,2.400000X2.400000*%
G04 APERTURE END LIST*
D10*
%TO.C,REF\u002A\u002A*%
X99377445Y-49917845D03*
X98608600Y-51774000D03*
X99377445Y-53630155D03*
X101233600Y-54399000D03*
X103089755Y-53630155D03*
X103858600Y-51774000D03*
X103089755Y-49917845D03*
X101233600Y-49149000D03*
D11*
X101233600Y-51774000D03*
%TD*%
D12*
%TO.C,REF\u002A\u002A*%
X266034520Y-149098000D03*
%TD*%
%TO.C,REF\u002A\u002A*%
X239654080Y-49509680D03*
%TD*%
%TO.C,REF\u002A\u002A*%
X134391400Y-49570640D03*
%TD*%
%TO.C,REF\u002A\u002A*%
X149931120Y-148209000D03*
%TD*%
%TO.C,REF\u002A\u002A*%
X34254440Y-49956720D03*
%TD*%
%TO.C,REF\u002A\u002A*%
X42550080Y-148056600D03*
%TD*%
D13*
%TO.C,J4*%
X183669040Y-98041400D03*
X189169040Y-98041400D03*
X183669040Y-93841400D03*
X189169040Y-93841400D03*
X183669040Y-89641400D03*
X189169040Y-89641400D03*
X183669040Y-85441400D03*
X189169040Y-85441400D03*
X183669040Y-81241400D03*
X189169040Y-81241400D03*
X183669040Y-77041400D03*
X189169040Y-77041400D03*
X183669040Y-72841400D03*
X189169040Y-72841400D03*
X183669040Y-68641400D03*
X189169040Y-68641400D03*
X183669040Y-64441400D03*
X189169040Y-64441400D03*
X183669040Y-60241400D03*
X189169040Y-60241400D03*
X183669040Y-56041400D03*
X189169040Y-56041400D03*
X183669040Y-51841400D03*
D14*
X189169040Y-51841400D03*
%TD*%
D11*
%TO.C,REF\u002A\u002A*%
X101233600Y-147024000D03*
D10*
X101233600Y-144399000D03*
X103089755Y-145167845D03*
X103858600Y-147024000D03*
X103089755Y-148880155D03*
X101233600Y-149649000D03*
X99377445Y-148880155D03*
X98608600Y-147024000D03*
X99377445Y-145167845D03*
%TD*%
%TO.C,REF\u002A\u002A*%
X54927445Y-49917845D03*
X54158600Y-51774000D03*
X54927445Y-53630155D03*
X56783600Y-54399000D03*
X58639755Y-53630155D03*
X59408600Y-51774000D03*
X58639755Y-49917845D03*
X56783600Y-49149000D03*
D11*
X56783600Y-51774000D03*
%TD*%
D10*
%TO.C,REF\u002A\u002A*%
X54927445Y-145167845D03*
X54158600Y-147024000D03*
X54927445Y-148880155D03*
X56783600Y-149649000D03*
X58639755Y-148880155D03*
X59408600Y-147024000D03*
X58639755Y-145167845D03*
X56783600Y-144399000D03*
D11*
X56783600Y-147024000D03*
%TD*%
D15*
%TO.C,U1*%
X222402400Y-89306400D03*
X222402400Y-86766400D03*
X222402400Y-84226400D03*
X222402400Y-81686400D03*
X222402400Y-79146400D03*
X222402400Y-76606400D03*
X222402400Y-74066400D03*
X222402400Y-71526400D03*
X222402400Y-68986400D03*
X222402400Y-66446400D03*
X222402400Y-63906400D03*
X222402400Y-61366400D03*
X237642400Y-61366400D03*
X237642400Y-63906400D03*
X237642400Y-66446400D03*
X237642400Y-68986400D03*
X237642400Y-71526400D03*
X237642400Y-74066400D03*
X237642400Y-76606400D03*
X237642400Y-79146400D03*
X237642400Y-81686400D03*
X237642400Y-84226400D03*
X237642400Y-86766400D03*
D16*
X237642400Y-89306400D03*
%TD*%
D17*
%TO.C,J3*%
X165968680Y-51851800D03*
X165968680Y-55351800D03*
X165968680Y-58851800D03*
X165968680Y-62351800D03*
X165968680Y-65851800D03*
X165968680Y-69351800D03*
X165968680Y-72851800D03*
D18*
X165968680Y-76351800D03*
%TD*%
D17*
%TO.C,J2*%
X209285840Y-51516520D03*
X209285840Y-55016520D03*
X209285840Y-58516520D03*
X209285840Y-62016520D03*
X209285840Y-65516520D03*
X209285840Y-69016520D03*
X209285840Y-72516520D03*
D18*
X209285840Y-76016520D03*
%TD*%
M02*
