%TF.GenerationSoftware,KiCad,Pcbnew,(5.1.9)-1*%
%TF.CreationDate,2021-07-06T18:24:39-05:00*%
%TF.ProjectId,GEN 1 PSU CARD,47454e20-3120-4505-9355-20434152442e,rev?*%
%TF.SameCoordinates,Original*%
%TF.FileFunction,Legend,Bot*%
%TF.FilePolarity,Positive*%
%FSLAX46Y46*%
G04 Gerber Fmt 4.6, Leading zero omitted, Abs format (unit mm)*
G04 Created by KiCad (PCBNEW (5.1.9)-1) date 2021-07-06 18:24:39*
%MOMM*%
%LPD*%
G01*
G04 APERTURE LIST*
%ADD10C,0.150000*%
%ADD11C,0.300000*%
%ADD12C,0.010000*%
G04 APERTURE END LIST*
D10*
X119837009Y-120773523D02*
X119551295Y-120868761D01*
X119075104Y-120868761D01*
X118884628Y-120773523D01*
X118789390Y-120678285D01*
X118694152Y-120487809D01*
X118694152Y-120297333D01*
X118789390Y-120106857D01*
X118884628Y-120011619D01*
X119075104Y-119916380D01*
X119456057Y-119821142D01*
X119646533Y-119725904D01*
X119741771Y-119630666D01*
X119837009Y-119440190D01*
X119837009Y-119249714D01*
X119741771Y-119059238D01*
X119646533Y-118964000D01*
X119456057Y-118868761D01*
X118979866Y-118868761D01*
X118694152Y-118964000D01*
X116789390Y-120868761D02*
X117932247Y-120868761D01*
X117360819Y-120868761D02*
X117360819Y-118868761D01*
X117551295Y-119154476D01*
X117741771Y-119344952D01*
X117932247Y-119440190D01*
X119837009Y-123923523D02*
X119551295Y-124018761D01*
X119075104Y-124018761D01*
X118884628Y-123923523D01*
X118789390Y-123828285D01*
X118694152Y-123637809D01*
X118694152Y-123447333D01*
X118789390Y-123256857D01*
X118884628Y-123161619D01*
X119075104Y-123066380D01*
X119456057Y-122971142D01*
X119646533Y-122875904D01*
X119741771Y-122780666D01*
X119837009Y-122590190D01*
X119837009Y-122399714D01*
X119741771Y-122209238D01*
X119646533Y-122114000D01*
X119456057Y-122018761D01*
X118979866Y-122018761D01*
X118694152Y-122114000D01*
X117932247Y-122209238D02*
X117837009Y-122114000D01*
X117646533Y-122018761D01*
X117170342Y-122018761D01*
X116979866Y-122114000D01*
X116884628Y-122209238D01*
X116789390Y-122399714D01*
X116789390Y-122590190D01*
X116884628Y-122875904D01*
X118027485Y-124018761D01*
X116789390Y-124018761D01*
D11*
X129520817Y-127763521D02*
X129520817Y-125763521D01*
X128854150Y-127192093D01*
X128187483Y-125763521D01*
X128187483Y-127763521D01*
X126854150Y-125763521D02*
X126473198Y-125763521D01*
X126282721Y-125858760D01*
X126092245Y-126049236D01*
X125997007Y-126430188D01*
X125997007Y-127096855D01*
X126092245Y-127477807D01*
X126282721Y-127668283D01*
X126473198Y-127763521D01*
X126854150Y-127763521D01*
X127044626Y-127668283D01*
X127235102Y-127477807D01*
X127330340Y-127096855D01*
X127330340Y-126430188D01*
X127235102Y-126049236D01*
X127044626Y-125858760D01*
X126854150Y-125763521D01*
X125139864Y-127763521D02*
X125139864Y-125763521D01*
X124663674Y-125763521D01*
X124377960Y-125858760D01*
X124187483Y-126049236D01*
X124092245Y-126239712D01*
X123997007Y-126620664D01*
X123997007Y-126906379D01*
X124092245Y-127287331D01*
X124187483Y-127477807D01*
X124377960Y-127668283D01*
X124663674Y-127763521D01*
X125139864Y-127763521D01*
X123139864Y-126715902D02*
X122473198Y-126715902D01*
X122187483Y-127763521D02*
X123139864Y-127763521D01*
X123139864Y-125763521D01*
X122187483Y-125763521D01*
X120377960Y-127763521D02*
X121330340Y-127763521D01*
X121330340Y-125763521D01*
X117139864Y-127763521D02*
X118282721Y-127763521D01*
X117711293Y-127763521D02*
X117711293Y-125763521D01*
X117901769Y-126049236D01*
X118092245Y-126239712D01*
X118282721Y-126334950D01*
X129520817Y-131063521D02*
X129520817Y-129063521D01*
X128854150Y-130492093D01*
X128187483Y-129063521D01*
X128187483Y-131063521D01*
X126854150Y-129063521D02*
X126473198Y-129063521D01*
X126282721Y-129158760D01*
X126092245Y-129349236D01*
X125997007Y-129730188D01*
X125997007Y-130396855D01*
X126092245Y-130777807D01*
X126282721Y-130968283D01*
X126473198Y-131063521D01*
X126854150Y-131063521D01*
X127044626Y-130968283D01*
X127235102Y-130777807D01*
X127330340Y-130396855D01*
X127330340Y-129730188D01*
X127235102Y-129349236D01*
X127044626Y-129158760D01*
X126854150Y-129063521D01*
X125139864Y-131063521D02*
X125139864Y-129063521D01*
X124663674Y-129063521D01*
X124377960Y-129158760D01*
X124187483Y-129349236D01*
X124092245Y-129539712D01*
X123997007Y-129920664D01*
X123997007Y-130206379D01*
X124092245Y-130587331D01*
X124187483Y-130777807D01*
X124377960Y-130968283D01*
X124663674Y-131063521D01*
X125139864Y-131063521D01*
X123139864Y-130015902D02*
X122473198Y-130015902D01*
X122187483Y-131063521D02*
X123139864Y-131063521D01*
X123139864Y-129063521D01*
X122187483Y-129063521D01*
X120377960Y-131063521D02*
X121330340Y-131063521D01*
X121330340Y-129063521D01*
X118282721Y-129253998D02*
X118187483Y-129158760D01*
X117997007Y-129063521D01*
X117520817Y-129063521D01*
X117330340Y-129158760D01*
X117235102Y-129253998D01*
X117139864Y-129444474D01*
X117139864Y-129634950D01*
X117235102Y-129920664D01*
X118377960Y-131063521D01*
X117139864Y-131063521D01*
D10*
X167168647Y-124961068D02*
X166406742Y-124961068D01*
X166882933Y-124294401D02*
X166882933Y-126008687D01*
X166787695Y-126199163D01*
X166597219Y-126294401D01*
X166406742Y-126294401D01*
X165454361Y-126294401D02*
X165644838Y-126199163D01*
X165740076Y-126103925D01*
X165835314Y-125913449D01*
X165835314Y-125342020D01*
X165740076Y-125151544D01*
X165644838Y-125056306D01*
X165454361Y-124961068D01*
X165168647Y-124961068D01*
X164978171Y-125056306D01*
X164882933Y-125151544D01*
X164787695Y-125342020D01*
X164787695Y-125913449D01*
X164882933Y-126103925D01*
X164978171Y-126199163D01*
X165168647Y-126294401D01*
X165454361Y-126294401D01*
X164121028Y-124961068D02*
X163740076Y-126294401D01*
X163359123Y-125342020D01*
X162978171Y-126294401D01*
X162597219Y-124961068D01*
X161835314Y-124961068D02*
X161835314Y-126294401D01*
X161835314Y-125151544D02*
X161740076Y-125056306D01*
X161549600Y-124961068D01*
X161263885Y-124961068D01*
X161073409Y-125056306D01*
X160978171Y-125246782D01*
X160978171Y-126294401D01*
X160121028Y-126199163D02*
X159930552Y-126294401D01*
X159549600Y-126294401D01*
X159359123Y-126199163D01*
X159263885Y-126008687D01*
X159263885Y-125913449D01*
X159359123Y-125722973D01*
X159549600Y-125627735D01*
X159835314Y-125627735D01*
X160025790Y-125532497D01*
X160121028Y-125342020D01*
X160121028Y-125246782D01*
X160025790Y-125056306D01*
X159835314Y-124961068D01*
X159549600Y-124961068D01*
X159359123Y-125056306D01*
X158597219Y-124961068D02*
X158216266Y-126294401D01*
X157835314Y-125342020D01*
X157454361Y-126294401D01*
X157073409Y-124961068D01*
X156025790Y-126294401D02*
X156216266Y-126199163D01*
X156311504Y-126103925D01*
X156406742Y-125913449D01*
X156406742Y-125342020D01*
X156311504Y-125151544D01*
X156216266Y-125056306D01*
X156025790Y-124961068D01*
X155740076Y-124961068D01*
X155549600Y-125056306D01*
X155454361Y-125151544D01*
X155359123Y-125342020D01*
X155359123Y-125913449D01*
X155454361Y-126103925D01*
X155549600Y-126199163D01*
X155740076Y-126294401D01*
X156025790Y-126294401D01*
X154501980Y-126294401D02*
X154501980Y-124961068D01*
X154501980Y-125342020D02*
X154406742Y-125151544D01*
X154311504Y-125056306D01*
X154121028Y-124961068D01*
X153930552Y-124961068D01*
X152978171Y-126294401D02*
X153168647Y-126199163D01*
X153263885Y-126008687D01*
X153263885Y-124294401D01*
X151359123Y-126294401D02*
X151359123Y-124294401D01*
X151359123Y-126199163D02*
X151549600Y-126294401D01*
X151930552Y-126294401D01*
X152121028Y-126199163D01*
X152216266Y-126103925D01*
X152311504Y-125913449D01*
X152311504Y-125342020D01*
X152216266Y-125151544D01*
X152121028Y-125056306D01*
X151930552Y-124961068D01*
X151549600Y-124961068D01*
X151359123Y-125056306D01*
X150406742Y-126103925D02*
X150311504Y-126199163D01*
X150406742Y-126294401D01*
X150501980Y-126199163D01*
X150406742Y-126103925D01*
X150406742Y-126294401D01*
X148597219Y-126199163D02*
X148787695Y-126294401D01*
X149168647Y-126294401D01*
X149359123Y-126199163D01*
X149454361Y-126103925D01*
X149549600Y-125913449D01*
X149549600Y-125342020D01*
X149454361Y-125151544D01*
X149359123Y-125056306D01*
X149168647Y-124961068D01*
X148787695Y-124961068D01*
X148597219Y-125056306D01*
X147454361Y-126294401D02*
X147644838Y-126199163D01*
X147740076Y-126103925D01*
X147835314Y-125913449D01*
X147835314Y-125342020D01*
X147740076Y-125151544D01*
X147644838Y-125056306D01*
X147454361Y-124961068D01*
X147168647Y-124961068D01*
X146978171Y-125056306D01*
X146882933Y-125151544D01*
X146787695Y-125342020D01*
X146787695Y-125913449D01*
X146882933Y-126103925D01*
X146978171Y-126199163D01*
X147168647Y-126294401D01*
X147454361Y-126294401D01*
X145930552Y-126294401D02*
X145930552Y-124961068D01*
X145930552Y-125151544D02*
X145835314Y-125056306D01*
X145644838Y-124961068D01*
X145359123Y-124961068D01*
X145168647Y-125056306D01*
X145073409Y-125246782D01*
X145073409Y-126294401D01*
X145073409Y-125246782D02*
X144978171Y-125056306D01*
X144787695Y-124961068D01*
X144501980Y-124961068D01*
X144311504Y-125056306D01*
X144216266Y-125246782D01*
X144216266Y-126294401D01*
X164823112Y-131836681D02*
X164823112Y-129836681D01*
X164823112Y-130598586D02*
X164632636Y-130503348D01*
X164251683Y-130503348D01*
X164061207Y-130598586D01*
X163965969Y-130693824D01*
X163870731Y-130884300D01*
X163870731Y-131455729D01*
X163965969Y-131646205D01*
X164061207Y-131741443D01*
X164251683Y-131836681D01*
X164632636Y-131836681D01*
X164823112Y-131741443D01*
X163204064Y-130503348D02*
X162727874Y-131836681D01*
X162251683Y-130503348D02*
X162727874Y-131836681D01*
X162918350Y-132312872D01*
X163013588Y-132408110D01*
X163204064Y-132503348D01*
X159108826Y-131741443D02*
X159299302Y-131836681D01*
X159680255Y-131836681D01*
X159870731Y-131741443D01*
X159965969Y-131646205D01*
X160061207Y-131455729D01*
X160061207Y-130884300D01*
X159965969Y-130693824D01*
X159870731Y-130598586D01*
X159680255Y-130503348D01*
X159299302Y-130503348D01*
X159108826Y-130598586D01*
X158442160Y-130503348D02*
X157965969Y-131836681D01*
X157489779Y-130503348D02*
X157965969Y-131836681D01*
X158156445Y-132312872D01*
X158251683Y-132408110D01*
X158442160Y-132503348D01*
X156442160Y-131836681D02*
X156632636Y-131741443D01*
X156727874Y-131646205D01*
X156823112Y-131455729D01*
X156823112Y-130884300D01*
X156727874Y-130693824D01*
X156632636Y-130598586D01*
X156442160Y-130503348D01*
X156156445Y-130503348D01*
X155965969Y-130598586D01*
X155870731Y-130693824D01*
X155775493Y-130884300D01*
X155775493Y-131455729D01*
X155870731Y-131646205D01*
X155965969Y-131741443D01*
X156156445Y-131836681D01*
X156442160Y-131836681D01*
X154918350Y-131646205D02*
X154823112Y-131741443D01*
X154918350Y-131836681D01*
X155013588Y-131741443D01*
X154918350Y-131646205D01*
X154918350Y-131836681D01*
X154251683Y-130503348D02*
X153489779Y-130503348D01*
X153965969Y-129836681D02*
X153965969Y-131550967D01*
X153870731Y-131741443D01*
X153680255Y-131836681D01*
X153489779Y-131836681D01*
X152823112Y-131836681D02*
X152823112Y-129836681D01*
X151965969Y-131836681D02*
X151965969Y-130789062D01*
X152061207Y-130598586D01*
X152251683Y-130503348D01*
X152537398Y-130503348D01*
X152727874Y-130598586D01*
X152823112Y-130693824D01*
X150251683Y-131741443D02*
X150442160Y-131836681D01*
X150823112Y-131836681D01*
X151013588Y-131741443D01*
X151108826Y-131550967D01*
X151108826Y-130789062D01*
X151013588Y-130598586D01*
X150823112Y-130503348D01*
X150442160Y-130503348D01*
X150251683Y-130598586D01*
X150156445Y-130789062D01*
X150156445Y-130979539D01*
X151108826Y-131170015D01*
X149299302Y-131646205D02*
X149204064Y-131741443D01*
X149299302Y-131836681D01*
X149394540Y-131741443D01*
X149299302Y-131646205D01*
X149299302Y-131836681D01*
X148537398Y-130503348D02*
X148061207Y-131836681D01*
X147585017Y-130503348D01*
X146823112Y-131836681D02*
X146823112Y-130503348D01*
X146823112Y-129836681D02*
X146918350Y-129931920D01*
X146823112Y-130027158D01*
X146727874Y-129931920D01*
X146823112Y-129836681D01*
X146823112Y-130027158D01*
X145585017Y-131836681D02*
X145775493Y-131741443D01*
X145870731Y-131550967D01*
X145870731Y-129836681D01*
X144061207Y-131741443D02*
X144251683Y-131836681D01*
X144632636Y-131836681D01*
X144823112Y-131741443D01*
X144918350Y-131550967D01*
X144918350Y-130789062D01*
X144823112Y-130598586D01*
X144632636Y-130503348D01*
X144251683Y-130503348D01*
X144061207Y-130598586D01*
X143965969Y-130789062D01*
X143965969Y-130979539D01*
X144918350Y-131170015D01*
X147210800Y-114163400D02*
X147401276Y-114068161D01*
X147686990Y-114068161D01*
X147972704Y-114163400D01*
X148163180Y-114353876D01*
X148258419Y-114544352D01*
X148353657Y-114925304D01*
X148353657Y-115211019D01*
X148258419Y-115591971D01*
X148163180Y-115782447D01*
X147972704Y-115972923D01*
X147686990Y-116068161D01*
X147496514Y-116068161D01*
X147210800Y-115972923D01*
X147115561Y-115877685D01*
X147115561Y-115211019D01*
X147496514Y-115211019D01*
X146258419Y-115020542D02*
X145591752Y-115020542D01*
X145306038Y-116068161D02*
X146258419Y-116068161D01*
X146258419Y-114068161D01*
X145306038Y-114068161D01*
X144448895Y-116068161D02*
X144448895Y-114068161D01*
X143306038Y-116068161D01*
X143306038Y-114068161D01*
X142353657Y-115020542D02*
X141686990Y-115020542D01*
X141401276Y-116068161D02*
X142353657Y-116068161D01*
X142353657Y-114068161D01*
X141401276Y-114068161D01*
X139401276Y-116068161D02*
X140067942Y-115115780D01*
X140544133Y-116068161D02*
X140544133Y-114068161D01*
X139782228Y-114068161D01*
X139591752Y-114163400D01*
X139496514Y-114258638D01*
X139401276Y-114449114D01*
X139401276Y-114734828D01*
X139496514Y-114925304D01*
X139591752Y-115020542D01*
X139782228Y-115115780D01*
X140544133Y-115115780D01*
X138639371Y-115496733D02*
X137686990Y-115496733D01*
X138829847Y-116068161D02*
X138163180Y-114068161D01*
X137496514Y-116068161D01*
X137115561Y-114068161D02*
X135972704Y-114068161D01*
X136544133Y-116068161D02*
X136544133Y-114068161D01*
X135306038Y-116068161D02*
X135306038Y-114068161D01*
X133972704Y-114068161D02*
X133591752Y-114068161D01*
X133401276Y-114163400D01*
X133210800Y-114353876D01*
X133115561Y-114734828D01*
X133115561Y-115401495D01*
X133210800Y-115782447D01*
X133401276Y-115972923D01*
X133591752Y-116068161D01*
X133972704Y-116068161D01*
X134163180Y-115972923D01*
X134353657Y-115782447D01*
X134448895Y-115401495D01*
X134448895Y-114734828D01*
X134353657Y-114353876D01*
X134163180Y-114163400D01*
X133972704Y-114068161D01*
X132258419Y-116068161D02*
X132258419Y-114068161D01*
X131115561Y-116068161D01*
X131115561Y-114068161D01*
X127591752Y-116068161D02*
X128734609Y-116068161D01*
X128163180Y-116068161D02*
X128163180Y-114068161D01*
X128353657Y-114353876D01*
X128544133Y-114544352D01*
X128734609Y-114639590D01*
X148258419Y-119218161D02*
X148258419Y-117218161D01*
X147496514Y-117218161D01*
X147306038Y-117313400D01*
X147210800Y-117408638D01*
X147115561Y-117599114D01*
X147115561Y-117884828D01*
X147210800Y-118075304D01*
X147306038Y-118170542D01*
X147496514Y-118265780D01*
X148258419Y-118265780D01*
X145877466Y-117218161D02*
X145496514Y-117218161D01*
X145306038Y-117313400D01*
X145115561Y-117503876D01*
X145020323Y-117884828D01*
X145020323Y-118551495D01*
X145115561Y-118932447D01*
X145306038Y-119122923D01*
X145496514Y-119218161D01*
X145877466Y-119218161D01*
X146067942Y-119122923D01*
X146258419Y-118932447D01*
X146353657Y-118551495D01*
X146353657Y-117884828D01*
X146258419Y-117503876D01*
X146067942Y-117313400D01*
X145877466Y-117218161D01*
X144353657Y-117218161D02*
X143877466Y-119218161D01*
X143496514Y-117789590D01*
X143115561Y-119218161D01*
X142639371Y-117218161D01*
X141877466Y-118170542D02*
X141210800Y-118170542D01*
X140925085Y-119218161D02*
X141877466Y-119218161D01*
X141877466Y-117218161D01*
X140925085Y-117218161D01*
X138925085Y-119218161D02*
X139591752Y-118265780D01*
X140067942Y-119218161D02*
X140067942Y-117218161D01*
X139306038Y-117218161D01*
X139115561Y-117313400D01*
X139020323Y-117408638D01*
X138925085Y-117599114D01*
X138925085Y-117884828D01*
X139020323Y-118075304D01*
X139115561Y-118170542D01*
X139306038Y-118265780D01*
X140067942Y-118265780D01*
X136639371Y-119122923D02*
X136353657Y-119218161D01*
X135877466Y-119218161D01*
X135686990Y-119122923D01*
X135591752Y-119027685D01*
X135496514Y-118837209D01*
X135496514Y-118646733D01*
X135591752Y-118456257D01*
X135686990Y-118361019D01*
X135877466Y-118265780D01*
X136258419Y-118170542D01*
X136448895Y-118075304D01*
X136544133Y-117980066D01*
X136639371Y-117789590D01*
X136639371Y-117599114D01*
X136544133Y-117408638D01*
X136448895Y-117313400D01*
X136258419Y-117218161D01*
X135782228Y-117218161D01*
X135496514Y-117313400D01*
X134639371Y-117218161D02*
X134639371Y-118837209D01*
X134544133Y-119027685D01*
X134448895Y-119122923D01*
X134258419Y-119218161D01*
X133877466Y-119218161D01*
X133686990Y-119122923D01*
X133591752Y-119027685D01*
X133496514Y-118837209D01*
X133496514Y-117218161D01*
X132544133Y-119218161D02*
X132544133Y-117218161D01*
X131782228Y-117218161D01*
X131591752Y-117313400D01*
X131496514Y-117408638D01*
X131401276Y-117599114D01*
X131401276Y-117884828D01*
X131496514Y-118075304D01*
X131591752Y-118170542D01*
X131782228Y-118265780D01*
X132544133Y-118265780D01*
X130544133Y-119218161D02*
X130544133Y-117218161D01*
X129782228Y-117218161D01*
X129591752Y-117313400D01*
X129496514Y-117408638D01*
X129401276Y-117599114D01*
X129401276Y-117884828D01*
X129496514Y-118075304D01*
X129591752Y-118170542D01*
X129782228Y-118265780D01*
X130544133Y-118265780D01*
X127591752Y-119218161D02*
X128544133Y-119218161D01*
X128544133Y-117218161D01*
X126544133Y-118265780D02*
X126544133Y-119218161D01*
X127210800Y-117218161D02*
X126544133Y-118265780D01*
X125877466Y-117218161D01*
D12*
%TO.C,G\u002A\u002A\u002A*%
G36*
X149222425Y-103144616D02*
G01*
X148560447Y-103254792D01*
X148221586Y-103530201D01*
X148041548Y-104030039D01*
X147560736Y-104959484D01*
X146722597Y-105713175D01*
X145668280Y-106213274D01*
X144538934Y-106381941D01*
X143922406Y-106301628D01*
X143026691Y-105870252D01*
X142177137Y-105121272D01*
X141556317Y-104226429D01*
X141449031Y-103975030D01*
X141174586Y-103386338D01*
X140797004Y-103143335D01*
X140193884Y-103098600D01*
X139582994Y-103123495D01*
X139358342Y-103287358D01*
X139398191Y-103723954D01*
X139442614Y-103924100D01*
X140012856Y-105426582D01*
X140938085Y-106674070D01*
X142135191Y-107612147D01*
X143521063Y-108186396D01*
X145012588Y-108342402D01*
X145973739Y-108200275D01*
X147372800Y-107623238D01*
X148577855Y-106697328D01*
X149488903Y-105525125D01*
X150005945Y-104209208D01*
X150039548Y-104029598D01*
X150196303Y-103063633D01*
X149222425Y-103144616D01*
G37*
X149222425Y-103144616D02*
X148560447Y-103254792D01*
X148221586Y-103530201D01*
X148041548Y-104030039D01*
X147560736Y-104959484D01*
X146722597Y-105713175D01*
X145668280Y-106213274D01*
X144538934Y-106381941D01*
X143922406Y-106301628D01*
X143026691Y-105870252D01*
X142177137Y-105121272D01*
X141556317Y-104226429D01*
X141449031Y-103975030D01*
X141174586Y-103386338D01*
X140797004Y-103143335D01*
X140193884Y-103098600D01*
X139582994Y-103123495D01*
X139358342Y-103287358D01*
X139398191Y-103723954D01*
X139442614Y-103924100D01*
X140012856Y-105426582D01*
X140938085Y-106674070D01*
X142135191Y-107612147D01*
X143521063Y-108186396D01*
X145012588Y-108342402D01*
X145973739Y-108200275D01*
X147372800Y-107623238D01*
X148577855Y-106697328D01*
X149488903Y-105525125D01*
X150005945Y-104209208D01*
X150039548Y-104029598D01*
X150196303Y-103063633D01*
X149222425Y-103144616D01*
G36*
X169110660Y-102844554D02*
G01*
X166380160Y-102844600D01*
X166380160Y-103733600D01*
X166436986Y-104346317D01*
X166658827Y-104593540D01*
X166888160Y-104622600D01*
X167301873Y-104463781D01*
X167396160Y-104241600D01*
X167521580Y-104011834D01*
X167961670Y-103893541D01*
X168793160Y-103860600D01*
X169593252Y-103877083D01*
X170009852Y-103964204D01*
X170167274Y-104178468D01*
X170190160Y-104495600D01*
X170134706Y-104904719D01*
X169873135Y-105086558D01*
X169262640Y-105130373D01*
X169174160Y-105130600D01*
X168426672Y-105229491D01*
X168123345Y-105459626D01*
X168272003Y-105721199D01*
X168880467Y-105914402D01*
X169110660Y-105940767D01*
X169770830Y-106058602D01*
X170073782Y-106327093D01*
X170144475Y-106592235D01*
X170052217Y-107128023D01*
X169826975Y-107317910D01*
X169478417Y-107634077D01*
X169428160Y-107824775D01*
X169605231Y-108058799D01*
X170180974Y-108166139D01*
X170634660Y-108178422D01*
X171841160Y-108178245D01*
X171841160Y-102844509D01*
X169110660Y-102844554D01*
G37*
X169110660Y-102844554D02*
X166380160Y-102844600D01*
X166380160Y-103733600D01*
X166436986Y-104346317D01*
X166658827Y-104593540D01*
X166888160Y-104622600D01*
X167301873Y-104463781D01*
X167396160Y-104241600D01*
X167521580Y-104011834D01*
X167961670Y-103893541D01*
X168793160Y-103860600D01*
X169593252Y-103877083D01*
X170009852Y-103964204D01*
X170167274Y-104178468D01*
X170190160Y-104495600D01*
X170134706Y-104904719D01*
X169873135Y-105086558D01*
X169262640Y-105130373D01*
X169174160Y-105130600D01*
X168426672Y-105229491D01*
X168123345Y-105459626D01*
X168272003Y-105721199D01*
X168880467Y-105914402D01*
X169110660Y-105940767D01*
X169770830Y-106058602D01*
X170073782Y-106327093D01*
X170144475Y-106592235D01*
X170052217Y-107128023D01*
X169826975Y-107317910D01*
X169478417Y-107634077D01*
X169428160Y-107824775D01*
X169605231Y-108058799D01*
X170180974Y-108166139D01*
X170634660Y-108178422D01*
X171841160Y-108178245D01*
X171841160Y-102844509D01*
X169110660Y-102844554D01*
G36*
X158601261Y-102887529D02*
G01*
X158308787Y-103060889D01*
X158252160Y-103352600D01*
X158358529Y-103765341D01*
X158506160Y-103860600D01*
X158639187Y-104093661D01*
X158730161Y-104710111D01*
X158760160Y-105496609D01*
X158723469Y-106363668D01*
X158627706Y-107013694D01*
X158506160Y-107289600D01*
X158272448Y-107657106D01*
X158252160Y-107812590D01*
X158422169Y-108058893D01*
X158981836Y-108167901D01*
X159380170Y-108178600D01*
X160071143Y-108107644D01*
X160584665Y-107933863D01*
X160820654Y-107715883D01*
X160679027Y-107512330D01*
X160583131Y-107473923D01*
X160395943Y-107177382D01*
X160300538Y-106550227D01*
X160296378Y-106315933D01*
X160308595Y-105257600D01*
X161062450Y-106718100D01*
X161484877Y-107468388D01*
X161848728Y-107995376D01*
X162062160Y-108178600D01*
X162298580Y-107970989D01*
X162675951Y-107428386D01*
X163085119Y-106718100D01*
X163862222Y-105257600D01*
X163742543Y-106718100D01*
X163622865Y-108178600D01*
X164493513Y-108178600D01*
X165155930Y-108085707D01*
X165364160Y-107812590D01*
X165209360Y-107380143D01*
X165110160Y-107289600D01*
X164979065Y-106972249D01*
X164887334Y-106298747D01*
X164856160Y-105496609D01*
X164882001Y-104575331D01*
X164974258Y-104065213D01*
X165155032Y-103871349D01*
X165237160Y-103860600D01*
X165547445Y-103648841D01*
X165618160Y-103352600D01*
X165539293Y-103029076D01*
X165215320Y-102880128D01*
X164529406Y-102844600D01*
X163950455Y-102862546D01*
X163565697Y-102983019D01*
X163257282Y-103305966D01*
X162907358Y-103931338D01*
X162659351Y-104430581D01*
X161878050Y-106016563D01*
X161077449Y-104430581D01*
X160643528Y-103599684D01*
X160318165Y-103125443D01*
X159987162Y-102907958D01*
X159536322Y-102847327D01*
X159264504Y-102844600D01*
X158601261Y-102887529D01*
G37*
X158601261Y-102887529D02*
X158308787Y-103060889D01*
X158252160Y-103352600D01*
X158358529Y-103765341D01*
X158506160Y-103860600D01*
X158639187Y-104093661D01*
X158730161Y-104710111D01*
X158760160Y-105496609D01*
X158723469Y-106363668D01*
X158627706Y-107013694D01*
X158506160Y-107289600D01*
X158272448Y-107657106D01*
X158252160Y-107812590D01*
X158422169Y-108058893D01*
X158981836Y-108167901D01*
X159380170Y-108178600D01*
X160071143Y-108107644D01*
X160584665Y-107933863D01*
X160820654Y-107715883D01*
X160679027Y-107512330D01*
X160583131Y-107473923D01*
X160395943Y-107177382D01*
X160300538Y-106550227D01*
X160296378Y-106315933D01*
X160308595Y-105257600D01*
X161062450Y-106718100D01*
X161484877Y-107468388D01*
X161848728Y-107995376D01*
X162062160Y-108178600D01*
X162298580Y-107970989D01*
X162675951Y-107428386D01*
X163085119Y-106718100D01*
X163862222Y-105257600D01*
X163742543Y-106718100D01*
X163622865Y-108178600D01*
X164493513Y-108178600D01*
X165155930Y-108085707D01*
X165364160Y-107812590D01*
X165209360Y-107380143D01*
X165110160Y-107289600D01*
X164979065Y-106972249D01*
X164887334Y-106298747D01*
X164856160Y-105496609D01*
X164882001Y-104575331D01*
X164974258Y-104065213D01*
X165155032Y-103871349D01*
X165237160Y-103860600D01*
X165547445Y-103648841D01*
X165618160Y-103352600D01*
X165539293Y-103029076D01*
X165215320Y-102880128D01*
X164529406Y-102844600D01*
X163950455Y-102862546D01*
X163565697Y-102983019D01*
X163257282Y-103305966D01*
X162907358Y-103931338D01*
X162659351Y-104430581D01*
X161878050Y-106016563D01*
X161077449Y-104430581D01*
X160643528Y-103599684D01*
X160318165Y-103125443D01*
X159987162Y-102907958D01*
X159536322Y-102847327D01*
X159264504Y-102844600D01*
X158601261Y-102887529D01*
G36*
X153934160Y-108178600D02*
G01*
X156220160Y-108178600D01*
X156220160Y-103098600D01*
X153934160Y-103098600D01*
X153934160Y-108178600D01*
G37*
X153934160Y-108178600D02*
X156220160Y-108178600D01*
X156220160Y-103098600D01*
X153934160Y-103098600D01*
X153934160Y-108178600D01*
G36*
X133217861Y-103126593D02*
G01*
X132958533Y-103263005D01*
X132964345Y-103586478D01*
X132984078Y-103670100D01*
X133109206Y-104191785D01*
X133307576Y-105036332D01*
X133538757Y-106031482D01*
X133565343Y-106146600D01*
X134005013Y-108051600D01*
X135209178Y-108129122D01*
X136076771Y-108118345D01*
X136492966Y-107940073D01*
X136527892Y-107875122D01*
X136646255Y-107466778D01*
X136837387Y-106742273D01*
X137066752Y-105840559D01*
X137299819Y-104900587D01*
X137502054Y-104061308D01*
X137638923Y-103461674D01*
X137678160Y-103246780D01*
X137452678Y-103153768D01*
X136889765Y-103102247D01*
X136667000Y-103098600D01*
X135990061Y-103146444D01*
X135650138Y-103350134D01*
X135496905Y-103731844D01*
X135273165Y-104169387D01*
X135027030Y-104151740D01*
X134887872Y-103708514D01*
X134884160Y-103591609D01*
X134793970Y-103268562D01*
X134436268Y-103125650D01*
X133863321Y-103098600D01*
X133217861Y-103126593D01*
G37*
X133217861Y-103126593D02*
X132958533Y-103263005D01*
X132964345Y-103586478D01*
X132984078Y-103670100D01*
X133109206Y-104191785D01*
X133307576Y-105036332D01*
X133538757Y-106031482D01*
X133565343Y-106146600D01*
X134005013Y-108051600D01*
X135209178Y-108129122D01*
X136076771Y-108118345D01*
X136492966Y-107940073D01*
X136527892Y-107875122D01*
X136646255Y-107466778D01*
X136837387Y-106742273D01*
X137066752Y-105840559D01*
X137299819Y-104900587D01*
X137502054Y-104061308D01*
X137638923Y-103461674D01*
X137678160Y-103246780D01*
X137452678Y-103153768D01*
X136889765Y-103102247D01*
X136667000Y-103098600D01*
X135990061Y-103146444D01*
X135650138Y-103350134D01*
X135496905Y-103731844D01*
X135273165Y-104169387D01*
X135027030Y-104151740D01*
X134887872Y-103708514D01*
X134884160Y-103591609D01*
X134793970Y-103268562D01*
X134436268Y-103125650D01*
X133863321Y-103098600D01*
X133217861Y-103126593D01*
G36*
X127388465Y-103141011D02*
G01*
X127040193Y-103246913D01*
X127016425Y-103289100D01*
X127078052Y-103604565D01*
X127238049Y-104291600D01*
X127467928Y-105229868D01*
X127602706Y-105765600D01*
X128182721Y-108051600D01*
X129377032Y-108129122D01*
X130241760Y-108117500D01*
X130653909Y-107936143D01*
X130685892Y-107875122D01*
X130804255Y-107466778D01*
X130995387Y-106742273D01*
X131224752Y-105840559D01*
X131457819Y-104900587D01*
X131660054Y-104061308D01*
X131796923Y-103461674D01*
X131836160Y-103246780D01*
X131610610Y-103153950D01*
X131047220Y-103102355D01*
X130820160Y-103098600D01*
X130153174Y-103142596D01*
X129858985Y-103316892D01*
X129804160Y-103591609D01*
X129696426Y-104105014D01*
X129459472Y-104197929D01*
X129222674Y-103840746D01*
X129191416Y-103731844D01*
X129010504Y-103315428D01*
X128639861Y-103134565D01*
X128021321Y-103098600D01*
X127388465Y-103141011D01*
G37*
X127388465Y-103141011D02*
X127040193Y-103246913D01*
X127016425Y-103289100D01*
X127078052Y-103604565D01*
X127238049Y-104291600D01*
X127467928Y-105229868D01*
X127602706Y-105765600D01*
X128182721Y-108051600D01*
X129377032Y-108129122D01*
X130241760Y-108117500D01*
X130653909Y-107936143D01*
X130685892Y-107875122D01*
X130804255Y-107466778D01*
X130995387Y-106742273D01*
X131224752Y-105840559D01*
X131457819Y-104900587D01*
X131660054Y-104061308D01*
X131796923Y-103461674D01*
X131836160Y-103246780D01*
X131610610Y-103153950D01*
X131047220Y-103102355D01*
X130820160Y-103098600D01*
X130153174Y-103142596D01*
X129858985Y-103316892D01*
X129804160Y-103591609D01*
X129696426Y-104105014D01*
X129459472Y-104197929D01*
X129222674Y-103840746D01*
X129191416Y-103731844D01*
X129010504Y-103315428D01*
X128639861Y-103134565D01*
X128021321Y-103098600D01*
X127388465Y-103141011D01*
G36*
X122184160Y-107924600D02*
G01*
X124216160Y-107924600D01*
X124216160Y-102844600D01*
X122184160Y-102844600D01*
X122184160Y-107924600D01*
G37*
X122184160Y-107924600D02*
X124216160Y-107924600D01*
X124216160Y-102844600D01*
X122184160Y-102844600D01*
X122184160Y-107924600D01*
G36*
X114056160Y-107924600D02*
G01*
X115701305Y-107924600D01*
X116627372Y-107901251D01*
X117190279Y-107803985D01*
X117533790Y-107591976D01*
X117722570Y-107350568D01*
X117949990Y-106927240D01*
X118288864Y-106211353D01*
X118681341Y-105336232D01*
X119069568Y-104435201D01*
X119395696Y-103641583D01*
X119601872Y-103088704D01*
X119644160Y-102922060D01*
X119419067Y-102872968D01*
X118854643Y-102877559D01*
X118596806Y-102893495D01*
X117975711Y-102971013D01*
X117595767Y-103170915D01*
X117310753Y-103621057D01*
X117055034Y-104241600D01*
X116654034Y-105196751D01*
X116373627Y-105665864D01*
X116197144Y-105652002D01*
X116107918Y-105158231D01*
X116088160Y-104419400D01*
X116088160Y-102844600D01*
X114056160Y-102844600D01*
X114056160Y-107924600D01*
G37*
X114056160Y-107924600D02*
X115701305Y-107924600D01*
X116627372Y-107901251D01*
X117190279Y-107803985D01*
X117533790Y-107591976D01*
X117722570Y-107350568D01*
X117949990Y-106927240D01*
X118288864Y-106211353D01*
X118681341Y-105336232D01*
X119069568Y-104435201D01*
X119395696Y-103641583D01*
X119601872Y-103088704D01*
X119644160Y-102922060D01*
X119419067Y-102872968D01*
X118854643Y-102877559D01*
X118596806Y-102893495D01*
X117975711Y-102971013D01*
X117595767Y-103170915D01*
X117310753Y-103621057D01*
X117055034Y-104241600D01*
X116654034Y-105196751D01*
X116373627Y-105665864D01*
X116197144Y-105652002D01*
X116107918Y-105158231D01*
X116088160Y-104419400D01*
X116088160Y-102844600D01*
X114056160Y-102844600D01*
X114056160Y-107924600D01*
G36*
X103266001Y-102886743D02*
G01*
X102907191Y-103064610D01*
X102739025Y-103445490D01*
X102720979Y-104428899D01*
X103061350Y-105521077D01*
X103695777Y-106549150D01*
X104031632Y-106917517D01*
X104938919Y-107797600D01*
X112817139Y-107960810D01*
X112738150Y-106863205D01*
X112659160Y-105765600D01*
X109241614Y-105694365D01*
X107635321Y-105642816D01*
X106471579Y-105546052D01*
X105685204Y-105375255D01*
X105211012Y-105101611D01*
X104983819Y-104696303D01*
X104938441Y-104130515D01*
X104961269Y-103802134D01*
X105052585Y-102844600D01*
X103971212Y-102844600D01*
X103266001Y-102886743D01*
G37*
X103266001Y-102886743D02*
X102907191Y-103064610D01*
X102739025Y-103445490D01*
X102720979Y-104428899D01*
X103061350Y-105521077D01*
X103695777Y-106549150D01*
X104031632Y-106917517D01*
X104938919Y-107797600D01*
X112817139Y-107960810D01*
X112738150Y-106863205D01*
X112659160Y-105765600D01*
X109241614Y-105694365D01*
X107635321Y-105642816D01*
X106471579Y-105546052D01*
X105685204Y-105375255D01*
X105211012Y-105101611D01*
X104983819Y-104696303D01*
X104938441Y-104130515D01*
X104961269Y-103802134D01*
X105052585Y-102844600D01*
X103971212Y-102844600D01*
X103266001Y-102886743D01*
G36*
X150124160Y-99520344D02*
G01*
X153807160Y-99669600D01*
X153882781Y-101257100D01*
X153958401Y-102844600D01*
X156195920Y-102844600D01*
X156347160Y-99669600D01*
X158061660Y-99594494D01*
X159776160Y-99519389D01*
X159776160Y-97764600D01*
X150124160Y-97764600D01*
X150124160Y-99520344D01*
G37*
X150124160Y-99520344D02*
X153807160Y-99669600D01*
X153882781Y-101257100D01*
X153958401Y-102844600D01*
X156195920Y-102844600D01*
X156347160Y-99669600D01*
X158061660Y-99594494D01*
X159776160Y-99519389D01*
X159776160Y-97764600D01*
X150124160Y-97764600D01*
X150124160Y-99520344D01*
G36*
X143065596Y-97736761D02*
G01*
X141640143Y-98391095D01*
X140506868Y-99437374D01*
X139708907Y-100839371D01*
X139371786Y-102019100D01*
X139298043Y-102554092D01*
X139436987Y-102786893D01*
X139913698Y-102843272D01*
X140192760Y-102844600D01*
X140844830Y-102799907D01*
X141162713Y-102592050D01*
X141315968Y-102118064D01*
X141727446Y-101154526D01*
X142477194Y-100269955D01*
X143404811Y-99640246D01*
X143672028Y-99534392D01*
X144916600Y-99363486D01*
X146103981Y-99627272D01*
X147121832Y-100267039D01*
X147857811Y-101224073D01*
X148097153Y-101847142D01*
X148310640Y-102488015D01*
X148596996Y-102772614D01*
X149125068Y-102843516D01*
X149278395Y-102844600D01*
X150191048Y-102844600D01*
X150049125Y-101786482D01*
X149620064Y-100387680D01*
X148782903Y-99197432D01*
X147616364Y-98279141D01*
X146199166Y-97696207D01*
X144740092Y-97510600D01*
X143065596Y-97736761D01*
G37*
X143065596Y-97736761D02*
X141640143Y-98391095D01*
X140506868Y-99437374D01*
X139708907Y-100839371D01*
X139371786Y-102019100D01*
X139298043Y-102554092D01*
X139436987Y-102786893D01*
X139913698Y-102843272D01*
X140192760Y-102844600D01*
X140844830Y-102799907D01*
X141162713Y-102592050D01*
X141315968Y-102118064D01*
X141727446Y-101154526D01*
X142477194Y-100269955D01*
X143404811Y-99640246D01*
X143672028Y-99534392D01*
X144916600Y-99363486D01*
X146103981Y-99627272D01*
X147121832Y-100267039D01*
X147857811Y-101224073D01*
X148097153Y-101847142D01*
X148310640Y-102488015D01*
X148596996Y-102772614D01*
X149125068Y-102843516D01*
X149278395Y-102844600D01*
X150191048Y-102844600D01*
X150049125Y-101786482D01*
X149620064Y-100387680D01*
X148782903Y-99197432D01*
X147616364Y-98279141D01*
X146199166Y-97696207D01*
X144740092Y-97510600D01*
X143065596Y-97736761D01*
G36*
X138084430Y-97551369D02*
G01*
X137995660Y-97558767D01*
X137043160Y-97637600D01*
X135693600Y-102844600D01*
X137832172Y-102844600D01*
X138394256Y-100495100D01*
X138693637Y-99229323D01*
X138866936Y-98379134D01*
X138903408Y-97865390D01*
X138792310Y-97608944D01*
X138522899Y-97530652D01*
X138084430Y-97551369D01*
G37*
X138084430Y-97551369D02*
X137995660Y-97558767D01*
X137043160Y-97637600D01*
X135693600Y-102844600D01*
X137832172Y-102844600D01*
X138394256Y-100495100D01*
X138693637Y-99229323D01*
X138866936Y-98379134D01*
X138903408Y-97865390D01*
X138792310Y-97608944D01*
X138522899Y-97530652D01*
X138084430Y-97551369D01*
G36*
X131625170Y-97564798D02*
G01*
X131318002Y-97824627D01*
X131106443Y-98435934D01*
X131099329Y-98463100D01*
X130705310Y-99988236D01*
X130391641Y-101231622D01*
X130173630Y-102131098D01*
X130066584Y-102624505D01*
X130058160Y-102690763D01*
X130282116Y-102791425D01*
X130834520Y-102842873D01*
X130970940Y-102844600D01*
X131639521Y-102768736D01*
X131959657Y-102494825D01*
X132016564Y-102336600D01*
X132205047Y-101925130D01*
X132344160Y-101828600D01*
X132557076Y-102039575D01*
X132671757Y-102336600D01*
X132902486Y-102697652D01*
X133430820Y-102835956D01*
X133717381Y-102844600D01*
X134314688Y-102811179D01*
X134619930Y-102728747D01*
X134630160Y-102708408D01*
X134564303Y-102289695D01*
X134392284Y-101544718D01*
X134152430Y-100613240D01*
X133883069Y-99635022D01*
X133622529Y-98749825D01*
X133409138Y-98097409D01*
X133291801Y-97828100D01*
X132884070Y-97608706D01*
X132234735Y-97510927D01*
X132195850Y-97510600D01*
X131625170Y-97564798D01*
G37*
X131625170Y-97564798D02*
X131318002Y-97824627D01*
X131106443Y-98435934D01*
X131099329Y-98463100D01*
X130705310Y-99988236D01*
X130391641Y-101231622D01*
X130173630Y-102131098D01*
X130066584Y-102624505D01*
X130058160Y-102690763D01*
X130282116Y-102791425D01*
X130834520Y-102842873D01*
X130970940Y-102844600D01*
X131639521Y-102768736D01*
X131959657Y-102494825D01*
X132016564Y-102336600D01*
X132205047Y-101925130D01*
X132344160Y-101828600D01*
X132557076Y-102039575D01*
X132671757Y-102336600D01*
X132902486Y-102697652D01*
X133430820Y-102835956D01*
X133717381Y-102844600D01*
X134314688Y-102811179D01*
X134619930Y-102728747D01*
X134630160Y-102708408D01*
X134564303Y-102289695D01*
X134392284Y-101544718D01*
X134152430Y-100613240D01*
X133883069Y-99635022D01*
X133622529Y-98749825D01*
X133409138Y-98097409D01*
X133291801Y-97828100D01*
X132884070Y-97608706D01*
X132234735Y-97510927D01*
X132195850Y-97510600D01*
X131625170Y-97564798D01*
G36*
X126012387Y-97695812D02*
G01*
X125876211Y-98096996D01*
X125928634Y-98814406D01*
X126153360Y-99920011D01*
X126269171Y-100409783D01*
X126856149Y-102844600D01*
X128994721Y-102844600D01*
X128319941Y-100241100D01*
X128012525Y-99082367D01*
X127779467Y-98326501D01*
X127573538Y-97883135D01*
X127347511Y-97661901D01*
X127054156Y-97572431D01*
X126915718Y-97554242D01*
X126353458Y-97538884D01*
X126012387Y-97695812D01*
G37*
X126012387Y-97695812D02*
X125876211Y-98096996D01*
X125928634Y-98814406D01*
X126153360Y-99920011D01*
X126269171Y-100409783D01*
X126856149Y-102844600D01*
X128994721Y-102844600D01*
X128319941Y-100241100D01*
X128012525Y-99082367D01*
X127779467Y-98326501D01*
X127573538Y-97883135D01*
X127347511Y-97661901D01*
X127054156Y-97572431D01*
X126915718Y-97554242D01*
X126353458Y-97538884D01*
X126012387Y-97695812D01*
G36*
X121094531Y-97553531D02*
G01*
X120249496Y-97672340D01*
X119837643Y-97828100D01*
X119565751Y-98195484D01*
X119181751Y-98914085D01*
X118749689Y-99858637D01*
X118538999Y-100368100D01*
X117651967Y-102590600D01*
X118662041Y-102590600D01*
X119234133Y-102564782D01*
X119602911Y-102413607D01*
X119897238Y-102026487D01*
X120245976Y-101292838D01*
X120289935Y-101193600D01*
X120682283Y-100389280D01*
X121013311Y-99962275D01*
X121378281Y-99806632D01*
X121545958Y-99796600D01*
X121911435Y-99832443D01*
X122101732Y-100022875D01*
X122173659Y-100492248D01*
X122184160Y-101193600D01*
X122184160Y-102590600D01*
X124216160Y-102590600D01*
X124216160Y-97510600D01*
X122232707Y-97510600D01*
X121094531Y-97553531D01*
G37*
X121094531Y-97553531D02*
X120249496Y-97672340D01*
X119837643Y-97828100D01*
X119565751Y-98195484D01*
X119181751Y-98914085D01*
X118749689Y-99858637D01*
X118538999Y-100368100D01*
X117651967Y-102590600D01*
X118662041Y-102590600D01*
X119234133Y-102564782D01*
X119602911Y-102413607D01*
X119897238Y-102026487D01*
X120245976Y-101292838D01*
X120289935Y-101193600D01*
X120682283Y-100389280D01*
X121013311Y-99962275D01*
X121378281Y-99806632D01*
X121545958Y-99796600D01*
X121911435Y-99832443D01*
X122101732Y-100022875D01*
X122173659Y-100492248D01*
X122184160Y-101193600D01*
X122184160Y-102590600D01*
X124216160Y-102590600D01*
X124216160Y-97510600D01*
X122232707Y-97510600D01*
X121094531Y-97553531D01*
G36*
X114056160Y-102590600D02*
G01*
X116088160Y-102590600D01*
X116088160Y-97510600D01*
X114056160Y-97510600D01*
X114056160Y-102590600D01*
G37*
X114056160Y-102590600D02*
X116088160Y-102590600D01*
X116088160Y-97510600D01*
X114056160Y-97510600D01*
X114056160Y-102590600D01*
G36*
X103388160Y-99542600D02*
G01*
X106944160Y-99542600D01*
X108400588Y-99551957D01*
X109416839Y-99584451D01*
X110060470Y-99646718D01*
X110399035Y-99745393D01*
X110500092Y-99887110D01*
X110500160Y-99891850D01*
X110270442Y-100196753D01*
X109573499Y-100407837D01*
X108397656Y-100527344D01*
X107026797Y-100558600D01*
X105450767Y-100666636D01*
X104306606Y-100997617D01*
X103564826Y-101561853D01*
X103386753Y-101831229D01*
X103303036Y-102020975D01*
X103333339Y-102155900D01*
X103546300Y-102245140D01*
X104010558Y-102297828D01*
X104794748Y-102323102D01*
X105967510Y-102330096D01*
X107125724Y-102328876D01*
X108690264Y-102308487D01*
X109996899Y-102256930D01*
X110969317Y-102178973D01*
X111531209Y-102079389D01*
X111603460Y-102048936D01*
X112118839Y-101510775D01*
X112493664Y-100693284D01*
X112638667Y-99822537D01*
X112610289Y-99499095D01*
X112331747Y-98842534D01*
X111851677Y-98229160D01*
X111582578Y-98002693D01*
X111275584Y-97840097D01*
X110843194Y-97728420D01*
X110197910Y-97654711D01*
X109252231Y-97606019D01*
X107918657Y-97569390D01*
X107305453Y-97556220D01*
X103388160Y-97474840D01*
X103388160Y-99542600D01*
G37*
X103388160Y-99542600D02*
X106944160Y-99542600D01*
X108400588Y-99551957D01*
X109416839Y-99584451D01*
X110060470Y-99646718D01*
X110399035Y-99745393D01*
X110500092Y-99887110D01*
X110500160Y-99891850D01*
X110270442Y-100196753D01*
X109573499Y-100407837D01*
X108397656Y-100527344D01*
X107026797Y-100558600D01*
X105450767Y-100666636D01*
X104306606Y-100997617D01*
X103564826Y-101561853D01*
X103386753Y-101831229D01*
X103303036Y-102020975D01*
X103333339Y-102155900D01*
X103546300Y-102245140D01*
X104010558Y-102297828D01*
X104794748Y-102323102D01*
X105967510Y-102330096D01*
X107125724Y-102328876D01*
X108690264Y-102308487D01*
X109996899Y-102256930D01*
X110969317Y-102178973D01*
X111531209Y-102079389D01*
X111603460Y-102048936D01*
X112118839Y-101510775D01*
X112493664Y-100693284D01*
X112638667Y-99822537D01*
X112610289Y-99499095D01*
X112331747Y-98842534D01*
X111851677Y-98229160D01*
X111582578Y-98002693D01*
X111275584Y-97840097D01*
X110843194Y-97728420D01*
X110197910Y-97654711D01*
X109252231Y-97606019D01*
X107918657Y-97569390D01*
X107305453Y-97556220D01*
X103388160Y-97474840D01*
X103388160Y-99542600D01*
D10*
%TO.C,U1*%
X247756680Y-136525000D02*
X247756680Y-106045000D01*
X252836680Y-136525000D02*
X247756680Y-136525000D01*
X252836680Y-139065000D02*
X252836680Y-136525000D01*
X260456680Y-139065000D02*
X252836680Y-139065000D01*
X260456680Y-136525000D02*
X260456680Y-139065000D01*
X265536680Y-136525000D02*
X260456680Y-136525000D01*
X265536680Y-106045000D02*
X265536680Y-136525000D01*
X247756680Y-106045000D02*
X265536680Y-106045000D01*
%TD*%
M02*
