%TF.GenerationSoftware,KiCad,Pcbnew,(5.1.10)-1*%
%TF.CreationDate,2022-08-08T15:21:51-05:00*%
%TF.ProjectId,GEN 1 PSU CARD,47454e20-3120-4505-9355-20434152442e,rev?*%
%TF.SameCoordinates,Original*%
%TF.FileFunction,Legend,Bot*%
%TF.FilePolarity,Positive*%
%FSLAX46Y46*%
G04 Gerber Fmt 4.6, Leading zero omitted, Abs format (unit mm)*
G04 Created by KiCad (PCBNEW (5.1.10)-1) date 2022-08-08 15:21:51*
%MOMM*%
%LPD*%
G01*
G04 APERTURE LIST*
%ADD10C,0.150000*%
%ADD11C,0.300000*%
%ADD12C,0.010000*%
G04 APERTURE END LIST*
D10*
X61975809Y-113153523D02*
X61690095Y-113248761D01*
X61213904Y-113248761D01*
X61023428Y-113153523D01*
X60928190Y-113058285D01*
X60832952Y-112867809D01*
X60832952Y-112677333D01*
X60928190Y-112486857D01*
X61023428Y-112391619D01*
X61213904Y-112296380D01*
X61594857Y-112201142D01*
X61785333Y-112105904D01*
X61880571Y-112010666D01*
X61975809Y-111820190D01*
X61975809Y-111629714D01*
X61880571Y-111439238D01*
X61785333Y-111344000D01*
X61594857Y-111248761D01*
X61118666Y-111248761D01*
X60832952Y-111344000D01*
X58928190Y-113248761D02*
X60071047Y-113248761D01*
X59499619Y-113248761D02*
X59499619Y-111248761D01*
X59690095Y-111534476D01*
X59880571Y-111724952D01*
X60071047Y-111820190D01*
X61975809Y-116303523D02*
X61690095Y-116398761D01*
X61213904Y-116398761D01*
X61023428Y-116303523D01*
X60928190Y-116208285D01*
X60832952Y-116017809D01*
X60832952Y-115827333D01*
X60928190Y-115636857D01*
X61023428Y-115541619D01*
X61213904Y-115446380D01*
X61594857Y-115351142D01*
X61785333Y-115255904D01*
X61880571Y-115160666D01*
X61975809Y-114970190D01*
X61975809Y-114779714D01*
X61880571Y-114589238D01*
X61785333Y-114494000D01*
X61594857Y-114398761D01*
X61118666Y-114398761D01*
X60832952Y-114494000D01*
X60071047Y-114589238D02*
X59975809Y-114494000D01*
X59785333Y-114398761D01*
X59309142Y-114398761D01*
X59118666Y-114494000D01*
X59023428Y-114589238D01*
X58928190Y-114779714D01*
X58928190Y-114970190D01*
X59023428Y-115255904D01*
X60166285Y-116398761D01*
X58928190Y-116398761D01*
D11*
X71659617Y-120143521D02*
X71659617Y-118143521D01*
X70992950Y-119572093D01*
X70326283Y-118143521D01*
X70326283Y-120143521D01*
X68992950Y-118143521D02*
X68611998Y-118143521D01*
X68421521Y-118238760D01*
X68231045Y-118429236D01*
X68135807Y-118810188D01*
X68135807Y-119476855D01*
X68231045Y-119857807D01*
X68421521Y-120048283D01*
X68611998Y-120143521D01*
X68992950Y-120143521D01*
X69183426Y-120048283D01*
X69373902Y-119857807D01*
X69469140Y-119476855D01*
X69469140Y-118810188D01*
X69373902Y-118429236D01*
X69183426Y-118238760D01*
X68992950Y-118143521D01*
X67278664Y-120143521D02*
X67278664Y-118143521D01*
X66802474Y-118143521D01*
X66516760Y-118238760D01*
X66326283Y-118429236D01*
X66231045Y-118619712D01*
X66135807Y-119000664D01*
X66135807Y-119286379D01*
X66231045Y-119667331D01*
X66326283Y-119857807D01*
X66516760Y-120048283D01*
X66802474Y-120143521D01*
X67278664Y-120143521D01*
X65278664Y-119095902D02*
X64611998Y-119095902D01*
X64326283Y-120143521D02*
X65278664Y-120143521D01*
X65278664Y-118143521D01*
X64326283Y-118143521D01*
X62516760Y-120143521D02*
X63469140Y-120143521D01*
X63469140Y-118143521D01*
X59278664Y-120143521D02*
X60421521Y-120143521D01*
X59850093Y-120143521D02*
X59850093Y-118143521D01*
X60040569Y-118429236D01*
X60231045Y-118619712D01*
X60421521Y-118714950D01*
X71659617Y-123443521D02*
X71659617Y-121443521D01*
X70992950Y-122872093D01*
X70326283Y-121443521D01*
X70326283Y-123443521D01*
X68992950Y-121443521D02*
X68611998Y-121443521D01*
X68421521Y-121538760D01*
X68231045Y-121729236D01*
X68135807Y-122110188D01*
X68135807Y-122776855D01*
X68231045Y-123157807D01*
X68421521Y-123348283D01*
X68611998Y-123443521D01*
X68992950Y-123443521D01*
X69183426Y-123348283D01*
X69373902Y-123157807D01*
X69469140Y-122776855D01*
X69469140Y-122110188D01*
X69373902Y-121729236D01*
X69183426Y-121538760D01*
X68992950Y-121443521D01*
X67278664Y-123443521D02*
X67278664Y-121443521D01*
X66802474Y-121443521D01*
X66516760Y-121538760D01*
X66326283Y-121729236D01*
X66231045Y-121919712D01*
X66135807Y-122300664D01*
X66135807Y-122586379D01*
X66231045Y-122967331D01*
X66326283Y-123157807D01*
X66516760Y-123348283D01*
X66802474Y-123443521D01*
X67278664Y-123443521D01*
X65278664Y-122395902D02*
X64611998Y-122395902D01*
X64326283Y-123443521D02*
X65278664Y-123443521D01*
X65278664Y-121443521D01*
X64326283Y-121443521D01*
X62516760Y-123443521D02*
X63469140Y-123443521D01*
X63469140Y-121443521D01*
X60421521Y-121633998D02*
X60326283Y-121538760D01*
X60135807Y-121443521D01*
X59659617Y-121443521D01*
X59469140Y-121538760D01*
X59373902Y-121633998D01*
X59278664Y-121824474D01*
X59278664Y-122014950D01*
X59373902Y-122300664D01*
X60516760Y-123443521D01*
X59278664Y-123443521D01*
D10*
X101077847Y-114597868D02*
X100315942Y-114597868D01*
X100792133Y-113931201D02*
X100792133Y-115645487D01*
X100696895Y-115835963D01*
X100506419Y-115931201D01*
X100315942Y-115931201D01*
X99363561Y-115931201D02*
X99554038Y-115835963D01*
X99649276Y-115740725D01*
X99744514Y-115550249D01*
X99744514Y-114978820D01*
X99649276Y-114788344D01*
X99554038Y-114693106D01*
X99363561Y-114597868D01*
X99077847Y-114597868D01*
X98887371Y-114693106D01*
X98792133Y-114788344D01*
X98696895Y-114978820D01*
X98696895Y-115550249D01*
X98792133Y-115740725D01*
X98887371Y-115835963D01*
X99077847Y-115931201D01*
X99363561Y-115931201D01*
X98030228Y-114597868D02*
X97649276Y-115931201D01*
X97268323Y-114978820D01*
X96887371Y-115931201D01*
X96506419Y-114597868D01*
X95744514Y-114597868D02*
X95744514Y-115931201D01*
X95744514Y-114788344D02*
X95649276Y-114693106D01*
X95458800Y-114597868D01*
X95173085Y-114597868D01*
X94982609Y-114693106D01*
X94887371Y-114883582D01*
X94887371Y-115931201D01*
X94030228Y-115835963D02*
X93839752Y-115931201D01*
X93458800Y-115931201D01*
X93268323Y-115835963D01*
X93173085Y-115645487D01*
X93173085Y-115550249D01*
X93268323Y-115359773D01*
X93458800Y-115264535D01*
X93744514Y-115264535D01*
X93934990Y-115169297D01*
X94030228Y-114978820D01*
X94030228Y-114883582D01*
X93934990Y-114693106D01*
X93744514Y-114597868D01*
X93458800Y-114597868D01*
X93268323Y-114693106D01*
X92506419Y-114597868D02*
X92125466Y-115931201D01*
X91744514Y-114978820D01*
X91363561Y-115931201D01*
X90982609Y-114597868D01*
X89934990Y-115931201D02*
X90125466Y-115835963D01*
X90220704Y-115740725D01*
X90315942Y-115550249D01*
X90315942Y-114978820D01*
X90220704Y-114788344D01*
X90125466Y-114693106D01*
X89934990Y-114597868D01*
X89649276Y-114597868D01*
X89458800Y-114693106D01*
X89363561Y-114788344D01*
X89268323Y-114978820D01*
X89268323Y-115550249D01*
X89363561Y-115740725D01*
X89458800Y-115835963D01*
X89649276Y-115931201D01*
X89934990Y-115931201D01*
X88411180Y-115931201D02*
X88411180Y-114597868D01*
X88411180Y-114978820D02*
X88315942Y-114788344D01*
X88220704Y-114693106D01*
X88030228Y-114597868D01*
X87839752Y-114597868D01*
X86887371Y-115931201D02*
X87077847Y-115835963D01*
X87173085Y-115645487D01*
X87173085Y-113931201D01*
X85268323Y-115931201D02*
X85268323Y-113931201D01*
X85268323Y-115835963D02*
X85458800Y-115931201D01*
X85839752Y-115931201D01*
X86030228Y-115835963D01*
X86125466Y-115740725D01*
X86220704Y-115550249D01*
X86220704Y-114978820D01*
X86125466Y-114788344D01*
X86030228Y-114693106D01*
X85839752Y-114597868D01*
X85458800Y-114597868D01*
X85268323Y-114693106D01*
X84315942Y-115740725D02*
X84220704Y-115835963D01*
X84315942Y-115931201D01*
X84411180Y-115835963D01*
X84315942Y-115740725D01*
X84315942Y-115931201D01*
X82506419Y-115835963D02*
X82696895Y-115931201D01*
X83077847Y-115931201D01*
X83268323Y-115835963D01*
X83363561Y-115740725D01*
X83458800Y-115550249D01*
X83458800Y-114978820D01*
X83363561Y-114788344D01*
X83268323Y-114693106D01*
X83077847Y-114597868D01*
X82696895Y-114597868D01*
X82506419Y-114693106D01*
X81363561Y-115931201D02*
X81554038Y-115835963D01*
X81649276Y-115740725D01*
X81744514Y-115550249D01*
X81744514Y-114978820D01*
X81649276Y-114788344D01*
X81554038Y-114693106D01*
X81363561Y-114597868D01*
X81077847Y-114597868D01*
X80887371Y-114693106D01*
X80792133Y-114788344D01*
X80696895Y-114978820D01*
X80696895Y-115550249D01*
X80792133Y-115740725D01*
X80887371Y-115835963D01*
X81077847Y-115931201D01*
X81363561Y-115931201D01*
X79839752Y-115931201D02*
X79839752Y-114597868D01*
X79839752Y-114788344D02*
X79744514Y-114693106D01*
X79554038Y-114597868D01*
X79268323Y-114597868D01*
X79077847Y-114693106D01*
X78982609Y-114883582D01*
X78982609Y-115931201D01*
X78982609Y-114883582D02*
X78887371Y-114693106D01*
X78696895Y-114597868D01*
X78411180Y-114597868D01*
X78220704Y-114693106D01*
X78125466Y-114883582D01*
X78125466Y-115931201D01*
X98732312Y-121473481D02*
X98732312Y-119473481D01*
X98732312Y-120235386D02*
X98541836Y-120140148D01*
X98160883Y-120140148D01*
X97970407Y-120235386D01*
X97875169Y-120330624D01*
X97779931Y-120521100D01*
X97779931Y-121092529D01*
X97875169Y-121283005D01*
X97970407Y-121378243D01*
X98160883Y-121473481D01*
X98541836Y-121473481D01*
X98732312Y-121378243D01*
X97113264Y-120140148D02*
X96637074Y-121473481D01*
X96160883Y-120140148D02*
X96637074Y-121473481D01*
X96827550Y-121949672D01*
X96922788Y-122044910D01*
X97113264Y-122140148D01*
X93018026Y-121378243D02*
X93208502Y-121473481D01*
X93589455Y-121473481D01*
X93779931Y-121378243D01*
X93875169Y-121283005D01*
X93970407Y-121092529D01*
X93970407Y-120521100D01*
X93875169Y-120330624D01*
X93779931Y-120235386D01*
X93589455Y-120140148D01*
X93208502Y-120140148D01*
X93018026Y-120235386D01*
X92351360Y-120140148D02*
X91875169Y-121473481D01*
X91398979Y-120140148D02*
X91875169Y-121473481D01*
X92065645Y-121949672D01*
X92160883Y-122044910D01*
X92351360Y-122140148D01*
X90351360Y-121473481D02*
X90541836Y-121378243D01*
X90637074Y-121283005D01*
X90732312Y-121092529D01*
X90732312Y-120521100D01*
X90637074Y-120330624D01*
X90541836Y-120235386D01*
X90351360Y-120140148D01*
X90065645Y-120140148D01*
X89875169Y-120235386D01*
X89779931Y-120330624D01*
X89684693Y-120521100D01*
X89684693Y-121092529D01*
X89779931Y-121283005D01*
X89875169Y-121378243D01*
X90065645Y-121473481D01*
X90351360Y-121473481D01*
X88827550Y-121283005D02*
X88732312Y-121378243D01*
X88827550Y-121473481D01*
X88922788Y-121378243D01*
X88827550Y-121283005D01*
X88827550Y-121473481D01*
X88160883Y-120140148D02*
X87398979Y-120140148D01*
X87875169Y-119473481D02*
X87875169Y-121187767D01*
X87779931Y-121378243D01*
X87589455Y-121473481D01*
X87398979Y-121473481D01*
X86732312Y-121473481D02*
X86732312Y-119473481D01*
X85875169Y-121473481D02*
X85875169Y-120425862D01*
X85970407Y-120235386D01*
X86160883Y-120140148D01*
X86446598Y-120140148D01*
X86637074Y-120235386D01*
X86732312Y-120330624D01*
X84160883Y-121378243D02*
X84351360Y-121473481D01*
X84732312Y-121473481D01*
X84922788Y-121378243D01*
X85018026Y-121187767D01*
X85018026Y-120425862D01*
X84922788Y-120235386D01*
X84732312Y-120140148D01*
X84351360Y-120140148D01*
X84160883Y-120235386D01*
X84065645Y-120425862D01*
X84065645Y-120616339D01*
X85018026Y-120806815D01*
X83208502Y-121283005D02*
X83113264Y-121378243D01*
X83208502Y-121473481D01*
X83303740Y-121378243D01*
X83208502Y-121283005D01*
X83208502Y-121473481D01*
X82446598Y-120140148D02*
X81970407Y-121473481D01*
X81494217Y-120140148D01*
X80732312Y-121473481D02*
X80732312Y-120140148D01*
X80732312Y-119473481D02*
X80827550Y-119568720D01*
X80732312Y-119663958D01*
X80637074Y-119568720D01*
X80732312Y-119473481D01*
X80732312Y-119663958D01*
X79494217Y-121473481D02*
X79684693Y-121378243D01*
X79779931Y-121187767D01*
X79779931Y-119473481D01*
X77970407Y-121378243D02*
X78160883Y-121473481D01*
X78541836Y-121473481D01*
X78732312Y-121378243D01*
X78827550Y-121187767D01*
X78827550Y-120425862D01*
X78732312Y-120235386D01*
X78541836Y-120140148D01*
X78160883Y-120140148D01*
X77970407Y-120235386D01*
X77875169Y-120425862D01*
X77875169Y-120616339D01*
X78827550Y-120806815D01*
X82898000Y-101768000D02*
X83088476Y-101672761D01*
X83374190Y-101672761D01*
X83659904Y-101768000D01*
X83850380Y-101958476D01*
X83945619Y-102148952D01*
X84040857Y-102529904D01*
X84040857Y-102815619D01*
X83945619Y-103196571D01*
X83850380Y-103387047D01*
X83659904Y-103577523D01*
X83374190Y-103672761D01*
X83183714Y-103672761D01*
X82898000Y-103577523D01*
X82802761Y-103482285D01*
X82802761Y-102815619D01*
X83183714Y-102815619D01*
X81945619Y-102625142D02*
X81278952Y-102625142D01*
X80993238Y-103672761D02*
X81945619Y-103672761D01*
X81945619Y-101672761D01*
X80993238Y-101672761D01*
X80136095Y-103672761D02*
X80136095Y-101672761D01*
X78993238Y-103672761D01*
X78993238Y-101672761D01*
X78040857Y-102625142D02*
X77374190Y-102625142D01*
X77088476Y-103672761D02*
X78040857Y-103672761D01*
X78040857Y-101672761D01*
X77088476Y-101672761D01*
X75088476Y-103672761D02*
X75755142Y-102720380D01*
X76231333Y-103672761D02*
X76231333Y-101672761D01*
X75469428Y-101672761D01*
X75278952Y-101768000D01*
X75183714Y-101863238D01*
X75088476Y-102053714D01*
X75088476Y-102339428D01*
X75183714Y-102529904D01*
X75278952Y-102625142D01*
X75469428Y-102720380D01*
X76231333Y-102720380D01*
X74326571Y-103101333D02*
X73374190Y-103101333D01*
X74517047Y-103672761D02*
X73850380Y-101672761D01*
X73183714Y-103672761D01*
X72802761Y-101672761D02*
X71659904Y-101672761D01*
X72231333Y-103672761D02*
X72231333Y-101672761D01*
X70993238Y-103672761D02*
X70993238Y-101672761D01*
X69659904Y-101672761D02*
X69278952Y-101672761D01*
X69088476Y-101768000D01*
X68898000Y-101958476D01*
X68802761Y-102339428D01*
X68802761Y-103006095D01*
X68898000Y-103387047D01*
X69088476Y-103577523D01*
X69278952Y-103672761D01*
X69659904Y-103672761D01*
X69850380Y-103577523D01*
X70040857Y-103387047D01*
X70136095Y-103006095D01*
X70136095Y-102339428D01*
X70040857Y-101958476D01*
X69850380Y-101768000D01*
X69659904Y-101672761D01*
X67945619Y-103672761D02*
X67945619Y-101672761D01*
X66802761Y-103672761D01*
X66802761Y-101672761D01*
X63278952Y-103672761D02*
X64421809Y-103672761D01*
X63850380Y-103672761D02*
X63850380Y-101672761D01*
X64040857Y-101958476D01*
X64231333Y-102148952D01*
X64421809Y-102244190D01*
X83945619Y-106822761D02*
X83945619Y-104822761D01*
X83183714Y-104822761D01*
X82993238Y-104918000D01*
X82898000Y-105013238D01*
X82802761Y-105203714D01*
X82802761Y-105489428D01*
X82898000Y-105679904D01*
X82993238Y-105775142D01*
X83183714Y-105870380D01*
X83945619Y-105870380D01*
X81564666Y-104822761D02*
X81183714Y-104822761D01*
X80993238Y-104918000D01*
X80802761Y-105108476D01*
X80707523Y-105489428D01*
X80707523Y-106156095D01*
X80802761Y-106537047D01*
X80993238Y-106727523D01*
X81183714Y-106822761D01*
X81564666Y-106822761D01*
X81755142Y-106727523D01*
X81945619Y-106537047D01*
X82040857Y-106156095D01*
X82040857Y-105489428D01*
X81945619Y-105108476D01*
X81755142Y-104918000D01*
X81564666Y-104822761D01*
X80040857Y-104822761D02*
X79564666Y-106822761D01*
X79183714Y-105394190D01*
X78802761Y-106822761D01*
X78326571Y-104822761D01*
X77564666Y-105775142D02*
X76898000Y-105775142D01*
X76612285Y-106822761D02*
X77564666Y-106822761D01*
X77564666Y-104822761D01*
X76612285Y-104822761D01*
X74612285Y-106822761D02*
X75278952Y-105870380D01*
X75755142Y-106822761D02*
X75755142Y-104822761D01*
X74993238Y-104822761D01*
X74802761Y-104918000D01*
X74707523Y-105013238D01*
X74612285Y-105203714D01*
X74612285Y-105489428D01*
X74707523Y-105679904D01*
X74802761Y-105775142D01*
X74993238Y-105870380D01*
X75755142Y-105870380D01*
X72326571Y-106727523D02*
X72040857Y-106822761D01*
X71564666Y-106822761D01*
X71374190Y-106727523D01*
X71278952Y-106632285D01*
X71183714Y-106441809D01*
X71183714Y-106251333D01*
X71278952Y-106060857D01*
X71374190Y-105965619D01*
X71564666Y-105870380D01*
X71945619Y-105775142D01*
X72136095Y-105679904D01*
X72231333Y-105584666D01*
X72326571Y-105394190D01*
X72326571Y-105203714D01*
X72231333Y-105013238D01*
X72136095Y-104918000D01*
X71945619Y-104822761D01*
X71469428Y-104822761D01*
X71183714Y-104918000D01*
X70326571Y-104822761D02*
X70326571Y-106441809D01*
X70231333Y-106632285D01*
X70136095Y-106727523D01*
X69945619Y-106822761D01*
X69564666Y-106822761D01*
X69374190Y-106727523D01*
X69278952Y-106632285D01*
X69183714Y-106441809D01*
X69183714Y-104822761D01*
X68231333Y-106822761D02*
X68231333Y-104822761D01*
X67469428Y-104822761D01*
X67278952Y-104918000D01*
X67183714Y-105013238D01*
X67088476Y-105203714D01*
X67088476Y-105489428D01*
X67183714Y-105679904D01*
X67278952Y-105775142D01*
X67469428Y-105870380D01*
X68231333Y-105870380D01*
X66231333Y-106822761D02*
X66231333Y-104822761D01*
X65469428Y-104822761D01*
X65278952Y-104918000D01*
X65183714Y-105013238D01*
X65088476Y-105203714D01*
X65088476Y-105489428D01*
X65183714Y-105679904D01*
X65278952Y-105775142D01*
X65469428Y-105870380D01*
X66231333Y-105870380D01*
X63278952Y-106822761D02*
X64231333Y-106822761D01*
X64231333Y-104822761D01*
X62231333Y-105870380D02*
X62231333Y-106822761D01*
X62898000Y-104822761D02*
X62231333Y-105870380D01*
X61564666Y-104822761D01*
X74850380Y-109972761D02*
X75517047Y-109020380D01*
X75993238Y-109972761D02*
X75993238Y-107972761D01*
X75231333Y-107972761D01*
X75040857Y-108068000D01*
X74945619Y-108163238D01*
X74850380Y-108353714D01*
X74850380Y-108639428D01*
X74945619Y-108829904D01*
X75040857Y-108925142D01*
X75231333Y-109020380D01*
X75993238Y-109020380D01*
X73231333Y-109877523D02*
X73421809Y-109972761D01*
X73802761Y-109972761D01*
X73993238Y-109877523D01*
X74088476Y-109687047D01*
X74088476Y-108925142D01*
X73993238Y-108734666D01*
X73802761Y-108639428D01*
X73421809Y-108639428D01*
X73231333Y-108734666D01*
X73136095Y-108925142D01*
X73136095Y-109115619D01*
X74088476Y-109306095D01*
X72469428Y-108639428D02*
X71993238Y-109972761D01*
X71517047Y-108639428D01*
X70850380Y-108163238D02*
X70755142Y-108068000D01*
X70564666Y-107972761D01*
X70088476Y-107972761D01*
X69898000Y-108068000D01*
X69802761Y-108163238D01*
X69707523Y-108353714D01*
X69707523Y-108544190D01*
X69802761Y-108829904D01*
X70945619Y-109972761D01*
X69707523Y-109972761D01*
D12*
%TO.C,G\u002A\u002A\u002A*%
G36*
X46380400Y-85750400D02*
G01*
X49936400Y-85750400D01*
X51392828Y-85759757D01*
X52409079Y-85792251D01*
X53052710Y-85854518D01*
X53391275Y-85953193D01*
X53492332Y-86094910D01*
X53492400Y-86099650D01*
X53262682Y-86404553D01*
X52565739Y-86615637D01*
X51389896Y-86735144D01*
X50019037Y-86766400D01*
X48443007Y-86874436D01*
X47298846Y-87205417D01*
X46557066Y-87769653D01*
X46378993Y-88039029D01*
X46295276Y-88228775D01*
X46325579Y-88363700D01*
X46538540Y-88452940D01*
X47002798Y-88505628D01*
X47786988Y-88530902D01*
X48959750Y-88537896D01*
X50117964Y-88536676D01*
X51682504Y-88516287D01*
X52989139Y-88464730D01*
X53961557Y-88386773D01*
X54523449Y-88287189D01*
X54595700Y-88256736D01*
X55111079Y-87718575D01*
X55485904Y-86901084D01*
X55630907Y-86030337D01*
X55602529Y-85706895D01*
X55323987Y-85050334D01*
X54843917Y-84436960D01*
X54574818Y-84210493D01*
X54267824Y-84047897D01*
X53835434Y-83936220D01*
X53190150Y-83862511D01*
X52244471Y-83813819D01*
X50910897Y-83777190D01*
X50297693Y-83764020D01*
X46380400Y-83682640D01*
X46380400Y-85750400D01*
G37*
X46380400Y-85750400D02*
X49936400Y-85750400D01*
X51392828Y-85759757D01*
X52409079Y-85792251D01*
X53052710Y-85854518D01*
X53391275Y-85953193D01*
X53492332Y-86094910D01*
X53492400Y-86099650D01*
X53262682Y-86404553D01*
X52565739Y-86615637D01*
X51389896Y-86735144D01*
X50019037Y-86766400D01*
X48443007Y-86874436D01*
X47298846Y-87205417D01*
X46557066Y-87769653D01*
X46378993Y-88039029D01*
X46295276Y-88228775D01*
X46325579Y-88363700D01*
X46538540Y-88452940D01*
X47002798Y-88505628D01*
X47786988Y-88530902D01*
X48959750Y-88537896D01*
X50117964Y-88536676D01*
X51682504Y-88516287D01*
X52989139Y-88464730D01*
X53961557Y-88386773D01*
X54523449Y-88287189D01*
X54595700Y-88256736D01*
X55111079Y-87718575D01*
X55485904Y-86901084D01*
X55630907Y-86030337D01*
X55602529Y-85706895D01*
X55323987Y-85050334D01*
X54843917Y-84436960D01*
X54574818Y-84210493D01*
X54267824Y-84047897D01*
X53835434Y-83936220D01*
X53190150Y-83862511D01*
X52244471Y-83813819D01*
X50910897Y-83777190D01*
X50297693Y-83764020D01*
X46380400Y-83682640D01*
X46380400Y-85750400D01*
G36*
X57048400Y-88798400D02*
G01*
X59080400Y-88798400D01*
X59080400Y-83718400D01*
X57048400Y-83718400D01*
X57048400Y-88798400D01*
G37*
X57048400Y-88798400D02*
X59080400Y-88798400D01*
X59080400Y-83718400D01*
X57048400Y-83718400D01*
X57048400Y-88798400D01*
G36*
X64086771Y-83761331D02*
G01*
X63241736Y-83880140D01*
X62829883Y-84035900D01*
X62557991Y-84403284D01*
X62173991Y-85121885D01*
X61741929Y-86066437D01*
X61531239Y-86575900D01*
X60644207Y-88798400D01*
X61654281Y-88798400D01*
X62226373Y-88772582D01*
X62595151Y-88621407D01*
X62889478Y-88234287D01*
X63238216Y-87500638D01*
X63282175Y-87401400D01*
X63674523Y-86597080D01*
X64005551Y-86170075D01*
X64370521Y-86014432D01*
X64538198Y-86004400D01*
X64903675Y-86040243D01*
X65093972Y-86230675D01*
X65165899Y-86700048D01*
X65176400Y-87401400D01*
X65176400Y-88798400D01*
X67208400Y-88798400D01*
X67208400Y-83718400D01*
X65224947Y-83718400D01*
X64086771Y-83761331D01*
G37*
X64086771Y-83761331D02*
X63241736Y-83880140D01*
X62829883Y-84035900D01*
X62557991Y-84403284D01*
X62173991Y-85121885D01*
X61741929Y-86066437D01*
X61531239Y-86575900D01*
X60644207Y-88798400D01*
X61654281Y-88798400D01*
X62226373Y-88772582D01*
X62595151Y-88621407D01*
X62889478Y-88234287D01*
X63238216Y-87500638D01*
X63282175Y-87401400D01*
X63674523Y-86597080D01*
X64005551Y-86170075D01*
X64370521Y-86014432D01*
X64538198Y-86004400D01*
X64903675Y-86040243D01*
X65093972Y-86230675D01*
X65165899Y-86700048D01*
X65176400Y-87401400D01*
X65176400Y-88798400D01*
X67208400Y-88798400D01*
X67208400Y-83718400D01*
X65224947Y-83718400D01*
X64086771Y-83761331D01*
G36*
X69004627Y-83903612D02*
G01*
X68868451Y-84304796D01*
X68920874Y-85022206D01*
X69145600Y-86127811D01*
X69261411Y-86617583D01*
X69848389Y-89052400D01*
X71986961Y-89052400D01*
X71312181Y-86448900D01*
X71004765Y-85290167D01*
X70771707Y-84534301D01*
X70565778Y-84090935D01*
X70339751Y-83869701D01*
X70046396Y-83780231D01*
X69907958Y-83762042D01*
X69345698Y-83746684D01*
X69004627Y-83903612D01*
G37*
X69004627Y-83903612D02*
X68868451Y-84304796D01*
X68920874Y-85022206D01*
X69145600Y-86127811D01*
X69261411Y-86617583D01*
X69848389Y-89052400D01*
X71986961Y-89052400D01*
X71312181Y-86448900D01*
X71004765Y-85290167D01*
X70771707Y-84534301D01*
X70565778Y-84090935D01*
X70339751Y-83869701D01*
X70046396Y-83780231D01*
X69907958Y-83762042D01*
X69345698Y-83746684D01*
X69004627Y-83903612D01*
G36*
X74617410Y-83772598D02*
G01*
X74310242Y-84032427D01*
X74098683Y-84643734D01*
X74091569Y-84670900D01*
X73697550Y-86196036D01*
X73383881Y-87439422D01*
X73165870Y-88338898D01*
X73058824Y-88832305D01*
X73050400Y-88898563D01*
X73274356Y-88999225D01*
X73826760Y-89050673D01*
X73963180Y-89052400D01*
X74631761Y-88976536D01*
X74951897Y-88702625D01*
X75008804Y-88544400D01*
X75197287Y-88132930D01*
X75336400Y-88036400D01*
X75549316Y-88247375D01*
X75663997Y-88544400D01*
X75894726Y-88905452D01*
X76423060Y-89043756D01*
X76709621Y-89052400D01*
X77306928Y-89018979D01*
X77612170Y-88936547D01*
X77622400Y-88916208D01*
X77556543Y-88497495D01*
X77384524Y-87752518D01*
X77144670Y-86821040D01*
X76875309Y-85842822D01*
X76614769Y-84957625D01*
X76401378Y-84305209D01*
X76284041Y-84035900D01*
X75876310Y-83816506D01*
X75226975Y-83718727D01*
X75188090Y-83718400D01*
X74617410Y-83772598D01*
G37*
X74617410Y-83772598D02*
X74310242Y-84032427D01*
X74098683Y-84643734D01*
X74091569Y-84670900D01*
X73697550Y-86196036D01*
X73383881Y-87439422D01*
X73165870Y-88338898D01*
X73058824Y-88832305D01*
X73050400Y-88898563D01*
X73274356Y-88999225D01*
X73826760Y-89050673D01*
X73963180Y-89052400D01*
X74631761Y-88976536D01*
X74951897Y-88702625D01*
X75008804Y-88544400D01*
X75197287Y-88132930D01*
X75336400Y-88036400D01*
X75549316Y-88247375D01*
X75663997Y-88544400D01*
X75894726Y-88905452D01*
X76423060Y-89043756D01*
X76709621Y-89052400D01*
X77306928Y-89018979D01*
X77612170Y-88936547D01*
X77622400Y-88916208D01*
X77556543Y-88497495D01*
X77384524Y-87752518D01*
X77144670Y-86821040D01*
X76875309Y-85842822D01*
X76614769Y-84957625D01*
X76401378Y-84305209D01*
X76284041Y-84035900D01*
X75876310Y-83816506D01*
X75226975Y-83718727D01*
X75188090Y-83718400D01*
X74617410Y-83772598D01*
G36*
X81076670Y-83759169D02*
G01*
X80987900Y-83766567D01*
X80035400Y-83845400D01*
X78685840Y-89052400D01*
X80824412Y-89052400D01*
X81386496Y-86702900D01*
X81685877Y-85437123D01*
X81859176Y-84586934D01*
X81895648Y-84073190D01*
X81784550Y-83816744D01*
X81515139Y-83738452D01*
X81076670Y-83759169D01*
G37*
X81076670Y-83759169D02*
X80987900Y-83766567D01*
X80035400Y-83845400D01*
X78685840Y-89052400D01*
X80824412Y-89052400D01*
X81386496Y-86702900D01*
X81685877Y-85437123D01*
X81859176Y-84586934D01*
X81895648Y-84073190D01*
X81784550Y-83816744D01*
X81515139Y-83738452D01*
X81076670Y-83759169D01*
G36*
X86057836Y-83944561D02*
G01*
X84632383Y-84598895D01*
X83499108Y-85645174D01*
X82701147Y-87047171D01*
X82364026Y-88226900D01*
X82290283Y-88761892D01*
X82429227Y-88994693D01*
X82905938Y-89051072D01*
X83185000Y-89052400D01*
X83837070Y-89007707D01*
X84154953Y-88799850D01*
X84308208Y-88325864D01*
X84719686Y-87362326D01*
X85469434Y-86477755D01*
X86397051Y-85848046D01*
X86664268Y-85742192D01*
X87908840Y-85571286D01*
X89096221Y-85835072D01*
X90114072Y-86474839D01*
X90850051Y-87431873D01*
X91089393Y-88054942D01*
X91302880Y-88695815D01*
X91589236Y-88980414D01*
X92117308Y-89051316D01*
X92270635Y-89052400D01*
X93183288Y-89052400D01*
X93041365Y-87994282D01*
X92612304Y-86595480D01*
X91775143Y-85405232D01*
X90608604Y-84486941D01*
X89191406Y-83904007D01*
X87732332Y-83718400D01*
X86057836Y-83944561D01*
G37*
X86057836Y-83944561D02*
X84632383Y-84598895D01*
X83499108Y-85645174D01*
X82701147Y-87047171D01*
X82364026Y-88226900D01*
X82290283Y-88761892D01*
X82429227Y-88994693D01*
X82905938Y-89051072D01*
X83185000Y-89052400D01*
X83837070Y-89007707D01*
X84154953Y-88799850D01*
X84308208Y-88325864D01*
X84719686Y-87362326D01*
X85469434Y-86477755D01*
X86397051Y-85848046D01*
X86664268Y-85742192D01*
X87908840Y-85571286D01*
X89096221Y-85835072D01*
X90114072Y-86474839D01*
X90850051Y-87431873D01*
X91089393Y-88054942D01*
X91302880Y-88695815D01*
X91589236Y-88980414D01*
X92117308Y-89051316D01*
X92270635Y-89052400D01*
X93183288Y-89052400D01*
X93041365Y-87994282D01*
X92612304Y-86595480D01*
X91775143Y-85405232D01*
X90608604Y-84486941D01*
X89191406Y-83904007D01*
X87732332Y-83718400D01*
X86057836Y-83944561D01*
G36*
X93116400Y-85728144D02*
G01*
X96799400Y-85877400D01*
X96875021Y-87464900D01*
X96950641Y-89052400D01*
X99188160Y-89052400D01*
X99339400Y-85877400D01*
X101053900Y-85802294D01*
X102768400Y-85727189D01*
X102768400Y-83972400D01*
X93116400Y-83972400D01*
X93116400Y-85728144D01*
G37*
X93116400Y-85728144D02*
X96799400Y-85877400D01*
X96875021Y-87464900D01*
X96950641Y-89052400D01*
X99188160Y-89052400D01*
X99339400Y-85877400D01*
X101053900Y-85802294D01*
X102768400Y-85727189D01*
X102768400Y-83972400D01*
X93116400Y-83972400D01*
X93116400Y-85728144D01*
G36*
X46258241Y-89094543D02*
G01*
X45899431Y-89272410D01*
X45731265Y-89653290D01*
X45713219Y-90636699D01*
X46053590Y-91728877D01*
X46688017Y-92756950D01*
X47023872Y-93125317D01*
X47931159Y-94005400D01*
X55809379Y-94168610D01*
X55730390Y-93071005D01*
X55651400Y-91973400D01*
X52233854Y-91902165D01*
X50627561Y-91850616D01*
X49463819Y-91753852D01*
X48677444Y-91583055D01*
X48203252Y-91309411D01*
X47976059Y-90904103D01*
X47930681Y-90338315D01*
X47953509Y-90009934D01*
X48044825Y-89052400D01*
X46963452Y-89052400D01*
X46258241Y-89094543D01*
G37*
X46258241Y-89094543D02*
X45899431Y-89272410D01*
X45731265Y-89653290D01*
X45713219Y-90636699D01*
X46053590Y-91728877D01*
X46688017Y-92756950D01*
X47023872Y-93125317D01*
X47931159Y-94005400D01*
X55809379Y-94168610D01*
X55730390Y-93071005D01*
X55651400Y-91973400D01*
X52233854Y-91902165D01*
X50627561Y-91850616D01*
X49463819Y-91753852D01*
X48677444Y-91583055D01*
X48203252Y-91309411D01*
X47976059Y-90904103D01*
X47930681Y-90338315D01*
X47953509Y-90009934D01*
X48044825Y-89052400D01*
X46963452Y-89052400D01*
X46258241Y-89094543D01*
G36*
X57048400Y-94132400D02*
G01*
X58693545Y-94132400D01*
X59619612Y-94109051D01*
X60182519Y-94011785D01*
X60526030Y-93799776D01*
X60714810Y-93558368D01*
X60942230Y-93135040D01*
X61281104Y-92419153D01*
X61673581Y-91544032D01*
X62061808Y-90643001D01*
X62387936Y-89849383D01*
X62594112Y-89296504D01*
X62636400Y-89129860D01*
X62411307Y-89080768D01*
X61846883Y-89085359D01*
X61589046Y-89101295D01*
X60967951Y-89178813D01*
X60588007Y-89378715D01*
X60302993Y-89828857D01*
X60047274Y-90449400D01*
X59646274Y-91404551D01*
X59365867Y-91873664D01*
X59189384Y-91859802D01*
X59100158Y-91366031D01*
X59080400Y-90627200D01*
X59080400Y-89052400D01*
X57048400Y-89052400D01*
X57048400Y-94132400D01*
G37*
X57048400Y-94132400D02*
X58693545Y-94132400D01*
X59619612Y-94109051D01*
X60182519Y-94011785D01*
X60526030Y-93799776D01*
X60714810Y-93558368D01*
X60942230Y-93135040D01*
X61281104Y-92419153D01*
X61673581Y-91544032D01*
X62061808Y-90643001D01*
X62387936Y-89849383D01*
X62594112Y-89296504D01*
X62636400Y-89129860D01*
X62411307Y-89080768D01*
X61846883Y-89085359D01*
X61589046Y-89101295D01*
X60967951Y-89178813D01*
X60588007Y-89378715D01*
X60302993Y-89828857D01*
X60047274Y-90449400D01*
X59646274Y-91404551D01*
X59365867Y-91873664D01*
X59189384Y-91859802D01*
X59100158Y-91366031D01*
X59080400Y-90627200D01*
X59080400Y-89052400D01*
X57048400Y-89052400D01*
X57048400Y-94132400D01*
G36*
X65176400Y-94132400D02*
G01*
X67208400Y-94132400D01*
X67208400Y-89052400D01*
X65176400Y-89052400D01*
X65176400Y-94132400D01*
G37*
X65176400Y-94132400D02*
X67208400Y-94132400D01*
X67208400Y-89052400D01*
X65176400Y-89052400D01*
X65176400Y-94132400D01*
G36*
X70380705Y-89348811D02*
G01*
X70032433Y-89454713D01*
X70008665Y-89496900D01*
X70070292Y-89812365D01*
X70230289Y-90499400D01*
X70460168Y-91437668D01*
X70594946Y-91973400D01*
X71174961Y-94259400D01*
X72369272Y-94336922D01*
X73234000Y-94325300D01*
X73646149Y-94143943D01*
X73678132Y-94082922D01*
X73796495Y-93674578D01*
X73987627Y-92950073D01*
X74216992Y-92048359D01*
X74450059Y-91108387D01*
X74652294Y-90269108D01*
X74789163Y-89669474D01*
X74828400Y-89454580D01*
X74602850Y-89361750D01*
X74039460Y-89310155D01*
X73812400Y-89306400D01*
X73145414Y-89350396D01*
X72851225Y-89524692D01*
X72796400Y-89799409D01*
X72688666Y-90312814D01*
X72451712Y-90405729D01*
X72214914Y-90048546D01*
X72183656Y-89939644D01*
X72002744Y-89523228D01*
X71632101Y-89342365D01*
X71013561Y-89306400D01*
X70380705Y-89348811D01*
G37*
X70380705Y-89348811D02*
X70032433Y-89454713D01*
X70008665Y-89496900D01*
X70070292Y-89812365D01*
X70230289Y-90499400D01*
X70460168Y-91437668D01*
X70594946Y-91973400D01*
X71174961Y-94259400D01*
X72369272Y-94336922D01*
X73234000Y-94325300D01*
X73646149Y-94143943D01*
X73678132Y-94082922D01*
X73796495Y-93674578D01*
X73987627Y-92950073D01*
X74216992Y-92048359D01*
X74450059Y-91108387D01*
X74652294Y-90269108D01*
X74789163Y-89669474D01*
X74828400Y-89454580D01*
X74602850Y-89361750D01*
X74039460Y-89310155D01*
X73812400Y-89306400D01*
X73145414Y-89350396D01*
X72851225Y-89524692D01*
X72796400Y-89799409D01*
X72688666Y-90312814D01*
X72451712Y-90405729D01*
X72214914Y-90048546D01*
X72183656Y-89939644D01*
X72002744Y-89523228D01*
X71632101Y-89342365D01*
X71013561Y-89306400D01*
X70380705Y-89348811D01*
G36*
X76210101Y-89334393D02*
G01*
X75950773Y-89470805D01*
X75956585Y-89794278D01*
X75976318Y-89877900D01*
X76101446Y-90399585D01*
X76299816Y-91244132D01*
X76530997Y-92239282D01*
X76557583Y-92354400D01*
X76997253Y-94259400D01*
X78201418Y-94336922D01*
X79069011Y-94326145D01*
X79485206Y-94147873D01*
X79520132Y-94082922D01*
X79638495Y-93674578D01*
X79829627Y-92950073D01*
X80058992Y-92048359D01*
X80292059Y-91108387D01*
X80494294Y-90269108D01*
X80631163Y-89669474D01*
X80670400Y-89454580D01*
X80444918Y-89361568D01*
X79882005Y-89310047D01*
X79659240Y-89306400D01*
X78982301Y-89354244D01*
X78642378Y-89557934D01*
X78489145Y-89939644D01*
X78265405Y-90377187D01*
X78019270Y-90359540D01*
X77880112Y-89916314D01*
X77876400Y-89799409D01*
X77786210Y-89476362D01*
X77428508Y-89333450D01*
X76855561Y-89306400D01*
X76210101Y-89334393D01*
G37*
X76210101Y-89334393D02*
X75950773Y-89470805D01*
X75956585Y-89794278D01*
X75976318Y-89877900D01*
X76101446Y-90399585D01*
X76299816Y-91244132D01*
X76530997Y-92239282D01*
X76557583Y-92354400D01*
X76997253Y-94259400D01*
X78201418Y-94336922D01*
X79069011Y-94326145D01*
X79485206Y-94147873D01*
X79520132Y-94082922D01*
X79638495Y-93674578D01*
X79829627Y-92950073D01*
X80058992Y-92048359D01*
X80292059Y-91108387D01*
X80494294Y-90269108D01*
X80631163Y-89669474D01*
X80670400Y-89454580D01*
X80444918Y-89361568D01*
X79882005Y-89310047D01*
X79659240Y-89306400D01*
X78982301Y-89354244D01*
X78642378Y-89557934D01*
X78489145Y-89939644D01*
X78265405Y-90377187D01*
X78019270Y-90359540D01*
X77880112Y-89916314D01*
X77876400Y-89799409D01*
X77786210Y-89476362D01*
X77428508Y-89333450D01*
X76855561Y-89306400D01*
X76210101Y-89334393D01*
G36*
X96926400Y-94386400D02*
G01*
X99212400Y-94386400D01*
X99212400Y-89306400D01*
X96926400Y-89306400D01*
X96926400Y-94386400D01*
G37*
X96926400Y-94386400D02*
X99212400Y-94386400D01*
X99212400Y-89306400D01*
X96926400Y-89306400D01*
X96926400Y-94386400D01*
G36*
X101593501Y-89095329D02*
G01*
X101301027Y-89268689D01*
X101244400Y-89560400D01*
X101350769Y-89973141D01*
X101498400Y-90068400D01*
X101631427Y-90301461D01*
X101722401Y-90917911D01*
X101752400Y-91704409D01*
X101715709Y-92571468D01*
X101619946Y-93221494D01*
X101498400Y-93497400D01*
X101264688Y-93864906D01*
X101244400Y-94020390D01*
X101414409Y-94266693D01*
X101974076Y-94375701D01*
X102372410Y-94386400D01*
X103063383Y-94315444D01*
X103576905Y-94141663D01*
X103812894Y-93923683D01*
X103671267Y-93720130D01*
X103575371Y-93681723D01*
X103388183Y-93385182D01*
X103292778Y-92758027D01*
X103288618Y-92523733D01*
X103300835Y-91465400D01*
X104054690Y-92925900D01*
X104477117Y-93676188D01*
X104840968Y-94203176D01*
X105054400Y-94386400D01*
X105290820Y-94178789D01*
X105668191Y-93636186D01*
X106077359Y-92925900D01*
X106854462Y-91465400D01*
X106734783Y-92925900D01*
X106615105Y-94386400D01*
X107485753Y-94386400D01*
X108148170Y-94293507D01*
X108356400Y-94020390D01*
X108201600Y-93587943D01*
X108102400Y-93497400D01*
X107971305Y-93180049D01*
X107879574Y-92506547D01*
X107848400Y-91704409D01*
X107874241Y-90783131D01*
X107966498Y-90273013D01*
X108147272Y-90079149D01*
X108229400Y-90068400D01*
X108539685Y-89856641D01*
X108610400Y-89560400D01*
X108531533Y-89236876D01*
X108207560Y-89087928D01*
X107521646Y-89052400D01*
X106942695Y-89070346D01*
X106557937Y-89190819D01*
X106249522Y-89513766D01*
X105899598Y-90139138D01*
X105651591Y-90638381D01*
X104870290Y-92224363D01*
X104069689Y-90638381D01*
X103635768Y-89807484D01*
X103310405Y-89333243D01*
X102979402Y-89115758D01*
X102528562Y-89055127D01*
X102256744Y-89052400D01*
X101593501Y-89095329D01*
G37*
X101593501Y-89095329D02*
X101301027Y-89268689D01*
X101244400Y-89560400D01*
X101350769Y-89973141D01*
X101498400Y-90068400D01*
X101631427Y-90301461D01*
X101722401Y-90917911D01*
X101752400Y-91704409D01*
X101715709Y-92571468D01*
X101619946Y-93221494D01*
X101498400Y-93497400D01*
X101264688Y-93864906D01*
X101244400Y-94020390D01*
X101414409Y-94266693D01*
X101974076Y-94375701D01*
X102372410Y-94386400D01*
X103063383Y-94315444D01*
X103576905Y-94141663D01*
X103812894Y-93923683D01*
X103671267Y-93720130D01*
X103575371Y-93681723D01*
X103388183Y-93385182D01*
X103292778Y-92758027D01*
X103288618Y-92523733D01*
X103300835Y-91465400D01*
X104054690Y-92925900D01*
X104477117Y-93676188D01*
X104840968Y-94203176D01*
X105054400Y-94386400D01*
X105290820Y-94178789D01*
X105668191Y-93636186D01*
X106077359Y-92925900D01*
X106854462Y-91465400D01*
X106734783Y-92925900D01*
X106615105Y-94386400D01*
X107485753Y-94386400D01*
X108148170Y-94293507D01*
X108356400Y-94020390D01*
X108201600Y-93587943D01*
X108102400Y-93497400D01*
X107971305Y-93180049D01*
X107879574Y-92506547D01*
X107848400Y-91704409D01*
X107874241Y-90783131D01*
X107966498Y-90273013D01*
X108147272Y-90079149D01*
X108229400Y-90068400D01*
X108539685Y-89856641D01*
X108610400Y-89560400D01*
X108531533Y-89236876D01*
X108207560Y-89087928D01*
X107521646Y-89052400D01*
X106942695Y-89070346D01*
X106557937Y-89190819D01*
X106249522Y-89513766D01*
X105899598Y-90139138D01*
X105651591Y-90638381D01*
X104870290Y-92224363D01*
X104069689Y-90638381D01*
X103635768Y-89807484D01*
X103310405Y-89333243D01*
X102979402Y-89115758D01*
X102528562Y-89055127D01*
X102256744Y-89052400D01*
X101593501Y-89095329D01*
G36*
X112102900Y-89052354D02*
G01*
X109372400Y-89052400D01*
X109372400Y-89941400D01*
X109429226Y-90554117D01*
X109651067Y-90801340D01*
X109880400Y-90830400D01*
X110294113Y-90671581D01*
X110388400Y-90449400D01*
X110513820Y-90219634D01*
X110953910Y-90101341D01*
X111785400Y-90068400D01*
X112585492Y-90084883D01*
X113002092Y-90172004D01*
X113159514Y-90386268D01*
X113182400Y-90703400D01*
X113126946Y-91112519D01*
X112865375Y-91294358D01*
X112254880Y-91338173D01*
X112166400Y-91338400D01*
X111418912Y-91437291D01*
X111115585Y-91667426D01*
X111264243Y-91928999D01*
X111872707Y-92122202D01*
X112102900Y-92148567D01*
X112763070Y-92266402D01*
X113066022Y-92534893D01*
X113136715Y-92800035D01*
X113044457Y-93335823D01*
X112819215Y-93525710D01*
X112470657Y-93841877D01*
X112420400Y-94032575D01*
X112597471Y-94266599D01*
X113173214Y-94373939D01*
X113626900Y-94386222D01*
X114833400Y-94386045D01*
X114833400Y-89052309D01*
X112102900Y-89052354D01*
G37*
X112102900Y-89052354D02*
X109372400Y-89052400D01*
X109372400Y-89941400D01*
X109429226Y-90554117D01*
X109651067Y-90801340D01*
X109880400Y-90830400D01*
X110294113Y-90671581D01*
X110388400Y-90449400D01*
X110513820Y-90219634D01*
X110953910Y-90101341D01*
X111785400Y-90068400D01*
X112585492Y-90084883D01*
X113002092Y-90172004D01*
X113159514Y-90386268D01*
X113182400Y-90703400D01*
X113126946Y-91112519D01*
X112865375Y-91294358D01*
X112254880Y-91338173D01*
X112166400Y-91338400D01*
X111418912Y-91437291D01*
X111115585Y-91667426D01*
X111264243Y-91928999D01*
X111872707Y-92122202D01*
X112102900Y-92148567D01*
X112763070Y-92266402D01*
X113066022Y-92534893D01*
X113136715Y-92800035D01*
X113044457Y-93335823D01*
X112819215Y-93525710D01*
X112470657Y-93841877D01*
X112420400Y-94032575D01*
X112597471Y-94266599D01*
X113173214Y-94373939D01*
X113626900Y-94386222D01*
X114833400Y-94386045D01*
X114833400Y-89052309D01*
X112102900Y-89052354D01*
G36*
X92214665Y-89352416D02*
G01*
X91552687Y-89462592D01*
X91213826Y-89738001D01*
X91033788Y-90237839D01*
X90552976Y-91167284D01*
X89714837Y-91920975D01*
X88660520Y-92421074D01*
X87531174Y-92589741D01*
X86914646Y-92509428D01*
X86018931Y-92078052D01*
X85169377Y-91329072D01*
X84548557Y-90434229D01*
X84441271Y-90182830D01*
X84166826Y-89594138D01*
X83789244Y-89351135D01*
X83186124Y-89306400D01*
X82575234Y-89331295D01*
X82350582Y-89495158D01*
X82390431Y-89931754D01*
X82434854Y-90131900D01*
X83005096Y-91634382D01*
X83930325Y-92881870D01*
X85127431Y-93819947D01*
X86513303Y-94394196D01*
X88004828Y-94550202D01*
X88965979Y-94408075D01*
X90365040Y-93831038D01*
X91570095Y-92905128D01*
X92481143Y-91732925D01*
X92998185Y-90417008D01*
X93031788Y-90237398D01*
X93188543Y-89271433D01*
X92214665Y-89352416D01*
G37*
X92214665Y-89352416D02*
X91552687Y-89462592D01*
X91213826Y-89738001D01*
X91033788Y-90237839D01*
X90552976Y-91167284D01*
X89714837Y-91920975D01*
X88660520Y-92421074D01*
X87531174Y-92589741D01*
X86914646Y-92509428D01*
X86018931Y-92078052D01*
X85169377Y-91329072D01*
X84548557Y-90434229D01*
X84441271Y-90182830D01*
X84166826Y-89594138D01*
X83789244Y-89351135D01*
X83186124Y-89306400D01*
X82575234Y-89331295D01*
X82350582Y-89495158D01*
X82390431Y-89931754D01*
X82434854Y-90131900D01*
X83005096Y-91634382D01*
X83930325Y-92881870D01*
X85127431Y-93819947D01*
X86513303Y-94394196D01*
X88004828Y-94550202D01*
X88965979Y-94408075D01*
X90365040Y-93831038D01*
X91570095Y-92905128D01*
X92481143Y-91732925D01*
X92998185Y-90417008D01*
X93031788Y-90237398D01*
X93188543Y-89271433D01*
X92214665Y-89352416D01*
D10*
%TO.C,U1*%
X130048000Y-72491600D02*
X147828000Y-72491600D01*
X147828000Y-72491600D02*
X147828000Y-102971600D01*
X147828000Y-102971600D02*
X142748000Y-102971600D01*
X142748000Y-102971600D02*
X142748000Y-105511600D01*
X142748000Y-105511600D02*
X135128000Y-105511600D01*
X135128000Y-105511600D02*
X135128000Y-102971600D01*
X135128000Y-102971600D02*
X130048000Y-102971600D01*
X130048000Y-102971600D02*
X130048000Y-72491600D01*
%TD*%
M02*
