%TF.GenerationSoftware,KiCad,Pcbnew,(5.1.10)-1*%
%TF.CreationDate,2022-08-08T15:03:28-05:00*%
%TF.ProjectId,GEN 1 PSU CARD,47454e20-3120-4505-9355-20434152442e,rev?*%
%TF.SameCoordinates,Original*%
%TF.FileFunction,Copper,L1,Top*%
%TF.FilePolarity,Positive*%
%FSLAX46Y46*%
G04 Gerber Fmt 4.6, Leading zero omitted, Abs format (unit mm)*
G04 Created by KiCad (PCBNEW (5.1.10)-1) date 2022-08-08 15:03:28*
%MOMM*%
%LPD*%
G01*
G04 APERTURE LIST*
%TA.AperFunction,ComponentPad*%
%ADD10C,0.800000*%
%TD*%
%TA.AperFunction,ComponentPad*%
%ADD11C,7.000000*%
%TD*%
%TA.AperFunction,ComponentPad*%
%ADD12C,9.000000*%
%TD*%
%TA.AperFunction,ComponentPad*%
%ADD13C,2.175000*%
%TD*%
%TA.AperFunction,ComponentPad*%
%ADD14R,2.175000X2.175000*%
%TD*%
%TA.AperFunction,ComponentPad*%
%ADD15C,1.600000*%
%TD*%
%TA.AperFunction,ComponentPad*%
%ADD16R,1.600000X1.600000*%
%TD*%
%TA.AperFunction,ComponentPad*%
%ADD17C,2.400000*%
%TD*%
%TA.AperFunction,ComponentPad*%
%ADD18R,2.400000X2.400000*%
%TD*%
%TA.AperFunction,Conductor*%
%ADD19C,2.000000*%
%TD*%
%TA.AperFunction,Conductor*%
%ADD20C,0.250000*%
%TD*%
G04 APERTURE END LIST*
D10*
%TO.P,REF\u002A\u002A,1*%
%TO.N,N/C*%
X99377445Y-49917845D03*
X98608600Y-51774000D03*
X99377445Y-53630155D03*
X101233600Y-54399000D03*
X103089755Y-53630155D03*
X103858600Y-51774000D03*
X103089755Y-49917845D03*
X101233600Y-49149000D03*
D11*
X101233600Y-51774000D03*
%TD*%
D12*
%TO.P,REF\u002A\u002A,1*%
%TO.N,N/C*%
X266034520Y-149098000D03*
%TD*%
%TO.P,REF\u002A\u002A,1*%
%TO.N,N/C*%
X239654080Y-49509680D03*
%TD*%
%TO.P,REF\u002A\u002A,1*%
%TO.N,N/C*%
X134391400Y-49570640D03*
%TD*%
%TO.P,REF\u002A\u002A,1*%
%TO.N,N/C*%
X149931120Y-148209000D03*
%TD*%
%TO.P,REF\u002A\u002A,1*%
%TO.N,N/C*%
X34254440Y-49956720D03*
%TD*%
%TO.P,REF\u002A\u002A,1*%
%TO.N,N/C*%
X42550080Y-148056600D03*
%TD*%
D13*
%TO.P,J4,24*%
%TO.N,/GND*%
X183669040Y-98041400D03*
%TO.P,J4,23*%
%TO.N,Net-(J4-Pad23)*%
X189169040Y-98041400D03*
%TO.P,J4,22*%
%TO.N,/5V*%
X183669040Y-93841400D03*
%TO.P,J4,21*%
%TO.N,/12V*%
X189169040Y-93841400D03*
%TO.P,J4,20*%
%TO.N,/5V*%
X183669040Y-89641400D03*
%TO.P,J4,19*%
%TO.N,/12V*%
X189169040Y-89641400D03*
%TO.P,J4,18*%
%TO.N,/5V*%
X183669040Y-85441400D03*
%TO.P,J4,17*%
%TO.N,/5VSB*%
X189169040Y-85441400D03*
%TO.P,J4,16*%
%TO.N,Net-(J4-Pad16)*%
X183669040Y-81241400D03*
%TO.P,J4,15*%
%TO.N,Net-(J4-Pad15)*%
X189169040Y-81241400D03*
%TO.P,J4,14*%
%TO.N,/GND*%
X183669040Y-77041400D03*
%TO.P,J4,13*%
X189169040Y-77041400D03*
%TO.P,J4,12*%
X183669040Y-72841400D03*
%TO.P,J4,11*%
%TO.N,/5V*%
X189169040Y-72841400D03*
%TO.P,J4,10*%
%TO.N,/GND*%
X183669040Y-68641400D03*
%TO.P,J4,9*%
X189169040Y-68641400D03*
%TO.P,J4,8*%
%TO.N,/PS_ON*%
X183669040Y-64441400D03*
%TO.P,J4,7*%
%TO.N,/5V*%
X189169040Y-64441400D03*
%TO.P,J4,6*%
%TO.N,/GND*%
X183669040Y-60241400D03*
%TO.P,J4,5*%
X189169040Y-60241400D03*
%TO.P,J4,4*%
%TO.N,/-12*%
X183669040Y-56041400D03*
%TO.P,J4,3*%
%TO.N,Net-(J4-Pad3)*%
X189169040Y-56041400D03*
%TO.P,J4,2*%
%TO.N,Net-(J4-Pad2)*%
X183669040Y-51841400D03*
D14*
%TO.P,J4,1*%
%TO.N,Net-(J4-Pad1)*%
X189169040Y-51841400D03*
%TD*%
D11*
%TO.P,REF\u002A\u002A,1*%
%TO.N,N/C*%
X101233600Y-147024000D03*
D10*
X101233600Y-144399000D03*
X103089755Y-145167845D03*
X103858600Y-147024000D03*
X103089755Y-148880155D03*
X101233600Y-149649000D03*
X99377445Y-148880155D03*
X98608600Y-147024000D03*
X99377445Y-145167845D03*
%TD*%
%TO.P,REF\u002A\u002A,1*%
%TO.N,N/C*%
X54927445Y-49917845D03*
X54158600Y-51774000D03*
X54927445Y-53630155D03*
X56783600Y-54399000D03*
X58639755Y-53630155D03*
X59408600Y-51774000D03*
X58639755Y-49917845D03*
X56783600Y-49149000D03*
D11*
X56783600Y-51774000D03*
%TD*%
D10*
%TO.P,REF\u002A\u002A,1*%
%TO.N,N/C*%
X54927445Y-145167845D03*
X54158600Y-147024000D03*
X54927445Y-148880155D03*
X56783600Y-149649000D03*
X58639755Y-148880155D03*
X59408600Y-147024000D03*
X58639755Y-145167845D03*
X56783600Y-144399000D03*
D11*
X56783600Y-147024000D03*
%TD*%
D15*
%TO.P,U1,24*%
%TO.N,Net-(U1-Pad24)*%
X222402400Y-89306400D03*
%TO.P,U1,23*%
%TO.N,/GND*%
X222402400Y-86766400D03*
%TO.P,U1,22*%
%TO.N,Net-(U1-Pad22)*%
X222402400Y-84226400D03*
%TO.P,U1,21*%
%TO.N,/5VSB*%
X222402400Y-81686400D03*
%TO.P,U1,20*%
%TO.N,Net-(U1-Pad20)*%
X222402400Y-79146400D03*
%TO.P,U1,19*%
%TO.N,Net-(U1-Pad19)*%
X222402400Y-76606400D03*
%TO.P,U1,18*%
%TO.N,Net-(U1-Pad18)*%
X222402400Y-74066400D03*
%TO.P,U1,17*%
%TO.N,Net-(U1-Pad17)*%
X222402400Y-71526400D03*
%TO.P,U1,16*%
%TO.N,Net-(U1-Pad16)*%
X222402400Y-68986400D03*
%TO.P,U1,15*%
%TO.N,Net-(U1-Pad15)*%
X222402400Y-66446400D03*
%TO.P,U1,14*%
%TO.N,Net-(U1-Pad14)*%
X222402400Y-63906400D03*
%TO.P,U1,13*%
%TO.N,Net-(U1-Pad13)*%
X222402400Y-61366400D03*
%TO.P,U1,12*%
%TO.N,Net-(U1-Pad12)*%
X237642400Y-61366400D03*
%TO.P,U1,11*%
%TO.N,Net-(U1-Pad11)*%
X237642400Y-63906400D03*
%TO.P,U1,10*%
%TO.N,Net-(U1-Pad10)*%
X237642400Y-66446400D03*
%TO.P,U1,9*%
%TO.N,/ON-OFF*%
X237642400Y-68986400D03*
%TO.P,U1,8*%
%TO.N,Net-(U1-Pad8)*%
X237642400Y-71526400D03*
%TO.P,U1,7*%
%TO.N,/OS_OFF*%
X237642400Y-74066400D03*
%TO.P,U1,6*%
%TO.N,/PS_ON*%
X237642400Y-76606400D03*
%TO.P,U1,5*%
%TO.N,Net-(U1-Pad5)*%
X237642400Y-79146400D03*
%TO.P,U1,4*%
%TO.N,/GND*%
X237642400Y-81686400D03*
%TO.P,U1,3*%
X237642400Y-84226400D03*
%TO.P,U1,2*%
%TO.N,Net-(U1-Pad2)*%
X237642400Y-86766400D03*
D16*
%TO.P,U1,1*%
%TO.N,Net-(U1-Pad1)*%
X237642400Y-89306400D03*
%TD*%
D17*
%TO.P,J3,8*%
%TO.N,/OS_OFF*%
X165968680Y-51851800D03*
%TO.P,J3,7*%
%TO.N,/5V*%
X165968680Y-55351800D03*
%TO.P,J3,6*%
X165968680Y-58851800D03*
%TO.P,J3,5*%
X165968680Y-62351800D03*
%TO.P,J3,4*%
X165968680Y-65851800D03*
%TO.P,J3,3*%
X165968680Y-69351800D03*
%TO.P,J3,2*%
%TO.N,/12V*%
X165968680Y-72851800D03*
D18*
%TO.P,J3,1*%
X165968680Y-76351800D03*
%TD*%
D17*
%TO.P,J2,8*%
%TO.N,/ON-OFF*%
X209285840Y-51516520D03*
%TO.P,J2,7*%
%TO.N,/-12*%
X209285840Y-55016520D03*
%TO.P,J2,6*%
%TO.N,/GND*%
X209285840Y-58516520D03*
%TO.P,J2,5*%
X209285840Y-62016520D03*
%TO.P,J2,4*%
X209285840Y-65516520D03*
%TO.P,J2,3*%
X209285840Y-69016520D03*
%TO.P,J2,2*%
X209285840Y-72516520D03*
D18*
%TO.P,J2,1*%
X209285840Y-76016520D03*
%TD*%
D19*
%TO.N,/GND*%
X186509000Y-95201440D02*
X186509000Y-77041400D01*
X183669040Y-98041400D02*
X186509000Y-95201440D01*
X186509000Y-77041400D02*
X189169040Y-77041400D01*
X183669040Y-77041400D02*
X186509000Y-77041400D01*
X183669040Y-77041400D02*
X183669040Y-68641400D01*
X183669040Y-68641400D02*
X189169040Y-68641400D01*
X181381539Y-62528901D02*
X183669040Y-60241400D01*
X181381539Y-66353899D02*
X181381539Y-62528901D01*
X183669040Y-68641400D02*
X181381539Y-66353899D01*
D20*
%TO.N,/PS_ON*%
X222942401Y-80271401D02*
X196654201Y-80271401D01*
X226607402Y-76606400D02*
X222942401Y-80271401D01*
X237642400Y-76606400D02*
X226607402Y-76606400D01*
X196654201Y-80271401D02*
X192887600Y-76504800D01*
X187059542Y-64441400D02*
X183669040Y-64441400D01*
X192887600Y-70269458D02*
X187059542Y-64441400D01*
X192887600Y-76504800D02*
X192887600Y-70269458D01*
%TO.N,/5VSB*%
X218647400Y-85441400D02*
X222402400Y-81686400D01*
X189169040Y-85441400D02*
X218647400Y-85441400D01*
%TO.N,/OS_OFF*%
X237642400Y-73191402D02*
X237642400Y-74066400D01*
X233527600Y-69076602D02*
X237642400Y-73191402D01*
X233527600Y-69076602D02*
X232754202Y-69076602D01*
X232754202Y-69076602D02*
X217220800Y-53543200D01*
X217220800Y-53543200D02*
X214376000Y-53543200D01*
X214376000Y-53543200D02*
X208838800Y-48006000D01*
X169814480Y-48006000D02*
X165968680Y-51851800D01*
X208838800Y-48006000D02*
X169814480Y-48006000D01*
D19*
%TO.N,/5V*%
X183669040Y-93841400D02*
X183669040Y-85441400D01*
%TD*%
M02*
