M48
; DRILL file {KiCad (5.1.10)-1} date 08/08/22 15:21:53
; FORMAT={-:-/ absolute / inch / decimal}
; #@! TF.CreationDate,2022-08-08T15:21:53-05:00
; #@! TF.GenerationSoftware,Kicad,Pcbnew,(5.1.10)-1
; #@! TF.FileFunction,Plated,1,2,PTH
FMAT,2
INCH
T1C0.0157
T2C0.0197
T3C0.0433
T4C0.0472
T5C0.0571
T6C0.1378
T7C0.1772
%
G90
G05
T1
X6.869Y-2.801
X7.118Y-3.474
T2
X2.1322Y-2.0383
X2.1322Y-5.7883
X2.1625Y-1.9653
X2.1625Y-2.1114
X2.1625Y-5.7153
X2.1625Y-5.8614
X2.2356Y-1.935
X2.2356Y-2.1417
X2.2356Y-5.685
X2.2356Y-5.8917
X2.3087Y-1.9653
X2.3087Y-2.1114
X2.3087Y-5.7153
X2.3087Y-5.8614
X2.3389Y-2.0383
X2.3389Y-5.7883
X3.8822Y-2.0383
X3.8822Y-5.7883
X3.9125Y-1.9653
X3.9125Y-2.1114
X3.9125Y-5.7153
X3.9125Y-5.8614
X3.9856Y-1.935
X3.9856Y-2.1417
X3.9856Y-5.685
X3.9856Y-5.8917
X4.0587Y-1.9653
X4.0587Y-2.1114
X4.0587Y-5.7153
X4.0587Y-5.8614
X4.0889Y-2.0383
X4.0889Y-5.7883
T3
X5.17Y-2.904
X5.17Y-3.004
X5.17Y-3.104
X5.17Y-3.204
X5.17Y-3.304
X5.17Y-3.404
X5.17Y-3.504
X5.17Y-3.604
X5.17Y-3.704
X5.17Y-3.804
X5.17Y-3.904
X5.17Y-4.004
X5.77Y-2.904
X5.77Y-3.004
X5.77Y-3.104
X5.77Y-3.204
X5.77Y-3.304
X5.77Y-3.404
X5.77Y-3.504
X5.77Y-3.604
X5.77Y-3.704
X5.77Y-3.804
X5.77Y-3.904
X5.77Y-4.004
T4
X6.5342Y-2.0414
X6.5342Y-2.1792
X6.5342Y-2.317
X6.5342Y-2.4548
X6.5342Y-2.5926
X6.5342Y-2.7304
X6.5342Y-2.8682
X6.5342Y-3.006
X8.2396Y-2.0282
X8.2396Y-2.166
X8.2396Y-2.3038
X8.2396Y-2.4416
X8.2396Y-2.5794
X8.2396Y-2.7172
X8.2396Y-2.855
X8.2396Y-2.9928
T5
X7.2311Y-2.041
X7.2311Y-2.2064
X7.2311Y-2.3717
X7.2311Y-2.5371
X7.2311Y-2.7024
X7.2311Y-2.8678
X7.2311Y-3.0331
X7.2311Y-3.1985
X7.2311Y-3.3638
X7.2311Y-3.5292
X7.2311Y-3.6945
X7.2311Y-3.8599
X7.4476Y-2.041
X7.4476Y-2.2064
X7.4476Y-2.3717
X7.4476Y-2.5371
X7.4476Y-2.7024
X7.4476Y-2.8678
X7.4476Y-3.0331
X7.4476Y-3.1985
X7.4476Y-3.3638
X7.4476Y-3.5292
X7.4476Y-3.6945
X7.4476Y-3.8599
T6
X2.2356Y-2.0383
X2.2356Y-5.7883
X3.9856Y-2.0383
X3.9856Y-5.7883
T7
X1.3486Y-1.9764
X1.6752Y-5.8051
X5.291Y-1.9764
X5.9028Y-5.8051
T0
M30
