%TF.GenerationSoftware,KiCad,Pcbnew,(5.1.10)-1*%
%TF.CreationDate,2022-08-08T15:03:28-05:00*%
%TF.ProjectId,GEN 1 PSU CARD,47454e20-3120-4505-9355-20434152442e,rev?*%
%TF.SameCoordinates,Original*%
%TF.FileFunction,Copper,L2,Bot*%
%TF.FilePolarity,Positive*%
%FSLAX46Y46*%
G04 Gerber Fmt 4.6, Leading zero omitted, Abs format (unit mm)*
G04 Created by KiCad (PCBNEW (5.1.10)-1) date 2022-08-08 15:03:28*
%MOMM*%
%LPD*%
G01*
G04 APERTURE LIST*
%TA.AperFunction,ComponentPad*%
%ADD10C,0.800000*%
%TD*%
%TA.AperFunction,ComponentPad*%
%ADD11C,2.175000*%
%TD*%
%TA.AperFunction,ComponentPad*%
%ADD12R,2.175000X2.175000*%
%TD*%
%TA.AperFunction,ComponentPad*%
%ADD13C,1.600000*%
%TD*%
%TA.AperFunction,ComponentPad*%
%ADD14R,1.600000X1.600000*%
%TD*%
%TA.AperFunction,ComponentPad*%
%ADD15C,2.400000*%
%TD*%
%TA.AperFunction,ComponentPad*%
%ADD16R,2.400000X2.400000*%
%TD*%
%TA.AperFunction,Conductor*%
%ADD17C,0.250000*%
%TD*%
%TA.AperFunction,Conductor*%
%ADD18C,2.000000*%
%TD*%
G04 APERTURE END LIST*
D10*
%TO.P,REF\u002A\u002A,1*%
%TO.N,N/C*%
X99377445Y-49917845D03*
X98608600Y-51774000D03*
X99377445Y-53630155D03*
X101233600Y-54399000D03*
X103089755Y-53630155D03*
X103858600Y-51774000D03*
X103089755Y-49917845D03*
X101233600Y-49149000D03*
%TD*%
D11*
%TO.P,J4,24*%
%TO.N,/GND*%
X183669040Y-98041400D03*
%TO.P,J4,23*%
%TO.N,Net-(J4-Pad23)*%
X189169040Y-98041400D03*
%TO.P,J4,22*%
%TO.N,/5V*%
X183669040Y-93841400D03*
%TO.P,J4,21*%
%TO.N,/12V*%
X189169040Y-93841400D03*
%TO.P,J4,20*%
%TO.N,/5V*%
X183669040Y-89641400D03*
%TO.P,J4,19*%
%TO.N,/12V*%
X189169040Y-89641400D03*
%TO.P,J4,18*%
%TO.N,/5V*%
X183669040Y-85441400D03*
%TO.P,J4,17*%
%TO.N,/5VSB*%
X189169040Y-85441400D03*
%TO.P,J4,16*%
%TO.N,Net-(J4-Pad16)*%
X183669040Y-81241400D03*
%TO.P,J4,15*%
%TO.N,Net-(J4-Pad15)*%
X189169040Y-81241400D03*
%TO.P,J4,14*%
%TO.N,/GND*%
X183669040Y-77041400D03*
%TO.P,J4,13*%
X189169040Y-77041400D03*
%TO.P,J4,12*%
X183669040Y-72841400D03*
%TO.P,J4,11*%
%TO.N,/5V*%
X189169040Y-72841400D03*
%TO.P,J4,10*%
%TO.N,/GND*%
X183669040Y-68641400D03*
%TO.P,J4,9*%
X189169040Y-68641400D03*
%TO.P,J4,8*%
%TO.N,/PS_ON*%
X183669040Y-64441400D03*
%TO.P,J4,7*%
%TO.N,/5V*%
X189169040Y-64441400D03*
%TO.P,J4,6*%
%TO.N,/GND*%
X183669040Y-60241400D03*
%TO.P,J4,5*%
X189169040Y-60241400D03*
%TO.P,J4,4*%
%TO.N,/-12*%
X183669040Y-56041400D03*
%TO.P,J4,3*%
%TO.N,Net-(J4-Pad3)*%
X189169040Y-56041400D03*
%TO.P,J4,2*%
%TO.N,Net-(J4-Pad2)*%
X183669040Y-51841400D03*
D12*
%TO.P,J4,1*%
%TO.N,Net-(J4-Pad1)*%
X189169040Y-51841400D03*
%TD*%
D10*
%TO.P,REF\u002A\u002A,1*%
%TO.N,N/C*%
X101233600Y-144399000D03*
X103089755Y-145167845D03*
X103858600Y-147024000D03*
X103089755Y-148880155D03*
X101233600Y-149649000D03*
X99377445Y-148880155D03*
X98608600Y-147024000D03*
X99377445Y-145167845D03*
%TD*%
%TO.P,REF\u002A\u002A,1*%
%TO.N,N/C*%
X54927445Y-49917845D03*
X54158600Y-51774000D03*
X54927445Y-53630155D03*
X56783600Y-54399000D03*
X58639755Y-53630155D03*
X59408600Y-51774000D03*
X58639755Y-49917845D03*
X56783600Y-49149000D03*
%TD*%
%TO.P,REF\u002A\u002A,1*%
%TO.N,N/C*%
X54927445Y-145167845D03*
X54158600Y-147024000D03*
X54927445Y-148880155D03*
X56783600Y-149649000D03*
X58639755Y-148880155D03*
X59408600Y-147024000D03*
X58639755Y-145167845D03*
X56783600Y-144399000D03*
%TD*%
D13*
%TO.P,U1,24*%
%TO.N,Net-(U1-Pad24)*%
X222402400Y-89306400D03*
%TO.P,U1,23*%
%TO.N,/GND*%
X222402400Y-86766400D03*
%TO.P,U1,22*%
%TO.N,Net-(U1-Pad22)*%
X222402400Y-84226400D03*
%TO.P,U1,21*%
%TO.N,/5VSB*%
X222402400Y-81686400D03*
%TO.P,U1,20*%
%TO.N,Net-(U1-Pad20)*%
X222402400Y-79146400D03*
%TO.P,U1,19*%
%TO.N,Net-(U1-Pad19)*%
X222402400Y-76606400D03*
%TO.P,U1,18*%
%TO.N,Net-(U1-Pad18)*%
X222402400Y-74066400D03*
%TO.P,U1,17*%
%TO.N,Net-(U1-Pad17)*%
X222402400Y-71526400D03*
%TO.P,U1,16*%
%TO.N,Net-(U1-Pad16)*%
X222402400Y-68986400D03*
%TO.P,U1,15*%
%TO.N,Net-(U1-Pad15)*%
X222402400Y-66446400D03*
%TO.P,U1,14*%
%TO.N,Net-(U1-Pad14)*%
X222402400Y-63906400D03*
%TO.P,U1,13*%
%TO.N,Net-(U1-Pad13)*%
X222402400Y-61366400D03*
%TO.P,U1,12*%
%TO.N,Net-(U1-Pad12)*%
X237642400Y-61366400D03*
%TO.P,U1,11*%
%TO.N,Net-(U1-Pad11)*%
X237642400Y-63906400D03*
%TO.P,U1,10*%
%TO.N,Net-(U1-Pad10)*%
X237642400Y-66446400D03*
%TO.P,U1,9*%
%TO.N,/ON-OFF*%
X237642400Y-68986400D03*
%TO.P,U1,8*%
%TO.N,Net-(U1-Pad8)*%
X237642400Y-71526400D03*
%TO.P,U1,7*%
%TO.N,/OS_OFF*%
X237642400Y-74066400D03*
%TO.P,U1,6*%
%TO.N,/PS_ON*%
X237642400Y-76606400D03*
%TO.P,U1,5*%
%TO.N,Net-(U1-Pad5)*%
X237642400Y-79146400D03*
%TO.P,U1,4*%
%TO.N,/GND*%
X237642400Y-81686400D03*
%TO.P,U1,3*%
X237642400Y-84226400D03*
%TO.P,U1,2*%
%TO.N,Net-(U1-Pad2)*%
X237642400Y-86766400D03*
D14*
%TO.P,U1,1*%
%TO.N,Net-(U1-Pad1)*%
X237642400Y-89306400D03*
%TD*%
D15*
%TO.P,J3,8*%
%TO.N,/OS_OFF*%
X165968680Y-51851800D03*
%TO.P,J3,7*%
%TO.N,/5V*%
X165968680Y-55351800D03*
%TO.P,J3,6*%
X165968680Y-58851800D03*
%TO.P,J3,5*%
X165968680Y-62351800D03*
%TO.P,J3,4*%
X165968680Y-65851800D03*
%TO.P,J3,3*%
X165968680Y-69351800D03*
%TO.P,J3,2*%
%TO.N,/12V*%
X165968680Y-72851800D03*
D16*
%TO.P,J3,1*%
X165968680Y-76351800D03*
%TD*%
D15*
%TO.P,J2,8*%
%TO.N,/ON-OFF*%
X209285840Y-51516520D03*
%TO.P,J2,7*%
%TO.N,/-12*%
X209285840Y-55016520D03*
%TO.P,J2,6*%
%TO.N,/GND*%
X209285840Y-58516520D03*
%TO.P,J2,5*%
X209285840Y-62016520D03*
%TO.P,J2,4*%
X209285840Y-65516520D03*
%TO.P,J2,3*%
X209285840Y-69016520D03*
%TO.P,J2,2*%
X209285840Y-72516520D03*
D16*
%TO.P,J2,1*%
X209285840Y-76016520D03*
%TD*%
D17*
%TO.N,/GND*%
X211652520Y-76016520D02*
X222402400Y-86766400D01*
X209285840Y-76016520D02*
X211652520Y-76016520D01*
X237642400Y-81686400D02*
X237642400Y-84226400D01*
X224942400Y-84226400D02*
X222402400Y-86766400D01*
X237642400Y-84226400D02*
X224942400Y-84226400D01*
D18*
X209285840Y-76016520D02*
X209285840Y-58516520D01*
X189169040Y-60241400D02*
X183669040Y-60241400D01*
X208910720Y-68641400D02*
X209285840Y-69016520D01*
X189169040Y-68641400D02*
X208910720Y-68641400D01*
%TO.N,/-12*%
X203823219Y-49553899D02*
X209285840Y-55016520D01*
X187121539Y-49553899D02*
X203823219Y-49553899D01*
X186881539Y-49793899D02*
X187121539Y-49553899D01*
X186881539Y-54062861D02*
X186881539Y-49793899D01*
X184903000Y-56041400D02*
X186881539Y-54062861D01*
X183669040Y-56041400D02*
X184903000Y-56041400D01*
%TO.N,/12V*%
X189169040Y-93841400D02*
X189169040Y-89641400D01*
X165968680Y-72851800D02*
X165968680Y-76351800D01*
X165968680Y-83726542D02*
X183689738Y-101447600D01*
X165968680Y-76351800D02*
X165968680Y-83726542D01*
X183689738Y-101447600D02*
X191008000Y-101447600D01*
X191456541Y-96128901D02*
X189169040Y-93841400D01*
X191456541Y-100999059D02*
X191456541Y-96128901D01*
X191008000Y-101447600D02*
X191456541Y-100999059D01*
D17*
%TO.N,/ON-OFF*%
X220172520Y-51516520D02*
X237642400Y-68986400D01*
X209285840Y-51516520D02*
X220172520Y-51516520D01*
D18*
%TO.N,/5V*%
X186881539Y-75128901D02*
X189169040Y-72841400D01*
X186881539Y-82228901D02*
X186881539Y-75128901D01*
X183669040Y-85441400D02*
X186881539Y-82228901D01*
X186881539Y-66728901D02*
X189169040Y-64441400D01*
X186881539Y-70854339D02*
X186881539Y-66728901D01*
X188868600Y-72841400D02*
X186881539Y-70854339D01*
X189169040Y-72841400D02*
X188868600Y-72841400D01*
X167579440Y-69351800D02*
X165968680Y-69351800D01*
X183669040Y-85441400D02*
X167579440Y-69351800D01*
X165968680Y-55351800D02*
X165968680Y-69351800D01*
%TD*%
M02*
