M48
; DRILL file {KiCad (5.1.9)-1} date 07/06/21 18:24:41
; FORMAT={-:-/ absolute / inch / decimal}
; #@! TF.CreationDate,2021-07-06T18:24:41-05:00
; #@! TF.GenerationSoftware,Kicad,Pcbnew,(5.1.9)-1
; #@! TF.FileFunction,Plated,1,4,PTH
FMAT,2
INCH
T1C0.0157
T2C0.0197
T3C0.0433
T4C0.0472
T5C0.0571
T6C0.1378
T7C0.1772
%
G90
G05
T1
X10.0114Y-4.5044
T2
X1.6961Y-2.4306
X1.7213Y-5.1626
X1.7263Y-2.3575
X1.7263Y-2.5037
X1.7515Y-5.0895
X1.7515Y-5.2357
X1.7994Y-2.3273
X1.7994Y-2.5339
X1.8246Y-5.0593
X1.8246Y-5.2659
X1.8725Y-2.3575
X1.8725Y-2.5037
X1.8977Y-5.0895
X1.8977Y-5.2357
X1.9027Y-2.4306
X1.9279Y-5.1626
X3.4303Y-2.4298
X3.4553Y-5.1794
X3.4605Y-2.3567
X3.4605Y-2.5029
X3.4855Y-5.1063
X3.4855Y-5.2525
X3.5336Y-2.3265
X3.5336Y-2.5331
X3.5586Y-5.0761
X3.5586Y-5.2827
X3.6067Y-2.3567
X3.6067Y-2.5029
X3.6317Y-5.1063
X3.6317Y-5.2525
X3.6369Y-2.4298
X3.6619Y-5.1794
T3
X9.8042Y-4.225
X9.8042Y-4.325
X9.8042Y-4.425
X9.8042Y-4.525
X9.8042Y-4.625
X9.8042Y-4.725
X9.8042Y-4.825
X9.8042Y-4.925
X9.8042Y-5.025
X9.8042Y-5.125
X9.8042Y-5.225
X9.8042Y-5.325
X10.4042Y-4.225
X10.4042Y-4.325
X10.4042Y-4.425
X10.4042Y-4.525
X10.4042Y-4.625
X10.4042Y-4.725
X10.4042Y-4.825
X10.4042Y-4.925
X10.4042Y-5.025
X10.4042Y-5.125
X10.4042Y-5.225
X10.4042Y-5.325
T4
X6.6962Y-2.0454
X6.6962Y-2.1832
X6.6962Y-2.321
X6.6962Y-2.4588
X6.6962Y-2.5966
X6.6962Y-2.7344
X6.6962Y-2.8722
X6.6962Y-3.01
X7.4796Y-2.0402
X7.4796Y-2.178
X7.4796Y-2.3158
X7.4796Y-2.4536
X7.4796Y-2.5914
X7.4796Y-2.7292
X7.4796Y-2.867
X7.4796Y-3.0048
T5
X9.9824Y-2.0041
X9.9824Y-2.1695
X9.9824Y-2.3348
X9.9824Y-2.5002
X9.9824Y-2.6655
X9.9824Y-2.8309
X9.9824Y-2.9962
X9.9824Y-3.1616
X9.9824Y-3.3269
X9.9824Y-3.4923
X9.9824Y-3.6576
X9.9824Y-3.823
X10.1989Y-2.0041
X10.1989Y-2.1695
X10.1989Y-2.3348
X10.1989Y-2.5002
X10.1989Y-2.6655
X10.1989Y-2.8309
X10.1989Y-2.9962
X10.1989Y-3.1616
X10.1989Y-3.3269
X10.1989Y-3.4923
X10.1989Y-3.6576
X10.1989Y-3.823
T6
X1.7994Y-2.4306
X1.8246Y-5.1626
X3.5336Y-2.4298
X3.5586Y-5.1794
T7
X1.3486Y-1.9668
X1.6752Y-5.829
X5.291Y-1.9516
X5.9028Y-5.835
X9.4352Y-1.9492
X10.4738Y-5.87
T0
M30
