%TF.GenerationSoftware,KiCad,Pcbnew,(5.1.9)-1*%
%TF.CreationDate,2021-07-06T18:24:39-05:00*%
%TF.ProjectId,GEN 1 PSU CARD,47454e20-3120-4505-9355-20434152442e,rev?*%
%TF.SameCoordinates,Original*%
%TF.FileFunction,Copper,L1,Top*%
%TF.FilePolarity,Positive*%
%FSLAX46Y46*%
G04 Gerber Fmt 4.6, Leading zero omitted, Abs format (unit mm)*
G04 Created by KiCad (PCBNEW (5.1.9)-1) date 2021-07-06 18:24:39*
%MOMM*%
%LPD*%
G01*
G04 APERTURE LIST*
%TA.AperFunction,ComponentPad*%
%ADD10C,9.000000*%
%TD*%
%TA.AperFunction,ComponentPad*%
%ADD11C,2.175000*%
%TD*%
%TA.AperFunction,ComponentPad*%
%ADD12R,2.175000X2.175000*%
%TD*%
%TA.AperFunction,ComponentPad*%
%ADD13C,7.000000*%
%TD*%
%TA.AperFunction,ComponentPad*%
%ADD14C,0.800000*%
%TD*%
%TA.AperFunction,ComponentPad*%
%ADD15C,1.600000*%
%TD*%
%TA.AperFunction,ComponentPad*%
%ADD16R,1.600000X1.600000*%
%TD*%
%TA.AperFunction,ComponentPad*%
%ADD17C,2.400000*%
%TD*%
%TA.AperFunction,ComponentPad*%
%ADD18R,2.400000X2.400000*%
%TD*%
%TA.AperFunction,ViaPad*%
%ADD19C,0.800000*%
%TD*%
%TA.AperFunction,Conductor*%
%ADD20C,0.750000*%
%TD*%
%TA.AperFunction,Conductor*%
%ADD21C,0.254000*%
%TD*%
%TA.AperFunction,Conductor*%
%ADD22C,0.100000*%
%TD*%
G04 APERTURE END LIST*
D10*
%TO.P,REF\u002A\u002A,1*%
%TO.N,N/C*%
X266034520Y-149098000D03*
%TD*%
%TO.P,REF\u002A\u002A,1*%
%TO.N,N/C*%
X239654080Y-49509680D03*
%TD*%
%TO.P,REF\u002A\u002A,1*%
%TO.N,N/C*%
X134391400Y-49570640D03*
%TD*%
%TO.P,REF\u002A\u002A,1*%
%TO.N,N/C*%
X149931120Y-148209000D03*
%TD*%
%TO.P,REF\u002A\u002A,1*%
%TO.N,N/C*%
X34254440Y-49956720D03*
%TD*%
%TO.P,REF\u002A\u002A,1*%
%TO.N,N/C*%
X42550080Y-148056600D03*
%TD*%
D11*
%TO.P,J4,24*%
%TO.N,/GND*%
X259052960Y-50904200D03*
%TO.P,J4,23*%
%TO.N,Net-(J4-Pad23)*%
X253552960Y-50904200D03*
%TO.P,J4,22*%
%TO.N,/5V*%
X259052960Y-55104200D03*
%TO.P,J4,21*%
%TO.N,/12V*%
X253552960Y-55104200D03*
%TO.P,J4,20*%
%TO.N,/5V*%
X259052960Y-59304200D03*
%TO.P,J4,19*%
%TO.N,/12V*%
X253552960Y-59304200D03*
%TO.P,J4,18*%
%TO.N,/5V*%
X259052960Y-63504200D03*
%TO.P,J4,17*%
%TO.N,/5VSB*%
X253552960Y-63504200D03*
%TO.P,J4,16*%
%TO.N,Net-(J4-Pad16)*%
X259052960Y-67704200D03*
%TO.P,J4,15*%
%TO.N,Net-(J4-Pad15)*%
X253552960Y-67704200D03*
%TO.P,J4,14*%
%TO.N,/GND*%
X259052960Y-71904200D03*
%TO.P,J4,13*%
X253552960Y-71904200D03*
%TO.P,J4,12*%
X259052960Y-76104200D03*
%TO.P,J4,11*%
%TO.N,/5V*%
X253552960Y-76104200D03*
%TO.P,J4,10*%
%TO.N,/GND*%
X259052960Y-80304200D03*
%TO.P,J4,9*%
X253552960Y-80304200D03*
%TO.P,J4,8*%
%TO.N,/PS_ON*%
X259052960Y-84504200D03*
%TO.P,J4,7*%
%TO.N,/5V*%
X253552960Y-84504200D03*
%TO.P,J4,6*%
%TO.N,/GND*%
X259052960Y-88704200D03*
%TO.P,J4,5*%
X253552960Y-88704200D03*
%TO.P,J4,4*%
%TO.N,/-12*%
X259052960Y-92904200D03*
%TO.P,J4,3*%
%TO.N,Net-(J4-Pad3)*%
X253552960Y-92904200D03*
%TO.P,J4,2*%
%TO.N,Net-(J4-Pad2)*%
X259052960Y-97104200D03*
D12*
%TO.P,J4,1*%
%TO.N,Net-(J4-Pad1)*%
X253552960Y-97104200D03*
%TD*%
D13*
%TO.P,REF\u002A\u002A,1*%
%TO.N,N/C*%
X90388440Y-131556760D03*
D14*
X93013440Y-131556760D03*
X92244595Y-133412915D03*
X90388440Y-134181760D03*
X88532285Y-133412915D03*
X87763440Y-131556760D03*
X88532285Y-129700605D03*
X90388440Y-128931760D03*
X92244595Y-129700605D03*
%TD*%
D13*
%TO.P,REF\u002A\u002A,1*%
%TO.N,N/C*%
X46344840Y-131130040D03*
D14*
X48969840Y-131130040D03*
X48200995Y-132986195D03*
X46344840Y-133755040D03*
X44488685Y-132986195D03*
X43719840Y-131130040D03*
X44488685Y-129273885D03*
X46344840Y-128505040D03*
X48200995Y-129273885D03*
%TD*%
%TO.P,REF\u002A\u002A,1*%
%TO.N,N/C*%
X91609595Y-59860765D03*
X89753440Y-59091920D03*
X87897285Y-59860765D03*
X87128440Y-61716920D03*
X87897285Y-63573075D03*
X89753440Y-64341920D03*
X91609595Y-63573075D03*
X92378440Y-61716920D03*
D13*
X89753440Y-61716920D03*
%TD*%
D14*
%TO.P,REF\u002A\u002A,1*%
%TO.N,N/C*%
X47560915Y-59881085D03*
X45704760Y-59112240D03*
X43848605Y-59881085D03*
X43079760Y-61737240D03*
X43848605Y-63593395D03*
X45704760Y-64362240D03*
X47560915Y-63593395D03*
X48329760Y-61737240D03*
D13*
X45704760Y-61737240D03*
%TD*%
D15*
%TO.P,U1,24*%
%TO.N,Net-(U1-Pad24)*%
X249026680Y-135255000D03*
%TO.P,U1,23*%
%TO.N,/GND*%
X249026680Y-132715000D03*
%TO.P,U1,22*%
%TO.N,Net-(U1-Pad22)*%
X249026680Y-130175000D03*
%TO.P,U1,21*%
%TO.N,/5VSB*%
X249026680Y-127635000D03*
%TO.P,U1,20*%
%TO.N,Net-(U1-Pad20)*%
X249026680Y-125095000D03*
%TO.P,U1,19*%
%TO.N,Net-(U1-Pad19)*%
X249026680Y-122555000D03*
%TO.P,U1,18*%
%TO.N,Net-(U1-Pad18)*%
X249026680Y-120015000D03*
%TO.P,U1,17*%
%TO.N,Net-(U1-Pad17)*%
X249026680Y-117475000D03*
%TO.P,U1,16*%
%TO.N,Net-(U1-Pad16)*%
X249026680Y-114935000D03*
%TO.P,U1,15*%
%TO.N,Net-(U1-Pad15)*%
X249026680Y-112395000D03*
%TO.P,U1,14*%
%TO.N,Net-(U1-Pad14)*%
X249026680Y-109855000D03*
%TO.P,U1,13*%
%TO.N,Net-(U1-Pad13)*%
X249026680Y-107315000D03*
%TO.P,U1,12*%
%TO.N,Net-(U1-Pad12)*%
X264266680Y-107315000D03*
%TO.P,U1,11*%
%TO.N,Net-(U1-Pad11)*%
X264266680Y-109855000D03*
%TO.P,U1,10*%
%TO.N,Net-(U1-Pad10)*%
X264266680Y-112395000D03*
%TO.P,U1,9*%
%TO.N,/ON-OFF*%
X264266680Y-114935000D03*
%TO.P,U1,8*%
%TO.N,Net-(U1-Pad8)*%
X264266680Y-117475000D03*
%TO.P,U1,7*%
%TO.N,/OS_OFF*%
X264266680Y-120015000D03*
%TO.P,U1,6*%
%TO.N,/PS_ON*%
X264266680Y-122555000D03*
%TO.P,U1,5*%
%TO.N,Net-(U1-Pad5)*%
X264266680Y-125095000D03*
%TO.P,U1,4*%
%TO.N,/GND*%
X264266680Y-127635000D03*
%TO.P,U1,3*%
X264266680Y-130175000D03*
%TO.P,U1,2*%
%TO.N,Net-(U1-Pad2)*%
X264266680Y-132715000D03*
D16*
%TO.P,U1,1*%
%TO.N,Net-(U1-Pad1)*%
X264266680Y-135255000D03*
%TD*%
D17*
%TO.P,J3,8*%
%TO.N,/OS_OFF*%
X170083480Y-51953400D03*
%TO.P,J3,7*%
%TO.N,/5V*%
X170083480Y-55453400D03*
%TO.P,J3,6*%
X170083480Y-58953400D03*
%TO.P,J3,5*%
X170083480Y-62453400D03*
%TO.P,J3,4*%
X170083480Y-65953400D03*
%TO.P,J3,3*%
X170083480Y-69453400D03*
%TO.P,J3,2*%
%TO.N,/12V*%
X170083480Y-72953400D03*
D18*
%TO.P,J3,1*%
X170083480Y-76453400D03*
%TD*%
D17*
%TO.P,J2,8*%
%TO.N,/ON-OFF*%
X189981840Y-51821320D03*
%TO.P,J2,7*%
%TO.N,/-12*%
X189981840Y-55321320D03*
%TO.P,J2,6*%
%TO.N,/GND*%
X189981840Y-58821320D03*
%TO.P,J2,5*%
X189981840Y-62321320D03*
%TO.P,J2,4*%
X189981840Y-65821320D03*
%TO.P,J2,3*%
X189981840Y-69321320D03*
%TO.P,J2,2*%
X189981840Y-72821320D03*
D18*
%TO.P,J2,1*%
X189981840Y-76321320D03*
%TD*%
D19*
%TO.N,/ON-OFF*%
X254289560Y-114411760D03*
%TD*%
D20*
%TO.N,/PS_ON*%
X257390459Y-86166701D02*
X259052960Y-84504200D01*
X257390459Y-115678779D02*
X257390459Y-86166701D01*
X264266680Y-122555000D02*
X257390459Y-115678779D01*
%TO.N,/5VSB*%
X250401681Y-126259999D02*
X255867761Y-126259999D01*
X249026680Y-127635000D02*
X250401681Y-126259999D01*
X255867761Y-126259999D02*
X256153920Y-125973840D01*
X256153920Y-66105160D02*
X253552960Y-63504200D01*
X256153920Y-125973840D02*
X256153920Y-66105160D01*
%TO.N,/ON-OFF*%
X195568002Y-51821320D02*
X251036282Y-107289600D01*
X189981840Y-51821320D02*
X195568002Y-51821320D01*
X251036282Y-107289600D02*
X251036282Y-111158482D01*
X251036282Y-111158482D02*
X254289560Y-114411760D01*
X254289560Y-114411760D02*
X254289560Y-114411760D01*
%TO.N,/OS_OFF*%
X264266680Y-120015000D02*
X266298680Y-122047000D01*
X266298680Y-135858002D02*
X265011922Y-137144760D01*
X266298680Y-122047000D02*
X266298680Y-135858002D01*
X171858481Y-61632963D02*
X171858481Y-53931361D01*
X247370278Y-137144760D02*
X171858481Y-61632963D01*
X265011922Y-137144760D02*
X247370278Y-137144760D01*
X170083480Y-52156360D02*
X170083480Y-51953400D01*
X171858481Y-53931361D02*
X170083480Y-52156360D01*
%TD*%
D21*
%TO.N,/GND*%
X261553488Y-99796407D02*
X258400459Y-99791647D01*
X258400459Y-98698345D01*
X258550525Y-98760505D01*
X258883309Y-98826700D01*
X259222611Y-98826700D01*
X259555395Y-98760505D01*
X259868869Y-98630659D01*
X260150989Y-98442153D01*
X260390913Y-98202229D01*
X260579419Y-97920109D01*
X260709265Y-97606635D01*
X260775460Y-97273851D01*
X260775460Y-96934549D01*
X260709265Y-96601765D01*
X260579419Y-96288291D01*
X260390913Y-96006171D01*
X260150989Y-95766247D01*
X259868869Y-95577741D01*
X259555395Y-95447895D01*
X259222611Y-95381700D01*
X258883309Y-95381700D01*
X258550525Y-95447895D01*
X258400459Y-95510055D01*
X258400459Y-94498345D01*
X258550525Y-94560505D01*
X258883309Y-94626700D01*
X259222611Y-94626700D01*
X259555395Y-94560505D01*
X259868869Y-94430659D01*
X260150989Y-94242153D01*
X260390913Y-94002229D01*
X260579419Y-93720109D01*
X260709265Y-93406635D01*
X260775460Y-93073851D01*
X260775460Y-92734549D01*
X260709265Y-92401765D01*
X260579419Y-92088291D01*
X260390913Y-91806171D01*
X260150989Y-91566247D01*
X259868869Y-91377741D01*
X259555395Y-91247895D01*
X259222611Y-91181700D01*
X258883309Y-91181700D01*
X258550525Y-91247895D01*
X258400459Y-91310055D01*
X258400459Y-90302789D01*
X258445618Y-90324978D01*
X258773485Y-90412322D01*
X259112094Y-90434024D01*
X259448430Y-90389249D01*
X259769567Y-90279719D01*
X259964831Y-90175348D01*
X260071156Y-89902001D01*
X259052960Y-88883805D01*
X259038818Y-88897948D01*
X258859213Y-88718343D01*
X258873355Y-88704200D01*
X259232565Y-88704200D01*
X260250761Y-89722396D01*
X260524108Y-89616071D01*
X260673738Y-89311542D01*
X260761082Y-88983675D01*
X260782784Y-88645066D01*
X260738009Y-88308730D01*
X260628479Y-87987593D01*
X260524108Y-87792329D01*
X260250761Y-87686004D01*
X259232565Y-88704200D01*
X258873355Y-88704200D01*
X258859213Y-88690058D01*
X259038818Y-88510453D01*
X259052960Y-88524595D01*
X260071156Y-87506399D01*
X259964831Y-87233052D01*
X259660302Y-87083422D01*
X259332435Y-86996078D01*
X258993826Y-86974376D01*
X258657490Y-87019151D01*
X258400459Y-87106816D01*
X258400459Y-86585056D01*
X258779470Y-86206045D01*
X258883309Y-86226700D01*
X259222611Y-86226700D01*
X259555395Y-86160505D01*
X259868869Y-86030659D01*
X260150989Y-85842153D01*
X260390913Y-85602229D01*
X260579419Y-85320109D01*
X260709265Y-85006635D01*
X260775460Y-84673851D01*
X260775460Y-84334549D01*
X260709265Y-84001765D01*
X260579419Y-83688291D01*
X260390913Y-83406171D01*
X260150989Y-83166247D01*
X259868869Y-82977741D01*
X259555395Y-82847895D01*
X259222611Y-82781700D01*
X258883309Y-82781700D01*
X258550525Y-82847895D01*
X258237051Y-82977741D01*
X257954931Y-83166247D01*
X257715007Y-83406171D01*
X257526501Y-83688291D01*
X257396655Y-84001765D01*
X257330460Y-84334549D01*
X257330460Y-84673851D01*
X257351115Y-84777690D01*
X257163920Y-84964885D01*
X257163920Y-81502001D01*
X258034764Y-81502001D01*
X258141089Y-81775348D01*
X258445618Y-81924978D01*
X258773485Y-82012322D01*
X259112094Y-82034024D01*
X259448430Y-81989249D01*
X259769567Y-81879719D01*
X259964831Y-81775348D01*
X260071156Y-81502001D01*
X259052960Y-80483805D01*
X258034764Y-81502001D01*
X257163920Y-81502001D01*
X257163920Y-80363334D01*
X257323136Y-80363334D01*
X257367911Y-80699670D01*
X257477441Y-81020807D01*
X257581812Y-81216071D01*
X257855159Y-81322396D01*
X258873355Y-80304200D01*
X259232565Y-80304200D01*
X260250761Y-81322396D01*
X260524108Y-81216071D01*
X260673738Y-80911542D01*
X260761082Y-80583675D01*
X260782784Y-80245066D01*
X260738009Y-79908730D01*
X260628479Y-79587593D01*
X260524108Y-79392329D01*
X260250761Y-79286004D01*
X259232565Y-80304200D01*
X258873355Y-80304200D01*
X257855159Y-79286004D01*
X257581812Y-79392329D01*
X257432182Y-79696858D01*
X257344838Y-80024725D01*
X257323136Y-80363334D01*
X257163920Y-80363334D01*
X257163920Y-79106399D01*
X258034764Y-79106399D01*
X259052960Y-80124595D01*
X260071156Y-79106399D01*
X259964831Y-78833052D01*
X259660302Y-78683422D01*
X259332435Y-78596078D01*
X258993826Y-78574376D01*
X258657490Y-78619151D01*
X258336353Y-78728681D01*
X258141089Y-78833052D01*
X258034764Y-79106399D01*
X257163920Y-79106399D01*
X257163920Y-77302001D01*
X258034764Y-77302001D01*
X258141089Y-77575348D01*
X258445618Y-77724978D01*
X258773485Y-77812322D01*
X259112094Y-77834024D01*
X259448430Y-77789249D01*
X259769567Y-77679719D01*
X259964831Y-77575348D01*
X260071156Y-77302001D01*
X259052960Y-76283805D01*
X258034764Y-77302001D01*
X257163920Y-77302001D01*
X257163920Y-76163334D01*
X257323136Y-76163334D01*
X257367911Y-76499670D01*
X257477441Y-76820807D01*
X257581812Y-77016071D01*
X257855159Y-77122396D01*
X258873355Y-76104200D01*
X259232565Y-76104200D01*
X260250761Y-77122396D01*
X260524108Y-77016071D01*
X260673738Y-76711542D01*
X260761082Y-76383675D01*
X260782784Y-76045066D01*
X260738009Y-75708730D01*
X260628479Y-75387593D01*
X260524108Y-75192329D01*
X260250761Y-75086004D01*
X259232565Y-76104200D01*
X258873355Y-76104200D01*
X257855159Y-75086004D01*
X257581812Y-75192329D01*
X257432182Y-75496858D01*
X257344838Y-75824725D01*
X257323136Y-76163334D01*
X257163920Y-76163334D01*
X257163920Y-74906399D01*
X258034764Y-74906399D01*
X259052960Y-75924595D01*
X260071156Y-74906399D01*
X259964831Y-74633052D01*
X259660302Y-74483422D01*
X259332435Y-74396078D01*
X258993826Y-74374376D01*
X258657490Y-74419151D01*
X258336353Y-74528681D01*
X258141089Y-74633052D01*
X258034764Y-74906399D01*
X257163920Y-74906399D01*
X257163920Y-73102001D01*
X258034764Y-73102001D01*
X258141089Y-73375348D01*
X258445618Y-73524978D01*
X258773485Y-73612322D01*
X259112094Y-73634024D01*
X259448430Y-73589249D01*
X259769567Y-73479719D01*
X259964831Y-73375348D01*
X260071156Y-73102001D01*
X259052960Y-72083805D01*
X258034764Y-73102001D01*
X257163920Y-73102001D01*
X257163920Y-71963334D01*
X257323136Y-71963334D01*
X257367911Y-72299670D01*
X257477441Y-72620807D01*
X257581812Y-72816071D01*
X257855159Y-72922396D01*
X258873355Y-71904200D01*
X259232565Y-71904200D01*
X260250761Y-72922396D01*
X260524108Y-72816071D01*
X260673738Y-72511542D01*
X260761082Y-72183675D01*
X260782784Y-71845066D01*
X260738009Y-71508730D01*
X260628479Y-71187593D01*
X260524108Y-70992329D01*
X260250761Y-70886004D01*
X259232565Y-71904200D01*
X258873355Y-71904200D01*
X257855159Y-70886004D01*
X257581812Y-70992329D01*
X257432182Y-71296858D01*
X257344838Y-71624725D01*
X257323136Y-71963334D01*
X257163920Y-71963334D01*
X257163920Y-70706399D01*
X258034764Y-70706399D01*
X259052960Y-71724595D01*
X260071156Y-70706399D01*
X259964831Y-70433052D01*
X259660302Y-70283422D01*
X259332435Y-70196078D01*
X258993826Y-70174376D01*
X258657490Y-70219151D01*
X258336353Y-70328681D01*
X258141089Y-70433052D01*
X258034764Y-70706399D01*
X257163920Y-70706399D01*
X257163920Y-67534549D01*
X257330460Y-67534549D01*
X257330460Y-67873851D01*
X257396655Y-68206635D01*
X257526501Y-68520109D01*
X257715007Y-68802229D01*
X257954931Y-69042153D01*
X258237051Y-69230659D01*
X258550525Y-69360505D01*
X258883309Y-69426700D01*
X259222611Y-69426700D01*
X259555395Y-69360505D01*
X259868869Y-69230659D01*
X260150989Y-69042153D01*
X260390913Y-68802229D01*
X260579419Y-68520109D01*
X260709265Y-68206635D01*
X260775460Y-67873851D01*
X260775460Y-67534549D01*
X260709265Y-67201765D01*
X260579419Y-66888291D01*
X260390913Y-66606171D01*
X260150989Y-66366247D01*
X259868869Y-66177741D01*
X259555395Y-66047895D01*
X259222611Y-65981700D01*
X258883309Y-65981700D01*
X258550525Y-66047895D01*
X258237051Y-66177741D01*
X257954931Y-66366247D01*
X257715007Y-66606171D01*
X257526501Y-66888291D01*
X257396655Y-67201765D01*
X257330460Y-67534549D01*
X257163920Y-67534549D01*
X257163920Y-66154768D01*
X257168806Y-66105160D01*
X257149305Y-65907165D01*
X257091552Y-65716780D01*
X256997766Y-65541319D01*
X256903176Y-65426060D01*
X256871553Y-65387527D01*
X256833020Y-65355904D01*
X255254805Y-63777690D01*
X255275460Y-63673851D01*
X255275460Y-63334549D01*
X257330460Y-63334549D01*
X257330460Y-63673851D01*
X257396655Y-64006635D01*
X257526501Y-64320109D01*
X257715007Y-64602229D01*
X257954931Y-64842153D01*
X258237051Y-65030659D01*
X258550525Y-65160505D01*
X258883309Y-65226700D01*
X259222611Y-65226700D01*
X259555395Y-65160505D01*
X259868869Y-65030659D01*
X260150989Y-64842153D01*
X260390913Y-64602229D01*
X260579419Y-64320109D01*
X260709265Y-64006635D01*
X260775460Y-63673851D01*
X260775460Y-63334549D01*
X260709265Y-63001765D01*
X260579419Y-62688291D01*
X260390913Y-62406171D01*
X260150989Y-62166247D01*
X259868869Y-61977741D01*
X259555395Y-61847895D01*
X259222611Y-61781700D01*
X258883309Y-61781700D01*
X258550525Y-61847895D01*
X258237051Y-61977741D01*
X257954931Y-62166247D01*
X257715007Y-62406171D01*
X257526501Y-62688291D01*
X257396655Y-63001765D01*
X257330460Y-63334549D01*
X255275460Y-63334549D01*
X255209265Y-63001765D01*
X255079419Y-62688291D01*
X254890913Y-62406171D01*
X254650989Y-62166247D01*
X254368869Y-61977741D01*
X254055395Y-61847895D01*
X253722611Y-61781700D01*
X253383309Y-61781700D01*
X253050525Y-61847895D01*
X252737051Y-61977741D01*
X252454931Y-62166247D01*
X252215007Y-62406171D01*
X252026501Y-62688291D01*
X251896655Y-63001765D01*
X251830460Y-63334549D01*
X251830460Y-63673851D01*
X251896655Y-64006635D01*
X252026501Y-64320109D01*
X252215007Y-64602229D01*
X252454931Y-64842153D01*
X252737051Y-65030659D01*
X253050525Y-65160505D01*
X253383309Y-65226700D01*
X253722611Y-65226700D01*
X253826450Y-65206045D01*
X255143921Y-66523517D01*
X255143921Y-67044012D01*
X255079419Y-66888291D01*
X254890913Y-66606171D01*
X254650989Y-66366247D01*
X254368869Y-66177741D01*
X254055395Y-66047895D01*
X253722611Y-65981700D01*
X253383309Y-65981700D01*
X253050525Y-66047895D01*
X252737051Y-66177741D01*
X252454931Y-66366247D01*
X252215007Y-66606171D01*
X252026501Y-66888291D01*
X251896655Y-67201765D01*
X251830460Y-67534549D01*
X251830460Y-67873851D01*
X251896655Y-68206635D01*
X252026501Y-68520109D01*
X252215007Y-68802229D01*
X252454931Y-69042153D01*
X252737051Y-69230659D01*
X253050525Y-69360505D01*
X253383309Y-69426700D01*
X253722611Y-69426700D01*
X254055395Y-69360505D01*
X254368869Y-69230659D01*
X254650989Y-69042153D01*
X254890913Y-68802229D01*
X255079419Y-68520109D01*
X255143921Y-68364388D01*
X255143921Y-71232868D01*
X255128479Y-71187593D01*
X255024108Y-70992329D01*
X254750761Y-70886004D01*
X253732565Y-71904200D01*
X254750761Y-72922396D01*
X255024108Y-72816071D01*
X255143921Y-72572226D01*
X255143921Y-75444011D01*
X255079419Y-75288291D01*
X254890913Y-75006171D01*
X254650989Y-74766247D01*
X254368869Y-74577741D01*
X254055395Y-74447895D01*
X253722611Y-74381700D01*
X253383309Y-74381700D01*
X253050525Y-74447895D01*
X252737051Y-74577741D01*
X252454931Y-74766247D01*
X252215007Y-75006171D01*
X252026501Y-75288291D01*
X251896655Y-75601765D01*
X251830460Y-75934549D01*
X251830460Y-76273851D01*
X251896655Y-76606635D01*
X252026501Y-76920109D01*
X252215007Y-77202229D01*
X252454931Y-77442153D01*
X252737051Y-77630659D01*
X253050525Y-77760505D01*
X253383309Y-77826700D01*
X253722611Y-77826700D01*
X254055395Y-77760505D01*
X254368869Y-77630659D01*
X254650989Y-77442153D01*
X254890913Y-77202229D01*
X255079419Y-76920109D01*
X255143921Y-76764389D01*
X255143921Y-79632868D01*
X255128479Y-79587593D01*
X255024108Y-79392329D01*
X254750761Y-79286004D01*
X253732565Y-80304200D01*
X254750761Y-81322396D01*
X255024108Y-81216071D01*
X255143921Y-80972226D01*
X255143921Y-83844011D01*
X255079419Y-83688291D01*
X254890913Y-83406171D01*
X254650989Y-83166247D01*
X254368869Y-82977741D01*
X254055395Y-82847895D01*
X253722611Y-82781700D01*
X253383309Y-82781700D01*
X253050525Y-82847895D01*
X252737051Y-82977741D01*
X252454931Y-83166247D01*
X252215007Y-83406171D01*
X252026501Y-83688291D01*
X251896655Y-84001765D01*
X251830460Y-84334549D01*
X251830460Y-84673851D01*
X251896655Y-85006635D01*
X252026501Y-85320109D01*
X252215007Y-85602229D01*
X252454931Y-85842153D01*
X252737051Y-86030659D01*
X253050525Y-86160505D01*
X253383309Y-86226700D01*
X253722611Y-86226700D01*
X254055395Y-86160505D01*
X254368869Y-86030659D01*
X254650989Y-85842153D01*
X254890913Y-85602229D01*
X255079419Y-85320109D01*
X255143921Y-85164389D01*
X255143921Y-88032867D01*
X255128479Y-87987593D01*
X255024108Y-87792329D01*
X254750761Y-87686004D01*
X253732565Y-88704200D01*
X254750761Y-89722396D01*
X255024108Y-89616071D01*
X255143921Y-89372227D01*
X255143921Y-92244011D01*
X255079419Y-92088291D01*
X254890913Y-91806171D01*
X254650989Y-91566247D01*
X254368869Y-91377741D01*
X254055395Y-91247895D01*
X253722611Y-91181700D01*
X253383309Y-91181700D01*
X253050525Y-91247895D01*
X252737051Y-91377741D01*
X252454931Y-91566247D01*
X252215007Y-91806171D01*
X252026501Y-92088291D01*
X251896655Y-92401765D01*
X251830460Y-92734549D01*
X251830460Y-93073851D01*
X251896655Y-93406635D01*
X252026501Y-93720109D01*
X252215007Y-94002229D01*
X252454931Y-94242153D01*
X252737051Y-94430659D01*
X253050525Y-94560505D01*
X253383309Y-94626700D01*
X253722611Y-94626700D01*
X254055395Y-94560505D01*
X254368869Y-94430659D01*
X254650989Y-94242153D01*
X254890913Y-94002229D01*
X255079419Y-93720109D01*
X255143921Y-93564389D01*
X255143921Y-95629213D01*
X255091645Y-95565515D01*
X254994954Y-95486163D01*
X254884640Y-95427198D01*
X254764942Y-95390888D01*
X254640460Y-95378628D01*
X252465460Y-95378628D01*
X252340978Y-95390888D01*
X252221280Y-95427198D01*
X252110966Y-95486163D01*
X252014275Y-95565515D01*
X251934923Y-95662206D01*
X251875958Y-95772520D01*
X251839648Y-95892218D01*
X251827388Y-96016700D01*
X251827388Y-98191700D01*
X251839648Y-98316182D01*
X251875958Y-98435880D01*
X251934923Y-98546194D01*
X252014275Y-98642885D01*
X252110966Y-98722237D01*
X252221280Y-98781202D01*
X252340978Y-98817512D01*
X252465460Y-98829772D01*
X254640460Y-98829772D01*
X254764942Y-98817512D01*
X254884640Y-98781202D01*
X254994954Y-98722237D01*
X255091645Y-98642885D01*
X255143920Y-98579187D01*
X255143920Y-99786730D01*
X251714121Y-99781552D01*
X251723556Y-89902001D01*
X252534764Y-89902001D01*
X252641089Y-90175348D01*
X252945618Y-90324978D01*
X253273485Y-90412322D01*
X253612094Y-90434024D01*
X253948430Y-90389249D01*
X254269567Y-90279719D01*
X254464831Y-90175348D01*
X254571156Y-89902001D01*
X253552960Y-88883805D01*
X252534764Y-89902001D01*
X251723556Y-89902001D01*
X251724644Y-88763334D01*
X251823136Y-88763334D01*
X251867911Y-89099670D01*
X251977441Y-89420807D01*
X252081812Y-89616071D01*
X252355159Y-89722396D01*
X253373355Y-88704200D01*
X252355159Y-87686004D01*
X252081812Y-87792329D01*
X251932182Y-88096858D01*
X251844838Y-88424725D01*
X251823136Y-88763334D01*
X251724644Y-88763334D01*
X251725844Y-87506399D01*
X252534764Y-87506399D01*
X253552960Y-88524595D01*
X254571156Y-87506399D01*
X254464831Y-87233052D01*
X254160302Y-87083422D01*
X253832435Y-86996078D01*
X253493826Y-86974376D01*
X253157490Y-87019151D01*
X252836353Y-87128681D01*
X252641089Y-87233052D01*
X252534764Y-87506399D01*
X251725844Y-87506399D01*
X251731579Y-81502001D01*
X252534764Y-81502001D01*
X252641089Y-81775348D01*
X252945618Y-81924978D01*
X253273485Y-82012322D01*
X253612094Y-82034024D01*
X253948430Y-81989249D01*
X254269567Y-81879719D01*
X254464831Y-81775348D01*
X254571156Y-81502001D01*
X253552960Y-80483805D01*
X252534764Y-81502001D01*
X251731579Y-81502001D01*
X251732667Y-80363334D01*
X251823136Y-80363334D01*
X251867911Y-80699670D01*
X251977441Y-81020807D01*
X252081812Y-81216071D01*
X252355159Y-81322396D01*
X253373355Y-80304200D01*
X252355159Y-79286004D01*
X252081812Y-79392329D01*
X251932182Y-79696858D01*
X251844838Y-80024725D01*
X251823136Y-80363334D01*
X251732667Y-80363334D01*
X251733868Y-79106399D01*
X252534764Y-79106399D01*
X253552960Y-80124595D01*
X254571156Y-79106399D01*
X254464831Y-78833052D01*
X254160302Y-78683422D01*
X253832435Y-78596078D01*
X253493826Y-78574376D01*
X253157490Y-78619151D01*
X252836353Y-78728681D01*
X252641089Y-78833052D01*
X252534764Y-79106399D01*
X251733868Y-79106399D01*
X251734320Y-78633441D01*
X251731903Y-78608663D01*
X251724699Y-78584831D01*
X251712984Y-78562863D01*
X251697208Y-78543603D01*
X251677978Y-78527791D01*
X251656033Y-78516034D01*
X251632215Y-78508784D01*
X251607252Y-78506320D01*
X223696352Y-78521314D01*
X218277039Y-73102001D01*
X252534764Y-73102001D01*
X252641089Y-73375348D01*
X252945618Y-73524978D01*
X253273485Y-73612322D01*
X253612094Y-73634024D01*
X253948430Y-73589249D01*
X254269567Y-73479719D01*
X254464831Y-73375348D01*
X254571156Y-73102001D01*
X253552960Y-72083805D01*
X252534764Y-73102001D01*
X218277039Y-73102001D01*
X217138372Y-71963334D01*
X251823136Y-71963334D01*
X251867911Y-72299670D01*
X251977441Y-72620807D01*
X252081812Y-72816071D01*
X252355159Y-72922396D01*
X253373355Y-71904200D01*
X252355159Y-70886004D01*
X252081812Y-70992329D01*
X251932182Y-71296858D01*
X251844838Y-71624725D01*
X251823136Y-71963334D01*
X217138372Y-71963334D01*
X215881437Y-70706399D01*
X252534764Y-70706399D01*
X253552960Y-71724595D01*
X254571156Y-70706399D01*
X254464831Y-70433052D01*
X254160302Y-70283422D01*
X253832435Y-70196078D01*
X253493826Y-70174376D01*
X253157490Y-70219151D01*
X252836353Y-70328681D01*
X252641089Y-70433052D01*
X252534764Y-70706399D01*
X215881437Y-70706399D01*
X204309587Y-59134549D01*
X251830460Y-59134549D01*
X251830460Y-59473851D01*
X251896655Y-59806635D01*
X252026501Y-60120109D01*
X252215007Y-60402229D01*
X252454931Y-60642153D01*
X252737051Y-60830659D01*
X253050525Y-60960505D01*
X253383309Y-61026700D01*
X253722611Y-61026700D01*
X254055395Y-60960505D01*
X254368869Y-60830659D01*
X254650989Y-60642153D01*
X254890913Y-60402229D01*
X255079419Y-60120109D01*
X255209265Y-59806635D01*
X255275460Y-59473851D01*
X255275460Y-59134549D01*
X257330460Y-59134549D01*
X257330460Y-59473851D01*
X257396655Y-59806635D01*
X257526501Y-60120109D01*
X257715007Y-60402229D01*
X257954931Y-60642153D01*
X258237051Y-60830659D01*
X258550525Y-60960505D01*
X258883309Y-61026700D01*
X259222611Y-61026700D01*
X259555395Y-60960505D01*
X259868869Y-60830659D01*
X260150989Y-60642153D01*
X260390913Y-60402229D01*
X260579419Y-60120109D01*
X260709265Y-59806635D01*
X260775460Y-59473851D01*
X260775460Y-59134549D01*
X260709265Y-58801765D01*
X260579419Y-58488291D01*
X260390913Y-58206171D01*
X260150989Y-57966247D01*
X259868869Y-57777741D01*
X259555395Y-57647895D01*
X259222611Y-57581700D01*
X258883309Y-57581700D01*
X258550525Y-57647895D01*
X258237051Y-57777741D01*
X257954931Y-57966247D01*
X257715007Y-58206171D01*
X257526501Y-58488291D01*
X257396655Y-58801765D01*
X257330460Y-59134549D01*
X255275460Y-59134549D01*
X255209265Y-58801765D01*
X255079419Y-58488291D01*
X254890913Y-58206171D01*
X254650989Y-57966247D01*
X254368869Y-57777741D01*
X254055395Y-57647895D01*
X253722611Y-57581700D01*
X253383309Y-57581700D01*
X253050525Y-57647895D01*
X252737051Y-57777741D01*
X252454931Y-57966247D01*
X252215007Y-58206171D01*
X252026501Y-58488291D01*
X251896655Y-58801765D01*
X251830460Y-59134549D01*
X204309587Y-59134549D01*
X196317263Y-51142226D01*
X196285635Y-51103687D01*
X196131842Y-50977473D01*
X195956382Y-50883688D01*
X195765996Y-50825935D01*
X195617610Y-50811320D01*
X195568002Y-50806434D01*
X195518394Y-50811320D01*
X191513916Y-50811320D01*
X191407178Y-50651576D01*
X191151584Y-50395982D01*
X190851039Y-50195164D01*
X190517090Y-50056838D01*
X190162572Y-49986320D01*
X189801108Y-49986320D01*
X189446590Y-50056838D01*
X189112641Y-50195164D01*
X188812096Y-50395982D01*
X188556502Y-50651576D01*
X188355684Y-50952121D01*
X188217358Y-51286070D01*
X188146840Y-51640588D01*
X188146840Y-52002052D01*
X188217358Y-52356570D01*
X188355684Y-52690519D01*
X188556502Y-52991064D01*
X188812096Y-53246658D01*
X189112641Y-53447476D01*
X189411627Y-53571320D01*
X189112641Y-53695164D01*
X188812096Y-53895982D01*
X188556502Y-54151576D01*
X188355684Y-54452121D01*
X188217358Y-54786070D01*
X188146840Y-55140588D01*
X188146840Y-55502052D01*
X188217358Y-55856570D01*
X188355684Y-56190519D01*
X188556502Y-56491064D01*
X188812096Y-56746658D01*
X189112641Y-56947476D01*
X189419329Y-57074510D01*
X189226007Y-57139474D01*
X189003354Y-57258484D01*
X188883466Y-57543340D01*
X189981840Y-58641715D01*
X191080214Y-57543340D01*
X190960326Y-57258484D01*
X190636630Y-57097621D01*
X190547150Y-57073351D01*
X190851039Y-56947476D01*
X191151584Y-56746658D01*
X191407178Y-56491064D01*
X191607996Y-56190519D01*
X191746322Y-55856570D01*
X191816840Y-55502052D01*
X191816840Y-55140588D01*
X191746322Y-54786070D01*
X191607996Y-54452121D01*
X191407178Y-54151576D01*
X191151584Y-53895982D01*
X190851039Y-53695164D01*
X190552053Y-53571320D01*
X190851039Y-53447476D01*
X191151584Y-53246658D01*
X191407178Y-52991064D01*
X191513916Y-52831320D01*
X195149647Y-52831320D01*
X220841175Y-78522848D01*
X190193187Y-78539313D01*
X189753142Y-78099268D01*
X189854840Y-77997570D01*
X189854840Y-76448320D01*
X190108840Y-76448320D01*
X190108840Y-77997570D01*
X190267590Y-78156320D01*
X191181840Y-78159392D01*
X191306322Y-78147132D01*
X191426020Y-78110822D01*
X191536334Y-78051857D01*
X191633025Y-77972505D01*
X191712377Y-77875814D01*
X191771342Y-77765500D01*
X191807652Y-77645802D01*
X191819912Y-77521320D01*
X191816840Y-76607070D01*
X191658090Y-76448320D01*
X190108840Y-76448320D01*
X189854840Y-76448320D01*
X188305590Y-76448320D01*
X188203892Y-76550018D01*
X186775194Y-75121320D01*
X188143768Y-75121320D01*
X188146840Y-76035570D01*
X188305590Y-76194320D01*
X189854840Y-76194320D01*
X189854840Y-76174320D01*
X190108840Y-76174320D01*
X190108840Y-76194320D01*
X191658090Y-76194320D01*
X191816840Y-76035570D01*
X191819912Y-75121320D01*
X191807652Y-74996838D01*
X191771342Y-74877140D01*
X191712377Y-74766826D01*
X191633025Y-74670135D01*
X191536334Y-74590783D01*
X191426020Y-74531818D01*
X191306322Y-74495508D01*
X191181840Y-74483248D01*
X190772363Y-74484624D01*
X190960326Y-74384156D01*
X191080214Y-74099300D01*
X189981840Y-73000925D01*
X188883466Y-74099300D01*
X189003354Y-74384156D01*
X189205617Y-74484672D01*
X188781840Y-74483248D01*
X188657358Y-74495508D01*
X188537660Y-74531818D01*
X188427346Y-74590783D01*
X188330655Y-74670135D01*
X188251303Y-74766826D01*
X188192338Y-74877140D01*
X188156028Y-74996838D01*
X188143768Y-75121320D01*
X186775194Y-75121320D01*
X184529878Y-72876004D01*
X188138773Y-72876004D01*
X188184855Y-73234518D01*
X188299994Y-73577153D01*
X188419004Y-73799806D01*
X188703860Y-73919694D01*
X189802235Y-72821320D01*
X190161445Y-72821320D01*
X191259820Y-73919694D01*
X191544676Y-73799806D01*
X191705539Y-73476110D01*
X191800162Y-73127251D01*
X191824907Y-72766636D01*
X191778825Y-72408122D01*
X191663686Y-72065487D01*
X191544676Y-71842834D01*
X191259820Y-71722946D01*
X190161445Y-72821320D01*
X189802235Y-72821320D01*
X188703860Y-71722946D01*
X188419004Y-71842834D01*
X188258141Y-72166530D01*
X188163518Y-72515389D01*
X188138773Y-72876004D01*
X184529878Y-72876004D01*
X182253174Y-70599300D01*
X188883466Y-70599300D01*
X189003354Y-70884156D01*
X189327050Y-71045019D01*
X189426676Y-71072041D01*
X189226007Y-71139474D01*
X189003354Y-71258484D01*
X188883466Y-71543340D01*
X189981840Y-72641715D01*
X191080214Y-71543340D01*
X190960326Y-71258484D01*
X190636630Y-71097621D01*
X190537004Y-71070599D01*
X190737673Y-71003166D01*
X190960326Y-70884156D01*
X191080214Y-70599300D01*
X189981840Y-69500925D01*
X188883466Y-70599300D01*
X182253174Y-70599300D01*
X181029878Y-69376004D01*
X188138773Y-69376004D01*
X188184855Y-69734518D01*
X188299994Y-70077153D01*
X188419004Y-70299806D01*
X188703860Y-70419694D01*
X189802235Y-69321320D01*
X190161445Y-69321320D01*
X191259820Y-70419694D01*
X191544676Y-70299806D01*
X191705539Y-69976110D01*
X191800162Y-69627251D01*
X191824907Y-69266636D01*
X191778825Y-68908122D01*
X191663686Y-68565487D01*
X191544676Y-68342834D01*
X191259820Y-68222946D01*
X190161445Y-69321320D01*
X189802235Y-69321320D01*
X188703860Y-68222946D01*
X188419004Y-68342834D01*
X188258141Y-68666530D01*
X188163518Y-69015389D01*
X188138773Y-69376004D01*
X181029878Y-69376004D01*
X178753174Y-67099300D01*
X188883466Y-67099300D01*
X189003354Y-67384156D01*
X189327050Y-67545019D01*
X189426676Y-67572041D01*
X189226007Y-67639474D01*
X189003354Y-67758484D01*
X188883466Y-68043340D01*
X189981840Y-69141715D01*
X191080214Y-68043340D01*
X190960326Y-67758484D01*
X190636630Y-67597621D01*
X190537004Y-67570599D01*
X190737673Y-67503166D01*
X190960326Y-67384156D01*
X191080214Y-67099300D01*
X189981840Y-66000925D01*
X188883466Y-67099300D01*
X178753174Y-67099300D01*
X177529878Y-65876004D01*
X188138773Y-65876004D01*
X188184855Y-66234518D01*
X188299994Y-66577153D01*
X188419004Y-66799806D01*
X188703860Y-66919694D01*
X189802235Y-65821320D01*
X190161445Y-65821320D01*
X191259820Y-66919694D01*
X191544676Y-66799806D01*
X191705539Y-66476110D01*
X191800162Y-66127251D01*
X191824907Y-65766636D01*
X191778825Y-65408122D01*
X191663686Y-65065487D01*
X191544676Y-64842834D01*
X191259820Y-64722946D01*
X190161445Y-65821320D01*
X189802235Y-65821320D01*
X188703860Y-64722946D01*
X188419004Y-64842834D01*
X188258141Y-65166530D01*
X188163518Y-65515389D01*
X188138773Y-65876004D01*
X177529878Y-65876004D01*
X175253174Y-63599300D01*
X188883466Y-63599300D01*
X189003354Y-63884156D01*
X189327050Y-64045019D01*
X189426676Y-64072041D01*
X189226007Y-64139474D01*
X189003354Y-64258484D01*
X188883466Y-64543340D01*
X189981840Y-65641715D01*
X191080214Y-64543340D01*
X190960326Y-64258484D01*
X190636630Y-64097621D01*
X190537004Y-64070599D01*
X190737673Y-64003166D01*
X190960326Y-63884156D01*
X191080214Y-63599300D01*
X189981840Y-62500925D01*
X188883466Y-63599300D01*
X175253174Y-63599300D01*
X174029878Y-62376004D01*
X188138773Y-62376004D01*
X188184855Y-62734518D01*
X188299994Y-63077153D01*
X188419004Y-63299806D01*
X188703860Y-63419694D01*
X189802235Y-62321320D01*
X190161445Y-62321320D01*
X191259820Y-63419694D01*
X191544676Y-63299806D01*
X191705539Y-62976110D01*
X191800162Y-62627251D01*
X191824907Y-62266636D01*
X191778825Y-61908122D01*
X191663686Y-61565487D01*
X191544676Y-61342834D01*
X191259820Y-61222946D01*
X190161445Y-62321320D01*
X189802235Y-62321320D01*
X188703860Y-61222946D01*
X188419004Y-61342834D01*
X188258141Y-61666530D01*
X188163518Y-62015389D01*
X188138773Y-62376004D01*
X174029878Y-62376004D01*
X172868481Y-61214608D01*
X172868481Y-60099300D01*
X188883466Y-60099300D01*
X189003354Y-60384156D01*
X189327050Y-60545019D01*
X189426676Y-60572041D01*
X189226007Y-60639474D01*
X189003354Y-60758484D01*
X188883466Y-61043340D01*
X189981840Y-62141715D01*
X191080214Y-61043340D01*
X190960326Y-60758484D01*
X190636630Y-60597621D01*
X190537004Y-60570599D01*
X190737673Y-60503166D01*
X190960326Y-60384156D01*
X191080214Y-60099300D01*
X189981840Y-59000925D01*
X188883466Y-60099300D01*
X172868481Y-60099300D01*
X172868481Y-58876004D01*
X188138773Y-58876004D01*
X188184855Y-59234518D01*
X188299994Y-59577153D01*
X188419004Y-59799806D01*
X188703860Y-59919694D01*
X189802235Y-58821320D01*
X190161445Y-58821320D01*
X191259820Y-59919694D01*
X191544676Y-59799806D01*
X191705539Y-59476110D01*
X191800162Y-59127251D01*
X191824907Y-58766636D01*
X191778825Y-58408122D01*
X191663686Y-58065487D01*
X191544676Y-57842834D01*
X191259820Y-57722946D01*
X190161445Y-58821320D01*
X189802235Y-58821320D01*
X188703860Y-57722946D01*
X188419004Y-57842834D01*
X188258141Y-58166530D01*
X188163518Y-58515389D01*
X188138773Y-58876004D01*
X172868481Y-58876004D01*
X172868481Y-53980958D01*
X172873366Y-53931360D01*
X172868481Y-53881762D01*
X172868481Y-53881753D01*
X172853866Y-53733367D01*
X172796113Y-53542981D01*
X172702328Y-53367521D01*
X172576114Y-53213728D01*
X172537580Y-53182105D01*
X171846838Y-52491363D01*
X171847962Y-52488650D01*
X171918480Y-52134132D01*
X171918480Y-51772668D01*
X171847962Y-51418150D01*
X171709636Y-51084201D01*
X171508818Y-50783656D01*
X171253224Y-50528062D01*
X170952679Y-50327244D01*
X170618730Y-50188918D01*
X170264212Y-50118400D01*
X169902748Y-50118400D01*
X169548230Y-50188918D01*
X169214281Y-50327244D01*
X168913736Y-50528062D01*
X168658142Y-50783656D01*
X168457324Y-51084201D01*
X168318998Y-51418150D01*
X168248480Y-51772668D01*
X168248480Y-52134132D01*
X168318998Y-52488650D01*
X168457324Y-52822599D01*
X168658142Y-53123144D01*
X168913736Y-53378738D01*
X169214281Y-53579556D01*
X169513267Y-53703400D01*
X169214281Y-53827244D01*
X168913736Y-54028062D01*
X168658142Y-54283656D01*
X168457324Y-54584201D01*
X168318998Y-54918150D01*
X168248480Y-55272668D01*
X168248480Y-55634132D01*
X168318998Y-55988650D01*
X168457324Y-56322599D01*
X168658142Y-56623144D01*
X168913736Y-56878738D01*
X169214281Y-57079556D01*
X169513267Y-57203400D01*
X169214281Y-57327244D01*
X168913736Y-57528062D01*
X168658142Y-57783656D01*
X168457324Y-58084201D01*
X168318998Y-58418150D01*
X168248480Y-58772668D01*
X168248480Y-59134132D01*
X168318998Y-59488650D01*
X168457324Y-59822599D01*
X168658142Y-60123144D01*
X168913736Y-60378738D01*
X169214281Y-60579556D01*
X169513267Y-60703400D01*
X169214281Y-60827244D01*
X168913736Y-61028062D01*
X168658142Y-61283656D01*
X168457324Y-61584201D01*
X168318998Y-61918150D01*
X168248480Y-62272668D01*
X168248480Y-62634132D01*
X168318998Y-62988650D01*
X168457324Y-63322599D01*
X168658142Y-63623144D01*
X168913736Y-63878738D01*
X169214281Y-64079556D01*
X169513267Y-64203400D01*
X169214281Y-64327244D01*
X168913736Y-64528062D01*
X168658142Y-64783656D01*
X168457324Y-65084201D01*
X168318998Y-65418150D01*
X168248480Y-65772668D01*
X168248480Y-66134132D01*
X168318998Y-66488650D01*
X168457324Y-66822599D01*
X168658142Y-67123144D01*
X168913736Y-67378738D01*
X169214281Y-67579556D01*
X169513267Y-67703400D01*
X169214281Y-67827244D01*
X168913736Y-68028062D01*
X168658142Y-68283656D01*
X168457324Y-68584201D01*
X168318998Y-68918150D01*
X168248480Y-69272668D01*
X168248480Y-69634132D01*
X168318998Y-69988650D01*
X168457324Y-70322599D01*
X168658142Y-70623144D01*
X168913736Y-70878738D01*
X169214281Y-71079556D01*
X169513267Y-71203400D01*
X169214281Y-71327244D01*
X168913736Y-71528062D01*
X168658142Y-71783656D01*
X168457324Y-72084201D01*
X168318998Y-72418150D01*
X168248480Y-72772668D01*
X168248480Y-73134132D01*
X168318998Y-73488650D01*
X168457324Y-73822599D01*
X168658142Y-74123144D01*
X168913736Y-74378738D01*
X169214281Y-74579556D01*
X169300642Y-74615328D01*
X168883480Y-74615328D01*
X168758998Y-74627588D01*
X168639300Y-74663898D01*
X168528986Y-74722863D01*
X168432295Y-74802215D01*
X168352943Y-74898906D01*
X168293978Y-75009220D01*
X168257668Y-75128918D01*
X168245408Y-75253400D01*
X168245408Y-77653400D01*
X168257668Y-77777882D01*
X168293978Y-77897580D01*
X168352943Y-78007894D01*
X168432295Y-78104585D01*
X168528986Y-78183937D01*
X168639300Y-78242902D01*
X168758998Y-78279212D01*
X168883480Y-78291472D01*
X171283480Y-78291472D01*
X171407962Y-78279212D01*
X171527660Y-78242902D01*
X171637974Y-78183937D01*
X171734665Y-78104585D01*
X171814017Y-78007894D01*
X171872982Y-77897580D01*
X171909292Y-77777882D01*
X171921552Y-77653400D01*
X171921552Y-75253400D01*
X171909292Y-75128918D01*
X171872982Y-75009220D01*
X171814017Y-74898906D01*
X171734665Y-74802215D01*
X171637974Y-74722863D01*
X171527660Y-74663898D01*
X171407962Y-74627588D01*
X171283480Y-74615328D01*
X170866318Y-74615328D01*
X170952679Y-74579556D01*
X171253224Y-74378738D01*
X171508818Y-74123144D01*
X171709636Y-73822599D01*
X171847962Y-73488650D01*
X171918480Y-73134132D01*
X171918480Y-72772668D01*
X171847962Y-72418150D01*
X171709636Y-72084201D01*
X171508818Y-71783656D01*
X171253224Y-71528062D01*
X170952679Y-71327244D01*
X170653693Y-71203400D01*
X170952679Y-71079556D01*
X171253224Y-70878738D01*
X171508818Y-70623144D01*
X171709636Y-70322599D01*
X171847962Y-69988650D01*
X171918480Y-69634132D01*
X171918480Y-69272668D01*
X171847962Y-68918150D01*
X171709636Y-68584201D01*
X171508818Y-68283656D01*
X171253224Y-68028062D01*
X170952679Y-67827244D01*
X170653693Y-67703400D01*
X170952679Y-67579556D01*
X171253224Y-67378738D01*
X171508818Y-67123144D01*
X171709636Y-66822599D01*
X171847962Y-66488650D01*
X171918480Y-66134132D01*
X171918480Y-65772668D01*
X171847962Y-65418150D01*
X171709636Y-65084201D01*
X171508818Y-64783656D01*
X171253224Y-64528062D01*
X170952679Y-64327244D01*
X170653693Y-64203400D01*
X170952679Y-64079556D01*
X171253224Y-63878738D01*
X171508818Y-63623144D01*
X171709636Y-63322599D01*
X171829759Y-63032596D01*
X187338009Y-78540846D01*
X166630083Y-78551971D01*
X166856686Y-49743280D01*
X222854520Y-49707880D01*
X222854520Y-55692040D01*
X222856960Y-55716816D01*
X222864187Y-55740641D01*
X222875923Y-55762597D01*
X222891717Y-55781843D01*
X222910963Y-55797637D01*
X222932919Y-55809373D01*
X222956744Y-55816600D01*
X222980645Y-55819037D01*
X251728365Y-56017157D01*
X251753157Y-56014888D01*
X251777031Y-56007825D01*
X251799068Y-55996240D01*
X251818422Y-55980579D01*
X251834348Y-55961443D01*
X251846235Y-55939568D01*
X251853626Y-55915794D01*
X251856238Y-55889365D01*
X251853096Y-55387652D01*
X251896655Y-55606635D01*
X252026501Y-55920109D01*
X252215007Y-56202229D01*
X252454931Y-56442153D01*
X252737051Y-56630659D01*
X253050525Y-56760505D01*
X253383309Y-56826700D01*
X253722611Y-56826700D01*
X254055395Y-56760505D01*
X254368869Y-56630659D01*
X254650989Y-56442153D01*
X254890913Y-56202229D01*
X255079419Y-55920109D01*
X255209265Y-55606635D01*
X255275460Y-55273851D01*
X255275460Y-54934549D01*
X257330460Y-54934549D01*
X257330460Y-55273851D01*
X257396655Y-55606635D01*
X257526501Y-55920109D01*
X257715007Y-56202229D01*
X257954931Y-56442153D01*
X258237051Y-56630659D01*
X258550525Y-56760505D01*
X258883309Y-56826700D01*
X259222611Y-56826700D01*
X259555395Y-56760505D01*
X259868869Y-56630659D01*
X260150989Y-56442153D01*
X260390913Y-56202229D01*
X260579419Y-55920109D01*
X260709265Y-55606635D01*
X260775460Y-55273851D01*
X260775460Y-54934549D01*
X260709265Y-54601765D01*
X260579419Y-54288291D01*
X260390913Y-54006171D01*
X260150989Y-53766247D01*
X259868869Y-53577741D01*
X259555395Y-53447895D01*
X259222611Y-53381700D01*
X258883309Y-53381700D01*
X258550525Y-53447895D01*
X258237051Y-53577741D01*
X257954931Y-53766247D01*
X257715007Y-54006171D01*
X257526501Y-54288291D01*
X257396655Y-54601765D01*
X257330460Y-54934549D01*
X255275460Y-54934549D01*
X255209265Y-54601765D01*
X255079419Y-54288291D01*
X254890913Y-54006171D01*
X254650989Y-53766247D01*
X254368869Y-53577741D01*
X254055395Y-53447895D01*
X253722611Y-53381700D01*
X253383309Y-53381700D01*
X253050525Y-53447895D01*
X252737051Y-53577741D01*
X252454931Y-53766247D01*
X252215007Y-54006171D01*
X252026501Y-54288291D01*
X251896655Y-54601765D01*
X251849655Y-54838050D01*
X251823960Y-50734549D01*
X251830460Y-50734549D01*
X251830460Y-51073851D01*
X251896655Y-51406635D01*
X252026501Y-51720109D01*
X252215007Y-52002229D01*
X252454931Y-52242153D01*
X252737051Y-52430659D01*
X253050525Y-52560505D01*
X253383309Y-52626700D01*
X253722611Y-52626700D01*
X254055395Y-52560505D01*
X254368869Y-52430659D01*
X254650989Y-52242153D01*
X254791141Y-52102001D01*
X258034764Y-52102001D01*
X258141089Y-52375348D01*
X258445618Y-52524978D01*
X258773485Y-52612322D01*
X259112094Y-52634024D01*
X259448430Y-52589249D01*
X259769567Y-52479719D01*
X259964831Y-52375348D01*
X260071156Y-52102001D01*
X259052960Y-51083805D01*
X258034764Y-52102001D01*
X254791141Y-52102001D01*
X254890913Y-52002229D01*
X255079419Y-51720109D01*
X255209265Y-51406635D01*
X255275460Y-51073851D01*
X255275460Y-50963334D01*
X257323136Y-50963334D01*
X257367911Y-51299670D01*
X257477441Y-51620807D01*
X257581812Y-51816071D01*
X257855159Y-51922396D01*
X258873355Y-50904200D01*
X259232565Y-50904200D01*
X260250761Y-51922396D01*
X260524108Y-51816071D01*
X260673738Y-51511542D01*
X260761082Y-51183675D01*
X260782784Y-50845066D01*
X260738009Y-50508730D01*
X260628479Y-50187593D01*
X260524108Y-49992329D01*
X260250761Y-49886004D01*
X259232565Y-50904200D01*
X258873355Y-50904200D01*
X257855159Y-49886004D01*
X257581812Y-49992329D01*
X257432182Y-50296858D01*
X257344838Y-50624725D01*
X257323136Y-50963334D01*
X255275460Y-50963334D01*
X255275460Y-50734549D01*
X255209265Y-50401765D01*
X255079419Y-50088291D01*
X254890913Y-49806171D01*
X254791141Y-49706399D01*
X258034764Y-49706399D01*
X259052960Y-50724595D01*
X260071156Y-49706399D01*
X259964831Y-49433052D01*
X259660302Y-49283422D01*
X259332435Y-49196078D01*
X258993826Y-49174376D01*
X258657490Y-49219151D01*
X258336353Y-49328681D01*
X258141089Y-49433052D01*
X258034764Y-49706399D01*
X254791141Y-49706399D01*
X254650989Y-49566247D01*
X254368869Y-49377741D01*
X254055395Y-49247895D01*
X253722611Y-49181700D01*
X253383309Y-49181700D01*
X253050525Y-49247895D01*
X252737051Y-49377741D01*
X252454931Y-49566247D01*
X252215007Y-49806171D01*
X252026501Y-50088291D01*
X251896655Y-50401765D01*
X251830460Y-50734549D01*
X251823960Y-50734549D01*
X251806238Y-47904400D01*
X261361371Y-47904400D01*
X261553488Y-99796407D01*
%TA.AperFunction,Conductor*%
D22*
G36*
X261553488Y-99796407D02*
G01*
X258400459Y-99791647D01*
X258400459Y-98698345D01*
X258550525Y-98760505D01*
X258883309Y-98826700D01*
X259222611Y-98826700D01*
X259555395Y-98760505D01*
X259868869Y-98630659D01*
X260150989Y-98442153D01*
X260390913Y-98202229D01*
X260579419Y-97920109D01*
X260709265Y-97606635D01*
X260775460Y-97273851D01*
X260775460Y-96934549D01*
X260709265Y-96601765D01*
X260579419Y-96288291D01*
X260390913Y-96006171D01*
X260150989Y-95766247D01*
X259868869Y-95577741D01*
X259555395Y-95447895D01*
X259222611Y-95381700D01*
X258883309Y-95381700D01*
X258550525Y-95447895D01*
X258400459Y-95510055D01*
X258400459Y-94498345D01*
X258550525Y-94560505D01*
X258883309Y-94626700D01*
X259222611Y-94626700D01*
X259555395Y-94560505D01*
X259868869Y-94430659D01*
X260150989Y-94242153D01*
X260390913Y-94002229D01*
X260579419Y-93720109D01*
X260709265Y-93406635D01*
X260775460Y-93073851D01*
X260775460Y-92734549D01*
X260709265Y-92401765D01*
X260579419Y-92088291D01*
X260390913Y-91806171D01*
X260150989Y-91566247D01*
X259868869Y-91377741D01*
X259555395Y-91247895D01*
X259222611Y-91181700D01*
X258883309Y-91181700D01*
X258550525Y-91247895D01*
X258400459Y-91310055D01*
X258400459Y-90302789D01*
X258445618Y-90324978D01*
X258773485Y-90412322D01*
X259112094Y-90434024D01*
X259448430Y-90389249D01*
X259769567Y-90279719D01*
X259964831Y-90175348D01*
X260071156Y-89902001D01*
X259052960Y-88883805D01*
X259038818Y-88897948D01*
X258859213Y-88718343D01*
X258873355Y-88704200D01*
X259232565Y-88704200D01*
X260250761Y-89722396D01*
X260524108Y-89616071D01*
X260673738Y-89311542D01*
X260761082Y-88983675D01*
X260782784Y-88645066D01*
X260738009Y-88308730D01*
X260628479Y-87987593D01*
X260524108Y-87792329D01*
X260250761Y-87686004D01*
X259232565Y-88704200D01*
X258873355Y-88704200D01*
X258859213Y-88690058D01*
X259038818Y-88510453D01*
X259052960Y-88524595D01*
X260071156Y-87506399D01*
X259964831Y-87233052D01*
X259660302Y-87083422D01*
X259332435Y-86996078D01*
X258993826Y-86974376D01*
X258657490Y-87019151D01*
X258400459Y-87106816D01*
X258400459Y-86585056D01*
X258779470Y-86206045D01*
X258883309Y-86226700D01*
X259222611Y-86226700D01*
X259555395Y-86160505D01*
X259868869Y-86030659D01*
X260150989Y-85842153D01*
X260390913Y-85602229D01*
X260579419Y-85320109D01*
X260709265Y-85006635D01*
X260775460Y-84673851D01*
X260775460Y-84334549D01*
X260709265Y-84001765D01*
X260579419Y-83688291D01*
X260390913Y-83406171D01*
X260150989Y-83166247D01*
X259868869Y-82977741D01*
X259555395Y-82847895D01*
X259222611Y-82781700D01*
X258883309Y-82781700D01*
X258550525Y-82847895D01*
X258237051Y-82977741D01*
X257954931Y-83166247D01*
X257715007Y-83406171D01*
X257526501Y-83688291D01*
X257396655Y-84001765D01*
X257330460Y-84334549D01*
X257330460Y-84673851D01*
X257351115Y-84777690D01*
X257163920Y-84964885D01*
X257163920Y-81502001D01*
X258034764Y-81502001D01*
X258141089Y-81775348D01*
X258445618Y-81924978D01*
X258773485Y-82012322D01*
X259112094Y-82034024D01*
X259448430Y-81989249D01*
X259769567Y-81879719D01*
X259964831Y-81775348D01*
X260071156Y-81502001D01*
X259052960Y-80483805D01*
X258034764Y-81502001D01*
X257163920Y-81502001D01*
X257163920Y-80363334D01*
X257323136Y-80363334D01*
X257367911Y-80699670D01*
X257477441Y-81020807D01*
X257581812Y-81216071D01*
X257855159Y-81322396D01*
X258873355Y-80304200D01*
X259232565Y-80304200D01*
X260250761Y-81322396D01*
X260524108Y-81216071D01*
X260673738Y-80911542D01*
X260761082Y-80583675D01*
X260782784Y-80245066D01*
X260738009Y-79908730D01*
X260628479Y-79587593D01*
X260524108Y-79392329D01*
X260250761Y-79286004D01*
X259232565Y-80304200D01*
X258873355Y-80304200D01*
X257855159Y-79286004D01*
X257581812Y-79392329D01*
X257432182Y-79696858D01*
X257344838Y-80024725D01*
X257323136Y-80363334D01*
X257163920Y-80363334D01*
X257163920Y-79106399D01*
X258034764Y-79106399D01*
X259052960Y-80124595D01*
X260071156Y-79106399D01*
X259964831Y-78833052D01*
X259660302Y-78683422D01*
X259332435Y-78596078D01*
X258993826Y-78574376D01*
X258657490Y-78619151D01*
X258336353Y-78728681D01*
X258141089Y-78833052D01*
X258034764Y-79106399D01*
X257163920Y-79106399D01*
X257163920Y-77302001D01*
X258034764Y-77302001D01*
X258141089Y-77575348D01*
X258445618Y-77724978D01*
X258773485Y-77812322D01*
X259112094Y-77834024D01*
X259448430Y-77789249D01*
X259769567Y-77679719D01*
X259964831Y-77575348D01*
X260071156Y-77302001D01*
X259052960Y-76283805D01*
X258034764Y-77302001D01*
X257163920Y-77302001D01*
X257163920Y-76163334D01*
X257323136Y-76163334D01*
X257367911Y-76499670D01*
X257477441Y-76820807D01*
X257581812Y-77016071D01*
X257855159Y-77122396D01*
X258873355Y-76104200D01*
X259232565Y-76104200D01*
X260250761Y-77122396D01*
X260524108Y-77016071D01*
X260673738Y-76711542D01*
X260761082Y-76383675D01*
X260782784Y-76045066D01*
X260738009Y-75708730D01*
X260628479Y-75387593D01*
X260524108Y-75192329D01*
X260250761Y-75086004D01*
X259232565Y-76104200D01*
X258873355Y-76104200D01*
X257855159Y-75086004D01*
X257581812Y-75192329D01*
X257432182Y-75496858D01*
X257344838Y-75824725D01*
X257323136Y-76163334D01*
X257163920Y-76163334D01*
X257163920Y-74906399D01*
X258034764Y-74906399D01*
X259052960Y-75924595D01*
X260071156Y-74906399D01*
X259964831Y-74633052D01*
X259660302Y-74483422D01*
X259332435Y-74396078D01*
X258993826Y-74374376D01*
X258657490Y-74419151D01*
X258336353Y-74528681D01*
X258141089Y-74633052D01*
X258034764Y-74906399D01*
X257163920Y-74906399D01*
X257163920Y-73102001D01*
X258034764Y-73102001D01*
X258141089Y-73375348D01*
X258445618Y-73524978D01*
X258773485Y-73612322D01*
X259112094Y-73634024D01*
X259448430Y-73589249D01*
X259769567Y-73479719D01*
X259964831Y-73375348D01*
X260071156Y-73102001D01*
X259052960Y-72083805D01*
X258034764Y-73102001D01*
X257163920Y-73102001D01*
X257163920Y-71963334D01*
X257323136Y-71963334D01*
X257367911Y-72299670D01*
X257477441Y-72620807D01*
X257581812Y-72816071D01*
X257855159Y-72922396D01*
X258873355Y-71904200D01*
X259232565Y-71904200D01*
X260250761Y-72922396D01*
X260524108Y-72816071D01*
X260673738Y-72511542D01*
X260761082Y-72183675D01*
X260782784Y-71845066D01*
X260738009Y-71508730D01*
X260628479Y-71187593D01*
X260524108Y-70992329D01*
X260250761Y-70886004D01*
X259232565Y-71904200D01*
X258873355Y-71904200D01*
X257855159Y-70886004D01*
X257581812Y-70992329D01*
X257432182Y-71296858D01*
X257344838Y-71624725D01*
X257323136Y-71963334D01*
X257163920Y-71963334D01*
X257163920Y-70706399D01*
X258034764Y-70706399D01*
X259052960Y-71724595D01*
X260071156Y-70706399D01*
X259964831Y-70433052D01*
X259660302Y-70283422D01*
X259332435Y-70196078D01*
X258993826Y-70174376D01*
X258657490Y-70219151D01*
X258336353Y-70328681D01*
X258141089Y-70433052D01*
X258034764Y-70706399D01*
X257163920Y-70706399D01*
X257163920Y-67534549D01*
X257330460Y-67534549D01*
X257330460Y-67873851D01*
X257396655Y-68206635D01*
X257526501Y-68520109D01*
X257715007Y-68802229D01*
X257954931Y-69042153D01*
X258237051Y-69230659D01*
X258550525Y-69360505D01*
X258883309Y-69426700D01*
X259222611Y-69426700D01*
X259555395Y-69360505D01*
X259868869Y-69230659D01*
X260150989Y-69042153D01*
X260390913Y-68802229D01*
X260579419Y-68520109D01*
X260709265Y-68206635D01*
X260775460Y-67873851D01*
X260775460Y-67534549D01*
X260709265Y-67201765D01*
X260579419Y-66888291D01*
X260390913Y-66606171D01*
X260150989Y-66366247D01*
X259868869Y-66177741D01*
X259555395Y-66047895D01*
X259222611Y-65981700D01*
X258883309Y-65981700D01*
X258550525Y-66047895D01*
X258237051Y-66177741D01*
X257954931Y-66366247D01*
X257715007Y-66606171D01*
X257526501Y-66888291D01*
X257396655Y-67201765D01*
X257330460Y-67534549D01*
X257163920Y-67534549D01*
X257163920Y-66154768D01*
X257168806Y-66105160D01*
X257149305Y-65907165D01*
X257091552Y-65716780D01*
X256997766Y-65541319D01*
X256903176Y-65426060D01*
X256871553Y-65387527D01*
X256833020Y-65355904D01*
X255254805Y-63777690D01*
X255275460Y-63673851D01*
X255275460Y-63334549D01*
X257330460Y-63334549D01*
X257330460Y-63673851D01*
X257396655Y-64006635D01*
X257526501Y-64320109D01*
X257715007Y-64602229D01*
X257954931Y-64842153D01*
X258237051Y-65030659D01*
X258550525Y-65160505D01*
X258883309Y-65226700D01*
X259222611Y-65226700D01*
X259555395Y-65160505D01*
X259868869Y-65030659D01*
X260150989Y-64842153D01*
X260390913Y-64602229D01*
X260579419Y-64320109D01*
X260709265Y-64006635D01*
X260775460Y-63673851D01*
X260775460Y-63334549D01*
X260709265Y-63001765D01*
X260579419Y-62688291D01*
X260390913Y-62406171D01*
X260150989Y-62166247D01*
X259868869Y-61977741D01*
X259555395Y-61847895D01*
X259222611Y-61781700D01*
X258883309Y-61781700D01*
X258550525Y-61847895D01*
X258237051Y-61977741D01*
X257954931Y-62166247D01*
X257715007Y-62406171D01*
X257526501Y-62688291D01*
X257396655Y-63001765D01*
X257330460Y-63334549D01*
X255275460Y-63334549D01*
X255209265Y-63001765D01*
X255079419Y-62688291D01*
X254890913Y-62406171D01*
X254650989Y-62166247D01*
X254368869Y-61977741D01*
X254055395Y-61847895D01*
X253722611Y-61781700D01*
X253383309Y-61781700D01*
X253050525Y-61847895D01*
X252737051Y-61977741D01*
X252454931Y-62166247D01*
X252215007Y-62406171D01*
X252026501Y-62688291D01*
X251896655Y-63001765D01*
X251830460Y-63334549D01*
X251830460Y-63673851D01*
X251896655Y-64006635D01*
X252026501Y-64320109D01*
X252215007Y-64602229D01*
X252454931Y-64842153D01*
X252737051Y-65030659D01*
X253050525Y-65160505D01*
X253383309Y-65226700D01*
X253722611Y-65226700D01*
X253826450Y-65206045D01*
X255143921Y-66523517D01*
X255143921Y-67044012D01*
X255079419Y-66888291D01*
X254890913Y-66606171D01*
X254650989Y-66366247D01*
X254368869Y-66177741D01*
X254055395Y-66047895D01*
X253722611Y-65981700D01*
X253383309Y-65981700D01*
X253050525Y-66047895D01*
X252737051Y-66177741D01*
X252454931Y-66366247D01*
X252215007Y-66606171D01*
X252026501Y-66888291D01*
X251896655Y-67201765D01*
X251830460Y-67534549D01*
X251830460Y-67873851D01*
X251896655Y-68206635D01*
X252026501Y-68520109D01*
X252215007Y-68802229D01*
X252454931Y-69042153D01*
X252737051Y-69230659D01*
X253050525Y-69360505D01*
X253383309Y-69426700D01*
X253722611Y-69426700D01*
X254055395Y-69360505D01*
X254368869Y-69230659D01*
X254650989Y-69042153D01*
X254890913Y-68802229D01*
X255079419Y-68520109D01*
X255143921Y-68364388D01*
X255143921Y-71232868D01*
X255128479Y-71187593D01*
X255024108Y-70992329D01*
X254750761Y-70886004D01*
X253732565Y-71904200D01*
X254750761Y-72922396D01*
X255024108Y-72816071D01*
X255143921Y-72572226D01*
X255143921Y-75444011D01*
X255079419Y-75288291D01*
X254890913Y-75006171D01*
X254650989Y-74766247D01*
X254368869Y-74577741D01*
X254055395Y-74447895D01*
X253722611Y-74381700D01*
X253383309Y-74381700D01*
X253050525Y-74447895D01*
X252737051Y-74577741D01*
X252454931Y-74766247D01*
X252215007Y-75006171D01*
X252026501Y-75288291D01*
X251896655Y-75601765D01*
X251830460Y-75934549D01*
X251830460Y-76273851D01*
X251896655Y-76606635D01*
X252026501Y-76920109D01*
X252215007Y-77202229D01*
X252454931Y-77442153D01*
X252737051Y-77630659D01*
X253050525Y-77760505D01*
X253383309Y-77826700D01*
X253722611Y-77826700D01*
X254055395Y-77760505D01*
X254368869Y-77630659D01*
X254650989Y-77442153D01*
X254890913Y-77202229D01*
X255079419Y-76920109D01*
X255143921Y-76764389D01*
X255143921Y-79632868D01*
X255128479Y-79587593D01*
X255024108Y-79392329D01*
X254750761Y-79286004D01*
X253732565Y-80304200D01*
X254750761Y-81322396D01*
X255024108Y-81216071D01*
X255143921Y-80972226D01*
X255143921Y-83844011D01*
X255079419Y-83688291D01*
X254890913Y-83406171D01*
X254650989Y-83166247D01*
X254368869Y-82977741D01*
X254055395Y-82847895D01*
X253722611Y-82781700D01*
X253383309Y-82781700D01*
X253050525Y-82847895D01*
X252737051Y-82977741D01*
X252454931Y-83166247D01*
X252215007Y-83406171D01*
X252026501Y-83688291D01*
X251896655Y-84001765D01*
X251830460Y-84334549D01*
X251830460Y-84673851D01*
X251896655Y-85006635D01*
X252026501Y-85320109D01*
X252215007Y-85602229D01*
X252454931Y-85842153D01*
X252737051Y-86030659D01*
X253050525Y-86160505D01*
X253383309Y-86226700D01*
X253722611Y-86226700D01*
X254055395Y-86160505D01*
X254368869Y-86030659D01*
X254650989Y-85842153D01*
X254890913Y-85602229D01*
X255079419Y-85320109D01*
X255143921Y-85164389D01*
X255143921Y-88032867D01*
X255128479Y-87987593D01*
X255024108Y-87792329D01*
X254750761Y-87686004D01*
X253732565Y-88704200D01*
X254750761Y-89722396D01*
X255024108Y-89616071D01*
X255143921Y-89372227D01*
X255143921Y-92244011D01*
X255079419Y-92088291D01*
X254890913Y-91806171D01*
X254650989Y-91566247D01*
X254368869Y-91377741D01*
X254055395Y-91247895D01*
X253722611Y-91181700D01*
X253383309Y-91181700D01*
X253050525Y-91247895D01*
X252737051Y-91377741D01*
X252454931Y-91566247D01*
X252215007Y-91806171D01*
X252026501Y-92088291D01*
X251896655Y-92401765D01*
X251830460Y-92734549D01*
X251830460Y-93073851D01*
X251896655Y-93406635D01*
X252026501Y-93720109D01*
X252215007Y-94002229D01*
X252454931Y-94242153D01*
X252737051Y-94430659D01*
X253050525Y-94560505D01*
X253383309Y-94626700D01*
X253722611Y-94626700D01*
X254055395Y-94560505D01*
X254368869Y-94430659D01*
X254650989Y-94242153D01*
X254890913Y-94002229D01*
X255079419Y-93720109D01*
X255143921Y-93564389D01*
X255143921Y-95629213D01*
X255091645Y-95565515D01*
X254994954Y-95486163D01*
X254884640Y-95427198D01*
X254764942Y-95390888D01*
X254640460Y-95378628D01*
X252465460Y-95378628D01*
X252340978Y-95390888D01*
X252221280Y-95427198D01*
X252110966Y-95486163D01*
X252014275Y-95565515D01*
X251934923Y-95662206D01*
X251875958Y-95772520D01*
X251839648Y-95892218D01*
X251827388Y-96016700D01*
X251827388Y-98191700D01*
X251839648Y-98316182D01*
X251875958Y-98435880D01*
X251934923Y-98546194D01*
X252014275Y-98642885D01*
X252110966Y-98722237D01*
X252221280Y-98781202D01*
X252340978Y-98817512D01*
X252465460Y-98829772D01*
X254640460Y-98829772D01*
X254764942Y-98817512D01*
X254884640Y-98781202D01*
X254994954Y-98722237D01*
X255091645Y-98642885D01*
X255143920Y-98579187D01*
X255143920Y-99786730D01*
X251714121Y-99781552D01*
X251723556Y-89902001D01*
X252534764Y-89902001D01*
X252641089Y-90175348D01*
X252945618Y-90324978D01*
X253273485Y-90412322D01*
X253612094Y-90434024D01*
X253948430Y-90389249D01*
X254269567Y-90279719D01*
X254464831Y-90175348D01*
X254571156Y-89902001D01*
X253552960Y-88883805D01*
X252534764Y-89902001D01*
X251723556Y-89902001D01*
X251724644Y-88763334D01*
X251823136Y-88763334D01*
X251867911Y-89099670D01*
X251977441Y-89420807D01*
X252081812Y-89616071D01*
X252355159Y-89722396D01*
X253373355Y-88704200D01*
X252355159Y-87686004D01*
X252081812Y-87792329D01*
X251932182Y-88096858D01*
X251844838Y-88424725D01*
X251823136Y-88763334D01*
X251724644Y-88763334D01*
X251725844Y-87506399D01*
X252534764Y-87506399D01*
X253552960Y-88524595D01*
X254571156Y-87506399D01*
X254464831Y-87233052D01*
X254160302Y-87083422D01*
X253832435Y-86996078D01*
X253493826Y-86974376D01*
X253157490Y-87019151D01*
X252836353Y-87128681D01*
X252641089Y-87233052D01*
X252534764Y-87506399D01*
X251725844Y-87506399D01*
X251731579Y-81502001D01*
X252534764Y-81502001D01*
X252641089Y-81775348D01*
X252945618Y-81924978D01*
X253273485Y-82012322D01*
X253612094Y-82034024D01*
X253948430Y-81989249D01*
X254269567Y-81879719D01*
X254464831Y-81775348D01*
X254571156Y-81502001D01*
X253552960Y-80483805D01*
X252534764Y-81502001D01*
X251731579Y-81502001D01*
X251732667Y-80363334D01*
X251823136Y-80363334D01*
X251867911Y-80699670D01*
X251977441Y-81020807D01*
X252081812Y-81216071D01*
X252355159Y-81322396D01*
X253373355Y-80304200D01*
X252355159Y-79286004D01*
X252081812Y-79392329D01*
X251932182Y-79696858D01*
X251844838Y-80024725D01*
X251823136Y-80363334D01*
X251732667Y-80363334D01*
X251733868Y-79106399D01*
X252534764Y-79106399D01*
X253552960Y-80124595D01*
X254571156Y-79106399D01*
X254464831Y-78833052D01*
X254160302Y-78683422D01*
X253832435Y-78596078D01*
X253493826Y-78574376D01*
X253157490Y-78619151D01*
X252836353Y-78728681D01*
X252641089Y-78833052D01*
X252534764Y-79106399D01*
X251733868Y-79106399D01*
X251734320Y-78633441D01*
X251731903Y-78608663D01*
X251724699Y-78584831D01*
X251712984Y-78562863D01*
X251697208Y-78543603D01*
X251677978Y-78527791D01*
X251656033Y-78516034D01*
X251632215Y-78508784D01*
X251607252Y-78506320D01*
X223696352Y-78521314D01*
X218277039Y-73102001D01*
X252534764Y-73102001D01*
X252641089Y-73375348D01*
X252945618Y-73524978D01*
X253273485Y-73612322D01*
X253612094Y-73634024D01*
X253948430Y-73589249D01*
X254269567Y-73479719D01*
X254464831Y-73375348D01*
X254571156Y-73102001D01*
X253552960Y-72083805D01*
X252534764Y-73102001D01*
X218277039Y-73102001D01*
X217138372Y-71963334D01*
X251823136Y-71963334D01*
X251867911Y-72299670D01*
X251977441Y-72620807D01*
X252081812Y-72816071D01*
X252355159Y-72922396D01*
X253373355Y-71904200D01*
X252355159Y-70886004D01*
X252081812Y-70992329D01*
X251932182Y-71296858D01*
X251844838Y-71624725D01*
X251823136Y-71963334D01*
X217138372Y-71963334D01*
X215881437Y-70706399D01*
X252534764Y-70706399D01*
X253552960Y-71724595D01*
X254571156Y-70706399D01*
X254464831Y-70433052D01*
X254160302Y-70283422D01*
X253832435Y-70196078D01*
X253493826Y-70174376D01*
X253157490Y-70219151D01*
X252836353Y-70328681D01*
X252641089Y-70433052D01*
X252534764Y-70706399D01*
X215881437Y-70706399D01*
X204309587Y-59134549D01*
X251830460Y-59134549D01*
X251830460Y-59473851D01*
X251896655Y-59806635D01*
X252026501Y-60120109D01*
X252215007Y-60402229D01*
X252454931Y-60642153D01*
X252737051Y-60830659D01*
X253050525Y-60960505D01*
X253383309Y-61026700D01*
X253722611Y-61026700D01*
X254055395Y-60960505D01*
X254368869Y-60830659D01*
X254650989Y-60642153D01*
X254890913Y-60402229D01*
X255079419Y-60120109D01*
X255209265Y-59806635D01*
X255275460Y-59473851D01*
X255275460Y-59134549D01*
X257330460Y-59134549D01*
X257330460Y-59473851D01*
X257396655Y-59806635D01*
X257526501Y-60120109D01*
X257715007Y-60402229D01*
X257954931Y-60642153D01*
X258237051Y-60830659D01*
X258550525Y-60960505D01*
X258883309Y-61026700D01*
X259222611Y-61026700D01*
X259555395Y-60960505D01*
X259868869Y-60830659D01*
X260150989Y-60642153D01*
X260390913Y-60402229D01*
X260579419Y-60120109D01*
X260709265Y-59806635D01*
X260775460Y-59473851D01*
X260775460Y-59134549D01*
X260709265Y-58801765D01*
X260579419Y-58488291D01*
X260390913Y-58206171D01*
X260150989Y-57966247D01*
X259868869Y-57777741D01*
X259555395Y-57647895D01*
X259222611Y-57581700D01*
X258883309Y-57581700D01*
X258550525Y-57647895D01*
X258237051Y-57777741D01*
X257954931Y-57966247D01*
X257715007Y-58206171D01*
X257526501Y-58488291D01*
X257396655Y-58801765D01*
X257330460Y-59134549D01*
X255275460Y-59134549D01*
X255209265Y-58801765D01*
X255079419Y-58488291D01*
X254890913Y-58206171D01*
X254650989Y-57966247D01*
X254368869Y-57777741D01*
X254055395Y-57647895D01*
X253722611Y-57581700D01*
X253383309Y-57581700D01*
X253050525Y-57647895D01*
X252737051Y-57777741D01*
X252454931Y-57966247D01*
X252215007Y-58206171D01*
X252026501Y-58488291D01*
X251896655Y-58801765D01*
X251830460Y-59134549D01*
X204309587Y-59134549D01*
X196317263Y-51142226D01*
X196285635Y-51103687D01*
X196131842Y-50977473D01*
X195956382Y-50883688D01*
X195765996Y-50825935D01*
X195617610Y-50811320D01*
X195568002Y-50806434D01*
X195518394Y-50811320D01*
X191513916Y-50811320D01*
X191407178Y-50651576D01*
X191151584Y-50395982D01*
X190851039Y-50195164D01*
X190517090Y-50056838D01*
X190162572Y-49986320D01*
X189801108Y-49986320D01*
X189446590Y-50056838D01*
X189112641Y-50195164D01*
X188812096Y-50395982D01*
X188556502Y-50651576D01*
X188355684Y-50952121D01*
X188217358Y-51286070D01*
X188146840Y-51640588D01*
X188146840Y-52002052D01*
X188217358Y-52356570D01*
X188355684Y-52690519D01*
X188556502Y-52991064D01*
X188812096Y-53246658D01*
X189112641Y-53447476D01*
X189411627Y-53571320D01*
X189112641Y-53695164D01*
X188812096Y-53895982D01*
X188556502Y-54151576D01*
X188355684Y-54452121D01*
X188217358Y-54786070D01*
X188146840Y-55140588D01*
X188146840Y-55502052D01*
X188217358Y-55856570D01*
X188355684Y-56190519D01*
X188556502Y-56491064D01*
X188812096Y-56746658D01*
X189112641Y-56947476D01*
X189419329Y-57074510D01*
X189226007Y-57139474D01*
X189003354Y-57258484D01*
X188883466Y-57543340D01*
X189981840Y-58641715D01*
X191080214Y-57543340D01*
X190960326Y-57258484D01*
X190636630Y-57097621D01*
X190547150Y-57073351D01*
X190851039Y-56947476D01*
X191151584Y-56746658D01*
X191407178Y-56491064D01*
X191607996Y-56190519D01*
X191746322Y-55856570D01*
X191816840Y-55502052D01*
X191816840Y-55140588D01*
X191746322Y-54786070D01*
X191607996Y-54452121D01*
X191407178Y-54151576D01*
X191151584Y-53895982D01*
X190851039Y-53695164D01*
X190552053Y-53571320D01*
X190851039Y-53447476D01*
X191151584Y-53246658D01*
X191407178Y-52991064D01*
X191513916Y-52831320D01*
X195149647Y-52831320D01*
X220841175Y-78522848D01*
X190193187Y-78539313D01*
X189753142Y-78099268D01*
X189854840Y-77997570D01*
X189854840Y-76448320D01*
X190108840Y-76448320D01*
X190108840Y-77997570D01*
X190267590Y-78156320D01*
X191181840Y-78159392D01*
X191306322Y-78147132D01*
X191426020Y-78110822D01*
X191536334Y-78051857D01*
X191633025Y-77972505D01*
X191712377Y-77875814D01*
X191771342Y-77765500D01*
X191807652Y-77645802D01*
X191819912Y-77521320D01*
X191816840Y-76607070D01*
X191658090Y-76448320D01*
X190108840Y-76448320D01*
X189854840Y-76448320D01*
X188305590Y-76448320D01*
X188203892Y-76550018D01*
X186775194Y-75121320D01*
X188143768Y-75121320D01*
X188146840Y-76035570D01*
X188305590Y-76194320D01*
X189854840Y-76194320D01*
X189854840Y-76174320D01*
X190108840Y-76174320D01*
X190108840Y-76194320D01*
X191658090Y-76194320D01*
X191816840Y-76035570D01*
X191819912Y-75121320D01*
X191807652Y-74996838D01*
X191771342Y-74877140D01*
X191712377Y-74766826D01*
X191633025Y-74670135D01*
X191536334Y-74590783D01*
X191426020Y-74531818D01*
X191306322Y-74495508D01*
X191181840Y-74483248D01*
X190772363Y-74484624D01*
X190960326Y-74384156D01*
X191080214Y-74099300D01*
X189981840Y-73000925D01*
X188883466Y-74099300D01*
X189003354Y-74384156D01*
X189205617Y-74484672D01*
X188781840Y-74483248D01*
X188657358Y-74495508D01*
X188537660Y-74531818D01*
X188427346Y-74590783D01*
X188330655Y-74670135D01*
X188251303Y-74766826D01*
X188192338Y-74877140D01*
X188156028Y-74996838D01*
X188143768Y-75121320D01*
X186775194Y-75121320D01*
X184529878Y-72876004D01*
X188138773Y-72876004D01*
X188184855Y-73234518D01*
X188299994Y-73577153D01*
X188419004Y-73799806D01*
X188703860Y-73919694D01*
X189802235Y-72821320D01*
X190161445Y-72821320D01*
X191259820Y-73919694D01*
X191544676Y-73799806D01*
X191705539Y-73476110D01*
X191800162Y-73127251D01*
X191824907Y-72766636D01*
X191778825Y-72408122D01*
X191663686Y-72065487D01*
X191544676Y-71842834D01*
X191259820Y-71722946D01*
X190161445Y-72821320D01*
X189802235Y-72821320D01*
X188703860Y-71722946D01*
X188419004Y-71842834D01*
X188258141Y-72166530D01*
X188163518Y-72515389D01*
X188138773Y-72876004D01*
X184529878Y-72876004D01*
X182253174Y-70599300D01*
X188883466Y-70599300D01*
X189003354Y-70884156D01*
X189327050Y-71045019D01*
X189426676Y-71072041D01*
X189226007Y-71139474D01*
X189003354Y-71258484D01*
X188883466Y-71543340D01*
X189981840Y-72641715D01*
X191080214Y-71543340D01*
X190960326Y-71258484D01*
X190636630Y-71097621D01*
X190537004Y-71070599D01*
X190737673Y-71003166D01*
X190960326Y-70884156D01*
X191080214Y-70599300D01*
X189981840Y-69500925D01*
X188883466Y-70599300D01*
X182253174Y-70599300D01*
X181029878Y-69376004D01*
X188138773Y-69376004D01*
X188184855Y-69734518D01*
X188299994Y-70077153D01*
X188419004Y-70299806D01*
X188703860Y-70419694D01*
X189802235Y-69321320D01*
X190161445Y-69321320D01*
X191259820Y-70419694D01*
X191544676Y-70299806D01*
X191705539Y-69976110D01*
X191800162Y-69627251D01*
X191824907Y-69266636D01*
X191778825Y-68908122D01*
X191663686Y-68565487D01*
X191544676Y-68342834D01*
X191259820Y-68222946D01*
X190161445Y-69321320D01*
X189802235Y-69321320D01*
X188703860Y-68222946D01*
X188419004Y-68342834D01*
X188258141Y-68666530D01*
X188163518Y-69015389D01*
X188138773Y-69376004D01*
X181029878Y-69376004D01*
X178753174Y-67099300D01*
X188883466Y-67099300D01*
X189003354Y-67384156D01*
X189327050Y-67545019D01*
X189426676Y-67572041D01*
X189226007Y-67639474D01*
X189003354Y-67758484D01*
X188883466Y-68043340D01*
X189981840Y-69141715D01*
X191080214Y-68043340D01*
X190960326Y-67758484D01*
X190636630Y-67597621D01*
X190537004Y-67570599D01*
X190737673Y-67503166D01*
X190960326Y-67384156D01*
X191080214Y-67099300D01*
X189981840Y-66000925D01*
X188883466Y-67099300D01*
X178753174Y-67099300D01*
X177529878Y-65876004D01*
X188138773Y-65876004D01*
X188184855Y-66234518D01*
X188299994Y-66577153D01*
X188419004Y-66799806D01*
X188703860Y-66919694D01*
X189802235Y-65821320D01*
X190161445Y-65821320D01*
X191259820Y-66919694D01*
X191544676Y-66799806D01*
X191705539Y-66476110D01*
X191800162Y-66127251D01*
X191824907Y-65766636D01*
X191778825Y-65408122D01*
X191663686Y-65065487D01*
X191544676Y-64842834D01*
X191259820Y-64722946D01*
X190161445Y-65821320D01*
X189802235Y-65821320D01*
X188703860Y-64722946D01*
X188419004Y-64842834D01*
X188258141Y-65166530D01*
X188163518Y-65515389D01*
X188138773Y-65876004D01*
X177529878Y-65876004D01*
X175253174Y-63599300D01*
X188883466Y-63599300D01*
X189003354Y-63884156D01*
X189327050Y-64045019D01*
X189426676Y-64072041D01*
X189226007Y-64139474D01*
X189003354Y-64258484D01*
X188883466Y-64543340D01*
X189981840Y-65641715D01*
X191080214Y-64543340D01*
X190960326Y-64258484D01*
X190636630Y-64097621D01*
X190537004Y-64070599D01*
X190737673Y-64003166D01*
X190960326Y-63884156D01*
X191080214Y-63599300D01*
X189981840Y-62500925D01*
X188883466Y-63599300D01*
X175253174Y-63599300D01*
X174029878Y-62376004D01*
X188138773Y-62376004D01*
X188184855Y-62734518D01*
X188299994Y-63077153D01*
X188419004Y-63299806D01*
X188703860Y-63419694D01*
X189802235Y-62321320D01*
X190161445Y-62321320D01*
X191259820Y-63419694D01*
X191544676Y-63299806D01*
X191705539Y-62976110D01*
X191800162Y-62627251D01*
X191824907Y-62266636D01*
X191778825Y-61908122D01*
X191663686Y-61565487D01*
X191544676Y-61342834D01*
X191259820Y-61222946D01*
X190161445Y-62321320D01*
X189802235Y-62321320D01*
X188703860Y-61222946D01*
X188419004Y-61342834D01*
X188258141Y-61666530D01*
X188163518Y-62015389D01*
X188138773Y-62376004D01*
X174029878Y-62376004D01*
X172868481Y-61214608D01*
X172868481Y-60099300D01*
X188883466Y-60099300D01*
X189003354Y-60384156D01*
X189327050Y-60545019D01*
X189426676Y-60572041D01*
X189226007Y-60639474D01*
X189003354Y-60758484D01*
X188883466Y-61043340D01*
X189981840Y-62141715D01*
X191080214Y-61043340D01*
X190960326Y-60758484D01*
X190636630Y-60597621D01*
X190537004Y-60570599D01*
X190737673Y-60503166D01*
X190960326Y-60384156D01*
X191080214Y-60099300D01*
X189981840Y-59000925D01*
X188883466Y-60099300D01*
X172868481Y-60099300D01*
X172868481Y-58876004D01*
X188138773Y-58876004D01*
X188184855Y-59234518D01*
X188299994Y-59577153D01*
X188419004Y-59799806D01*
X188703860Y-59919694D01*
X189802235Y-58821320D01*
X190161445Y-58821320D01*
X191259820Y-59919694D01*
X191544676Y-59799806D01*
X191705539Y-59476110D01*
X191800162Y-59127251D01*
X191824907Y-58766636D01*
X191778825Y-58408122D01*
X191663686Y-58065487D01*
X191544676Y-57842834D01*
X191259820Y-57722946D01*
X190161445Y-58821320D01*
X189802235Y-58821320D01*
X188703860Y-57722946D01*
X188419004Y-57842834D01*
X188258141Y-58166530D01*
X188163518Y-58515389D01*
X188138773Y-58876004D01*
X172868481Y-58876004D01*
X172868481Y-53980958D01*
X172873366Y-53931360D01*
X172868481Y-53881762D01*
X172868481Y-53881753D01*
X172853866Y-53733367D01*
X172796113Y-53542981D01*
X172702328Y-53367521D01*
X172576114Y-53213728D01*
X172537580Y-53182105D01*
X171846838Y-52491363D01*
X171847962Y-52488650D01*
X171918480Y-52134132D01*
X171918480Y-51772668D01*
X171847962Y-51418150D01*
X171709636Y-51084201D01*
X171508818Y-50783656D01*
X171253224Y-50528062D01*
X170952679Y-50327244D01*
X170618730Y-50188918D01*
X170264212Y-50118400D01*
X169902748Y-50118400D01*
X169548230Y-50188918D01*
X169214281Y-50327244D01*
X168913736Y-50528062D01*
X168658142Y-50783656D01*
X168457324Y-51084201D01*
X168318998Y-51418150D01*
X168248480Y-51772668D01*
X168248480Y-52134132D01*
X168318998Y-52488650D01*
X168457324Y-52822599D01*
X168658142Y-53123144D01*
X168913736Y-53378738D01*
X169214281Y-53579556D01*
X169513267Y-53703400D01*
X169214281Y-53827244D01*
X168913736Y-54028062D01*
X168658142Y-54283656D01*
X168457324Y-54584201D01*
X168318998Y-54918150D01*
X168248480Y-55272668D01*
X168248480Y-55634132D01*
X168318998Y-55988650D01*
X168457324Y-56322599D01*
X168658142Y-56623144D01*
X168913736Y-56878738D01*
X169214281Y-57079556D01*
X169513267Y-57203400D01*
X169214281Y-57327244D01*
X168913736Y-57528062D01*
X168658142Y-57783656D01*
X168457324Y-58084201D01*
X168318998Y-58418150D01*
X168248480Y-58772668D01*
X168248480Y-59134132D01*
X168318998Y-59488650D01*
X168457324Y-59822599D01*
X168658142Y-60123144D01*
X168913736Y-60378738D01*
X169214281Y-60579556D01*
X169513267Y-60703400D01*
X169214281Y-60827244D01*
X168913736Y-61028062D01*
X168658142Y-61283656D01*
X168457324Y-61584201D01*
X168318998Y-61918150D01*
X168248480Y-62272668D01*
X168248480Y-62634132D01*
X168318998Y-62988650D01*
X168457324Y-63322599D01*
X168658142Y-63623144D01*
X168913736Y-63878738D01*
X169214281Y-64079556D01*
X169513267Y-64203400D01*
X169214281Y-64327244D01*
X168913736Y-64528062D01*
X168658142Y-64783656D01*
X168457324Y-65084201D01*
X168318998Y-65418150D01*
X168248480Y-65772668D01*
X168248480Y-66134132D01*
X168318998Y-66488650D01*
X168457324Y-66822599D01*
X168658142Y-67123144D01*
X168913736Y-67378738D01*
X169214281Y-67579556D01*
X169513267Y-67703400D01*
X169214281Y-67827244D01*
X168913736Y-68028062D01*
X168658142Y-68283656D01*
X168457324Y-68584201D01*
X168318998Y-68918150D01*
X168248480Y-69272668D01*
X168248480Y-69634132D01*
X168318998Y-69988650D01*
X168457324Y-70322599D01*
X168658142Y-70623144D01*
X168913736Y-70878738D01*
X169214281Y-71079556D01*
X169513267Y-71203400D01*
X169214281Y-71327244D01*
X168913736Y-71528062D01*
X168658142Y-71783656D01*
X168457324Y-72084201D01*
X168318998Y-72418150D01*
X168248480Y-72772668D01*
X168248480Y-73134132D01*
X168318998Y-73488650D01*
X168457324Y-73822599D01*
X168658142Y-74123144D01*
X168913736Y-74378738D01*
X169214281Y-74579556D01*
X169300642Y-74615328D01*
X168883480Y-74615328D01*
X168758998Y-74627588D01*
X168639300Y-74663898D01*
X168528986Y-74722863D01*
X168432295Y-74802215D01*
X168352943Y-74898906D01*
X168293978Y-75009220D01*
X168257668Y-75128918D01*
X168245408Y-75253400D01*
X168245408Y-77653400D01*
X168257668Y-77777882D01*
X168293978Y-77897580D01*
X168352943Y-78007894D01*
X168432295Y-78104585D01*
X168528986Y-78183937D01*
X168639300Y-78242902D01*
X168758998Y-78279212D01*
X168883480Y-78291472D01*
X171283480Y-78291472D01*
X171407962Y-78279212D01*
X171527660Y-78242902D01*
X171637974Y-78183937D01*
X171734665Y-78104585D01*
X171814017Y-78007894D01*
X171872982Y-77897580D01*
X171909292Y-77777882D01*
X171921552Y-77653400D01*
X171921552Y-75253400D01*
X171909292Y-75128918D01*
X171872982Y-75009220D01*
X171814017Y-74898906D01*
X171734665Y-74802215D01*
X171637974Y-74722863D01*
X171527660Y-74663898D01*
X171407962Y-74627588D01*
X171283480Y-74615328D01*
X170866318Y-74615328D01*
X170952679Y-74579556D01*
X171253224Y-74378738D01*
X171508818Y-74123144D01*
X171709636Y-73822599D01*
X171847962Y-73488650D01*
X171918480Y-73134132D01*
X171918480Y-72772668D01*
X171847962Y-72418150D01*
X171709636Y-72084201D01*
X171508818Y-71783656D01*
X171253224Y-71528062D01*
X170952679Y-71327244D01*
X170653693Y-71203400D01*
X170952679Y-71079556D01*
X171253224Y-70878738D01*
X171508818Y-70623144D01*
X171709636Y-70322599D01*
X171847962Y-69988650D01*
X171918480Y-69634132D01*
X171918480Y-69272668D01*
X171847962Y-68918150D01*
X171709636Y-68584201D01*
X171508818Y-68283656D01*
X171253224Y-68028062D01*
X170952679Y-67827244D01*
X170653693Y-67703400D01*
X170952679Y-67579556D01*
X171253224Y-67378738D01*
X171508818Y-67123144D01*
X171709636Y-66822599D01*
X171847962Y-66488650D01*
X171918480Y-66134132D01*
X171918480Y-65772668D01*
X171847962Y-65418150D01*
X171709636Y-65084201D01*
X171508818Y-64783656D01*
X171253224Y-64528062D01*
X170952679Y-64327244D01*
X170653693Y-64203400D01*
X170952679Y-64079556D01*
X171253224Y-63878738D01*
X171508818Y-63623144D01*
X171709636Y-63322599D01*
X171829759Y-63032596D01*
X187338009Y-78540846D01*
X166630083Y-78551971D01*
X166856686Y-49743280D01*
X222854520Y-49707880D01*
X222854520Y-55692040D01*
X222856960Y-55716816D01*
X222864187Y-55740641D01*
X222875923Y-55762597D01*
X222891717Y-55781843D01*
X222910963Y-55797637D01*
X222932919Y-55809373D01*
X222956744Y-55816600D01*
X222980645Y-55819037D01*
X251728365Y-56017157D01*
X251753157Y-56014888D01*
X251777031Y-56007825D01*
X251799068Y-55996240D01*
X251818422Y-55980579D01*
X251834348Y-55961443D01*
X251846235Y-55939568D01*
X251853626Y-55915794D01*
X251856238Y-55889365D01*
X251853096Y-55387652D01*
X251896655Y-55606635D01*
X252026501Y-55920109D01*
X252215007Y-56202229D01*
X252454931Y-56442153D01*
X252737051Y-56630659D01*
X253050525Y-56760505D01*
X253383309Y-56826700D01*
X253722611Y-56826700D01*
X254055395Y-56760505D01*
X254368869Y-56630659D01*
X254650989Y-56442153D01*
X254890913Y-56202229D01*
X255079419Y-55920109D01*
X255209265Y-55606635D01*
X255275460Y-55273851D01*
X255275460Y-54934549D01*
X257330460Y-54934549D01*
X257330460Y-55273851D01*
X257396655Y-55606635D01*
X257526501Y-55920109D01*
X257715007Y-56202229D01*
X257954931Y-56442153D01*
X258237051Y-56630659D01*
X258550525Y-56760505D01*
X258883309Y-56826700D01*
X259222611Y-56826700D01*
X259555395Y-56760505D01*
X259868869Y-56630659D01*
X260150989Y-56442153D01*
X260390913Y-56202229D01*
X260579419Y-55920109D01*
X260709265Y-55606635D01*
X260775460Y-55273851D01*
X260775460Y-54934549D01*
X260709265Y-54601765D01*
X260579419Y-54288291D01*
X260390913Y-54006171D01*
X260150989Y-53766247D01*
X259868869Y-53577741D01*
X259555395Y-53447895D01*
X259222611Y-53381700D01*
X258883309Y-53381700D01*
X258550525Y-53447895D01*
X258237051Y-53577741D01*
X257954931Y-53766247D01*
X257715007Y-54006171D01*
X257526501Y-54288291D01*
X257396655Y-54601765D01*
X257330460Y-54934549D01*
X255275460Y-54934549D01*
X255209265Y-54601765D01*
X255079419Y-54288291D01*
X254890913Y-54006171D01*
X254650989Y-53766247D01*
X254368869Y-53577741D01*
X254055395Y-53447895D01*
X253722611Y-53381700D01*
X253383309Y-53381700D01*
X253050525Y-53447895D01*
X252737051Y-53577741D01*
X252454931Y-53766247D01*
X252215007Y-54006171D01*
X252026501Y-54288291D01*
X251896655Y-54601765D01*
X251849655Y-54838050D01*
X251823960Y-50734549D01*
X251830460Y-50734549D01*
X251830460Y-51073851D01*
X251896655Y-51406635D01*
X252026501Y-51720109D01*
X252215007Y-52002229D01*
X252454931Y-52242153D01*
X252737051Y-52430659D01*
X253050525Y-52560505D01*
X253383309Y-52626700D01*
X253722611Y-52626700D01*
X254055395Y-52560505D01*
X254368869Y-52430659D01*
X254650989Y-52242153D01*
X254791141Y-52102001D01*
X258034764Y-52102001D01*
X258141089Y-52375348D01*
X258445618Y-52524978D01*
X258773485Y-52612322D01*
X259112094Y-52634024D01*
X259448430Y-52589249D01*
X259769567Y-52479719D01*
X259964831Y-52375348D01*
X260071156Y-52102001D01*
X259052960Y-51083805D01*
X258034764Y-52102001D01*
X254791141Y-52102001D01*
X254890913Y-52002229D01*
X255079419Y-51720109D01*
X255209265Y-51406635D01*
X255275460Y-51073851D01*
X255275460Y-50963334D01*
X257323136Y-50963334D01*
X257367911Y-51299670D01*
X257477441Y-51620807D01*
X257581812Y-51816071D01*
X257855159Y-51922396D01*
X258873355Y-50904200D01*
X259232565Y-50904200D01*
X260250761Y-51922396D01*
X260524108Y-51816071D01*
X260673738Y-51511542D01*
X260761082Y-51183675D01*
X260782784Y-50845066D01*
X260738009Y-50508730D01*
X260628479Y-50187593D01*
X260524108Y-49992329D01*
X260250761Y-49886004D01*
X259232565Y-50904200D01*
X258873355Y-50904200D01*
X257855159Y-49886004D01*
X257581812Y-49992329D01*
X257432182Y-50296858D01*
X257344838Y-50624725D01*
X257323136Y-50963334D01*
X255275460Y-50963334D01*
X255275460Y-50734549D01*
X255209265Y-50401765D01*
X255079419Y-50088291D01*
X254890913Y-49806171D01*
X254791141Y-49706399D01*
X258034764Y-49706399D01*
X259052960Y-50724595D01*
X260071156Y-49706399D01*
X259964831Y-49433052D01*
X259660302Y-49283422D01*
X259332435Y-49196078D01*
X258993826Y-49174376D01*
X258657490Y-49219151D01*
X258336353Y-49328681D01*
X258141089Y-49433052D01*
X258034764Y-49706399D01*
X254791141Y-49706399D01*
X254650989Y-49566247D01*
X254368869Y-49377741D01*
X254055395Y-49247895D01*
X253722611Y-49181700D01*
X253383309Y-49181700D01*
X253050525Y-49247895D01*
X252737051Y-49377741D01*
X252454931Y-49566247D01*
X252215007Y-49806171D01*
X252026501Y-50088291D01*
X251896655Y-50401765D01*
X251830460Y-50734549D01*
X251823960Y-50734549D01*
X251806238Y-47904400D01*
X261361371Y-47904400D01*
X261553488Y-99796407D01*
G37*
%TD.AperFunction*%
%TD*%
M02*
