%TF.GenerationSoftware,KiCad,Pcbnew,(5.1.9)-1*%
%TF.CreationDate,2021-07-06T18:24:39-05:00*%
%TF.ProjectId,GEN 1 PSU CARD,47454e20-3120-4505-9355-20434152442e,rev?*%
%TF.SameCoordinates,Original*%
%TF.FileFunction,Legend,Top*%
%TF.FilePolarity,Positive*%
%FSLAX46Y46*%
G04 Gerber Fmt 4.6, Leading zero omitted, Abs format (unit mm)*
G04 Created by KiCad (PCBNEW (5.1.9)-1) date 2021-07-06 18:24:39*
%MOMM*%
%LPD*%
G01*
G04 APERTURE LIST*
%ADD10C,0.150000*%
%ADD11C,0.120000*%
%ADD12C,0.200000*%
%ADD13C,0.254000*%
G04 APERTURE END LIST*
D10*
X188611823Y-97216909D02*
X190026036Y-95802696D01*
X190362754Y-96139413D01*
X190497441Y-96408787D01*
X190497441Y-96678161D01*
X190430097Y-96880192D01*
X190228067Y-97216909D01*
X190026036Y-97418940D01*
X189689319Y-97620970D01*
X189487288Y-97688314D01*
X189217914Y-97688314D01*
X188948540Y-97553627D01*
X188611823Y-97216909D01*
X191709624Y-97486283D02*
X191978998Y-97755657D01*
X192046341Y-97957688D01*
X192046341Y-98227062D01*
X191844311Y-98563779D01*
X191372906Y-99035184D01*
X191036189Y-99237214D01*
X190766815Y-99237214D01*
X190564784Y-99169871D01*
X190295410Y-98900497D01*
X190228067Y-98698466D01*
X190228067Y-98429092D01*
X190430097Y-98092375D01*
X190901502Y-97620970D01*
X191238219Y-97418940D01*
X191507593Y-97418940D01*
X191709624Y-97486283D01*
X192585089Y-101190176D02*
X193999303Y-99775962D01*
X193393211Y-101998298D01*
X194807425Y-100584084D01*
X195750234Y-101526893D02*
X196019608Y-101796267D01*
X196086952Y-101998298D01*
X196086952Y-102267672D01*
X195884921Y-102604390D01*
X195413517Y-103075794D01*
X195076799Y-103277825D01*
X194807425Y-103277825D01*
X194605395Y-103210481D01*
X194336020Y-102941107D01*
X194268677Y-102739077D01*
X194268677Y-102469703D01*
X194470707Y-102132985D01*
X194942112Y-101661580D01*
X195278830Y-101459550D01*
X195548204Y-101459550D01*
X195750234Y-101526893D01*
X196760387Y-102537046D02*
X197568509Y-103345168D01*
X195750234Y-104355321D02*
X197164448Y-102941107D01*
X197703196Y-106308282D02*
X199117409Y-104894069D01*
X199454127Y-105230786D01*
X199588814Y-105500160D01*
X199588814Y-105769534D01*
X199521470Y-105971565D01*
X199319440Y-106308282D01*
X199117409Y-106510313D01*
X198780692Y-106712343D01*
X198578661Y-106779687D01*
X198309287Y-106779687D01*
X198039913Y-106645000D01*
X197703196Y-106308282D01*
X199925531Y-108530618D02*
X200127562Y-107385778D01*
X199117409Y-107722496D02*
X200531623Y-106308282D01*
X201070371Y-106847030D01*
X201137714Y-107049061D01*
X201137714Y-107183748D01*
X201070371Y-107385778D01*
X200868340Y-107587809D01*
X200666310Y-107655152D01*
X200531623Y-107655152D01*
X200329592Y-107587809D01*
X199790844Y-107049061D01*
X200531623Y-109136709D02*
X201945836Y-107722496D01*
X201878493Y-110483579D02*
X201205058Y-109810144D01*
X202619271Y-108395931D01*
X203023332Y-111628419D02*
X202349897Y-110954984D01*
X203764111Y-109540770D01*
X204908950Y-112705915D02*
X205582385Y-113379350D01*
X204370202Y-112975289D02*
X206255821Y-112032480D01*
X205313011Y-113918098D01*
X206996599Y-114120129D02*
X207131286Y-114389503D01*
X207131286Y-114524190D01*
X207063943Y-114726220D01*
X206861912Y-114928251D01*
X206659882Y-114995594D01*
X206525195Y-114995594D01*
X206323164Y-114928251D01*
X205784416Y-114389503D01*
X207198630Y-112975289D01*
X207670034Y-113446694D01*
X207737378Y-113648724D01*
X207737378Y-113783411D01*
X207670034Y-113985442D01*
X207535347Y-114120129D01*
X207333317Y-114187472D01*
X207198630Y-114187472D01*
X206996599Y-114120129D01*
X206525195Y-113648724D01*
X208882217Y-114658877D02*
X209151591Y-114928251D01*
X209218935Y-115130281D01*
X209218935Y-115399655D01*
X209016904Y-115736373D01*
X208545500Y-116207777D01*
X208208782Y-116409808D01*
X207939408Y-116409808D01*
X207737378Y-116342464D01*
X207468004Y-116073090D01*
X207400660Y-115871060D01*
X207400660Y-115601686D01*
X207602691Y-115264968D01*
X208074095Y-114793564D01*
X208410813Y-114591533D01*
X208680187Y-114591533D01*
X208882217Y-114658877D01*
X209892370Y-115669029D02*
X208949561Y-117554647D01*
X210835179Y-116611838D01*
X210633148Y-117756678D02*
X211104553Y-118228082D01*
X210565805Y-119170891D02*
X209892370Y-118497456D01*
X211306583Y-117083243D01*
X211980018Y-117756678D01*
X213461575Y-119238235D02*
X214269697Y-120046357D01*
X212451423Y-121056509D02*
X213865636Y-119642296D01*
X213326888Y-121931975D02*
X214741102Y-120517761D01*
X214067667Y-121191196D02*
X214875789Y-121999318D01*
X214135010Y-122740097D02*
X215549224Y-121325883D01*
X214808445Y-123413532D02*
X216222659Y-121999318D01*
X215481880Y-123952280D02*
X215616567Y-124221654D01*
X215953285Y-124558372D01*
X216155315Y-124625715D01*
X216290002Y-124625715D01*
X216492033Y-124558372D01*
X216626720Y-124423684D01*
X216694063Y-124221654D01*
X216694063Y-124086967D01*
X216626720Y-123884936D01*
X216424689Y-123548219D01*
X216357346Y-123346188D01*
X216357346Y-123211501D01*
X216424689Y-123009471D01*
X216559376Y-122874784D01*
X216761407Y-122807440D01*
X216896094Y-122807440D01*
X217098124Y-122874784D01*
X217434842Y-123211501D01*
X217569529Y-123480875D01*
X218579682Y-127184768D02*
X217906247Y-126511333D01*
X219320460Y-125097120D01*
X219051086Y-127656173D02*
X220465300Y-126241959D01*
X219724521Y-128329608D02*
X221138735Y-126915394D01*
X220532643Y-129137730D01*
X221946857Y-127723516D01*
X221946857Y-129070386D02*
X222418261Y-129541791D01*
X221879513Y-130484600D02*
X221206078Y-129811165D01*
X222620292Y-128396951D01*
X223293727Y-129070386D01*
D11*
X244256560Y-141894560D02*
X244256560Y-147279360D01*
X183225440Y-80944720D02*
X244256560Y-141894560D01*
X157566360Y-80954880D02*
X183225440Y-80944720D01*
X157586680Y-50820320D02*
X157566360Y-80954880D01*
X266161520Y-80507840D02*
X261548880Y-80507840D01*
X266151360Y-67736720D02*
X266161520Y-80507840D01*
X261437120Y-67736720D02*
X266151360Y-67736720D01*
D10*
X67663653Y-110761323D02*
X67663653Y-109808942D01*
X68235081Y-110951800D02*
X66235081Y-110285133D01*
X68235081Y-109618466D01*
X68044605Y-107808942D02*
X68139843Y-107904180D01*
X68235081Y-108189895D01*
X68235081Y-108380371D01*
X68139843Y-108666085D01*
X67949367Y-108856561D01*
X67758891Y-108951800D01*
X67377939Y-109047038D01*
X67092224Y-109047038D01*
X66711272Y-108951800D01*
X66520796Y-108856561D01*
X66330320Y-108666085D01*
X66235081Y-108380371D01*
X66235081Y-108189895D01*
X66330320Y-107904180D01*
X66425558Y-107808942D01*
X66139843Y-105523228D02*
X68711272Y-107237514D01*
X68235081Y-104856561D02*
X66235081Y-104856561D01*
X66235081Y-104380371D01*
X66330320Y-104094657D01*
X66520796Y-103904180D01*
X66711272Y-103808942D01*
X67092224Y-103713704D01*
X67377939Y-103713704D01*
X67758891Y-103808942D01*
X67949367Y-103904180D01*
X68139843Y-104094657D01*
X68235081Y-104380371D01*
X68235081Y-104856561D01*
X68044605Y-101713704D02*
X68139843Y-101808942D01*
X68235081Y-102094657D01*
X68235081Y-102285133D01*
X68139843Y-102570847D01*
X67949367Y-102761323D01*
X67758891Y-102856561D01*
X67377939Y-102951800D01*
X67092224Y-102951800D01*
X66711272Y-102856561D01*
X66520796Y-102761323D01*
X66330320Y-102570847D01*
X66235081Y-102285133D01*
X66235081Y-102094657D01*
X66330320Y-101808942D01*
X66425558Y-101713704D01*
X68044605Y-98189895D02*
X68139843Y-98285133D01*
X68235081Y-98570847D01*
X68235081Y-98761323D01*
X68139843Y-99047038D01*
X67949367Y-99237514D01*
X67758891Y-99332752D01*
X67377939Y-99427990D01*
X67092224Y-99427990D01*
X66711272Y-99332752D01*
X66520796Y-99237514D01*
X66330320Y-99047038D01*
X66235081Y-98761323D01*
X66235081Y-98570847D01*
X66330320Y-98285133D01*
X66425558Y-98189895D01*
X66235081Y-96951800D02*
X66235081Y-96570847D01*
X66330320Y-96380371D01*
X66520796Y-96189895D01*
X66901748Y-96094657D01*
X67568415Y-96094657D01*
X67949367Y-96189895D01*
X68139843Y-96380371D01*
X68235081Y-96570847D01*
X68235081Y-96951800D01*
X68139843Y-97142276D01*
X67949367Y-97332752D01*
X67568415Y-97427990D01*
X66901748Y-97427990D01*
X66520796Y-97332752D01*
X66330320Y-97142276D01*
X66235081Y-96951800D01*
X68235081Y-95237514D02*
X66235081Y-95237514D01*
X68235081Y-94094657D01*
X66235081Y-94094657D01*
X66235081Y-93427990D02*
X68235081Y-92761323D01*
X66235081Y-92094657D01*
X67187462Y-91427990D02*
X67187462Y-90761323D01*
X68235081Y-90475609D02*
X68235081Y-91427990D01*
X66235081Y-91427990D01*
X66235081Y-90475609D01*
X68235081Y-88475609D02*
X67282700Y-89142276D01*
X68235081Y-89618466D02*
X66235081Y-89618466D01*
X66235081Y-88856561D01*
X66330320Y-88666085D01*
X66425558Y-88570847D01*
X66616034Y-88475609D01*
X66901748Y-88475609D01*
X67092224Y-88570847D01*
X67187462Y-88666085D01*
X67282700Y-88856561D01*
X67282700Y-89618466D01*
X66235081Y-87904180D02*
X66235081Y-86761323D01*
X68235081Y-87332752D02*
X66235081Y-87332752D01*
X67187462Y-86094657D02*
X67187462Y-85427990D01*
X68235081Y-85142276D02*
X68235081Y-86094657D01*
X66235081Y-86094657D01*
X66235081Y-85142276D01*
X68235081Y-83142276D02*
X67282700Y-83808942D01*
X68235081Y-84285133D02*
X66235081Y-84285133D01*
X66235081Y-83523228D01*
X66330320Y-83332752D01*
X66425558Y-83237514D01*
X66616034Y-83142276D01*
X66901748Y-83142276D01*
X67092224Y-83237514D01*
X67187462Y-83332752D01*
X67282700Y-83523228D01*
X67282700Y-84285133D01*
X182006335Y-76091160D02*
X181911097Y-76043540D01*
X181768240Y-76043540D01*
X181625382Y-76091160D01*
X181530144Y-76186398D01*
X181482525Y-76281636D01*
X181434906Y-76472112D01*
X181434906Y-76614969D01*
X181482525Y-76805445D01*
X181530144Y-76900683D01*
X181625382Y-76995921D01*
X181768240Y-77043540D01*
X181863478Y-77043540D01*
X182006335Y-76995921D01*
X182053954Y-76948302D01*
X182053954Y-76614969D01*
X181863478Y-76614969D01*
X182482525Y-77043540D02*
X182482525Y-76043540D01*
X183053954Y-77043540D01*
X183053954Y-76043540D01*
X183530144Y-77043540D02*
X183530144Y-76043540D01*
X183768240Y-76043540D01*
X183911097Y-76091160D01*
X184006335Y-76186398D01*
X184053954Y-76281636D01*
X184101573Y-76472112D01*
X184101573Y-76614969D01*
X184053954Y-76805445D01*
X184006335Y-76900683D01*
X183911097Y-76995921D01*
X183768240Y-77043540D01*
X183530144Y-77043540D01*
X182006335Y-72580880D02*
X181911097Y-72533260D01*
X181768240Y-72533260D01*
X181625382Y-72580880D01*
X181530144Y-72676118D01*
X181482525Y-72771356D01*
X181434906Y-72961832D01*
X181434906Y-73104689D01*
X181482525Y-73295165D01*
X181530144Y-73390403D01*
X181625382Y-73485641D01*
X181768240Y-73533260D01*
X181863478Y-73533260D01*
X182006335Y-73485641D01*
X182053954Y-73438022D01*
X182053954Y-73104689D01*
X181863478Y-73104689D01*
X182482525Y-73533260D02*
X182482525Y-72533260D01*
X183053954Y-73533260D01*
X183053954Y-72533260D01*
X183530144Y-73533260D02*
X183530144Y-72533260D01*
X183768240Y-72533260D01*
X183911097Y-72580880D01*
X184006335Y-72676118D01*
X184053954Y-72771356D01*
X184101573Y-72961832D01*
X184101573Y-73104689D01*
X184053954Y-73295165D01*
X184006335Y-73390403D01*
X183911097Y-73485641D01*
X183768240Y-73533260D01*
X183530144Y-73533260D01*
X181782815Y-69126480D02*
X181687577Y-69078860D01*
X181544720Y-69078860D01*
X181401862Y-69126480D01*
X181306624Y-69221718D01*
X181259005Y-69316956D01*
X181211386Y-69507432D01*
X181211386Y-69650289D01*
X181259005Y-69840765D01*
X181306624Y-69936003D01*
X181401862Y-70031241D01*
X181544720Y-70078860D01*
X181639958Y-70078860D01*
X181782815Y-70031241D01*
X181830434Y-69983622D01*
X181830434Y-69650289D01*
X181639958Y-69650289D01*
X182259005Y-70078860D02*
X182259005Y-69078860D01*
X182830434Y-70078860D01*
X182830434Y-69078860D01*
X183306624Y-70078860D02*
X183306624Y-69078860D01*
X183544720Y-69078860D01*
X183687577Y-69126480D01*
X183782815Y-69221718D01*
X183830434Y-69316956D01*
X183878053Y-69507432D01*
X183878053Y-69650289D01*
X183830434Y-69840765D01*
X183782815Y-69936003D01*
X183687577Y-70031241D01*
X183544720Y-70078860D01*
X183306624Y-70078860D01*
X181894575Y-65443480D02*
X181799337Y-65395860D01*
X181656480Y-65395860D01*
X181513622Y-65443480D01*
X181418384Y-65538718D01*
X181370765Y-65633956D01*
X181323146Y-65824432D01*
X181323146Y-65967289D01*
X181370765Y-66157765D01*
X181418384Y-66253003D01*
X181513622Y-66348241D01*
X181656480Y-66395860D01*
X181751718Y-66395860D01*
X181894575Y-66348241D01*
X181942194Y-66300622D01*
X181942194Y-65967289D01*
X181751718Y-65967289D01*
X182370765Y-66395860D02*
X182370765Y-65395860D01*
X182942194Y-66395860D01*
X182942194Y-65395860D01*
X183418384Y-66395860D02*
X183418384Y-65395860D01*
X183656480Y-65395860D01*
X183799337Y-65443480D01*
X183894575Y-65538718D01*
X183942194Y-65633956D01*
X183989813Y-65824432D01*
X183989813Y-65967289D01*
X183942194Y-66157765D01*
X183894575Y-66253003D01*
X183799337Y-66348241D01*
X183656480Y-66395860D01*
X183418384Y-66395860D01*
X181838695Y-61821440D02*
X181743457Y-61773820D01*
X181600600Y-61773820D01*
X181457742Y-61821440D01*
X181362504Y-61916678D01*
X181314885Y-62011916D01*
X181267266Y-62202392D01*
X181267266Y-62345249D01*
X181314885Y-62535725D01*
X181362504Y-62630963D01*
X181457742Y-62726201D01*
X181600600Y-62773820D01*
X181695838Y-62773820D01*
X181838695Y-62726201D01*
X181886314Y-62678582D01*
X181886314Y-62345249D01*
X181695838Y-62345249D01*
X182314885Y-62773820D02*
X182314885Y-61773820D01*
X182886314Y-62773820D01*
X182886314Y-61773820D01*
X183362504Y-62773820D02*
X183362504Y-61773820D01*
X183600600Y-61773820D01*
X183743457Y-61821440D01*
X183838695Y-61916678D01*
X183886314Y-62011916D01*
X183933933Y-62202392D01*
X183933933Y-62345249D01*
X183886314Y-62535725D01*
X183838695Y-62630963D01*
X183743457Y-62726201D01*
X183600600Y-62773820D01*
X183362504Y-62773820D01*
X181782815Y-58306080D02*
X181687577Y-58258460D01*
X181544720Y-58258460D01*
X181401862Y-58306080D01*
X181306624Y-58401318D01*
X181259005Y-58496556D01*
X181211386Y-58687032D01*
X181211386Y-58829889D01*
X181259005Y-59020365D01*
X181306624Y-59115603D01*
X181401862Y-59210841D01*
X181544720Y-59258460D01*
X181639958Y-59258460D01*
X181782815Y-59210841D01*
X181830434Y-59163222D01*
X181830434Y-58829889D01*
X181639958Y-58829889D01*
X182259005Y-59258460D02*
X182259005Y-58258460D01*
X182830434Y-59258460D01*
X182830434Y-58258460D01*
X183306624Y-59258460D02*
X183306624Y-58258460D01*
X183544720Y-58258460D01*
X183687577Y-58306080D01*
X183782815Y-58401318D01*
X183830434Y-58496556D01*
X183878053Y-58687032D01*
X183878053Y-58829889D01*
X183830434Y-59020365D01*
X183782815Y-59115603D01*
X183687577Y-59210841D01*
X183544720Y-59258460D01*
X183306624Y-59258460D01*
X180610095Y-55478988D02*
X181372000Y-55478988D01*
X182372000Y-55859940D02*
X181800571Y-55859940D01*
X182086285Y-55859940D02*
X182086285Y-54859940D01*
X181991047Y-55002798D01*
X181895809Y-55098036D01*
X181800571Y-55145655D01*
X182752952Y-54955179D02*
X182800571Y-54907560D01*
X182895809Y-54859940D01*
X183133904Y-54859940D01*
X183229142Y-54907560D01*
X183276761Y-54955179D01*
X183324380Y-55050417D01*
X183324380Y-55145655D01*
X183276761Y-55288512D01*
X182705333Y-55859940D01*
X183324380Y-55859940D01*
X183610095Y-54859940D02*
X183943428Y-55859940D01*
X184276761Y-54859940D01*
X180128872Y-51349660D02*
X180319348Y-51349660D01*
X180414586Y-51397280D01*
X180509824Y-51492518D01*
X180557443Y-51682994D01*
X180557443Y-52016327D01*
X180509824Y-52206803D01*
X180414586Y-52302041D01*
X180319348Y-52349660D01*
X180128872Y-52349660D01*
X180033634Y-52302041D01*
X179938396Y-52206803D01*
X179890777Y-52016327D01*
X179890777Y-51682994D01*
X179938396Y-51492518D01*
X180033634Y-51397280D01*
X180128872Y-51349660D01*
X180986015Y-52349660D02*
X180986015Y-51349660D01*
X181557443Y-52349660D01*
X181557443Y-51349660D01*
X182033634Y-51968708D02*
X182795539Y-51968708D01*
X183462205Y-51349660D02*
X183652681Y-51349660D01*
X183747920Y-51397280D01*
X183843158Y-51492518D01*
X183890777Y-51682994D01*
X183890777Y-52016327D01*
X183843158Y-52206803D01*
X183747920Y-52302041D01*
X183652681Y-52349660D01*
X183462205Y-52349660D01*
X183366967Y-52302041D01*
X183271729Y-52206803D01*
X183224110Y-52016327D01*
X183224110Y-51682994D01*
X183271729Y-51492518D01*
X183366967Y-51397280D01*
X183462205Y-51349660D01*
X184652681Y-51825851D02*
X184319348Y-51825851D01*
X184319348Y-52349660D02*
X184319348Y-51349660D01*
X184795539Y-51349660D01*
X185509824Y-51825851D02*
X185176491Y-51825851D01*
X185176491Y-52349660D02*
X185176491Y-51349660D01*
X185652681Y-51349660D01*
X161930792Y-77165460D02*
X161359363Y-77165460D01*
X161645078Y-77165460D02*
X161645078Y-76165460D01*
X161549840Y-76308318D01*
X161454601Y-76403556D01*
X161359363Y-76451175D01*
X162311744Y-76260699D02*
X162359363Y-76213080D01*
X162454601Y-76165460D01*
X162692697Y-76165460D01*
X162787935Y-76213080D01*
X162835554Y-76260699D01*
X162883173Y-76355937D01*
X162883173Y-76451175D01*
X162835554Y-76594032D01*
X162264125Y-77165460D01*
X162883173Y-77165460D01*
X163168887Y-76165460D02*
X163502220Y-77165460D01*
X163835554Y-76165460D01*
X161758072Y-73370700D02*
X161186643Y-73370700D01*
X161472358Y-73370700D02*
X161472358Y-72370700D01*
X161377120Y-72513558D01*
X161281881Y-72608796D01*
X161186643Y-72656415D01*
X162139024Y-72465939D02*
X162186643Y-72418320D01*
X162281881Y-72370700D01*
X162519977Y-72370700D01*
X162615215Y-72418320D01*
X162662834Y-72465939D01*
X162710453Y-72561177D01*
X162710453Y-72656415D01*
X162662834Y-72799272D01*
X162091405Y-73370700D01*
X162710453Y-73370700D01*
X162996167Y-72370700D02*
X163329500Y-73370700D01*
X163662834Y-72370700D01*
X162415243Y-62403740D02*
X161939053Y-62403740D01*
X161891434Y-62879931D01*
X161939053Y-62832312D01*
X162034291Y-62784693D01*
X162272386Y-62784693D01*
X162367624Y-62832312D01*
X162415243Y-62879931D01*
X162462862Y-62975169D01*
X162462862Y-63213264D01*
X162415243Y-63308502D01*
X162367624Y-63356121D01*
X162272386Y-63403740D01*
X162034291Y-63403740D01*
X161939053Y-63356121D01*
X161891434Y-63308502D01*
X162748577Y-62403740D02*
X163081910Y-63403740D01*
X163415243Y-62403740D01*
X162415243Y-59401460D02*
X161939053Y-59401460D01*
X161891434Y-59877651D01*
X161939053Y-59830032D01*
X162034291Y-59782413D01*
X162272386Y-59782413D01*
X162367624Y-59830032D01*
X162415243Y-59877651D01*
X162462862Y-59972889D01*
X162462862Y-60210984D01*
X162415243Y-60306222D01*
X162367624Y-60353841D01*
X162272386Y-60401460D01*
X162034291Y-60401460D01*
X161939053Y-60353841D01*
X161891434Y-60306222D01*
X162748577Y-59401460D02*
X163081910Y-60401460D01*
X163415243Y-59401460D01*
X162359363Y-65858140D02*
X161883173Y-65858140D01*
X161835554Y-66334331D01*
X161883173Y-66286712D01*
X161978411Y-66239093D01*
X162216506Y-66239093D01*
X162311744Y-66286712D01*
X162359363Y-66334331D01*
X162406982Y-66429569D01*
X162406982Y-66667664D01*
X162359363Y-66762902D01*
X162311744Y-66810521D01*
X162216506Y-66858140D01*
X161978411Y-66858140D01*
X161883173Y-66810521D01*
X161835554Y-66762902D01*
X162692697Y-65858140D02*
X163026030Y-66858140D01*
X163359363Y-65858140D01*
X162298403Y-69480180D02*
X161822213Y-69480180D01*
X161774594Y-69956371D01*
X161822213Y-69908752D01*
X161917451Y-69861133D01*
X162155546Y-69861133D01*
X162250784Y-69908752D01*
X162298403Y-69956371D01*
X162346022Y-70051609D01*
X162346022Y-70289704D01*
X162298403Y-70384942D01*
X162250784Y-70432561D01*
X162155546Y-70480180D01*
X161917451Y-70480180D01*
X161822213Y-70432561D01*
X161774594Y-70384942D01*
X162631737Y-69480180D02*
X162965070Y-70480180D01*
X163298403Y-69480180D01*
X162415243Y-55266340D02*
X161939053Y-55266340D01*
X161891434Y-55742531D01*
X161939053Y-55694912D01*
X162034291Y-55647293D01*
X162272386Y-55647293D01*
X162367624Y-55694912D01*
X162415243Y-55742531D01*
X162462862Y-55837769D01*
X162462862Y-56075864D01*
X162415243Y-56171102D01*
X162367624Y-56218721D01*
X162272386Y-56266340D01*
X162034291Y-56266340D01*
X161939053Y-56218721D01*
X161891434Y-56171102D01*
X162748577Y-55266340D02*
X163081910Y-56266340D01*
X163415243Y-55266340D01*
X159978411Y-51583340D02*
X160168887Y-51583340D01*
X160264125Y-51630960D01*
X160359363Y-51726198D01*
X160406982Y-51916674D01*
X160406982Y-52250007D01*
X160359363Y-52440483D01*
X160264125Y-52535721D01*
X160168887Y-52583340D01*
X159978411Y-52583340D01*
X159883173Y-52535721D01*
X159787935Y-52440483D01*
X159740316Y-52250007D01*
X159740316Y-51916674D01*
X159787935Y-51726198D01*
X159883173Y-51630960D01*
X159978411Y-51583340D01*
X160787935Y-52535721D02*
X160930792Y-52583340D01*
X161168887Y-52583340D01*
X161264125Y-52535721D01*
X161311744Y-52488102D01*
X161359363Y-52392864D01*
X161359363Y-52297626D01*
X161311744Y-52202388D01*
X161264125Y-52154769D01*
X161168887Y-52107150D01*
X160978411Y-52059531D01*
X160883173Y-52011912D01*
X160835554Y-51964293D01*
X160787935Y-51869055D01*
X160787935Y-51773817D01*
X160835554Y-51678579D01*
X160883173Y-51630960D01*
X160978411Y-51583340D01*
X161216506Y-51583340D01*
X161359363Y-51630960D01*
X161787935Y-52202388D02*
X162549840Y-52202388D01*
X163216506Y-51583340D02*
X163406982Y-51583340D01*
X163502220Y-51630960D01*
X163597459Y-51726198D01*
X163645078Y-51916674D01*
X163645078Y-52250007D01*
X163597459Y-52440483D01*
X163502220Y-52535721D01*
X163406982Y-52583340D01*
X163216506Y-52583340D01*
X163121268Y-52535721D01*
X163026030Y-52440483D01*
X162978411Y-52250007D01*
X162978411Y-51916674D01*
X163026030Y-51726198D01*
X163121268Y-51630960D01*
X163216506Y-51583340D01*
X164406982Y-52059531D02*
X164073649Y-52059531D01*
X164073649Y-52583340D02*
X164073649Y-51583340D01*
X164549840Y-51583340D01*
X165264125Y-52059531D02*
X164930792Y-52059531D01*
X164930792Y-52583340D02*
X164930792Y-51583340D01*
X165406982Y-51583340D01*
D12*
%TO.C,J4*%
X251702960Y-97104200D02*
X251702960Y-47804200D01*
X251702960Y-47804200D02*
X261502960Y-47804200D01*
X261502960Y-47804200D02*
X261502960Y-99804200D01*
X261502960Y-99804200D02*
X253552960Y-99804200D01*
D10*
%TO.C,U1*%
X247756680Y-106045000D02*
X265536680Y-106045000D01*
X247756680Y-136525000D02*
X247756680Y-106045000D01*
X252836680Y-136525000D02*
X247756680Y-136525000D01*
X252836680Y-139065000D02*
X252836680Y-136525000D01*
X260456680Y-139065000D02*
X252836680Y-139065000D01*
X260456680Y-136525000D02*
X260456680Y-139065000D01*
X265536680Y-136525000D02*
X260456680Y-136525000D01*
X265536680Y-136525000D02*
X265536680Y-106045000D01*
D11*
%TO.C,J3*%
X174883480Y-78503400D02*
X174883480Y-78103400D01*
X174243480Y-78503400D02*
X174883480Y-78503400D01*
X171024480Y-53098400D02*
X171152480Y-53227400D01*
X168808480Y-50883400D02*
X168902480Y-50977400D01*
X171264480Y-52928400D02*
X171357480Y-53022400D01*
X169014480Y-50678400D02*
X169142480Y-50807400D01*
X171024480Y-56598400D02*
X171152480Y-56727400D01*
X168808480Y-54383400D02*
X168902480Y-54477400D01*
X171264480Y-56428400D02*
X171357480Y-56522400D01*
X169014480Y-54178400D02*
X169142480Y-54307400D01*
X171024480Y-60098400D02*
X171152480Y-60227400D01*
X168808480Y-57883400D02*
X168902480Y-57977400D01*
X171264480Y-59928400D02*
X171357480Y-60022400D01*
X169014480Y-57678400D02*
X169142480Y-57807400D01*
X171024480Y-63598400D02*
X171152480Y-63727400D01*
X168808480Y-61383400D02*
X168902480Y-61477400D01*
X171264480Y-63428400D02*
X171357480Y-63522400D01*
X169014480Y-61178400D02*
X169142480Y-61307400D01*
X171024480Y-67098400D02*
X171152480Y-67227400D01*
X168808480Y-64883400D02*
X168902480Y-64977400D01*
X171264480Y-66928400D02*
X171357480Y-67022400D01*
X169014480Y-64678400D02*
X169142480Y-64807400D01*
X171024480Y-70598400D02*
X171152480Y-70727400D01*
X168808480Y-68383400D02*
X168902480Y-68477400D01*
X171264480Y-70428400D02*
X171357480Y-70522400D01*
X169014480Y-68178400D02*
X169142480Y-68307400D01*
X171024480Y-74098400D02*
X171152480Y-74227400D01*
X168808480Y-71883400D02*
X168902480Y-71977400D01*
X171264480Y-73928400D02*
X171357480Y-74022400D01*
X169014480Y-71678400D02*
X169142480Y-71807400D01*
X166923480Y-50143400D02*
X174643480Y-50143400D01*
X166923480Y-78263400D02*
X174643480Y-78263400D01*
X174643480Y-78263400D02*
X174643480Y-50143400D01*
X166923480Y-78263400D02*
X166923480Y-50143400D01*
X173083480Y-78263400D02*
X173083480Y-50143400D01*
X174183480Y-78263400D02*
X174183480Y-50143400D01*
X171763480Y-51953400D02*
G75*
G03*
X171763480Y-51953400I-1680000J0D01*
G01*
X171763480Y-55453400D02*
G75*
G03*
X171763480Y-55453400I-1680000J0D01*
G01*
X171763480Y-58953400D02*
G75*
G03*
X171763480Y-58953400I-1680000J0D01*
G01*
X171763480Y-62453400D02*
G75*
G03*
X171763480Y-62453400I-1680000J0D01*
G01*
X171763480Y-65953400D02*
G75*
G03*
X171763480Y-65953400I-1680000J0D01*
G01*
X171763480Y-69453400D02*
G75*
G03*
X171763480Y-69453400I-1680000J0D01*
G01*
X171763480Y-72953400D02*
G75*
G03*
X171763480Y-72953400I-1680000J0D01*
G01*
X171763579Y-76424726D02*
G75*
G02*
X171523480Y-77319400I-1680099J-28674D01*
G01*
X170973374Y-77878758D02*
G75*
G02*
X169217480Y-77893400I-889894J1425358D01*
G01*
X168658122Y-77343294D02*
G75*
G02*
X168643480Y-75587400I1425358J889894D01*
G01*
X169193287Y-75027895D02*
G75*
G02*
X170974480Y-75028400I890193J-1425505D01*
G01*
X171508201Y-75563136D02*
G75*
G02*
X171763480Y-76453400I-1424721J-890264D01*
G01*
%TO.C,J2*%
X194781840Y-78371320D02*
X194781840Y-77971320D01*
X194141840Y-78371320D02*
X194781840Y-78371320D01*
X190922840Y-52966320D02*
X191050840Y-53095320D01*
X188706840Y-50751320D02*
X188800840Y-50845320D01*
X191162840Y-52796320D02*
X191255840Y-52890320D01*
X188912840Y-50546320D02*
X189040840Y-50675320D01*
X190922840Y-56466320D02*
X191050840Y-56595320D01*
X188706840Y-54251320D02*
X188800840Y-54345320D01*
X191162840Y-56296320D02*
X191255840Y-56390320D01*
X188912840Y-54046320D02*
X189040840Y-54175320D01*
X190922840Y-59966320D02*
X191050840Y-60095320D01*
X188706840Y-57751320D02*
X188800840Y-57845320D01*
X191162840Y-59796320D02*
X191255840Y-59890320D01*
X188912840Y-57546320D02*
X189040840Y-57675320D01*
X190922840Y-63466320D02*
X191050840Y-63595320D01*
X188706840Y-61251320D02*
X188800840Y-61345320D01*
X191162840Y-63296320D02*
X191255840Y-63390320D01*
X188912840Y-61046320D02*
X189040840Y-61175320D01*
X190922840Y-66966320D02*
X191050840Y-67095320D01*
X188706840Y-64751320D02*
X188800840Y-64845320D01*
X191162840Y-66796320D02*
X191255840Y-66890320D01*
X188912840Y-64546320D02*
X189040840Y-64675320D01*
X190922840Y-70466320D02*
X191050840Y-70595320D01*
X188706840Y-68251320D02*
X188800840Y-68345320D01*
X191162840Y-70296320D02*
X191255840Y-70390320D01*
X188912840Y-68046320D02*
X189040840Y-68175320D01*
X190922840Y-73966320D02*
X191050840Y-74095320D01*
X188706840Y-71751320D02*
X188800840Y-71845320D01*
X191162840Y-73796320D02*
X191255840Y-73890320D01*
X188912840Y-71546320D02*
X189040840Y-71675320D01*
X186821840Y-50011320D02*
X194541840Y-50011320D01*
X186821840Y-78131320D02*
X194541840Y-78131320D01*
X194541840Y-78131320D02*
X194541840Y-50011320D01*
X186821840Y-78131320D02*
X186821840Y-50011320D01*
X192981840Y-78131320D02*
X192981840Y-50011320D01*
X194081840Y-78131320D02*
X194081840Y-50011320D01*
X191661840Y-51821320D02*
G75*
G03*
X191661840Y-51821320I-1680000J0D01*
G01*
X191661840Y-55321320D02*
G75*
G03*
X191661840Y-55321320I-1680000J0D01*
G01*
X191661840Y-58821320D02*
G75*
G03*
X191661840Y-58821320I-1680000J0D01*
G01*
X191661840Y-62321320D02*
G75*
G03*
X191661840Y-62321320I-1680000J0D01*
G01*
X191661840Y-65821320D02*
G75*
G03*
X191661840Y-65821320I-1680000J0D01*
G01*
X191661840Y-69321320D02*
G75*
G03*
X191661840Y-69321320I-1680000J0D01*
G01*
X191661840Y-72821320D02*
G75*
G03*
X191661840Y-72821320I-1680000J0D01*
G01*
X191661939Y-76292646D02*
G75*
G02*
X191421840Y-77187320I-1680099J-28674D01*
G01*
X190871734Y-77746678D02*
G75*
G02*
X189115840Y-77761320I-889894J1425358D01*
G01*
X188556482Y-77211214D02*
G75*
G02*
X188541840Y-75455320I1425358J889894D01*
G01*
X189091647Y-74895815D02*
G75*
G02*
X190872840Y-74896320I890193J-1425505D01*
G01*
X191406561Y-75431056D02*
G75*
G02*
X191661840Y-76321320I-1424721J-890264D01*
G01*
%TO.C,J4*%
D13*
X252857483Y-97527533D02*
X253764626Y-97527533D01*
X253946055Y-97588009D01*
X254067007Y-97708961D01*
X254127483Y-97890390D01*
X254127483Y-98011342D01*
X253280817Y-96378485D02*
X254127483Y-96378485D01*
X252797007Y-96680866D02*
X253704150Y-96983247D01*
X253704150Y-96197057D01*
%TO.C,J3*%
D10*
X165375860Y-64536733D02*
X166090146Y-64536733D01*
X166233003Y-64584352D01*
X166328241Y-64679590D01*
X166375860Y-64822447D01*
X166375860Y-64917685D01*
X165375860Y-64155780D02*
X165375860Y-63536733D01*
X165756813Y-63870066D01*
X165756813Y-63727209D01*
X165804432Y-63631971D01*
X165852051Y-63584352D01*
X165947289Y-63536733D01*
X166185384Y-63536733D01*
X166280622Y-63584352D01*
X166328241Y-63631971D01*
X166375860Y-63727209D01*
X166375860Y-64012923D01*
X166328241Y-64108161D01*
X166280622Y-64155780D01*
%TO.C,J2*%
X185274220Y-64404653D02*
X185988506Y-64404653D01*
X186131363Y-64452272D01*
X186226601Y-64547510D01*
X186274220Y-64690367D01*
X186274220Y-64785605D01*
X185369459Y-63976081D02*
X185321840Y-63928462D01*
X185274220Y-63833224D01*
X185274220Y-63595129D01*
X185321840Y-63499891D01*
X185369459Y-63452272D01*
X185464697Y-63404653D01*
X185559935Y-63404653D01*
X185702792Y-63452272D01*
X186274220Y-64023700D01*
X186274220Y-63404653D01*
%TD*%
M02*
