M48
; DRILL file {KiCad (5.1.10)-1} date 08/08/22 15:03:30
; FORMAT={-:-/ absolute / inch / decimal}
; #@! TF.CreationDate,2022-08-08T15:03:30-05:00
; #@! TF.GenerationSoftware,Kicad,Pcbnew,(5.1.10)-1
; #@! TF.FileFunction,Plated,1,2,PTH
FMAT,2
INCH
T1C0.0197
T2C0.0433
T3C0.0472
T4C0.0571
T5C0.1378
T6C0.1772
%
G90
G05
T1
X2.1322Y-2.0383
X2.1322Y-5.7883
X2.1625Y-1.9653
X2.1625Y-2.1114
X2.1625Y-5.7153
X2.1625Y-5.8614
X2.2356Y-1.935
X2.2356Y-2.1417
X2.2356Y-5.685
X2.2356Y-5.8917
X2.3087Y-1.9653
X2.3087Y-2.1114
X2.3087Y-5.7153
X2.3087Y-5.8614
X2.3389Y-2.0383
X2.3389Y-5.7883
X3.8822Y-2.0383
X3.8822Y-5.7883
X3.9125Y-1.9653
X3.9125Y-2.1114
X3.9125Y-5.7153
X3.9125Y-5.8614
X3.9856Y-1.935
X3.9856Y-2.1417
X3.9856Y-5.685
X3.9856Y-5.8917
X4.0587Y-1.9653
X4.0587Y-2.1114
X4.0587Y-5.7153
X4.0587Y-5.8614
X4.0889Y-2.0383
X4.0889Y-5.7883
T2
X8.756Y-2.416
X8.756Y-2.516
X8.756Y-2.616
X8.756Y-2.716
X8.756Y-2.816
X8.756Y-2.916
X8.756Y-3.016
X8.756Y-3.116
X8.756Y-3.216
X8.756Y-3.316
X8.756Y-3.416
X8.756Y-3.516
X9.356Y-2.416
X9.356Y-2.516
X9.356Y-2.616
X9.356Y-2.716
X9.356Y-2.816
X9.356Y-2.916
X9.356Y-3.016
X9.356Y-3.116
X9.356Y-3.216
X9.356Y-3.316
X9.356Y-3.416
X9.356Y-3.516
T3
X6.5342Y-2.0414
X6.5342Y-2.1792
X6.5342Y-2.317
X6.5342Y-2.4548
X6.5342Y-2.5926
X6.5342Y-2.7304
X6.5342Y-2.8682
X6.5342Y-3.006
X8.2396Y-2.0282
X8.2396Y-2.166
X8.2396Y-2.3038
X8.2396Y-2.4416
X8.2396Y-2.5794
X8.2396Y-2.7172
X8.2396Y-2.855
X8.2396Y-2.9928
T4
X7.2311Y-2.041
X7.2311Y-2.2064
X7.2311Y-2.3717
X7.2311Y-2.5371
X7.2311Y-2.7024
X7.2311Y-2.8678
X7.2311Y-3.0331
X7.2311Y-3.1985
X7.2311Y-3.3638
X7.2311Y-3.5292
X7.2311Y-3.6945
X7.2311Y-3.8599
X7.4476Y-2.041
X7.4476Y-2.2064
X7.4476Y-2.3717
X7.4476Y-2.5371
X7.4476Y-2.7024
X7.4476Y-2.8678
X7.4476Y-3.0331
X7.4476Y-3.1985
X7.4476Y-3.3638
X7.4476Y-3.5292
X7.4476Y-3.6945
X7.4476Y-3.8599
T5
X2.2356Y-2.0383
X2.2356Y-5.7883
X3.9856Y-2.0383
X3.9856Y-5.7883
T6
X1.3486Y-1.9668
X1.6752Y-5.829
X5.291Y-1.9516
X5.9028Y-5.835
X9.4352Y-1.9492
X10.4738Y-5.87
T0
M30
