%TF.GenerationSoftware,KiCad,Pcbnew,(5.1.10)-1*%
%TF.CreationDate,2023-06-15T12:59:47-05:00*%
%TF.ProjectId,FM Towns Pico Adapter,464d2054-6f77-46e7-9320-5069636f2041,rev?*%
%TF.SameCoordinates,Original*%
%TF.FileFunction,Soldermask,Top*%
%TF.FilePolarity,Negative*%
%FSLAX46Y46*%
G04 Gerber Fmt 4.6, Leading zero omitted, Abs format (unit mm)*
G04 Created by KiCad (PCBNEW (5.1.10)-1) date 2023-06-15 12:59:47*
%MOMM*%
%LPD*%
G01*
G04 APERTURE LIST*
%ADD10C,7.100000*%
%ADD11C,0.900000*%
%ADD12C,1.700000*%
%ADD13C,2.200000*%
%ADD14C,4.400000*%
%ADD15O,1.800000X1.800000*%
%ADD16C,3.103200*%
%ADD17C,4.300000*%
%ADD18C,1.400000*%
G04 APERTURE END LIST*
%TO.C,C2*%
G36*
G01*
X60027738Y-146900000D02*
X61384262Y-146900000D01*
G75*
G02*
X61656000Y-147171738I0J-271738D01*
G01*
X61656000Y-147878262D01*
G75*
G02*
X61384262Y-148150000I-271738J0D01*
G01*
X60027738Y-148150000D01*
G75*
G02*
X59756000Y-147878262I0J271738D01*
G01*
X59756000Y-147171738D01*
G75*
G02*
X60027738Y-146900000I271738J0D01*
G01*
G37*
G36*
G01*
X60027738Y-143950000D02*
X61384262Y-143950000D01*
G75*
G02*
X61656000Y-144221738I0J-271738D01*
G01*
X61656000Y-144928262D01*
G75*
G02*
X61384262Y-145200000I-271738J0D01*
G01*
X60027738Y-145200000D01*
G75*
G02*
X59756000Y-144928262I0J271738D01*
G01*
X59756000Y-144221738D01*
G75*
G02*
X60027738Y-143950000I271738J0D01*
G01*
G37*
%TD*%
%TO.C,C1*%
G36*
G01*
X61384262Y-150837000D02*
X60027738Y-150837000D01*
G75*
G02*
X59756000Y-150565262I0J271738D01*
G01*
X59756000Y-149858738D01*
G75*
G02*
X60027738Y-149587000I271738J0D01*
G01*
X61384262Y-149587000D01*
G75*
G02*
X61656000Y-149858738I0J-271738D01*
G01*
X61656000Y-150565262D01*
G75*
G02*
X61384262Y-150837000I-271738J0D01*
G01*
G37*
G36*
G01*
X61384262Y-153787000D02*
X60027738Y-153787000D01*
G75*
G02*
X59756000Y-153515262I0J271738D01*
G01*
X59756000Y-152808738D01*
G75*
G02*
X60027738Y-152537000I271738J0D01*
G01*
X61384262Y-152537000D01*
G75*
G02*
X61656000Y-152808738I0J-271738D01*
G01*
X61656000Y-153515262D01*
G75*
G02*
X61384262Y-153787000I-271738J0D01*
G01*
G37*
%TD*%
%TO.C,GP1*%
G36*
G01*
X57768000Y-151224000D02*
X57768000Y-149774000D01*
G75*
G02*
X57818000Y-149724000I50000J0D01*
G01*
X58268000Y-149724000D01*
G75*
G02*
X58318000Y-149774000I0J-50000D01*
G01*
X58318000Y-151224000D01*
G75*
G02*
X58268000Y-151274000I-50000J0D01*
G01*
X57818000Y-151274000D01*
G75*
G02*
X57768000Y-151224000I0J50000D01*
G01*
G37*
G36*
G01*
X57118000Y-151224000D02*
X57118000Y-149774000D01*
G75*
G02*
X57168000Y-149724000I50000J0D01*
G01*
X57618000Y-149724000D01*
G75*
G02*
X57668000Y-149774000I0J-50000D01*
G01*
X57668000Y-151224000D01*
G75*
G02*
X57618000Y-151274000I-50000J0D01*
G01*
X57168000Y-151274000D01*
G75*
G02*
X57118000Y-151224000I0J50000D01*
G01*
G37*
G36*
G01*
X56468000Y-151224000D02*
X56468000Y-149774000D01*
G75*
G02*
X56518000Y-149724000I50000J0D01*
G01*
X56968000Y-149724000D01*
G75*
G02*
X57018000Y-149774000I0J-50000D01*
G01*
X57018000Y-151224000D01*
G75*
G02*
X56968000Y-151274000I-50000J0D01*
G01*
X56518000Y-151274000D01*
G75*
G02*
X56468000Y-151224000I0J50000D01*
G01*
G37*
G36*
G01*
X55818000Y-151224000D02*
X55818000Y-149774000D01*
G75*
G02*
X55868000Y-149724000I50000J0D01*
G01*
X56318000Y-149724000D01*
G75*
G02*
X56368000Y-149774000I0J-50000D01*
G01*
X56368000Y-151224000D01*
G75*
G02*
X56318000Y-151274000I-50000J0D01*
G01*
X55868000Y-151274000D01*
G75*
G02*
X55818000Y-151224000I0J50000D01*
G01*
G37*
G36*
G01*
X55168000Y-151224000D02*
X55168000Y-149774000D01*
G75*
G02*
X55218000Y-149724000I50000J0D01*
G01*
X55668000Y-149724000D01*
G75*
G02*
X55718000Y-149774000I0J-50000D01*
G01*
X55718000Y-151224000D01*
G75*
G02*
X55668000Y-151274000I-50000J0D01*
G01*
X55218000Y-151274000D01*
G75*
G02*
X55168000Y-151224000I0J50000D01*
G01*
G37*
G36*
G01*
X54518000Y-151224000D02*
X54518000Y-149774000D01*
G75*
G02*
X54568000Y-149724000I50000J0D01*
G01*
X55018000Y-149724000D01*
G75*
G02*
X55068000Y-149774000I0J-50000D01*
G01*
X55068000Y-151224000D01*
G75*
G02*
X55018000Y-151274000I-50000J0D01*
G01*
X54568000Y-151274000D01*
G75*
G02*
X54518000Y-151224000I0J50000D01*
G01*
G37*
G36*
G01*
X53868000Y-151224000D02*
X53868000Y-149774000D01*
G75*
G02*
X53918000Y-149724000I50000J0D01*
G01*
X54368000Y-149724000D01*
G75*
G02*
X54418000Y-149774000I0J-50000D01*
G01*
X54418000Y-151224000D01*
G75*
G02*
X54368000Y-151274000I-50000J0D01*
G01*
X53918000Y-151274000D01*
G75*
G02*
X53868000Y-151224000I0J50000D01*
G01*
G37*
G36*
G01*
X53218000Y-151224000D02*
X53218000Y-149774000D01*
G75*
G02*
X53268000Y-149724000I50000J0D01*
G01*
X53718000Y-149724000D01*
G75*
G02*
X53768000Y-149774000I0J-50000D01*
G01*
X53768000Y-151224000D01*
G75*
G02*
X53718000Y-151274000I-50000J0D01*
G01*
X53268000Y-151274000D01*
G75*
G02*
X53218000Y-151224000I0J50000D01*
G01*
G37*
G36*
G01*
X52568000Y-151224000D02*
X52568000Y-149774000D01*
G75*
G02*
X52618000Y-149724000I50000J0D01*
G01*
X53068000Y-149724000D01*
G75*
G02*
X53118000Y-149774000I0J-50000D01*
G01*
X53118000Y-151224000D01*
G75*
G02*
X53068000Y-151274000I-50000J0D01*
G01*
X52618000Y-151274000D01*
G75*
G02*
X52568000Y-151224000I0J50000D01*
G01*
G37*
G36*
G01*
X51918000Y-151224000D02*
X51918000Y-149774000D01*
G75*
G02*
X51968000Y-149724000I50000J0D01*
G01*
X52418000Y-149724000D01*
G75*
G02*
X52468000Y-149774000I0J-50000D01*
G01*
X52468000Y-151224000D01*
G75*
G02*
X52418000Y-151274000I-50000J0D01*
G01*
X51968000Y-151274000D01*
G75*
G02*
X51918000Y-151224000I0J50000D01*
G01*
G37*
G36*
G01*
X51918000Y-145374000D02*
X51918000Y-143924000D01*
G75*
G02*
X51968000Y-143874000I50000J0D01*
G01*
X52418000Y-143874000D01*
G75*
G02*
X52468000Y-143924000I0J-50000D01*
G01*
X52468000Y-145374000D01*
G75*
G02*
X52418000Y-145424000I-50000J0D01*
G01*
X51968000Y-145424000D01*
G75*
G02*
X51918000Y-145374000I0J50000D01*
G01*
G37*
G36*
G01*
X52568000Y-145374000D02*
X52568000Y-143924000D01*
G75*
G02*
X52618000Y-143874000I50000J0D01*
G01*
X53068000Y-143874000D01*
G75*
G02*
X53118000Y-143924000I0J-50000D01*
G01*
X53118000Y-145374000D01*
G75*
G02*
X53068000Y-145424000I-50000J0D01*
G01*
X52618000Y-145424000D01*
G75*
G02*
X52568000Y-145374000I0J50000D01*
G01*
G37*
G36*
G01*
X53218000Y-145374000D02*
X53218000Y-143924000D01*
G75*
G02*
X53268000Y-143874000I50000J0D01*
G01*
X53718000Y-143874000D01*
G75*
G02*
X53768000Y-143924000I0J-50000D01*
G01*
X53768000Y-145374000D01*
G75*
G02*
X53718000Y-145424000I-50000J0D01*
G01*
X53268000Y-145424000D01*
G75*
G02*
X53218000Y-145374000I0J50000D01*
G01*
G37*
G36*
G01*
X53868000Y-145374000D02*
X53868000Y-143924000D01*
G75*
G02*
X53918000Y-143874000I50000J0D01*
G01*
X54368000Y-143874000D01*
G75*
G02*
X54418000Y-143924000I0J-50000D01*
G01*
X54418000Y-145374000D01*
G75*
G02*
X54368000Y-145424000I-50000J0D01*
G01*
X53918000Y-145424000D01*
G75*
G02*
X53868000Y-145374000I0J50000D01*
G01*
G37*
G36*
G01*
X54518000Y-145374000D02*
X54518000Y-143924000D01*
G75*
G02*
X54568000Y-143874000I50000J0D01*
G01*
X55018000Y-143874000D01*
G75*
G02*
X55068000Y-143924000I0J-50000D01*
G01*
X55068000Y-145374000D01*
G75*
G02*
X55018000Y-145424000I-50000J0D01*
G01*
X54568000Y-145424000D01*
G75*
G02*
X54518000Y-145374000I0J50000D01*
G01*
G37*
G36*
G01*
X55168000Y-145374000D02*
X55168000Y-143924000D01*
G75*
G02*
X55218000Y-143874000I50000J0D01*
G01*
X55668000Y-143874000D01*
G75*
G02*
X55718000Y-143924000I0J-50000D01*
G01*
X55718000Y-145374000D01*
G75*
G02*
X55668000Y-145424000I-50000J0D01*
G01*
X55218000Y-145424000D01*
G75*
G02*
X55168000Y-145374000I0J50000D01*
G01*
G37*
G36*
G01*
X55818000Y-145374000D02*
X55818000Y-143924000D01*
G75*
G02*
X55868000Y-143874000I50000J0D01*
G01*
X56318000Y-143874000D01*
G75*
G02*
X56368000Y-143924000I0J-50000D01*
G01*
X56368000Y-145374000D01*
G75*
G02*
X56318000Y-145424000I-50000J0D01*
G01*
X55868000Y-145424000D01*
G75*
G02*
X55818000Y-145374000I0J50000D01*
G01*
G37*
G36*
G01*
X56468000Y-145374000D02*
X56468000Y-143924000D01*
G75*
G02*
X56518000Y-143874000I50000J0D01*
G01*
X56968000Y-143874000D01*
G75*
G02*
X57018000Y-143924000I0J-50000D01*
G01*
X57018000Y-145374000D01*
G75*
G02*
X56968000Y-145424000I-50000J0D01*
G01*
X56518000Y-145424000D01*
G75*
G02*
X56468000Y-145374000I0J50000D01*
G01*
G37*
G36*
G01*
X57118000Y-145374000D02*
X57118000Y-143924000D01*
G75*
G02*
X57168000Y-143874000I50000J0D01*
G01*
X57618000Y-143874000D01*
G75*
G02*
X57668000Y-143924000I0J-50000D01*
G01*
X57668000Y-145374000D01*
G75*
G02*
X57618000Y-145424000I-50000J0D01*
G01*
X57168000Y-145424000D01*
G75*
G02*
X57118000Y-145374000I0J50000D01*
G01*
G37*
G36*
G01*
X57768000Y-145374000D02*
X57768000Y-143924000D01*
G75*
G02*
X57818000Y-143874000I50000J0D01*
G01*
X58268000Y-143874000D01*
G75*
G02*
X58318000Y-143924000I0J-50000D01*
G01*
X58318000Y-145374000D01*
G75*
G02*
X58268000Y-145424000I-50000J0D01*
G01*
X57818000Y-145424000D01*
G75*
G02*
X57768000Y-145374000I0J50000D01*
G01*
G37*
%TD*%
D10*
%TO.C,PAD1*%
X112985600Y-48575100D03*
D11*
X112985600Y-45950100D03*
X114841755Y-46718945D03*
X115610600Y-48575100D03*
X114841755Y-50431255D03*
X112985600Y-51200100D03*
X111129445Y-50431255D03*
X110360600Y-48575100D03*
X111129445Y-46718945D03*
%TD*%
D10*
%TO.C,PAD1*%
X208235600Y-93025100D03*
D11*
X208235600Y-90400100D03*
X210091755Y-91168945D03*
X210860600Y-93025100D03*
X210091755Y-94881255D03*
X208235600Y-95650100D03*
X206379445Y-94881255D03*
X205610600Y-93025100D03*
X206379445Y-91168945D03*
%TD*%
%TO.C,PAD1*%
X111129445Y-91168945D03*
X110360600Y-93025100D03*
X111129445Y-94881255D03*
X112985600Y-95650100D03*
X114841755Y-94881255D03*
X115610600Y-93025100D03*
X114841755Y-91168945D03*
X112985600Y-90400100D03*
D10*
X112985600Y-93025100D03*
%TD*%
%TO.C,PAD2*%
X163595100Y-118488600D03*
D11*
X163595100Y-115863600D03*
X165451255Y-116632445D03*
X166220100Y-118488600D03*
X165451255Y-120344755D03*
X163595100Y-121113600D03*
X161738945Y-120344755D03*
X160970100Y-118488600D03*
X161738945Y-116632445D03*
%TD*%
D10*
%TO.C,PAD1*%
X208235600Y-118933100D03*
D11*
X208235600Y-116308100D03*
X210091755Y-117076945D03*
X210860600Y-118933100D03*
X210091755Y-120789255D03*
X208235600Y-121558100D03*
X206379445Y-120789255D03*
X205610600Y-118933100D03*
X206379445Y-117076945D03*
%TD*%
D10*
%TO.C,PAD3*%
X163595100Y-48575100D03*
D11*
X163595100Y-45950100D03*
X165451255Y-46718945D03*
X166220100Y-48575100D03*
X165451255Y-50431255D03*
X163595100Y-51200100D03*
X161738945Y-50431255D03*
X160970100Y-48575100D03*
X161738945Y-46718945D03*
%TD*%
D10*
%TO.C,PAD4*%
X208235600Y-48575100D03*
D11*
X208235600Y-45950100D03*
X210091755Y-46718945D03*
X210860600Y-48575100D03*
X210091755Y-50431255D03*
X208235600Y-51200100D03*
X206379445Y-50431255D03*
X205610600Y-48575100D03*
X206379445Y-46718945D03*
%TD*%
D12*
%TO.C,U1*%
X72993160Y-155795960D03*
X70453160Y-155795960D03*
X67913160Y-155795960D03*
X65373160Y-155795960D03*
X62833160Y-155795960D03*
X60293160Y-155795960D03*
X57753160Y-155795960D03*
X55213160Y-155795960D03*
X52673160Y-155795960D03*
X50133160Y-155795960D03*
X47593160Y-155795960D03*
X45053160Y-155795960D03*
X45053160Y-140555960D03*
X47593160Y-140555960D03*
X50133160Y-140555960D03*
X52673160Y-140555960D03*
X55213160Y-140555960D03*
X57753160Y-140555960D03*
X60293160Y-140555960D03*
X62833160Y-140555960D03*
X65373160Y-140555960D03*
X67913160Y-140555960D03*
X70453160Y-140555960D03*
G36*
G01*
X73843160Y-139755960D02*
X73843160Y-141355960D01*
G75*
G02*
X73793160Y-141405960I-50000J0D01*
G01*
X72193160Y-141405960D01*
G75*
G02*
X72143160Y-141355960I0J50000D01*
G01*
X72143160Y-139755960D01*
G75*
G02*
X72193160Y-139705960I50000J0D01*
G01*
X73793160Y-139705960D01*
G75*
G02*
X73843160Y-139755960I0J-50000D01*
G01*
G37*
%TD*%
D13*
%TO.C,REF\u002A\u002A*%
X153543000Y-32039560D03*
%TD*%
D14*
%TO.C,REF\u002A\u002A*%
X147081240Y-26421080D03*
%TD*%
%TO.C,REF\u002A\u002A*%
X216890600Y-26614120D03*
%TD*%
%TO.C,REF\u002A\u002A*%
X60264040Y-26507440D03*
%TD*%
D13*
%TO.C,REF\u002A\u002A*%
X212344000Y-164871400D03*
%TD*%
D14*
%TO.C,REF\u002A\u002A*%
X206756000Y-169077640D03*
%TD*%
%TO.C,REF\u002A\u002A*%
X126278640Y-169214800D03*
%TD*%
%TO.C,REF\u002A\u002A*%
X47598280Y-169108840D03*
%TD*%
D13*
%TO.C,REF\u002A\u002A*%
X43848280Y-163778840D03*
%TD*%
D15*
%TO.C,FAN1*%
X218186000Y-143002000D03*
G36*
G01*
X219086000Y-144692000D02*
X219086000Y-146392000D01*
G75*
G02*
X219036000Y-146442000I-50000J0D01*
G01*
X217336000Y-146442000D01*
G75*
G02*
X217286000Y-146392000I0J50000D01*
G01*
X217286000Y-144692000D01*
G75*
G02*
X217336000Y-144642000I50000J0D01*
G01*
X219036000Y-144642000D01*
G75*
G02*
X219086000Y-144692000I0J-50000D01*
G01*
G37*
%TD*%
D16*
%TO.C,J1*%
X62857140Y-122170600D03*
X62857140Y-117970600D03*
X62857140Y-113770600D03*
X62857140Y-109570600D03*
X62857140Y-105370600D03*
X62857140Y-101170600D03*
X62857140Y-96970600D03*
X62857140Y-92770600D03*
X62857140Y-88570600D03*
X62857140Y-84370600D03*
X62857140Y-80170600D03*
X62857140Y-75970600D03*
X68357140Y-122170600D03*
X68357140Y-117970600D03*
X68357140Y-113770600D03*
X68357140Y-109570600D03*
X68357140Y-105370600D03*
X68357140Y-101170600D03*
X68357140Y-96970600D03*
X68357140Y-92770600D03*
X68357140Y-88570600D03*
X68357140Y-84370600D03*
X68357140Y-80170600D03*
X68357140Y-75970600D03*
%TD*%
D17*
%TO.C,J2*%
X44196000Y-132842000D03*
X44196000Y-64262000D03*
D18*
X49276000Y-125222000D03*
X49276000Y-122682000D03*
X49276000Y-120142000D03*
X49276000Y-117602000D03*
X49276000Y-115062000D03*
X49276000Y-112522000D03*
X49276000Y-109982000D03*
X49276000Y-107442000D03*
X49276000Y-104902000D03*
X49276000Y-102362000D03*
X49276000Y-99822000D03*
X49276000Y-97282000D03*
X49276000Y-94742000D03*
X49276000Y-92202000D03*
X49276000Y-89662000D03*
X49276000Y-87122000D03*
X49276000Y-84582000D03*
X49276000Y-82042000D03*
X49276000Y-79502000D03*
X49276000Y-76962000D03*
X49276000Y-74422000D03*
X49276000Y-71882000D03*
X46736000Y-125222000D03*
X46736000Y-122682000D03*
X46736000Y-120142000D03*
X46736000Y-117602000D03*
X46736000Y-115062000D03*
X46736000Y-112522000D03*
X46736000Y-109982000D03*
X46736000Y-107442000D03*
X46736000Y-104902000D03*
X46736000Y-102362000D03*
X46736000Y-99822000D03*
X46736000Y-97282000D03*
X46736000Y-94742000D03*
X46736000Y-92202000D03*
X46736000Y-89662000D03*
X46736000Y-87122000D03*
X46736000Y-84582000D03*
X46736000Y-82042000D03*
X46736000Y-79502000D03*
X46736000Y-76962000D03*
X46736000Y-74422000D03*
G36*
G01*
X46036000Y-72532000D02*
X46036000Y-71232000D01*
G75*
G02*
X46086000Y-71182000I50000J0D01*
G01*
X47386000Y-71182000D01*
G75*
G02*
X47436000Y-71232000I0J-50000D01*
G01*
X47436000Y-72532000D01*
G75*
G02*
X47386000Y-72582000I-50000J0D01*
G01*
X46086000Y-72582000D01*
G75*
G02*
X46036000Y-72532000I0J50000D01*
G01*
G37*
%TD*%
M02*
