%TF.GenerationSoftware,KiCad,Pcbnew,(5.1.10)-1*%
%TF.CreationDate,2023-06-15T12:59:47-05:00*%
%TF.ProjectId,FM Towns Pico Adapter,464d2054-6f77-46e7-9320-5069636f2041,rev?*%
%TF.SameCoordinates,Original*%
%TF.FileFunction,Paste,Top*%
%TF.FilePolarity,Positive*%
%FSLAX46Y46*%
G04 Gerber Fmt 4.6, Leading zero omitted, Abs format (unit mm)*
G04 Created by KiCad (PCBNEW (5.1.10)-1) date 2023-06-15 12:59:47*
%MOMM*%
%LPD*%
G01*
G04 APERTURE LIST*
%ADD10R,0.450000X1.450000*%
G04 APERTURE END LIST*
%TO.C,C2*%
G36*
G01*
X60055999Y-146950000D02*
X61356001Y-146950000D01*
G75*
G02*
X61606000Y-147199999I0J-249999D01*
G01*
X61606000Y-147850001D01*
G75*
G02*
X61356001Y-148100000I-249999J0D01*
G01*
X60055999Y-148100000D01*
G75*
G02*
X59806000Y-147850001I0J249999D01*
G01*
X59806000Y-147199999D01*
G75*
G02*
X60055999Y-146950000I249999J0D01*
G01*
G37*
G36*
G01*
X60055999Y-144000000D02*
X61356001Y-144000000D01*
G75*
G02*
X61606000Y-144249999I0J-249999D01*
G01*
X61606000Y-144900001D01*
G75*
G02*
X61356001Y-145150000I-249999J0D01*
G01*
X60055999Y-145150000D01*
G75*
G02*
X59806000Y-144900001I0J249999D01*
G01*
X59806000Y-144249999D01*
G75*
G02*
X60055999Y-144000000I249999J0D01*
G01*
G37*
%TD*%
%TO.C,C1*%
G36*
G01*
X61356001Y-150787000D02*
X60055999Y-150787000D01*
G75*
G02*
X59806000Y-150537001I0J249999D01*
G01*
X59806000Y-149886999D01*
G75*
G02*
X60055999Y-149637000I249999J0D01*
G01*
X61356001Y-149637000D01*
G75*
G02*
X61606000Y-149886999I0J-249999D01*
G01*
X61606000Y-150537001D01*
G75*
G02*
X61356001Y-150787000I-249999J0D01*
G01*
G37*
G36*
G01*
X61356001Y-153737000D02*
X60055999Y-153737000D01*
G75*
G02*
X59806000Y-153487001I0J249999D01*
G01*
X59806000Y-152836999D01*
G75*
G02*
X60055999Y-152587000I249999J0D01*
G01*
X61356001Y-152587000D01*
G75*
G02*
X61606000Y-152836999I0J-249999D01*
G01*
X61606000Y-153487001D01*
G75*
G02*
X61356001Y-153737000I-249999J0D01*
G01*
G37*
%TD*%
D10*
%TO.C,GP1*%
X58043000Y-150499000D03*
X57393000Y-150499000D03*
X56743000Y-150499000D03*
X56093000Y-150499000D03*
X55443000Y-150499000D03*
X54793000Y-150499000D03*
X54143000Y-150499000D03*
X53493000Y-150499000D03*
X52843000Y-150499000D03*
X52193000Y-150499000D03*
X52193000Y-144649000D03*
X52843000Y-144649000D03*
X53493000Y-144649000D03*
X54143000Y-144649000D03*
X54793000Y-144649000D03*
X55443000Y-144649000D03*
X56093000Y-144649000D03*
X56743000Y-144649000D03*
X57393000Y-144649000D03*
X58043000Y-144649000D03*
%TD*%
M02*
