M48
; DRILL file {KiCad (5.1.10)-1} date 06/15/23 12:59:49
; FORMAT={-:-/ absolute / inch / decimal}
; #@! TF.CreationDate,2023-06-15T12:59:49-05:00
; #@! TF.GenerationSoftware,Kicad,Pcbnew,(5.1.10)-1
; #@! TF.FileFunction,Plated,1,2,PTH
FMAT,2
INCH
T1C0.0157
T2C0.0197
T3C0.0315
T4C0.0394
T5C0.0433
T6C0.0709
T7C0.1102
T8C0.1378
%
G90
G05
T1
X2.06Y-5.63
X2.1952Y-4.3342
X2.46Y-5.69
X2.46Y-6.03
T2
X4.3449Y-1.9124
X4.3449Y-3.6624
X4.3752Y-1.8393
X4.3752Y-1.9855
X4.3752Y-3.5893
X4.3752Y-3.7355
X4.4483Y-1.8091
X4.4483Y-2.0158
X4.4483Y-3.5591
X4.4483Y-3.7658
X4.5213Y-1.8393
X4.5213Y-1.9855
X4.5213Y-3.5893
X4.5213Y-3.7355
X4.5516Y-1.9124
X4.5516Y-3.6624
X6.3374Y-1.9124
X6.3374Y-4.6649
X6.3677Y-1.8393
X6.3677Y-1.9855
X6.3677Y-4.5918
X6.3677Y-4.738
X6.4408Y-1.8091
X6.4408Y-2.0158
X6.4408Y-4.5616
X6.4408Y-4.7683
X6.5138Y-1.8393
X6.5138Y-1.9855
X6.5138Y-4.5918
X6.5138Y-4.738
X6.5441Y-1.9124
X6.5441Y-4.6649
X8.0949Y-1.9124
X8.0949Y-3.6624
X8.0949Y-4.6824
X8.1252Y-1.8393
X8.1252Y-1.9855
X8.1252Y-3.5893
X8.1252Y-3.7355
X8.1252Y-4.6093
X8.1252Y-4.7555
X8.1983Y-1.8091
X8.1983Y-2.0158
X8.1983Y-3.5591
X8.1983Y-3.7658
X8.1983Y-4.5791
X8.1983Y-4.7858
X8.2713Y-1.8393
X8.2713Y-1.9855
X8.2713Y-3.5893
X8.2713Y-3.7355
X8.2713Y-4.6093
X8.2713Y-4.7555
X8.3016Y-1.9124
X8.3016Y-3.6624
X8.3016Y-4.6824
T3
X1.84Y-2.83
X1.84Y-2.93
X1.84Y-3.03
X1.84Y-3.13
X1.84Y-3.23
X1.84Y-3.33
X1.84Y-3.43
X1.84Y-3.53
X1.84Y-3.63
X1.84Y-3.73
X1.84Y-3.83
X1.84Y-3.93
X1.84Y-4.03
X1.84Y-4.13
X1.84Y-4.23
X1.84Y-4.33
X1.84Y-4.43
X1.84Y-4.53
X1.84Y-4.63
X1.84Y-4.73
X1.84Y-4.83
X1.84Y-4.93
X1.94Y-2.83
X1.94Y-2.93
X1.94Y-3.03
X1.94Y-3.13
X1.94Y-3.23
X1.94Y-3.33
X1.94Y-3.43
X1.94Y-3.53
X1.94Y-3.63
X1.94Y-3.73
X1.94Y-3.83
X1.94Y-3.93
X1.94Y-4.03
X1.94Y-4.13
X1.94Y-4.23
X1.94Y-4.33
X1.94Y-4.43
X1.94Y-4.53
X1.94Y-4.63
X1.94Y-4.73
X1.94Y-4.83
X1.94Y-4.93
T4
X8.59Y-5.63
X8.59Y-5.73
T5
X1.7737Y-5.5337
X1.7737Y-6.1337
X1.8737Y-5.5337
X1.8737Y-6.1337
X1.9737Y-5.5337
X1.9737Y-6.1337
X2.0737Y-5.5337
X2.0737Y-6.1337
X2.1737Y-5.5337
X2.1737Y-6.1337
X2.2737Y-5.5337
X2.2737Y-6.1337
X2.3737Y-5.5337
X2.3737Y-6.1337
X2.4737Y-5.5337
X2.4737Y-6.1337
X2.5737Y-5.5337
X2.5737Y-6.1337
X2.6737Y-5.5337
X2.6737Y-6.1337
X2.7737Y-5.5337
X2.7737Y-6.1337
X2.8737Y-5.5337
X2.8737Y-6.1337
T6
X2.4747Y-2.991
X2.4747Y-3.1563
X2.4747Y-3.3217
X2.4747Y-3.487
X2.4747Y-3.6524
X2.4747Y-3.8177
X2.4747Y-3.9831
X2.4747Y-4.1484
X2.4747Y-4.3138
X2.4747Y-4.4792
X2.4747Y-4.6445
X2.4747Y-4.8099
X2.6912Y-2.991
X2.6912Y-3.1563
X2.6912Y-3.3217
X2.6912Y-3.487
X2.6912Y-3.6524
X2.6912Y-3.8177
X2.6912Y-3.9831
X2.6912Y-4.1484
X2.6912Y-4.3138
X2.6912Y-4.4792
X2.6912Y-4.6445
X2.6912Y-4.8099
T7
X1.74Y-2.53
X1.74Y-5.23
T8
X4.4483Y-1.9124
X4.4483Y-3.6624
X6.4408Y-1.9124
X6.4408Y-4.6649
X8.1983Y-1.9124
X8.1983Y-3.6624
X8.1983Y-4.6824
T0
M30
